<?xml version="1.0" encoding="UTF-8"?>
<svg xmlns="http://www.w3.org/2000/svg" xmlns:xlink="http://www.w3.org/1999/xlink" width="288" height="85" viewBox="0 0 288 85">
<path fill-rule="nonzero" fill="rgb(34.902%, 42.7451%, 0%)" fill-opacity="0.5" d="M 288 83.042969 L 287.992188 83.195312 L 287.972656 83.351562 L 287.941406 83.5 L 287.894531 83.648438 L 287.835938 83.789062 L 287.761719 83.925781 L 287.679688 84.054688 L 287.585938 84.179688 L 287.484375 84.292969 L 287.367188 84.394531 L 287.246094 84.492188 L 287.117188 84.574219 L 286.980469 84.644531 L 286.835938 84.703125 L 286.691406 84.75 L 286.539062 84.78125 L 286.386719 84.804688 L 286.234375 84.808594 L 280.933594 84.808594 L 280.777344 84.804688 L 280.625 84.78125 L 280.476562 84.75 L 280.328125 84.703125 L 280.1875 84.644531 L 280.050781 84.574219 L 279.917969 84.492188 L 279.796875 84.394531 L 279.683594 84.292969 L 279.578125 84.179688 L 279.484375 84.054688 L 279.402344 83.925781 L 279.332031 83.789062 L 279.273438 83.648438 L 279.226562 83.5 L 279.191406 83.351562 L 279.171875 83.195312 L 279.164062 83.042969 L 279.164062 72.441406 L 279.160156 72.289062 L 279.140625 72.136719 L 279.105469 71.984375 L 279.058594 71.835938 L 279 71.695312 L 278.929688 71.558594 L 278.847656 71.429688 L 278.753906 71.304688 L 278.648438 71.191406 L 278.535156 71.089844 L 278.414062 70.996094 L 278.28125 70.910156 L 278.144531 70.839844 L 278.003906 70.78125 L 277.855469 70.734375 L 277.707031 70.703125 L 277.554688 70.679688 L 277.398438 70.675781 L 15.902344 70.675781 L 15.746094 70.667969 L 15.59375 70.648438 L 15.445312 70.613281 L 15.296875 70.566406 L 15.15625 70.507812 L 15.019531 70.4375 L 14.886719 70.355469 L 14.765625 70.261719 L 14.652344 70.15625 L 14.546875 70.042969 L 14.453125 69.921875 L 14.371094 69.792969 L 14.300781 69.65625 L 14.242188 69.511719 L 14.195312 69.367188 L 14.160156 69.214844 L 14.140625 69.0625 L 14.136719 68.90625 L 14.136719 63.605469 L 14.140625 63.453125 L 14.160156 63.300781 L 14.195312 63.148438 L 14.242188 63.003906 L 14.300781 62.859375 L 14.371094 62.722656 L 14.453125 62.59375 L 14.546875 62.472656 L 14.652344 62.359375 L 14.765625 62.253906 L 14.886719 62.160156 L 15.019531 62.078125 L 15.15625 62.007812 L 15.296875 61.945312 L 15.445312 61.902344 L 15.59375 61.867188 L 15.746094 61.847656 L 15.902344 61.839844 L 277.398438 61.839844 L 277.554688 61.832031 L 277.707031 61.8125 L 277.855469 61.78125 L 278.003906 61.734375 L 278.144531 61.675781 L 278.28125 61.605469 L 278.414062 61.519531 L 278.535156 61.425781 L 278.648438 61.324219 L 278.753906 61.210938 L 278.847656 61.085938 L 278.929688 60.957031 L 279 60.820312 L 279.058594 60.679688 L 279.105469 60.53125 L 279.140625 60.378906 L 279.160156 60.226562 L 279.164062 60.074219 L 279.164062 44.171875 L 279.160156 44.019531 L 279.140625 43.863281 L 279.105469 43.714844 L 279.058594 43.566406 L 279 43.425781 L 278.929688 43.289062 L 278.847656 43.160156 L 278.753906 43.035156 L 278.648438 42.921875 L 278.535156 42.816406 L 278.414062 42.722656 L 278.28125 42.640625 L 278.144531 42.570312 L 278.003906 42.511719 L 277.855469 42.464844 L 277.707031 42.433594 L 277.554688 42.410156 L 277.398438 42.40625 L 15.902344 42.40625 L 15.746094 42.398438 L 15.59375 42.378906 L 15.445312 42.34375 L 15.296875 42.296875 L 15.15625 42.238281 L 15.019531 42.167969 L 14.886719 42.085938 L 14.765625 41.992188 L 14.652344 41.886719 L 14.546875 41.773438 L 14.453125 41.652344 L 14.371094 41.519531 L 14.300781 41.382812 L 14.242188 41.242188 L 14.195312 41.09375 L 14.160156 40.945312 L 14.140625 40.792969 L 14.136719 40.636719 L 14.136719 35.335938 L 14.140625 35.183594 L 14.160156 35.03125 L 14.195312 34.878906 L 14.242188 34.734375 L 14.300781 34.589844 L 14.371094 34.453125 L 14.453125 34.324219 L 14.546875 34.203125 L 14.652344 34.089844 L 14.765625 33.984375 L 14.886719 33.890625 L 15.019531 33.808594 L 15.15625 33.734375 L 15.296875 33.675781 L 15.445312 33.628906 L 15.59375 33.597656 L 15.746094 33.578125 L 15.902344 33.570312 L 277.398438 33.570312 L 277.554688 33.5625 L 277.707031 33.542969 L 277.855469 33.511719 L 278.003906 33.464844 L 278.144531 33.40625 L 278.28125 33.332031 L 278.414062 33.25 L 278.535156 33.15625 L 278.648438 33.054688 L 278.753906 32.9375 L 278.847656 32.816406 L 278.929688 32.6875 L 279 32.550781 L 279.058594 32.40625 L 279.105469 32.261719 L 279.140625 32.109375 L 279.160156 31.957031 L 279.164062 31.804688 L 279.164062 15.902344 L 279.160156 15.746094 L 279.140625 15.59375 L 279.105469 15.445312 L 279.058594 15.296875 L 279 15.15625 L 278.929688 15.019531 L 278.847656 14.886719 L 278.753906 14.765625 L 278.648438 14.652344 L 278.535156 14.546875 L 278.414062 14.453125 L 278.28125 14.371094 L 278.144531 14.300781 L 278.003906 14.242188 L 277.855469 14.195312 L 277.707031 14.160156 L 277.554688 14.140625 L 277.398438 14.136719 L 15.902344 14.136719 L 15.746094 14.128906 L 15.59375 14.109375 L 15.445312 14.074219 L 15.296875 14.027344 L 15.15625 13.96875 L 15.019531 13.898438 L 14.886719 13.816406 L 14.765625 13.722656 L 14.652344 13.617188 L 14.546875 13.503906 L 14.453125 13.382812 L 14.371094 13.25 L 14.300781 13.113281 L 14.242188 12.972656 L 14.195312 12.824219 L 14.160156 12.675781 L 14.140625 12.523438 L 14.136719 12.367188 L 14.136719 7.066406 L 14.140625 6.914062 L 14.160156 6.761719 L 14.195312 6.609375 L 14.242188 6.464844 L 14.300781 6.320312 L 14.371094 6.183594 L 14.453125 6.054688 L 14.546875 5.933594 L 14.652344 5.816406 L 14.765625 5.714844 L 14.886719 5.621094 L 15.019531 5.539062 L 15.15625 5.464844 L 15.296875 5.40625 L 15.445312 5.359375 L 15.59375 5.328125 L 15.746094 5.308594 L 15.902344 5.300781 L 277.398438 5.300781 L 277.554688 5.292969 L 277.707031 5.273438 L 277.855469 5.242188 L 278.003906 5.195312 L 278.144531 5.136719 L 278.28125 5.0625 L 278.414062 4.980469 L 278.535156 4.886719 L 278.648438 4.78125 L 278.753906 4.667969 L 278.847656 4.546875 L 278.929688 4.417969 L 279 4.28125 L 279.058594 4.136719 L 279.105469 3.992188 L 279.140625 3.839844 L 279.160156 3.6875 L 279.164062 3.535156 L 279.164062 1.765625 L 279.171875 1.613281 L 279.191406 1.460938 L 279.226562 1.308594 L 279.273438 1.164062 L 279.332031 1.019531 L 279.402344 0.882812 L 279.484375 0.753906 L 279.578125 0.632812 L 279.683594 0.515625 L 279.796875 0.414062 L 279.917969 0.320312 L 280.050781 0.238281 L 280.1875 0.164062 L 280.328125 0.105469 L 280.476562 0.0585938 L 280.625 0.0273438 L 280.777344 0.0078125 L 280.933594 0 L 286.234375 0 L 286.386719 0.0078125 L 286.539062 0.0273438 L 286.691406 0.0585938 L 286.835938 0.105469 L 286.980469 0.164062 L 287.117188 0.238281 L 287.246094 0.320312 L 287.367188 0.414062 L 287.484375 0.515625 L 287.585938 0.632812 L 287.679688 0.753906 L 287.761719 0.882812 L 287.835938 1.019531 L 287.894531 1.164062 L 287.941406 1.308594 L 287.972656 1.460938 L 287.992188 1.613281 L 288 1.765625 Z M 10.601562 56.539062 L 10.445312 56.546875 L 10.292969 56.566406 L 10.144531 56.601562 L 9.996094 56.644531 L 9.855469 56.707031 L 9.71875 56.777344 L 9.585938 56.859375 L 9.464844 56.953125 L 9.351562 57.058594 L 9.246094 57.171875 L 9.152344 57.292969 L 9.070312 57.421875 L 9 57.558594 L 8.941406 57.703125 L 8.894531 57.847656 L 8.859375 58 L 8.839844 58.152344 L 8.835938 58.308594 L 8.835938 74.207031 L 8.839844 74.363281 L 8.859375 74.515625 L 8.894531 74.664062 L 8.941406 74.8125 L 9 74.957031 L 9.070312 75.09375 L 9.152344 75.222656 L 9.246094 75.34375 L 9.351562 75.457031 L 9.464844 75.5625 L 9.585938 75.65625 L 9.71875 75.738281 L 9.855469 75.808594 L 9.996094 75.867188 L 10.144531 75.914062 L 10.292969 75.949219 L 10.445312 75.96875 L 10.601562 75.976562 L 272.097656 75.976562 L 272.253906 75.980469 L 272.40625 76.003906 L 272.554688 76.035156 L 272.703125 76.082031 L 272.84375 76.140625 L 272.980469 76.210938 L 273.113281 76.296875 L 273.234375 76.390625 L 273.347656 76.492188 L 273.453125 76.605469 L 273.546875 76.730469 L 273.628906 76.859375 L 273.699219 76.996094 L 273.757812 77.136719 L 273.804688 77.285156 L 273.839844 77.433594 L 273.859375 77.589844 L 273.863281 77.742188 L 273.863281 83.042969 L 273.859375 83.195312 L 273.839844 83.351562 L 273.804688 83.5 L 273.757812 83.648438 L 273.699219 83.789062 L 273.628906 83.925781 L 273.546875 84.054688 L 273.453125 84.179688 L 273.347656 84.292969 L 273.234375 84.394531 L 273.113281 84.492188 L 272.980469 84.574219 L 272.84375 84.644531 L 272.703125 84.703125 L 272.554688 84.75 L 272.40625 84.78125 L 272.253906 84.804688 L 272.097656 84.808594 L 1.765625 84.808594 L 1.613281 84.804688 L 1.460938 84.78125 L 1.308594 84.75 L 1.164062 84.703125 L 1.019531 84.644531 L 0.882812 84.574219 L 0.753906 84.492188 L 0.632812 84.394531 L 0.515625 84.292969 L 0.414062 84.179688 L 0.320312 84.054688 L 0.238281 83.925781 L 0.164062 83.789062 L 0.105469 83.648438 L 0.0585938 83.5 L 0.0273438 83.351562 L 0.0078125 83.195312 L 0 83.042969 L 0 1.765625 L 0.0078125 1.613281 L 0.0273438 1.460938 L 0.0585938 1.308594 L 0.105469 1.164062 L 0.164062 1.019531 L 0.238281 0.882812 L 0.320312 0.753906 L 0.414062 0.632812 L 0.515625 0.515625 L 0.632812 0.414062 L 0.753906 0.320312 L 0.882812 0.238281 L 1.019531 0.164062 L 1.164062 0.105469 L 1.308594 0.0585938 L 1.460938 0.0273438 L 1.613281 0.0078125 L 1.765625 0 L 7.066406 0 L 7.222656 0.0078125 L 7.375 0.0273438 L 7.523438 0.0585938 L 7.671875 0.105469 L 7.8125 0.164062 L 7.949219 0.238281 L 8.082031 0.320312 L 8.203125 0.414062 L 8.316406 0.515625 L 8.421875 0.632812 L 8.515625 0.753906 L 8.597656 0.882812 L 8.667969 1.019531 L 8.726562 1.164062 L 8.773438 1.308594 L 8.808594 1.460938 L 8.828125 1.613281 L 8.835938 1.765625 L 8.835938 17.667969 L 8.839844 17.824219 L 8.859375 17.976562 L 8.894531 18.125 L 8.941406 18.273438 L 9 18.414062 L 9.070312 18.550781 L 9.152344 18.683594 L 9.246094 18.804688 L 9.351562 18.917969 L 9.464844 19.023438 L 9.585938 19.117188 L 9.71875 19.199219 L 9.855469 19.269531 L 9.996094 19.328125 L 10.144531 19.375 L 10.292969 19.410156 L 10.445312 19.429688 L 10.601562 19.4375 L 272.097656 19.4375 L 272.253906 19.441406 L 272.40625 19.460938 L 272.554688 19.496094 L 272.703125 19.542969 L 272.84375 19.601562 L 272.980469 19.671875 L 273.113281 19.753906 L 273.234375 19.847656 L 273.347656 19.953125 L 273.453125 20.066406 L 273.546875 20.1875 L 273.628906 20.320312 L 273.699219 20.457031 L 273.757812 20.597656 L 273.804688 20.746094 L 273.839844 20.894531 L 273.859375 21.046875 L 273.863281 21.203125 L 273.863281 26.503906 L 273.859375 26.65625 L 273.839844 26.808594 L 273.804688 26.960938 L 273.757812 27.105469 L 273.699219 27.25 L 273.628906 27.386719 L 273.546875 27.515625 L 273.453125 27.640625 L 273.347656 27.753906 L 273.234375 27.855469 L 273.113281 27.949219 L 272.980469 28.035156 L 272.84375 28.105469 L 272.703125 28.164062 L 272.554688 28.210938 L 272.40625 28.242188 L 272.253906 28.261719 L 272.097656 28.269531 L 10.601562 28.269531 L 10.445312 28.277344 L 10.292969 28.296875 L 10.144531 28.332031 L 9.996094 28.375 L 9.855469 28.433594 L 9.71875 28.507812 L 9.585938 28.589844 L 9.464844 28.683594 L 9.351562 28.789062 L 9.246094 28.902344 L 9.152344 29.023438 L 9.070312 29.152344 L 9 29.289062 L 8.941406 29.433594 L 8.894531 29.578125 L 8.859375 29.730469 L 8.839844 29.882812 L 8.835938 30.035156 L 8.835938 45.9375 L 8.839844 46.09375 L 8.859375 46.246094 L 8.894531 46.394531 L 8.941406 46.542969 L 9 46.683594 L 9.070312 46.820312 L 9.152344 46.953125 L 9.246094 47.074219 L 9.351562 47.1875 L 9.464844 47.292969 L 9.585938 47.386719 L 9.71875 47.46875 L 9.855469 47.539062 L 9.996094 47.597656 L 10.144531 47.644531 L 10.292969 47.679688 L 10.445312 47.699219 L 10.601562 47.707031 L 272.097656 47.707031 L 272.253906 47.710938 L 272.40625 47.730469 L 272.554688 47.765625 L 272.703125 47.8125 L 272.84375 47.871094 L 272.980469 47.941406 L 273.113281 48.023438 L 273.234375 48.117188 L 273.347656 48.222656 L 273.453125 48.335938 L 273.546875 48.457031 L 273.628906 48.589844 L 273.699219 48.726562 L 273.757812 48.867188 L 273.804688 49.015625 L 273.839844 49.164062 L 273.859375 49.320312 L 273.863281 49.472656 L 273.863281 54.773438 L 273.859375 54.925781 L 273.839844 55.078125 L 273.804688 55.230469 L 273.757812 55.378906 L 273.699219 55.519531 L 273.628906 55.65625 L 273.546875 55.785156 L 273.453125 55.910156 L 273.347656 56.023438 L 273.234375 56.125 L 273.113281 56.21875 L 272.980469 56.304688 L 272.84375 56.375 L 272.703125 56.433594 L 272.554688 56.480469 L 272.40625 56.511719 L 272.253906 56.53125 L 272.097656 56.539062 Z M 10.601562 56.539062 "/>
</svg>
