<?xml version="1.0" encoding="UTF-8"?>
<svg xmlns="http://www.w3.org/2000/svg" xmlns:xlink="http://www.w3.org/1999/xlink" width="432" height="72" viewBox="0 0 432 72">
<path fill-rule="nonzero" fill="rgb(84.3137%, 0%, 0%)" fill-opacity="0.5" d="M 422.480469 51.253906 L 422.558594 51.253906 L 422.636719 51.25 L 422.714844 51.242188 L 422.871094 51.21875 L 422.949219 51.203125 L 423.023438 51.1875 L 423.101562 51.164062 L 423.25 51.117188 L 423.320312 51.085938 L 423.394531 51.054688 L 423.464844 51.023438 L 423.535156 50.984375 L 423.667969 50.90625 L 423.734375 50.863281 L 423.859375 50.769531 L 423.917969 50.71875 L 424.035156 50.609375 L 424.089844 50.554688 L 424.191406 50.4375 L 424.238281 50.375 L 424.285156 50.308594 L 424.328125 50.246094 L 424.371094 50.179688 L 424.410156 50.109375 L 424.480469 49.96875 L 424.511719 49.898438 L 424.566406 49.75 L 424.589844 49.675781 L 424.609375 49.601562 L 424.628906 49.523438 L 424.644531 49.449219 L 424.65625 49.371094 L 424.671875 49.214844 L 424.679688 49.058594 L 424.679688 46.128906 L 424.671875 45.972656 L 424.65625 45.816406 L 424.644531 45.738281 L 424.628906 45.660156 L 424.589844 45.511719 L 424.566406 45.433594 L 424.539062 45.359375 L 424.511719 45.289062 L 424.480469 45.214844 L 424.410156 45.074219 L 424.371094 45.007812 L 424.285156 44.875 L 424.191406 44.75 L 424.089844 44.632812 L 424.035156 44.574219 L 423.976562 44.519531 L 423.859375 44.417969 L 423.734375 44.324219 L 423.601562 44.238281 L 423.535156 44.199219 L 423.394531 44.128906 L 423.320312 44.097656 L 423.25 44.070312 L 423.175781 44.042969 L 423.101562 44.019531 L 423.023438 44 L 422.949219 43.980469 L 422.871094 43.96875 L 422.792969 43.953125 L 422.636719 43.9375 L 422.558594 43.933594 L 404.910156 43.933594 L 404.828125 43.929688 L 404.75 43.925781 L 404.671875 43.917969 L 404.597656 43.910156 L 404.519531 43.898438 L 404.441406 43.882812 L 404.367188 43.863281 L 404.289062 43.84375 L 404.214844 43.820312 L 404.066406 43.765625 L 403.996094 43.734375 L 403.855469 43.664062 L 403.789062 43.625 L 403.65625 43.539062 L 403.53125 43.445312 L 403.46875 43.394531 L 403.410156 43.34375 L 403.355469 43.289062 L 403.300781 43.230469 L 403.25 43.175781 L 403.148438 43.050781 L 403.105469 42.988281 L 403.019531 42.855469 L 402.980469 42.789062 L 402.910156 42.648438 L 402.878906 42.578125 L 402.824219 42.429688 L 402.800781 42.355469 L 402.78125 42.277344 L 402.761719 42.203125 L 402.746094 42.125 L 402.722656 41.96875 L 402.710938 41.734375 L 402.710938 38.808594 L 402.714844 38.726562 L 402.722656 38.570312 L 402.734375 38.496094 L 402.746094 38.417969 L 402.761719 38.339844 L 402.78125 38.261719 L 402.800781 38.1875 L 402.824219 38.113281 L 402.878906 37.964844 L 402.910156 37.894531 L 402.980469 37.753906 L 403.019531 37.6875 L 403.105469 37.554688 L 403.148438 37.492188 L 403.25 37.367188 L 403.300781 37.308594 L 403.410156 37.199219 L 403.46875 37.148438 L 403.59375 37.046875 L 403.65625 37.003906 L 403.722656 36.957031 L 403.855469 36.878906 L 403.996094 36.808594 L 404.066406 36.777344 L 404.214844 36.722656 L 404.289062 36.699219 L 404.367188 36.679688 L 404.441406 36.660156 L 404.519531 36.644531 L 404.597656 36.632812 L 404.671875 36.621094 L 404.828125 36.613281 L 404.910156 36.609375 L 404.910156 29.289062 L 404.828125 29.285156 L 404.671875 29.277344 L 404.597656 29.265625 L 404.519531 29.253906 L 404.441406 29.238281 L 404.367188 29.21875 L 404.289062 29.199219 L 404.214844 29.175781 L 404.066406 29.121094 L 403.996094 29.089844 L 403.855469 29.019531 L 403.789062 28.980469 L 403.65625 28.894531 L 403.59375 28.851562 L 403.46875 28.75 L 403.410156 28.699219 L 403.300781 28.589844 L 403.25 28.53125 L 403.148438 28.40625 L 403.105469 28.34375 L 403.019531 28.210938 L 402.980469 28.144531 L 402.910156 28.003906 L 402.878906 27.933594 L 402.824219 27.785156 L 402.800781 27.710938 L 402.78125 27.632812 L 402.761719 27.558594 L 402.746094 27.480469 L 402.734375 27.402344 L 402.722656 27.328125 L 402.714844 27.171875 L 402.710938 27.089844 L 402.710938 24.164062 L 402.722656 23.929688 L 402.746094 23.773438 L 402.761719 23.695312 L 402.78125 23.621094 L 402.800781 23.542969 L 402.824219 23.46875 L 402.878906 23.320312 L 402.910156 23.25 L 402.980469 23.109375 L 403.019531 23.042969 L 403.105469 22.910156 L 403.148438 22.847656 L 403.25 22.722656 L 403.300781 22.664062 L 403.410156 22.554688 L 403.46875 22.503906 L 403.59375 22.402344 L 403.65625 22.359375 L 403.789062 22.273438 L 403.855469 22.234375 L 403.996094 22.164062 L 404.066406 22.132812 L 404.214844 22.078125 L 404.289062 22.054688 L 404.367188 22.035156 L 404.441406 22.015625 L 404.519531 22 L 404.597656 21.988281 L 404.671875 21.980469 L 404.75 21.972656 L 404.828125 21.96875 L 404.910156 21.964844 L 422.480469 21.964844 L 422.636719 21.972656 L 422.792969 21.988281 L 422.871094 22 L 422.949219 22.015625 L 423.023438 22.035156 L 423.101562 22.054688 L 423.175781 22.078125 L 423.25 22.105469 L 423.320312 22.132812 L 423.394531 22.164062 L 423.535156 22.234375 L 423.601562 22.273438 L 423.734375 22.359375 L 423.796875 22.402344 L 423.859375 22.453125 L 423.976562 22.554688 L 424.035156 22.609375 L 424.089844 22.664062 L 424.140625 22.722656 L 424.191406 22.785156 L 424.285156 22.910156 L 424.371094 23.042969 L 424.410156 23.109375 L 424.480469 23.25 L 424.511719 23.320312 L 424.566406 23.46875 L 424.589844 23.542969 L 424.609375 23.621094 L 424.628906 23.695312 L 424.644531 23.773438 L 424.65625 23.851562 L 424.671875 24.007812 L 424.679688 24.164062 L 424.679688 27.089844 L 424.675781 27.171875 L 424.671875 27.25 L 424.664062 27.328125 L 424.65625 27.402344 L 424.644531 27.480469 L 424.628906 27.558594 L 424.609375 27.632812 L 424.589844 27.710938 L 424.566406 27.785156 L 424.511719 27.933594 L 424.480469 28.003906 L 424.410156 28.144531 L 424.371094 28.210938 L 424.285156 28.34375 L 424.191406 28.46875 L 424.140625 28.53125 L 424.089844 28.589844 L 424.035156 28.644531 L 423.976562 28.699219 L 423.859375 28.800781 L 423.796875 28.851562 L 423.734375 28.894531 L 423.601562 28.980469 L 423.535156 29.019531 L 423.394531 29.089844 L 423.320312 29.121094 L 423.25 29.148438 L 423.175781 29.175781 L 423.101562 29.199219 L 423.023438 29.21875 L 422.949219 29.238281 L 422.871094 29.253906 L 422.714844 29.277344 L 422.480469 29.289062 L 404.910156 29.289062 L 404.910156 36.609375 L 429.882812 36.609375 L 429.960938 36.605469 L 430.039062 36.597656 L 430.195312 36.574219 L 430.269531 36.558594 L 430.347656 36.542969 L 430.570312 36.472656 L 430.644531 36.441406 L 430.785156 36.378906 L 430.925781 36.300781 L 430.992188 36.261719 L 431.054688 36.21875 L 431.121094 36.171875 L 431.183594 36.125 L 431.242188 36.074219 L 431.300781 36.019531 L 431.355469 35.96875 L 431.464844 35.851562 L 431.515625 35.792969 L 431.609375 35.667969 L 431.652344 35.601562 L 431.691406 35.535156 L 431.730469 35.464844 L 431.769531 35.398438 L 431.800781 35.324219 L 431.832031 35.253906 L 431.863281 35.179688 L 431.933594 34.957031 L 431.949219 34.878906 L 431.964844 34.804688 L 431.988281 34.648438 L 431.996094 34.570312 L 432 34.492188 L 432 22.796875 L 431.996094 22.71875 L 431.988281 22.640625 L 431.964844 22.484375 L 431.949219 22.410156 L 431.933594 22.332031 L 431.863281 22.109375 L 431.832031 22.035156 L 431.769531 21.894531 L 431.691406 21.753906 L 431.652344 21.6875 L 431.609375 21.625 L 431.5625 21.558594 L 431.515625 21.496094 L 431.464844 21.4375 L 431.410156 21.378906 L 425.265625 15.234375 L 425.207031 15.179688 L 425.144531 15.128906 L 425.085938 15.082031 L 425.019531 15.035156 L 424.957031 14.992188 L 424.890625 14.953125 L 424.75 14.875 L 424.609375 14.8125 L 424.535156 14.78125 L 424.3125 14.710938 L 424.15625 14.679688 L 424.082031 14.667969 L 424.003906 14.65625 L 423.925781 14.648438 L 423.847656 14.644531 L 403.542969 14.644531 L 403.464844 14.648438 L 403.386719 14.65625 L 403.230469 14.679688 L 403.15625 14.695312 L 403.078125 14.710938 L 402.855469 14.78125 L 402.78125 14.8125 L 402.710938 14.84375 L 402.636719 14.875 L 402.570312 14.914062 L 402.5 14.953125 L 402.433594 14.992188 L 402.367188 15.035156 L 402.242188 15.128906 L 402.183594 15.179688 L 402.125 15.234375 L 402.070312 15.289062 L 396.03125 21.324219 L 395.980469 21.378906 L 395.925781 21.4375 L 395.875 21.496094 L 395.828125 21.558594 L 395.78125 21.625 L 395.738281 21.6875 L 395.699219 21.753906 L 395.621094 21.894531 L 395.558594 22.035156 L 395.527344 22.109375 L 395.457031 22.332031 L 395.441406 22.410156 L 395.425781 22.484375 L 395.402344 22.640625 L 395.394531 22.71875 L 395.390625 22.796875 L 395.390625 43.101562 L 395.394531 43.179688 L 395.402344 43.257812 L 395.425781 43.414062 L 395.441406 43.488281 L 395.457031 43.566406 L 395.527344 43.789062 L 395.558594 43.863281 L 395.621094 44.003906 L 395.699219 44.144531 L 395.738281 44.210938 L 395.78125 44.273438 L 395.828125 44.339844 L 395.875 44.402344 L 395.925781 44.460938 L 395.980469 44.519531 L 396.03125 44.574219 L 402.070312 50.609375 L 402.125 50.664062 L 402.183594 50.71875 L 402.242188 50.769531 L 402.367188 50.863281 L 402.433594 50.90625 L 402.5 50.945312 L 402.570312 50.984375 L 402.636719 51.023438 L 402.710938 51.054688 L 402.78125 51.085938 L 402.855469 51.117188 L 403.078125 51.1875 L 403.15625 51.203125 L 403.230469 51.21875 L 403.386719 51.242188 L 403.464844 51.25 L 403.542969 51.253906 Z M 351.457031 49.058594 L 351.46875 49.292969 L 351.492188 49.449219 L 351.507812 49.523438 L 351.527344 49.601562 L 351.546875 49.675781 L 351.570312 49.75 L 351.625 49.898438 L 351.65625 49.96875 L 351.726562 50.109375 L 351.765625 50.179688 L 351.804688 50.246094 L 351.851562 50.308594 L 351.894531 50.375 L 351.945312 50.4375 L 352.046875 50.554688 L 352.15625 50.664062 L 352.214844 50.71875 L 352.277344 50.769531 L 352.335938 50.816406 L 352.402344 50.863281 L 352.464844 50.90625 L 352.535156 50.945312 L 352.601562 50.984375 L 352.671875 51.023438 L 352.8125 51.085938 L 352.886719 51.117188 L 353.109375 51.1875 L 353.265625 51.21875 L 353.339844 51.230469 L 353.417969 51.242188 L 353.496094 51.25 L 353.574219 51.253906 L 385.949219 51.253906 L 386.027344 51.25 L 386.105469 51.242188 L 386.261719 51.21875 L 386.339844 51.203125 L 386.414062 51.1875 L 386.488281 51.164062 L 386.566406 51.140625 L 386.640625 51.117188 L 386.710938 51.085938 L 386.785156 51.054688 L 386.855469 51.023438 L 386.925781 50.984375 L 387.058594 50.90625 L 387.125 50.863281 L 387.25 50.769531 L 387.308594 50.71875 L 387.425781 50.609375 L 387.480469 50.554688 L 387.582031 50.4375 L 387.628906 50.375 L 387.675781 50.308594 L 387.71875 50.246094 L 387.761719 50.179688 L 387.800781 50.109375 L 387.871094 49.96875 L 387.902344 49.898438 L 387.957031 49.75 L 387.980469 49.675781 L 388 49.601562 L 388.019531 49.523438 L 388.03125 49.449219 L 388.046875 49.371094 L 388.0625 49.214844 L 388.066406 49.136719 L 388.066406 46.050781 L 388.0625 45.972656 L 388.046875 45.816406 L 388.03125 45.738281 L 388.019531 45.660156 L 387.980469 45.511719 L 387.957031 45.433594 L 387.929688 45.359375 L 387.902344 45.289062 L 387.871094 45.214844 L 387.800781 45.074219 L 387.761719 45.007812 L 387.675781 44.875 L 387.582031 44.75 L 387.480469 44.632812 L 387.425781 44.574219 L 387.367188 44.519531 L 387.25 44.417969 L 387.125 44.324219 L 386.992188 44.238281 L 386.925781 44.199219 L 386.785156 44.128906 L 386.710938 44.097656 L 386.640625 44.070312 L 386.566406 44.042969 L 386.488281 44.019531 L 386.339844 43.980469 L 386.261719 43.96875 L 386.183594 43.953125 L 386.027344 43.9375 L 385.949219 43.933594 L 360.976562 43.933594 L 360.820312 43.925781 L 360.664062 43.910156 L 360.585938 43.898438 L 360.507812 43.882812 L 360.433594 43.863281 L 360.355469 43.84375 L 360.28125 43.820312 L 360.207031 43.792969 L 360.136719 43.765625 L 360.0625 43.734375 L 359.921875 43.664062 L 359.855469 43.625 L 359.722656 43.539062 L 359.597656 43.445312 L 359.480469 43.34375 L 359.421875 43.289062 L 359.367188 43.230469 L 359.316406 43.175781 L 359.265625 43.113281 L 359.171875 42.988281 L 359.085938 42.855469 L 359.046875 42.789062 L 358.976562 42.648438 L 358.945312 42.578125 L 358.890625 42.429688 L 358.867188 42.355469 L 358.847656 42.277344 L 358.828125 42.203125 L 358.816406 42.125 L 358.800781 42.046875 L 358.785156 41.890625 L 358.78125 41.8125 L 358.78125 31.40625 L 358.785156 31.328125 L 358.800781 31.171875 L 358.816406 31.09375 L 358.828125 31.019531 L 358.847656 30.941406 L 358.867188 30.867188 L 358.890625 30.792969 L 358.945312 30.644531 L 358.976562 30.570312 L 359.011719 30.5 L 359.046875 30.433594 L 359.085938 30.363281 L 359.171875 30.230469 L 359.265625 30.105469 L 359.367188 29.988281 L 359.421875 29.929688 L 359.480469 29.878906 L 359.539062 29.824219 L 359.597656 29.773438 L 359.722656 29.679688 L 359.855469 29.59375 L 359.921875 29.558594 L 359.992188 29.519531 L 360.0625 29.488281 L 360.136719 29.457031 L 360.207031 29.425781 L 360.355469 29.378906 L 360.433594 29.355469 L 360.507812 29.339844 L 360.664062 29.308594 L 360.820312 29.292969 L 360.898438 29.289062 L 378.550781 29.289062 L 378.785156 29.277344 L 378.863281 29.265625 L 378.9375 29.253906 L 379.015625 29.238281 L 379.09375 29.21875 L 379.167969 29.199219 L 379.242188 29.175781 L 379.390625 29.121094 L 379.460938 29.089844 L 379.601562 29.019531 L 379.671875 28.980469 L 379.738281 28.9375 L 379.800781 28.894531 L 379.867188 28.851562 L 379.925781 28.800781 L 379.988281 28.75 L 380.046875 28.699219 L 380.15625 28.589844 L 380.210938 28.53125 L 380.257812 28.46875 L 380.308594 28.40625 L 380.351562 28.34375 L 380.398438 28.277344 L 380.476562 28.144531 L 380.546875 28.003906 L 380.578125 27.933594 L 380.632812 27.785156 L 380.65625 27.710938 L 380.675781 27.632812 L 380.695312 27.558594 L 380.710938 27.480469 L 380.722656 27.402344 L 380.734375 27.328125 L 380.738281 27.25 L 380.746094 27.171875 L 380.746094 24.085938 L 380.738281 24.007812 L 380.734375 23.929688 L 380.710938 23.773438 L 380.695312 23.695312 L 380.675781 23.621094 L 380.65625 23.542969 L 380.632812 23.46875 L 380.578125 23.320312 L 380.546875 23.25 L 380.476562 23.109375 L 380.398438 22.976562 L 380.351562 22.910156 L 380.308594 22.847656 L 380.257812 22.785156 L 380.210938 22.722656 L 380.15625 22.664062 L 380.046875 22.554688 L 379.988281 22.503906 L 379.925781 22.453125 L 379.867188 22.402344 L 379.800781 22.359375 L 379.738281 22.316406 L 379.671875 22.273438 L 379.601562 22.234375 L 379.460938 22.164062 L 379.390625 22.132812 L 379.242188 22.078125 L 379.167969 22.054688 L 379.09375 22.035156 L 379.015625 22.015625 L 378.9375 22 L 378.863281 21.988281 L 378.707031 21.972656 L 378.550781 21.964844 L 360.898438 21.964844 L 360.820312 21.960938 L 360.664062 21.945312 L 360.507812 21.914062 L 360.433594 21.898438 L 360.355469 21.878906 L 360.28125 21.855469 L 360.207031 21.828125 L 360.136719 21.800781 L 360.0625 21.769531 L 359.921875 21.699219 L 359.855469 21.660156 L 359.722656 21.574219 L 359.597656 21.480469 L 359.480469 21.378906 L 359.421875 21.324219 L 359.367188 21.265625 L 359.265625 21.148438 L 359.171875 21.023438 L 359.085938 20.890625 L 359.046875 20.820312 L 359.011719 20.753906 L 358.976562 20.683594 L 358.945312 20.609375 L 358.917969 20.539062 L 358.890625 20.464844 L 358.867188 20.386719 L 358.828125 20.238281 L 358.816406 20.160156 L 358.800781 20.082031 L 358.785156 19.925781 L 358.78125 19.847656 L 358.78125 9.441406 L 358.785156 9.363281 L 358.800781 9.207031 L 358.816406 9.128906 L 358.828125 9.050781 L 358.847656 8.976562 L 358.867188 8.898438 L 358.890625 8.824219 L 358.917969 8.75 L 358.945312 8.679688 L 358.976562 8.605469 L 359.046875 8.464844 L 359.085938 8.398438 L 359.171875 8.265625 L 359.265625 8.140625 L 359.367188 8.023438 L 359.421875 7.964844 L 359.480469 7.910156 L 359.597656 7.808594 L 359.722656 7.714844 L 359.855469 7.628906 L 359.921875 7.589844 L 360.0625 7.519531 L 360.136719 7.488281 L 360.207031 7.460938 L 360.28125 7.433594 L 360.355469 7.410156 L 360.433594 7.390625 L 360.507812 7.371094 L 360.585938 7.355469 L 360.664062 7.34375 L 360.820312 7.328125 L 360.976562 7.320312 L 385.949219 7.320312 L 386.027344 7.316406 L 386.183594 7.300781 L 386.261719 7.289062 L 386.339844 7.273438 L 386.488281 7.234375 L 386.566406 7.210938 L 386.640625 7.183594 L 386.710938 7.15625 L 386.785156 7.125 L 386.925781 7.054688 L 386.992188 7.015625 L 387.125 6.929688 L 387.25 6.835938 L 387.367188 6.734375 L 387.425781 6.679688 L 387.480469 6.621094 L 387.582031 6.503906 L 387.675781 6.378906 L 387.761719 6.246094 L 387.800781 6.179688 L 387.871094 6.039062 L 387.902344 5.964844 L 387.929688 5.894531 L 387.957031 5.820312 L 387.980469 5.746094 L 388 5.667969 L 388.019531 5.59375 L 388.03125 5.515625 L 388.046875 5.4375 L 388.0625 5.28125 L 388.066406 5.203125 L 388.066406 2.117188 L 388.0625 2.039062 L 388.046875 1.882812 L 388.03125 1.804688 L 388.019531 1.730469 L 388 1.652344 L 387.980469 1.578125 L 387.957031 1.503906 L 387.902344 1.355469 L 387.871094 1.285156 L 387.800781 1.144531 L 387.761719 1.074219 L 387.71875 1.007812 L 387.675781 0.945312 L 387.628906 0.878906 L 387.582031 0.816406 L 387.480469 0.699219 L 387.425781 0.644531 L 387.308594 0.535156 L 387.25 0.484375 L 387.125 0.390625 L 387.058594 0.347656 L 386.925781 0.269531 L 386.855469 0.230469 L 386.785156 0.199219 L 386.710938 0.167969 L 386.640625 0.136719 L 386.566406 0.113281 L 386.488281 0.0898438 L 386.414062 0.0664062 L 386.339844 0.0507812 L 386.261719 0.0351562 L 386.105469 0.0117188 L 386.027344 0.00390625 L 385.949219 0 L 353.574219 0 L 353.496094 0.00390625 L 353.417969 0.0117188 L 353.339844 0.0234375 L 353.265625 0.0351562 L 353.109375 0.0664062 L 352.886719 0.136719 L 352.8125 0.167969 L 352.671875 0.230469 L 352.601562 0.269531 L 352.535156 0.308594 L 352.464844 0.347656 L 352.402344 0.390625 L 352.335938 0.4375 L 352.277344 0.484375 L 352.214844 0.535156 L 352.15625 0.589844 L 352.046875 0.699219 L 351.945312 0.816406 L 351.894531 0.878906 L 351.851562 0.945312 L 351.804688 1.007812 L 351.765625 1.074219 L 351.726562 1.144531 L 351.65625 1.285156 L 351.625 1.355469 L 351.570312 1.503906 L 351.546875 1.578125 L 351.527344 1.652344 L 351.507812 1.730469 L 351.492188 1.804688 L 351.46875 1.960938 L 351.457031 2.195312 Z M 330.402344 21.964844 L 330.324219 21.964844 L 330.246094 21.960938 L 330.089844 21.945312 L 329.933594 21.914062 L 329.859375 21.898438 L 329.78125 21.878906 L 329.707031 21.855469 L 329.632812 21.828125 L 329.5625 21.800781 L 329.488281 21.769531 L 329.347656 21.699219 L 329.28125 21.660156 L 329.148438 21.574219 L 329.023438 21.480469 L 328.90625 21.378906 L 328.847656 21.324219 L 322.757812 15.234375 L 322.699219 15.179688 L 322.636719 15.128906 L 322.511719 15.035156 L 322.445312 14.992188 L 322.3125 14.914062 L 322.242188 14.875 L 322.101562 14.8125 L 322.027344 14.78125 L 321.804688 14.710938 L 321.648438 14.679688 L 321.570312 14.667969 L 321.496094 14.65625 L 321.417969 14.648438 L 321.339844 14.644531 L 315.679688 14.644531 L 315.601562 14.648438 L 315.523438 14.65625 L 315.367188 14.679688 L 315.289062 14.695312 L 315.214844 14.710938 L 315.136719 14.734375 L 314.988281 14.78125 L 314.917969 14.8125 L 314.84375 14.84375 L 314.773438 14.875 L 314.703125 14.914062 L 314.570312 14.992188 L 314.503906 15.035156 L 314.378906 15.128906 L 314.320312 15.179688 L 314.203125 15.289062 L 308.113281 21.378906 L 308.011719 21.496094 L 307.964844 21.558594 L 307.917969 21.625 L 307.875 21.6875 L 307.832031 21.753906 L 307.792969 21.824219 L 307.722656 21.964844 L 307.691406 22.035156 L 307.636719 22.183594 L 307.613281 22.257812 L 307.59375 22.332031 L 307.574219 22.410156 L 307.558594 22.484375 L 307.546875 22.5625 L 307.53125 22.71875 L 307.527344 22.796875 L 307.527344 43.101562 L 307.53125 43.179688 L 307.546875 43.335938 L 307.558594 43.414062 L 307.574219 43.488281 L 307.59375 43.566406 L 307.613281 43.640625 L 307.636719 43.714844 L 307.691406 43.863281 L 307.722656 43.933594 L 307.792969 44.074219 L 307.832031 44.144531 L 307.875 44.210938 L 307.917969 44.273438 L 307.964844 44.339844 L 308.011719 44.402344 L 308.113281 44.519531 L 314.203125 50.609375 L 314.320312 50.71875 L 314.378906 50.769531 L 314.503906 50.863281 L 314.570312 50.90625 L 314.703125 50.984375 L 314.773438 51.023438 L 314.84375 51.054688 L 314.917969 51.085938 L 314.988281 51.117188 L 315.136719 51.164062 L 315.214844 51.1875 L 315.289062 51.203125 L 315.367188 51.21875 L 315.523438 51.242188 L 315.601562 51.25 L 315.679688 51.253906 L 317.042969 51.253906 L 317.042969 43.933594 L 316.886719 43.925781 L 316.730469 43.910156 L 316.652344 43.898438 L 316.578125 43.882812 L 316.5 43.863281 L 316.425781 43.84375 L 316.351562 43.820312 L 316.203125 43.765625 L 316.132812 43.734375 L 315.992188 43.664062 L 315.921875 43.625 L 315.855469 43.582031 L 315.792969 43.539062 L 315.726562 43.492188 L 315.664062 43.445312 L 315.546875 43.34375 L 315.492188 43.289062 L 315.4375 43.230469 L 315.382812 43.175781 L 315.332031 43.113281 L 315.238281 42.988281 L 315.195312 42.921875 L 315.117188 42.789062 L 315.078125 42.71875 L 315.015625 42.578125 L 314.984375 42.503906 L 314.9375 42.355469 L 314.914062 42.277344 L 314.898438 42.203125 L 314.882812 42.125 L 314.859375 41.96875 L 314.851562 41.890625 L 314.847656 41.8125 L 314.847656 24.085938 L 314.851562 24.007812 L 314.859375 23.929688 L 314.882812 23.773438 L 314.898438 23.695312 L 314.914062 23.621094 L 314.9375 23.542969 L 314.984375 23.394531 L 315.015625 23.320312 L 315.078125 23.179688 L 315.117188 23.109375 L 315.195312 22.976562 L 315.238281 22.910156 L 315.332031 22.785156 L 315.382812 22.722656 L 315.4375 22.664062 L 315.546875 22.554688 L 315.664062 22.453125 L 315.726562 22.402344 L 315.792969 22.359375 L 315.855469 22.316406 L 315.921875 22.273438 L 315.992188 22.234375 L 316.132812 22.164062 L 316.203125 22.132812 L 316.351562 22.078125 L 316.425781 22.054688 L 316.5 22.035156 L 316.578125 22.015625 L 316.652344 22 L 316.730469 21.988281 L 316.886719 21.972656 L 317.042969 21.964844 L 321.257812 21.964844 L 321.339844 21.96875 L 321.417969 21.972656 L 321.496094 21.980469 L 321.570312 21.988281 L 321.648438 22 L 321.726562 22.015625 L 321.804688 22.035156 L 321.878906 22.054688 L 321.953125 22.078125 L 322.101562 22.132812 L 322.171875 22.164062 L 322.3125 22.234375 L 322.378906 22.273438 L 322.511719 22.359375 L 322.574219 22.402344 L 322.699219 22.503906 L 322.757812 22.554688 L 328.847656 28.644531 L 328.90625 28.699219 L 329.023438 28.800781 L 329.085938 28.851562 L 329.148438 28.894531 L 329.28125 28.980469 L 329.347656 29.019531 L 329.488281 29.089844 L 329.5625 29.121094 L 329.632812 29.148438 L 329.707031 29.175781 L 329.78125 29.199219 L 329.859375 29.21875 L 329.933594 29.238281 L 330.011719 29.253906 L 330.167969 29.277344 L 330.402344 29.289062 L 334.695312 29.289062 L 334.773438 29.292969 L 334.929688 29.308594 L 335.007812 29.324219 L 335.082031 29.339844 L 335.160156 29.355469 L 335.234375 29.378906 L 335.3125 29.402344 L 335.382812 29.425781 L 335.53125 29.488281 L 335.601562 29.519531 L 335.667969 29.558594 L 335.738281 29.59375 L 335.871094 29.679688 L 335.996094 29.773438 L 336.054688 29.824219 L 336.113281 29.878906 L 336.171875 29.929688 L 336.226562 29.988281 L 336.328125 30.105469 L 336.421875 30.230469 L 336.507812 30.363281 L 336.542969 30.433594 L 336.582031 30.5 L 336.613281 30.570312 L 336.675781 30.71875 L 336.746094 30.941406 L 336.761719 31.019531 L 336.777344 31.09375 L 336.792969 31.171875 L 336.808594 31.328125 L 336.8125 31.40625 L 336.8125 41.8125 L 336.808594 41.890625 L 336.792969 42.046875 L 336.761719 42.203125 L 336.746094 42.277344 L 336.722656 42.355469 L 336.675781 42.503906 L 336.644531 42.578125 L 336.582031 42.71875 L 336.542969 42.789062 L 336.507812 42.855469 L 336.421875 42.988281 L 336.328125 43.113281 L 336.277344 43.175781 L 336.226562 43.230469 L 336.171875 43.289062 L 336.113281 43.34375 L 335.996094 43.445312 L 335.871094 43.539062 L 335.738281 43.625 L 335.667969 43.664062 L 335.601562 43.699219 L 335.53125 43.734375 L 335.457031 43.765625 L 335.382812 43.792969 L 335.3125 43.820312 L 335.234375 43.84375 L 335.160156 43.863281 L 335.082031 43.882812 L 335.007812 43.898438 L 334.929688 43.910156 L 334.773438 43.925781 L 334.617188 43.933594 L 317.042969 43.933594 L 317.042969 51.253906 L 342.015625 51.253906 L 342.09375 51.25 L 342.171875 51.242188 L 342.328125 51.21875 L 342.40625 51.203125 L 342.480469 51.1875 L 342.558594 51.164062 L 342.707031 51.117188 L 342.78125 51.085938 L 342.921875 51.023438 L 342.992188 50.984375 L 343.125 50.90625 L 343.191406 50.863281 L 343.316406 50.769531 L 343.378906 50.71875 L 343.4375 50.664062 L 343.546875 50.554688 L 343.648438 50.4375 L 343.699219 50.375 L 343.742188 50.308594 L 343.785156 50.246094 L 343.828125 50.179688 L 343.867188 50.109375 L 343.9375 49.96875 L 343.96875 49.898438 L 344.023438 49.75 L 344.046875 49.675781 L 344.066406 49.601562 L 344.085938 49.523438 L 344.101562 49.449219 L 344.113281 49.371094 L 344.128906 49.214844 L 344.136719 49.058594 L 344.136719 2.195312 L 344.128906 2.039062 L 344.113281 1.882812 L 344.101562 1.804688 L 344.085938 1.730469 L 344.066406 1.652344 L 344.046875 1.578125 L 344.023438 1.503906 L 343.96875 1.355469 L 343.9375 1.285156 L 343.867188 1.144531 L 343.828125 1.074219 L 343.785156 1.007812 L 343.742188 0.945312 L 343.699219 0.878906 L 343.648438 0.816406 L 343.546875 0.699219 L 343.4375 0.589844 L 343.378906 0.535156 L 343.316406 0.484375 L 343.191406 0.390625 L 343.125 0.347656 L 342.992188 0.269531 L 342.921875 0.230469 L 342.78125 0.167969 L 342.707031 0.136719 L 342.558594 0.0898438 L 342.480469 0.0664062 L 342.40625 0.0507812 L 342.328125 0.0351562 L 342.171875 0.0117188 L 342.09375 0.00390625 L 342.015625 0 L 338.933594 0 L 338.851562 0.00390625 L 338.773438 0.0117188 L 338.699219 0.0234375 L 338.621094 0.0351562 L 338.542969 0.0507812 L 338.46875 0.0664062 L 338.390625 0.0898438 L 338.242188 0.136719 L 338.167969 0.167969 L 338.027344 0.230469 L 337.957031 0.269531 L 337.824219 0.347656 L 337.757812 0.390625 L 337.632812 0.484375 L 337.570312 0.535156 L 337.511719 0.589844 L 337.402344 0.699219 L 337.300781 0.816406 L 337.25 0.878906 L 337.207031 0.945312 L 337.164062 1.007812 L 337.121094 1.074219 L 337.082031 1.144531 L 337.011719 1.285156 L 336.980469 1.355469 L 336.925781 1.503906 L 336.902344 1.578125 L 336.882812 1.652344 L 336.863281 1.730469 L 336.847656 1.804688 L 336.824219 1.960938 L 336.8125 2.195312 L 336.8125 19.847656 L 336.808594 19.925781 L 336.792969 20.082031 L 336.761719 20.238281 L 336.746094 20.3125 L 336.722656 20.386719 L 336.699219 20.464844 L 336.675781 20.539062 L 336.644531 20.609375 L 336.613281 20.683594 L 336.582031 20.753906 L 336.542969 20.820312 L 336.507812 20.890625 L 336.421875 21.023438 L 336.328125 21.148438 L 336.226562 21.265625 L 336.171875 21.324219 L 336.113281 21.378906 L 335.996094 21.480469 L 335.871094 21.574219 L 335.738281 21.660156 L 335.667969 21.699219 L 335.601562 21.734375 L 335.53125 21.769531 L 335.457031 21.800781 L 335.382812 21.828125 L 335.3125 21.855469 L 335.234375 21.878906 L 335.160156 21.898438 L 335.082031 21.914062 L 335.007812 21.929688 L 334.929688 21.945312 L 334.773438 21.960938 L 334.695312 21.964844 Z M 286.203125 0.644531 L 286.144531 0.589844 L 286.089844 0.535156 L 286.027344 0.484375 L 285.902344 0.390625 L 285.835938 0.347656 L 285.703125 0.269531 L 285.632812 0.230469 L 285.5625 0.199219 L 285.488281 0.167969 L 285.417969 0.136719 L 285.269531 0.0898438 L 285.191406 0.0664062 L 285.117188 0.0507812 L 285.039062 0.0351562 L 284.882812 0.0117188 L 284.804688 0.00390625 L 284.726562 0 L 265.710938 0 L 265.632812 0.00390625 L 265.554688 0.0117188 L 265.398438 0.0351562 L 265.324219 0.0507812 L 265.246094 0.0664062 L 265.023438 0.136719 L 264.949219 0.167969 L 264.878906 0.199219 L 264.804688 0.230469 L 264.738281 0.269531 L 264.667969 0.308594 L 264.601562 0.347656 L 264.535156 0.390625 L 264.410156 0.484375 L 264.351562 0.535156 L 264.292969 0.589844 L 264.183594 0.699219 L 264.128906 0.757812 L 264.078125 0.816406 L 264.03125 0.878906 L 263.984375 0.945312 L 263.941406 1.007812 L 263.902344 1.074219 L 263.824219 1.214844 L 263.761719 1.355469 L 263.730469 1.429688 L 263.660156 1.652344 L 263.644531 1.730469 L 263.628906 1.804688 L 263.605469 1.960938 L 263.597656 2.039062 L 263.59375 2.117188 L 263.59375 49.136719 L 263.597656 49.214844 L 263.605469 49.292969 L 263.628906 49.449219 L 263.644531 49.523438 L 263.660156 49.601562 L 263.730469 49.824219 L 263.761719 49.898438 L 263.824219 50.039062 L 263.902344 50.179688 L 263.941406 50.246094 L 263.984375 50.308594 L 264.03125 50.375 L 264.078125 50.4375 L 264.128906 50.496094 L 264.183594 50.554688 L 264.292969 50.664062 L 264.351562 50.71875 L 264.410156 50.769531 L 264.535156 50.863281 L 264.601562 50.90625 L 264.667969 50.945312 L 264.738281 50.984375 L 264.804688 51.023438 L 264.878906 51.054688 L 264.949219 51.085938 L 265.023438 51.117188 L 265.246094 51.1875 L 265.324219 51.203125 L 265.398438 51.21875 L 265.554688 51.242188 L 265.632812 51.25 L 265.710938 51.253906 L 273.113281 51.253906 L 273.113281 43.933594 L 272.957031 43.925781 L 272.800781 43.910156 L 272.722656 43.898438 L 272.644531 43.882812 L 272.570312 43.863281 L 272.492188 43.84375 L 272.417969 43.820312 L 272.269531 43.765625 L 272.199219 43.734375 L 272.058594 43.664062 L 271.992188 43.625 L 271.859375 43.539062 L 271.734375 43.445312 L 271.671875 43.394531 L 271.613281 43.34375 L 271.558594 43.289062 L 271.503906 43.230469 L 271.453125 43.175781 L 271.351562 43.050781 L 271.308594 42.988281 L 271.222656 42.855469 L 271.183594 42.789062 L 271.113281 42.648438 L 271.082031 42.578125 L 271.027344 42.429688 L 271.003906 42.355469 L 270.984375 42.277344 L 270.964844 42.203125 L 270.949219 42.125 L 270.9375 42.046875 L 270.921875 41.890625 L 270.914062 41.734375 L 270.914062 9.519531 L 270.921875 9.363281 L 270.9375 9.207031 L 270.949219 9.128906 L 270.964844 9.050781 L 270.984375 8.976562 L 271.003906 8.898438 L 271.027344 8.824219 L 271.054688 8.75 L 271.082031 8.679688 L 271.113281 8.605469 L 271.183594 8.464844 L 271.222656 8.398438 L 271.308594 8.265625 L 271.351562 8.203125 L 271.402344 8.140625 L 271.503906 8.023438 L 271.558594 7.964844 L 271.613281 7.910156 L 271.671875 7.859375 L 271.734375 7.808594 L 271.859375 7.714844 L 271.992188 7.628906 L 272.058594 7.589844 L 272.199219 7.519531 L 272.269531 7.488281 L 272.417969 7.433594 L 272.492188 7.410156 L 272.570312 7.390625 L 272.644531 7.371094 L 272.722656 7.355469 L 272.800781 7.34375 L 272.957031 7.328125 L 273.113281 7.320312 L 284.648438 7.320312 L 284.804688 7.328125 L 284.960938 7.34375 L 285.039062 7.355469 L 285.117188 7.371094 L 285.191406 7.390625 L 285.269531 7.410156 L 285.34375 7.433594 L 285.417969 7.460938 L 285.488281 7.488281 L 285.5625 7.519531 L 285.703125 7.589844 L 285.769531 7.628906 L 285.902344 7.714844 L 286.027344 7.808594 L 286.089844 7.859375 L 286.144531 7.910156 L 286.203125 7.964844 L 292.238281 14 L 292.292969 14.058594 L 292.394531 14.175781 L 292.488281 14.300781 L 292.574219 14.433594 L 292.613281 14.5 L 292.683594 14.640625 L 292.714844 14.714844 L 292.742188 14.785156 L 292.769531 14.859375 L 292.792969 14.933594 L 292.8125 15.011719 L 292.832031 15.085938 L 292.847656 15.164062 L 292.859375 15.242188 L 292.875 15.398438 L 292.882812 15.554688 L 292.882812 35.699219 L 292.875 35.855469 L 292.859375 36.011719 L 292.847656 36.089844 L 292.832031 36.167969 L 292.8125 36.242188 L 292.792969 36.320312 L 292.769531 36.394531 L 292.742188 36.46875 L 292.714844 36.539062 L 292.683594 36.613281 L 292.613281 36.753906 L 292.574219 36.820312 L 292.488281 36.953125 L 292.394531 37.078125 L 292.34375 37.140625 L 292.292969 37.195312 L 292.238281 37.253906 L 286.203125 43.289062 L 286.144531 43.34375 L 286.089844 43.394531 L 286.027344 43.445312 L 285.902344 43.539062 L 285.769531 43.625 L 285.703125 43.664062 L 285.5625 43.734375 L 285.488281 43.765625 L 285.417969 43.792969 L 285.34375 43.820312 L 285.269531 43.84375 L 285.191406 43.863281 L 285.117188 43.882812 L 285.039062 43.898438 L 284.960938 43.910156 L 284.804688 43.925781 L 284.648438 43.933594 L 273.113281 43.933594 L 273.113281 51.253906 L 284.726562 51.253906 L 284.804688 51.25 L 284.882812 51.242188 L 285.039062 51.21875 L 285.117188 51.203125 L 285.191406 51.1875 L 285.269531 51.164062 L 285.417969 51.117188 L 285.488281 51.085938 L 285.5625 51.054688 L 285.632812 51.023438 L 285.703125 50.984375 L 285.835938 50.90625 L 285.902344 50.863281 L 286.027344 50.769531 L 286.089844 50.71875 L 286.144531 50.664062 L 286.203125 50.609375 L 299.558594 37.253906 L 299.613281 37.195312 L 299.667969 37.140625 L 299.71875 37.078125 L 299.8125 36.953125 L 299.855469 36.886719 L 299.933594 36.753906 L 299.972656 36.683594 L 300.003906 36.613281 L 300.035156 36.539062 L 300.066406 36.46875 L 300.113281 36.320312 L 300.136719 36.242188 L 300.152344 36.167969 L 300.167969 36.089844 L 300.191406 35.933594 L 300.199219 35.855469 L 300.203125 35.777344 L 300.203125 15.476562 L 300.199219 15.398438 L 300.191406 15.320312 L 300.167969 15.164062 L 300.152344 15.085938 L 300.136719 15.011719 L 300.113281 14.933594 L 300.066406 14.785156 L 300.035156 14.714844 L 300.003906 14.640625 L 299.972656 14.570312 L 299.933594 14.5 L 299.855469 14.367188 L 299.8125 14.300781 L 299.71875 14.175781 L 299.667969 14.117188 L 299.558594 14 Z M 226.984375 24.164062 L 226.984375 24.085938 L 226.988281 24.007812 L 227.003906 23.851562 L 227.035156 23.695312 L 227.050781 23.621094 L 227.070312 23.542969 L 227.09375 23.46875 L 227.148438 23.320312 L 227.179688 23.25 L 227.25 23.109375 L 227.289062 23.042969 L 227.375 22.910156 L 227.46875 22.785156 L 227.519531 22.722656 L 227.570312 22.664062 L 227.625 22.609375 L 227.683594 22.554688 L 227.800781 22.453125 L 227.863281 22.402344 L 227.925781 22.359375 L 228.058594 22.273438 L 228.125 22.234375 L 228.265625 22.164062 L 228.339844 22.132812 L 228.410156 22.105469 L 228.484375 22.078125 L 228.5625 22.054688 L 228.710938 22.015625 L 228.789062 22 L 228.867188 21.988281 L 229.023438 21.972656 L 229.179688 21.964844 L 246.832031 21.964844 L 246.910156 21.960938 L 247.066406 21.945312 L 247.140625 21.929688 L 247.296875 21.898438 L 247.371094 21.878906 L 247.445312 21.855469 L 247.59375 21.800781 L 247.664062 21.769531 L 247.804688 21.699219 L 247.875 21.660156 L 247.941406 21.617188 L 248.003906 21.574219 L 248.070312 21.527344 L 248.128906 21.480469 L 248.191406 21.429688 L 248.25 21.378906 L 248.304688 21.324219 L 248.414062 21.207031 L 248.464844 21.148438 L 248.558594 21.023438 L 248.601562 20.957031 L 248.640625 20.890625 L 248.679688 20.820312 L 248.71875 20.753906 L 248.75 20.683594 L 248.78125 20.609375 L 248.8125 20.539062 L 248.835938 20.464844 L 248.859375 20.386719 L 248.882812 20.3125 L 248.898438 20.238281 L 248.914062 20.160156 L 248.9375 20.003906 L 248.945312 19.925781 L 248.949219 19.847656 L 248.949219 16.761719 L 248.945312 16.683594 L 248.9375 16.605469 L 248.914062 16.449219 L 248.898438 16.375 L 248.882812 16.296875 L 248.8125 16.074219 L 248.78125 16 L 248.71875 15.859375 L 248.640625 15.71875 L 248.601562 15.652344 L 248.558594 15.589844 L 248.511719 15.523438 L 248.464844 15.460938 L 248.414062 15.402344 L 248.359375 15.34375 L 248.25 15.234375 L 248.191406 15.179688 L 248.128906 15.128906 L 248.070312 15.082031 L 248.003906 15.035156 L 247.941406 14.992188 L 247.875 14.953125 L 247.734375 14.875 L 247.59375 14.8125 L 247.519531 14.78125 L 247.296875 14.710938 L 247.140625 14.679688 L 247.066406 14.667969 L 246.988281 14.65625 L 246.910156 14.648438 L 246.832031 14.644531 L 227.816406 14.644531 L 227.734375 14.648438 L 227.65625 14.65625 L 227.582031 14.667969 L 227.503906 14.679688 L 227.425781 14.695312 L 227.351562 14.710938 L 227.273438 14.734375 L 227.125 14.78125 L 227.050781 14.8125 L 226.910156 14.875 L 226.839844 14.914062 L 226.707031 14.992188 L 226.640625 15.035156 L 226.515625 15.128906 L 226.453125 15.179688 L 226.394531 15.234375 L 220.25 21.378906 L 220.148438 21.496094 L 220.097656 21.558594 L 220.054688 21.625 L 220.007812 21.6875 L 219.96875 21.753906 L 219.929688 21.824219 L 219.859375 21.964844 L 219.828125 22.035156 L 219.773438 22.183594 L 219.75 22.257812 L 219.730469 22.332031 L 219.710938 22.410156 L 219.695312 22.484375 L 219.671875 22.640625 L 219.660156 22.875 L 219.660156 43.023438 L 219.671875 43.257812 L 219.695312 43.414062 L 219.710938 43.488281 L 219.730469 43.566406 L 219.75 43.640625 L 219.773438 43.714844 L 219.828125 43.863281 L 219.859375 43.933594 L 219.929688 44.074219 L 219.96875 44.144531 L 220.007812 44.210938 L 220.054688 44.273438 L 220.097656 44.339844 L 220.148438 44.402344 L 220.25 44.519531 L 226.394531 50.664062 L 226.453125 50.71875 L 226.515625 50.769531 L 226.640625 50.863281 L 226.707031 50.90625 L 226.839844 50.984375 L 226.910156 51.023438 L 227.050781 51.085938 L 227.125 51.117188 L 227.273438 51.164062 L 227.351562 51.1875 L 227.425781 51.203125 L 227.503906 51.21875 L 227.582031 51.230469 L 227.65625 51.242188 L 227.734375 51.25 L 227.816406 51.253906 L 248.117188 51.253906 L 248.195312 51.25 L 248.273438 51.242188 L 248.429688 51.21875 L 248.507812 51.203125 L 248.582031 51.1875 L 248.65625 51.164062 L 248.734375 51.140625 L 248.808594 51.117188 L 248.878906 51.085938 L 248.953125 51.054688 L 249.023438 51.023438 L 249.09375 50.984375 L 249.226562 50.90625 L 249.292969 50.863281 L 249.417969 50.769531 L 249.476562 50.71875 L 249.59375 50.609375 L 255.683594 44.519531 L 255.785156 44.402344 L 255.832031 44.339844 L 255.878906 44.273438 L 255.921875 44.210938 L 255.964844 44.144531 L 256.003906 44.074219 L 256.074219 43.933594 L 256.105469 43.863281 L 256.160156 43.714844 L 256.183594 43.640625 L 256.203125 43.566406 L 256.222656 43.488281 L 256.234375 43.414062 L 256.25 43.335938 L 256.265625 43.179688 L 256.269531 43.101562 L 256.269531 38.726562 L 256.265625 38.648438 L 256.257812 38.570312 L 256.25 38.496094 L 256.234375 38.417969 L 256.222656 38.339844 L 256.203125 38.261719 L 256.183594 38.1875 L 256.160156 38.113281 L 256.105469 37.964844 L 256.074219 37.894531 L 256.003906 37.753906 L 255.964844 37.6875 L 255.878906 37.554688 L 255.785156 37.429688 L 255.734375 37.367188 L 255.683594 37.308594 L 255.628906 37.253906 L 255.570312 37.199219 L 255.453125 37.097656 L 255.390625 37.046875 L 255.328125 37.003906 L 255.261719 36.957031 L 255.128906 36.878906 L 254.988281 36.808594 L 254.914062 36.777344 L 254.84375 36.75 L 254.769531 36.722656 L 254.695312 36.699219 L 254.617188 36.679688 L 254.542969 36.660156 L 254.464844 36.644531 L 254.308594 36.621094 L 254.074219 36.609375 L 251.144531 36.609375 L 250.910156 36.621094 L 250.753906 36.644531 L 250.679688 36.660156 L 250.601562 36.679688 L 250.527344 36.699219 L 250.453125 36.722656 L 250.304688 36.777344 L 250.234375 36.808594 L 250.09375 36.878906 L 250.023438 36.917969 L 249.957031 36.957031 L 249.894531 37.003906 L 249.828125 37.046875 L 249.765625 37.097656 L 249.648438 37.199219 L 249.539062 37.308594 L 249.484375 37.367188 L 249.433594 37.429688 L 249.339844 37.554688 L 249.296875 37.621094 L 249.21875 37.753906 L 249.179688 37.824219 L 249.117188 37.964844 L 249.085938 38.039062 L 249.015625 38.261719 L 248.984375 38.417969 L 248.972656 38.496094 L 248.960938 38.570312 L 248.953125 38.648438 L 248.949219 38.726562 L 248.949219 41.8125 L 248.945312 41.890625 L 248.9375 41.96875 L 248.914062 42.125 L 248.898438 42.203125 L 248.882812 42.277344 L 248.859375 42.355469 L 248.8125 42.503906 L 248.78125 42.578125 L 248.71875 42.71875 L 248.679688 42.789062 L 248.601562 42.921875 L 248.558594 42.988281 L 248.464844 43.113281 L 248.414062 43.175781 L 248.359375 43.230469 L 248.304688 43.289062 L 248.25 43.34375 L 248.191406 43.394531 L 248.128906 43.445312 L 248.070312 43.492188 L 248.003906 43.539062 L 247.941406 43.582031 L 247.875 43.625 L 247.804688 43.664062 L 247.664062 43.734375 L 247.59375 43.765625 L 247.445312 43.820312 L 247.371094 43.84375 L 247.296875 43.863281 L 247.21875 43.882812 L 247.140625 43.898438 L 247.066406 43.910156 L 246.910156 43.925781 L 246.753906 43.933594 L 229.179688 43.933594 L 229.023438 43.925781 L 228.867188 43.910156 L 228.789062 43.898438 L 228.710938 43.882812 L 228.5625 43.84375 L 228.484375 43.820312 L 228.410156 43.792969 L 228.339844 43.765625 L 228.265625 43.734375 L 228.125 43.664062 L 228.058594 43.625 L 227.925781 43.539062 L 227.800781 43.445312 L 227.683594 43.34375 L 227.625 43.289062 L 227.570312 43.230469 L 227.519531 43.175781 L 227.46875 43.113281 L 227.375 42.988281 L 227.289062 42.855469 L 227.25 42.789062 L 227.179688 42.648438 L 227.148438 42.578125 L 227.09375 42.429688 L 227.070312 42.355469 L 227.050781 42.277344 L 227.035156 42.203125 L 227.003906 42.046875 L 226.988281 41.890625 L 226.984375 41.8125 Z M 183.050781 9.519531 L 183.050781 9.441406 L 183.054688 9.363281 L 183.0625 9.285156 L 183.085938 9.128906 L 183.101562 9.050781 L 183.117188 8.976562 L 183.140625 8.898438 L 183.1875 8.75 L 183.21875 8.679688 L 183.25 8.605469 L 183.28125 8.535156 L 183.320312 8.464844 L 183.398438 8.332031 L 183.441406 8.265625 L 183.535156 8.140625 L 183.585938 8.082031 L 183.695312 7.964844 L 183.75 7.910156 L 183.808594 7.859375 L 183.871094 7.808594 L 183.929688 7.761719 L 183.996094 7.714844 L 184.058594 7.671875 L 184.125 7.628906 L 184.195312 7.589844 L 184.335938 7.519531 L 184.40625 7.488281 L 184.554688 7.433594 L 184.628906 7.410156 L 184.703125 7.390625 L 184.78125 7.371094 L 184.859375 7.355469 L 184.933594 7.34375 L 185.089844 7.328125 L 185.246094 7.320312 L 202.820312 7.320312 L 202.976562 7.328125 L 203.132812 7.34375 L 203.210938 7.355469 L 203.289062 7.371094 L 203.4375 7.410156 L 203.515625 7.433594 L 203.589844 7.460938 L 203.660156 7.488281 L 203.734375 7.519531 L 203.875 7.589844 L 203.941406 7.628906 L 204.074219 7.714844 L 204.199219 7.808594 L 204.316406 7.910156 L 204.375 7.964844 L 204.429688 8.023438 L 204.53125 8.140625 L 204.625 8.265625 L 204.710938 8.398438 L 204.75 8.464844 L 204.820312 8.605469 L 204.851562 8.679688 L 204.878906 8.75 L 204.90625 8.824219 L 204.929688 8.898438 L 204.949219 8.976562 L 204.964844 9.050781 L 204.996094 9.207031 L 205.011719 9.363281 L 205.015625 9.441406 L 205.015625 12.449219 L 205.023438 12.605469 L 205.039062 12.761719 L 205.050781 12.835938 L 205.066406 12.914062 L 205.085938 12.992188 L 205.105469 13.066406 L 205.128906 13.140625 L 205.183594 13.289062 L 205.214844 13.359375 L 205.285156 13.5 L 205.324219 13.566406 L 205.367188 13.636719 L 205.410156 13.699219 L 205.457031 13.765625 L 205.503906 13.824219 L 205.554688 13.886719 L 205.605469 13.945312 L 205.714844 14.054688 L 205.773438 14.109375 L 205.835938 14.15625 L 205.898438 14.207031 L 205.960938 14.25 L 206.027344 14.296875 L 206.160156 14.375 L 206.300781 14.445312 L 206.371094 14.476562 L 206.519531 14.53125 L 206.59375 14.554688 L 206.671875 14.574219 L 206.746094 14.59375 L 206.824219 14.609375 L 206.980469 14.632812 L 207.058594 14.636719 L 207.136719 14.644531 L 210.222656 14.644531 L 210.300781 14.636719 L 210.378906 14.632812 L 210.453125 14.621094 L 210.53125 14.609375 L 210.609375 14.59375 L 210.6875 14.574219 L 210.761719 14.554688 L 210.835938 14.53125 L 210.984375 14.476562 L 211.054688 14.445312 L 211.195312 14.375 L 211.328125 14.296875 L 211.394531 14.25 L 211.457031 14.207031 L 211.519531 14.15625 L 211.582031 14.109375 L 211.640625 14.054688 L 211.75 13.945312 L 211.800781 13.886719 L 211.851562 13.824219 L 211.902344 13.765625 L 211.945312 13.699219 L 211.992188 13.636719 L 212.03125 13.566406 L 212.070312 13.5 L 212.140625 13.359375 L 212.171875 13.289062 L 212.226562 13.140625 L 212.25 13.066406 L 212.269531 12.992188 L 212.289062 12.914062 L 212.304688 12.835938 L 212.316406 12.761719 L 212.328125 12.683594 L 212.339844 12.449219 L 212.339844 8.230469 L 212.328125 7.996094 L 212.316406 7.917969 L 212.304688 7.84375 L 212.289062 7.765625 L 212.269531 7.6875 L 212.25 7.613281 L 212.226562 7.539062 L 212.171875 7.390625 L 212.140625 7.320312 L 212.070312 7.179688 L 212.03125 7.109375 L 211.992188 7.042969 L 211.945312 6.980469 L 211.902344 6.914062 L 211.851562 6.855469 L 211.800781 6.792969 L 211.75 6.734375 L 205.605469 0.589844 L 205.546875 0.535156 L 205.484375 0.484375 L 205.359375 0.390625 L 205.292969 0.347656 L 205.160156 0.269531 L 205.089844 0.230469 L 204.949219 0.167969 L 204.875 0.136719 L 204.726562 0.0898438 L 204.648438 0.0664062 L 204.574219 0.0507812 L 204.496094 0.0351562 L 204.417969 0.0234375 L 204.34375 0.0117188 L 204.265625 0.00390625 L 204.183594 0 L 183.882812 0 L 183.804688 0.00390625 L 183.726562 0.0117188 L 183.570312 0.0351562 L 183.492188 0.0507812 L 183.417969 0.0664062 L 183.34375 0.0898438 L 183.265625 0.113281 L 183.191406 0.136719 L 183.121094 0.167969 L 183.046875 0.199219 L 182.976562 0.230469 L 182.90625 0.269531 L 182.773438 0.347656 L 182.707031 0.390625 L 182.582031 0.484375 L 182.523438 0.535156 L 182.40625 0.644531 L 176.316406 6.734375 L 176.265625 6.792969 L 176.214844 6.855469 L 176.167969 6.914062 L 176.121094 6.980469 L 176.078125 7.042969 L 176.035156 7.109375 L 175.996094 7.179688 L 175.925781 7.320312 L 175.894531 7.390625 L 175.839844 7.539062 L 175.816406 7.613281 L 175.796875 7.6875 L 175.777344 7.765625 L 175.765625 7.84375 L 175.75 7.917969 L 175.734375 8.074219 L 175.730469 8.152344 L 175.730469 43.101562 L 175.734375 43.179688 L 175.75 43.335938 L 175.765625 43.414062 L 175.777344 43.488281 L 175.796875 43.566406 L 175.816406 43.640625 L 175.839844 43.714844 L 175.894531 43.863281 L 175.925781 43.933594 L 175.996094 44.074219 L 176.035156 44.144531 L 176.078125 44.210938 L 176.121094 44.273438 L 176.167969 44.339844 L 176.214844 44.402344 L 176.316406 44.519531 L 182.40625 50.609375 L 182.523438 50.71875 L 182.582031 50.769531 L 182.707031 50.863281 L 182.773438 50.90625 L 182.90625 50.984375 L 182.976562 51.023438 L 183.046875 51.054688 L 183.121094 51.085938 L 183.191406 51.117188 L 183.265625 51.140625 L 183.34375 51.164062 L 183.417969 51.1875 L 183.492188 51.203125 L 183.570312 51.21875 L 183.726562 51.242188 L 183.804688 51.25 L 183.882812 51.253906 L 204.183594 51.253906 L 204.265625 51.25 L 204.34375 51.242188 L 204.417969 51.230469 L 204.496094 51.21875 L 204.574219 51.203125 L 204.648438 51.1875 L 204.726562 51.164062 L 204.875 51.117188 L 204.949219 51.085938 L 205.089844 51.023438 L 205.160156 50.984375 L 205.292969 50.90625 L 205.359375 50.863281 L 205.484375 50.769531 L 205.546875 50.71875 L 205.605469 50.664062 L 211.75 44.519531 L 211.851562 44.402344 L 211.902344 44.339844 L 211.945312 44.273438 L 211.992188 44.210938 L 212.03125 44.144531 L 212.070312 44.074219 L 212.140625 43.933594 L 212.171875 43.863281 L 212.226562 43.714844 L 212.25 43.640625 L 212.269531 43.566406 L 212.289062 43.488281 L 212.304688 43.414062 L 212.328125 43.257812 L 212.339844 43.023438 L 212.339844 38.808594 L 212.335938 38.726562 L 212.328125 38.570312 L 212.316406 38.496094 L 212.304688 38.417969 L 212.289062 38.339844 L 212.269531 38.261719 L 212.25 38.1875 L 212.226562 38.113281 L 212.171875 37.964844 L 212.140625 37.894531 L 212.070312 37.753906 L 211.992188 37.621094 L 211.945312 37.554688 L 211.902344 37.492188 L 211.800781 37.367188 L 211.75 37.308594 L 211.640625 37.199219 L 211.582031 37.148438 L 211.457031 37.046875 L 211.394531 37.003906 L 211.328125 36.957031 L 211.195312 36.878906 L 211.054688 36.808594 L 210.984375 36.777344 L 210.835938 36.722656 L 210.761719 36.699219 L 210.6875 36.679688 L 210.609375 36.660156 L 210.53125 36.644531 L 210.453125 36.632812 L 210.378906 36.621094 L 210.222656 36.613281 L 210.140625 36.609375 L 207.214844 36.609375 L 206.980469 36.621094 L 206.824219 36.644531 L 206.746094 36.660156 L 206.671875 36.679688 L 206.59375 36.699219 L 206.519531 36.722656 L 206.371094 36.777344 L 206.300781 36.808594 L 206.160156 36.878906 L 206.027344 36.957031 L 205.960938 37.003906 L 205.898438 37.046875 L 205.773438 37.148438 L 205.714844 37.199219 L 205.605469 37.308594 L 205.554688 37.367188 L 205.503906 37.429688 L 205.410156 37.554688 L 205.324219 37.6875 L 205.285156 37.753906 L 205.214844 37.894531 L 205.183594 37.964844 L 205.128906 38.113281 L 205.105469 38.1875 L 205.085938 38.261719 L 205.066406 38.339844 L 205.050781 38.417969 L 205.039062 38.496094 L 205.03125 38.570312 L 205.023438 38.648438 L 205.019531 38.726562 L 205.015625 38.808594 L 205.015625 41.8125 L 205.011719 41.890625 L 204.996094 42.046875 L 204.964844 42.203125 L 204.949219 42.277344 L 204.929688 42.355469 L 204.90625 42.429688 L 204.851562 42.578125 L 204.820312 42.648438 L 204.75 42.789062 L 204.710938 42.855469 L 204.625 42.988281 L 204.53125 43.113281 L 204.480469 43.175781 L 204.429688 43.230469 L 204.375 43.289062 L 204.316406 43.34375 L 204.199219 43.445312 L 204.074219 43.539062 L 203.941406 43.625 L 203.875 43.664062 L 203.734375 43.734375 L 203.660156 43.765625 L 203.589844 43.792969 L 203.515625 43.820312 L 203.4375 43.84375 L 203.289062 43.882812 L 203.210938 43.898438 L 203.132812 43.910156 L 202.976562 43.925781 L 202.820312 43.933594 L 185.246094 43.933594 L 185.089844 43.925781 L 184.933594 43.910156 L 184.859375 43.898438 L 184.78125 43.882812 L 184.703125 43.863281 L 184.628906 43.84375 L 184.554688 43.820312 L 184.40625 43.765625 L 184.335938 43.734375 L 184.195312 43.664062 L 184.125 43.625 L 184.058594 43.582031 L 183.996094 43.539062 L 183.929688 43.492188 L 183.871094 43.445312 L 183.808594 43.394531 L 183.75 43.34375 L 183.695312 43.289062 L 183.640625 43.230469 L 183.585938 43.175781 L 183.535156 43.113281 L 183.441406 42.988281 L 183.398438 42.921875 L 183.320312 42.789062 L 183.28125 42.71875 L 183.21875 42.578125 L 183.1875 42.503906 L 183.140625 42.355469 L 183.117188 42.277344 L 183.101562 42.203125 L 183.085938 42.125 L 183.0625 41.96875 L 183.054688 41.890625 L 183.050781 41.8125 Z M 147.085938 21.324219 L 147.027344 21.378906 L 146.910156 21.480469 L 146.785156 21.574219 L 146.652344 21.660156 L 146.582031 21.699219 L 146.515625 21.734375 L 146.441406 21.769531 L 146.371094 21.800781 L 146.222656 21.855469 L 146.148438 21.878906 L 146.074219 21.898438 L 145.996094 21.914062 L 145.921875 21.929688 L 145.84375 21.945312 L 145.6875 21.960938 L 145.609375 21.964844 L 141.238281 21.964844 L 141.160156 21.960938 L 141.003906 21.945312 L 140.847656 21.914062 L 140.773438 21.898438 L 140.695312 21.878906 L 140.621094 21.855469 L 140.546875 21.828125 L 140.476562 21.800781 L 140.402344 21.769531 L 140.261719 21.699219 L 140.195312 21.660156 L 140.0625 21.574219 L 139.9375 21.480469 L 139.875 21.429688 L 139.820312 21.378906 L 139.761719 21.324219 L 139.707031 21.265625 L 139.605469 21.148438 L 139.511719 21.023438 L 139.425781 20.890625 L 139.386719 20.820312 L 139.351562 20.753906 L 139.316406 20.683594 L 139.285156 20.609375 L 139.257812 20.539062 L 139.230469 20.464844 L 139.207031 20.386719 L 139.167969 20.238281 L 139.152344 20.160156 L 139.140625 20.082031 L 139.125 19.925781 L 139.117188 19.769531 L 139.117188 2.117188 L 139.113281 2.039062 L 139.097656 1.882812 L 139.082031 1.804688 L 139.070312 1.730469 L 139.050781 1.652344 L 139.03125 1.578125 L 139.007812 1.503906 L 138.953125 1.355469 L 138.921875 1.285156 L 138.851562 1.144531 L 138.8125 1.074219 L 138.769531 1.007812 L 138.726562 0.945312 L 138.679688 0.878906 L 138.632812 0.816406 L 138.53125 0.699219 L 138.476562 0.644531 L 138.359375 0.535156 L 138.300781 0.484375 L 138.175781 0.390625 L 138.109375 0.347656 L 137.976562 0.269531 L 137.90625 0.230469 L 137.835938 0.199219 L 137.761719 0.167969 L 137.691406 0.136719 L 137.617188 0.113281 L 137.539062 0.0898438 L 137.464844 0.0664062 L 137.390625 0.0507812 L 137.3125 0.0351562 L 137.15625 0.0117188 L 137.078125 0.00390625 L 137 0 L 133.914062 0 L 133.835938 0.00390625 L 133.757812 0.0117188 L 133.601562 0.0351562 L 133.527344 0.0507812 L 133.449219 0.0664062 L 133.226562 0.136719 L 133.152344 0.167969 L 133.011719 0.230469 L 132.871094 0.308594 L 132.804688 0.347656 L 132.742188 0.390625 L 132.675781 0.4375 L 132.613281 0.484375 L 132.554688 0.535156 L 132.496094 0.589844 L 132.386719 0.699219 L 132.332031 0.757812 L 132.28125 0.816406 L 132.234375 0.878906 L 132.1875 0.945312 L 132.144531 1.007812 L 132.105469 1.074219 L 132.027344 1.214844 L 131.964844 1.355469 L 131.933594 1.429688 L 131.863281 1.652344 L 131.847656 1.730469 L 131.832031 1.804688 L 131.808594 1.960938 L 131.800781 2.039062 L 131.796875 2.117188 L 131.796875 49.136719 L 131.800781 49.214844 L 131.808594 49.292969 L 131.832031 49.449219 L 131.847656 49.523438 L 131.863281 49.601562 L 131.933594 49.824219 L 131.964844 49.898438 L 132.027344 50.039062 L 132.105469 50.179688 L 132.144531 50.246094 L 132.1875 50.308594 L 132.234375 50.375 L 132.28125 50.4375 L 132.332031 50.496094 L 132.386719 50.554688 L 132.496094 50.664062 L 132.554688 50.71875 L 132.613281 50.769531 L 132.675781 50.816406 L 132.742188 50.863281 L 132.804688 50.90625 L 132.871094 50.945312 L 133.011719 51.023438 L 133.152344 51.085938 L 133.226562 51.117188 L 133.449219 51.1875 L 133.527344 51.203125 L 133.601562 51.21875 L 133.757812 51.242188 L 133.835938 51.25 L 133.914062 51.253906 L 141.316406 51.253906 L 141.316406 43.933594 L 141.160156 43.925781 L 141.003906 43.910156 L 140.925781 43.898438 L 140.847656 43.882812 L 140.773438 43.863281 L 140.695312 43.84375 L 140.621094 43.820312 L 140.546875 43.792969 L 140.476562 43.765625 L 140.402344 43.734375 L 140.261719 43.664062 L 140.195312 43.625 L 140.0625 43.539062 L 139.9375 43.445312 L 139.875 43.394531 L 139.820312 43.34375 L 139.761719 43.289062 L 139.707031 43.230469 L 139.65625 43.175781 L 139.605469 43.113281 L 139.511719 42.988281 L 139.425781 42.855469 L 139.386719 42.789062 L 139.316406 42.648438 L 139.285156 42.578125 L 139.230469 42.429688 L 139.207031 42.355469 L 139.1875 42.277344 L 139.167969 42.203125 L 139.152344 42.125 L 139.140625 42.046875 L 139.125 41.890625 L 139.117188 41.734375 L 139.117188 31.484375 L 139.125 31.328125 L 139.140625 31.171875 L 139.152344 31.09375 L 139.167969 31.019531 L 139.1875 30.941406 L 139.207031 30.867188 L 139.230469 30.792969 L 139.285156 30.644531 L 139.316406 30.570312 L 139.351562 30.5 L 139.386719 30.433594 L 139.425781 30.363281 L 139.511719 30.230469 L 139.605469 30.105469 L 139.707031 29.988281 L 139.761719 29.929688 L 139.820312 29.878906 L 139.875 29.824219 L 139.9375 29.773438 L 140.0625 29.679688 L 140.195312 29.59375 L 140.261719 29.558594 L 140.332031 29.519531 L 140.402344 29.488281 L 140.476562 29.457031 L 140.546875 29.425781 L 140.695312 29.378906 L 140.773438 29.355469 L 140.847656 29.339844 L 141.003906 29.308594 L 141.160156 29.292969 L 141.238281 29.289062 L 145.53125 29.289062 L 145.765625 29.277344 L 145.921875 29.253906 L 145.996094 29.238281 L 146.074219 29.21875 L 146.148438 29.199219 L 146.222656 29.175781 L 146.371094 29.121094 L 146.441406 29.089844 L 146.515625 29.054688 L 146.582031 29.019531 L 146.652344 28.980469 L 146.785156 28.894531 L 146.847656 28.851562 L 146.910156 28.800781 L 147.027344 28.699219 L 147.085938 28.644531 L 153.175781 22.554688 L 153.292969 22.453125 L 153.355469 22.402344 L 153.417969 22.359375 L 153.550781 22.273438 L 153.621094 22.234375 L 153.6875 22.199219 L 153.761719 22.164062 L 153.832031 22.132812 L 153.980469 22.078125 L 154.054688 22.054688 L 154.128906 22.035156 L 154.207031 22.015625 L 154.28125 22 L 154.359375 21.988281 L 154.515625 21.972656 L 154.671875 21.964844 L 158.886719 21.964844 L 159.042969 21.972656 L 159.199219 21.988281 L 159.277344 22 L 159.355469 22.015625 L 159.429688 22.035156 L 159.507812 22.054688 L 159.582031 22.078125 L 159.730469 22.132812 L 159.800781 22.164062 L 159.941406 22.234375 L 160.007812 22.273438 L 160.140625 22.359375 L 160.203125 22.402344 L 160.328125 22.503906 L 160.386719 22.554688 L 160.496094 22.664062 L 160.546875 22.722656 L 160.648438 22.847656 L 160.691406 22.910156 L 160.777344 23.042969 L 160.816406 23.109375 L 160.886719 23.25 L 160.917969 23.320312 L 160.972656 23.46875 L 160.996094 23.542969 L 161.015625 23.621094 L 161.035156 23.695312 L 161.050781 23.773438 L 161.0625 23.851562 L 161.078125 24.007812 L 161.085938 24.164062 L 161.085938 41.734375 L 161.078125 41.890625 L 161.0625 42.046875 L 161.050781 42.125 L 161.035156 42.203125 L 161.015625 42.277344 L 160.996094 42.355469 L 160.972656 42.429688 L 160.917969 42.578125 L 160.886719 42.648438 L 160.816406 42.789062 L 160.777344 42.855469 L 160.691406 42.988281 L 160.648438 43.050781 L 160.546875 43.175781 L 160.496094 43.230469 L 160.441406 43.289062 L 160.386719 43.34375 L 160.328125 43.394531 L 160.265625 43.445312 L 160.140625 43.539062 L 160.007812 43.625 L 159.941406 43.664062 L 159.800781 43.734375 L 159.730469 43.765625 L 159.582031 43.820312 L 159.507812 43.84375 L 159.429688 43.863281 L 159.355469 43.882812 L 159.277344 43.898438 L 159.199219 43.910156 L 159.042969 43.925781 L 158.886719 43.933594 L 141.316406 43.933594 L 141.316406 51.253906 L 160.253906 51.253906 L 160.332031 51.25 L 160.410156 51.242188 L 160.566406 51.21875 L 160.640625 51.203125 L 160.71875 51.1875 L 160.941406 51.117188 L 161.015625 51.085938 L 161.15625 51.023438 L 161.296875 50.945312 L 161.363281 50.90625 L 161.425781 50.863281 L 161.492188 50.816406 L 161.554688 50.769531 L 161.613281 50.71875 L 161.671875 50.664062 L 167.816406 44.519531 L 167.871094 44.460938 L 167.921875 44.402344 L 167.96875 44.339844 L 168.015625 44.273438 L 168.058594 44.210938 L 168.097656 44.144531 L 168.175781 44.003906 L 168.238281 43.863281 L 168.269531 43.789062 L 168.339844 43.566406 L 168.355469 43.488281 L 168.371094 43.414062 L 168.394531 43.257812 L 168.402344 43.179688 L 168.40625 43.101562 L 168.40625 22.796875 L 168.402344 22.71875 L 168.394531 22.640625 L 168.371094 22.484375 L 168.355469 22.410156 L 168.339844 22.332031 L 168.269531 22.109375 L 168.238281 22.035156 L 168.175781 21.894531 L 168.097656 21.753906 L 168.058594 21.6875 L 168.015625 21.625 L 167.96875 21.558594 L 167.921875 21.496094 L 167.871094 21.4375 L 167.816406 21.378906 L 161.671875 15.234375 L 161.613281 15.179688 L 161.554688 15.128906 L 161.492188 15.082031 L 161.425781 15.035156 L 161.363281 14.992188 L 161.296875 14.953125 L 161.15625 14.875 L 161.015625 14.8125 L 160.941406 14.78125 L 160.71875 14.710938 L 160.640625 14.695312 L 160.566406 14.679688 L 160.410156 14.65625 L 160.332031 14.648438 L 160.253906 14.644531 L 154.59375 14.644531 L 154.515625 14.648438 L 154.4375 14.65625 L 154.28125 14.679688 L 154.207031 14.695312 L 154.128906 14.710938 L 153.90625 14.78125 L 153.832031 14.8125 L 153.761719 14.84375 L 153.6875 14.875 L 153.621094 14.914062 L 153.550781 14.953125 L 153.484375 14.992188 L 153.417969 15.035156 L 153.292969 15.128906 L 153.234375 15.179688 L 153.175781 15.234375 Z M 123.832031 15.289062 L 123.886719 15.230469 L 123.988281 15.113281 L 124.082031 14.988281 L 124.167969 14.855469 L 124.207031 14.785156 L 124.242188 14.71875 L 124.277344 14.648438 L 124.308594 14.574219 L 124.335938 14.5 L 124.363281 14.429688 L 124.386719 14.351562 L 124.40625 14.277344 L 124.425781 14.199219 L 124.441406 14.125 L 124.453125 14.046875 L 124.46875 13.890625 L 124.472656 13.8125 L 124.472656 8.152344 L 124.46875 8.074219 L 124.453125 7.917969 L 124.441406 7.84375 L 124.425781 7.765625 L 124.40625 7.6875 L 124.386719 7.613281 L 124.363281 7.539062 L 124.308594 7.390625 L 124.277344 7.320312 L 124.207031 7.179688 L 124.167969 7.109375 L 124.125 7.042969 L 124.082031 6.980469 L 124.035156 6.914062 L 123.988281 6.855469 L 123.9375 6.792969 L 123.886719 6.734375 L 117.796875 0.644531 L 117.679688 0.535156 L 117.621094 0.484375 L 117.496094 0.390625 L 117.429688 0.347656 L 117.296875 0.269531 L 117.226562 0.230469 L 117.15625 0.199219 L 117.082031 0.167969 L 117.011719 0.136719 L 116.863281 0.0898438 L 116.785156 0.0664062 L 116.710938 0.0507812 L 116.632812 0.0351562 L 116.476562 0.0117188 L 116.398438 0.00390625 L 116.320312 0 L 89.984375 0 L 89.90625 0.00390625 L 89.828125 0.0117188 L 89.671875 0.0351562 L 89.59375 0.0507812 L 89.519531 0.0664062 L 89.441406 0.0898438 L 89.292969 0.136719 L 89.21875 0.167969 L 89.078125 0.230469 L 89.007812 0.269531 L 88.875 0.347656 L 88.808594 0.390625 L 88.683594 0.484375 L 88.621094 0.535156 L 88.5625 0.589844 L 88.453125 0.699219 L 88.351562 0.816406 L 88.300781 0.878906 L 88.257812 0.945312 L 88.214844 1.007812 L 88.171875 1.074219 L 88.132812 1.144531 L 88.0625 1.285156 L 88.03125 1.355469 L 87.976562 1.503906 L 87.953125 1.578125 L 87.933594 1.652344 L 87.914062 1.730469 L 87.898438 1.804688 L 87.886719 1.882812 L 87.871094 2.039062 L 87.863281 2.195312 L 87.863281 49.058594 L 87.871094 49.214844 L 87.886719 49.371094 L 87.898438 49.449219 L 87.914062 49.523438 L 87.933594 49.601562 L 87.953125 49.675781 L 87.976562 49.75 L 88.03125 49.898438 L 88.0625 49.96875 L 88.132812 50.109375 L 88.171875 50.179688 L 88.214844 50.246094 L 88.257812 50.308594 L 88.300781 50.375 L 88.351562 50.4375 L 88.453125 50.554688 L 88.5625 50.664062 L 88.621094 50.71875 L 88.683594 50.769531 L 88.808594 50.863281 L 88.875 50.90625 L 89.007812 50.984375 L 89.078125 51.023438 L 89.21875 51.085938 L 89.292969 51.117188 L 89.441406 51.164062 L 89.519531 51.1875 L 89.59375 51.203125 L 89.671875 51.21875 L 89.828125 51.242188 L 89.90625 51.25 L 89.984375 51.253906 L 97.382812 51.253906 L 97.382812 43.933594 L 97.226562 43.925781 L 97.070312 43.910156 L 96.992188 43.898438 L 96.917969 43.882812 L 96.839844 43.863281 L 96.765625 43.84375 L 96.6875 43.820312 L 96.617188 43.792969 L 96.542969 43.765625 L 96.46875 43.734375 L 96.398438 43.699219 L 96.332031 43.664062 L 96.261719 43.625 L 96.128906 43.539062 L 96.003906 43.445312 L 95.886719 43.34375 L 95.828125 43.289062 L 95.773438 43.230469 L 95.722656 43.175781 L 95.671875 43.113281 L 95.578125 42.988281 L 95.492188 42.855469 L 95.457031 42.789062 L 95.417969 42.71875 L 95.355469 42.578125 L 95.324219 42.503906 L 95.277344 42.355469 L 95.253906 42.277344 L 95.238281 42.203125 L 95.207031 42.046875 L 95.191406 41.890625 L 95.1875 41.8125 L 95.1875 31.40625 L 95.191406 31.328125 L 95.207031 31.171875 L 95.222656 31.09375 L 95.238281 31.019531 L 95.253906 30.941406 L 95.324219 30.71875 L 95.386719 30.570312 L 95.417969 30.5 L 95.457031 30.433594 L 95.492188 30.363281 L 95.578125 30.230469 L 95.671875 30.105469 L 95.773438 29.988281 L 95.828125 29.929688 L 95.886719 29.878906 L 95.945312 29.824219 L 96.003906 29.773438 L 96.128906 29.679688 L 96.261719 29.59375 L 96.332031 29.558594 L 96.398438 29.519531 L 96.46875 29.488281 L 96.617188 29.425781 L 96.6875 29.402344 L 96.765625 29.378906 L 96.839844 29.355469 L 96.917969 29.339844 L 96.992188 29.324219 L 97.070312 29.308594 L 97.226562 29.292969 L 97.304688 29.289062 L 109 29.289062 L 109.078125 29.292969 L 109.234375 29.308594 L 109.3125 29.324219 L 109.386719 29.339844 L 109.464844 29.355469 L 109.6875 29.425781 L 109.761719 29.457031 L 109.902344 29.519531 L 109.972656 29.558594 L 110.042969 29.59375 L 110.109375 29.636719 L 110.171875 29.679688 L 110.238281 29.726562 L 110.300781 29.773438 L 110.359375 29.824219 L 110.417969 29.878906 L 110.472656 29.929688 L 116.507812 35.96875 L 116.5625 36.023438 L 116.617188 36.082031 L 116.667969 36.140625 L 116.761719 36.265625 L 116.804688 36.332031 L 116.84375 36.398438 L 116.882812 36.46875 L 116.921875 36.535156 L 116.953125 36.609375 L 116.984375 36.679688 L 117.015625 36.753906 L 117.085938 36.976562 L 117.101562 37.054688 L 117.117188 37.128906 L 117.140625 37.285156 L 117.148438 37.363281 L 117.152344 37.441406 L 117.152344 41.8125 L 117.148438 41.890625 L 117.140625 41.96875 L 117.117188 42.125 L 117.101562 42.203125 L 117.085938 42.277344 L 117.0625 42.355469 L 117.015625 42.503906 L 116.984375 42.578125 L 116.921875 42.71875 L 116.882812 42.789062 L 116.804688 42.921875 L 116.761719 42.988281 L 116.667969 43.113281 L 116.617188 43.175781 L 116.5625 43.230469 L 116.507812 43.289062 L 116.453125 43.34375 L 116.335938 43.445312 L 116.273438 43.492188 L 116.207031 43.539062 L 116.144531 43.582031 L 116.078125 43.625 L 116.007812 43.664062 L 115.867188 43.734375 L 115.796875 43.765625 L 115.648438 43.820312 L 115.574219 43.84375 L 115.5 43.863281 L 115.421875 43.882812 L 115.347656 43.898438 L 115.269531 43.910156 L 115.113281 43.925781 L 114.957031 43.933594 L 97.382812 43.933594 L 97.382812 51.253906 L 97.382812 21.964844 L 97.304688 21.964844 L 97.226562 21.960938 L 97.070312 21.945312 L 96.992188 21.929688 L 96.917969 21.914062 L 96.839844 21.898438 L 96.765625 21.878906 L 96.6875 21.855469 L 96.617188 21.828125 L 96.542969 21.800781 L 96.46875 21.769531 L 96.398438 21.734375 L 96.332031 21.699219 L 96.261719 21.660156 L 96.128906 21.574219 L 96.003906 21.480469 L 95.886719 21.378906 L 95.828125 21.324219 L 95.773438 21.265625 L 95.671875 21.148438 L 95.578125 21.023438 L 95.492188 20.890625 L 95.457031 20.820312 L 95.417969 20.753906 L 95.386719 20.683594 L 95.355469 20.609375 L 95.324219 20.539062 L 95.300781 20.464844 L 95.277344 20.386719 L 95.253906 20.3125 L 95.238281 20.238281 L 95.207031 20.082031 L 95.191406 19.925781 L 95.1875 19.847656 L 95.1875 9.441406 L 95.191406 9.363281 L 95.207031 9.207031 L 95.238281 9.050781 L 95.253906 8.976562 L 95.277344 8.898438 L 95.324219 8.75 L 95.355469 8.679688 L 95.386719 8.605469 L 95.417969 8.535156 L 95.457031 8.464844 L 95.492188 8.398438 L 95.578125 8.265625 L 95.671875 8.140625 L 95.773438 8.023438 L 95.828125 7.964844 L 95.886719 7.910156 L 96.003906 7.808594 L 96.128906 7.714844 L 96.261719 7.628906 L 96.332031 7.589844 L 96.398438 7.554688 L 96.46875 7.519531 L 96.542969 7.488281 L 96.617188 7.460938 L 96.6875 7.433594 L 96.765625 7.410156 L 96.839844 7.390625 L 96.917969 7.371094 L 96.992188 7.355469 L 97.070312 7.34375 L 97.226562 7.328125 L 97.382812 7.320312 L 114.957031 7.320312 L 115.113281 7.328125 L 115.269531 7.34375 L 115.347656 7.355469 L 115.421875 7.371094 L 115.5 7.390625 L 115.574219 7.410156 L 115.648438 7.433594 L 115.796875 7.488281 L 115.867188 7.519531 L 116.007812 7.589844 L 116.078125 7.628906 L 116.144531 7.671875 L 116.207031 7.714844 L 116.273438 7.761719 L 116.335938 7.808594 L 116.453125 7.910156 L 116.507812 7.964844 L 116.617188 8.082031 L 116.667969 8.140625 L 116.761719 8.265625 L 116.804688 8.332031 L 116.882812 8.464844 L 116.921875 8.535156 L 116.953125 8.605469 L 116.984375 8.679688 L 117.015625 8.75 L 117.0625 8.898438 L 117.085938 8.976562 L 117.101562 9.050781 L 117.117188 9.128906 L 117.140625 9.285156 L 117.148438 9.363281 L 117.152344 9.441406 L 117.152344 13.8125 L 117.148438 13.890625 L 117.140625 13.96875 L 117.117188 14.125 L 117.101562 14.199219 L 117.085938 14.277344 L 117.0625 14.351562 L 117.039062 14.429688 L 117.015625 14.5 L 116.953125 14.648438 L 116.921875 14.71875 L 116.882812 14.785156 L 116.84375 14.855469 L 116.804688 14.921875 L 116.761719 14.988281 L 116.667969 15.113281 L 116.617188 15.171875 L 116.507812 15.289062 L 110.417969 21.378906 L 110.300781 21.480469 L 110.238281 21.527344 L 110.171875 21.574219 L 110.109375 21.617188 L 110.042969 21.660156 L 109.972656 21.699219 L 109.832031 21.769531 L 109.761719 21.800781 L 109.613281 21.855469 L 109.539062 21.878906 L 109.464844 21.898438 L 109.386719 21.914062 L 109.3125 21.929688 L 109.234375 21.945312 L 109.078125 21.960938 L 109 21.964844 L 97.382812 21.964844 L 97.382812 51.253906 L 116.320312 51.253906 L 116.398438 51.25 L 116.476562 51.242188 L 116.632812 51.21875 L 116.710938 51.203125 L 116.785156 51.1875 L 116.863281 51.164062 L 117.011719 51.117188 L 117.082031 51.085938 L 117.15625 51.054688 L 117.226562 51.023438 L 117.296875 50.984375 L 117.429688 50.90625 L 117.496094 50.863281 L 117.621094 50.769531 L 117.679688 50.71875 L 117.796875 50.609375 L 123.886719 44.519531 L 123.988281 44.402344 L 124.035156 44.339844 L 124.082031 44.273438 L 124.125 44.210938 L 124.167969 44.144531 L 124.207031 44.074219 L 124.277344 43.933594 L 124.308594 43.863281 L 124.363281 43.714844 L 124.386719 43.640625 L 124.40625 43.566406 L 124.425781 43.488281 L 124.441406 43.414062 L 124.453125 43.335938 L 124.46875 43.179688 L 124.472656 43.101562 L 124.472656 37.441406 L 124.46875 37.363281 L 124.453125 37.207031 L 124.441406 37.128906 L 124.425781 37.054688 L 124.40625 36.976562 L 124.386719 36.902344 L 124.363281 36.828125 L 124.308594 36.679688 L 124.277344 36.609375 L 124.242188 36.535156 L 124.207031 36.46875 L 124.167969 36.398438 L 124.082031 36.265625 L 123.988281 36.140625 L 123.886719 36.023438 L 123.832031 35.96875 L 117.796875 29.929688 L 117.742188 29.875 L 117.6875 29.816406 L 117.640625 29.757812 L 117.589844 29.695312 L 117.542969 29.632812 L 117.5 29.566406 L 117.460938 29.5 L 117.421875 29.429688 L 117.386719 29.363281 L 117.351562 29.289062 L 117.320312 29.21875 L 117.265625 29.070312 L 117.242188 28.996094 L 117.222656 28.921875 L 117.203125 28.84375 L 117.1875 28.769531 L 117.164062 28.613281 L 117.15625 28.535156 L 117.152344 28.457031 L 117.152344 22.796875 L 117.15625 22.71875 L 117.164062 22.640625 L 117.1875 22.484375 L 117.203125 22.410156 L 117.222656 22.332031 L 117.242188 22.257812 L 117.265625 22.183594 L 117.320312 22.035156 L 117.351562 21.964844 L 117.421875 21.824219 L 117.460938 21.753906 L 117.5 21.6875 L 117.542969 21.625 L 117.589844 21.558594 L 117.640625 21.496094 L 117.6875 21.4375 L 117.742188 21.378906 Z M 51.253906 19.769531 L 51.253906 19.847656 L 51.261719 19.925781 L 51.265625 20.003906 L 51.289062 20.160156 L 51.304688 20.238281 L 51.34375 20.386719 L 51.367188 20.464844 L 51.394531 20.539062 L 51.421875 20.609375 L 51.453125 20.683594 L 51.488281 20.753906 L 51.523438 20.820312 L 51.5625 20.890625 L 51.601562 20.957031 L 51.648438 21.023438 L 51.691406 21.085938 L 51.742188 21.148438 L 51.789062 21.207031 L 51.898438 21.324219 L 51.953125 21.378906 L 52.011719 21.429688 L 52.074219 21.480469 L 52.132812 21.527344 L 52.199219 21.574219 L 52.261719 21.617188 L 52.328125 21.660156 L 52.398438 21.699219 L 52.539062 21.769531 L 52.609375 21.800781 L 52.757812 21.855469 L 52.832031 21.878906 L 52.90625 21.898438 L 53.0625 21.929688 L 53.136719 21.945312 L 53.292969 21.960938 L 53.371094 21.964844 L 71.023438 21.964844 L 71.179688 21.972656 L 71.335938 21.988281 L 71.414062 22 L 71.492188 22.015625 L 71.566406 22.035156 L 71.644531 22.054688 L 71.71875 22.078125 L 71.792969 22.105469 L 71.863281 22.132812 L 71.9375 22.164062 L 72.078125 22.234375 L 72.144531 22.273438 L 72.277344 22.359375 L 72.339844 22.402344 L 72.402344 22.453125 L 72.519531 22.554688 L 72.578125 22.609375 L 72.632812 22.664062 L 72.683594 22.722656 L 72.734375 22.785156 L 72.828125 22.910156 L 72.914062 23.042969 L 72.953125 23.109375 L 73.023438 23.25 L 73.054688 23.320312 L 73.109375 23.46875 L 73.132812 23.542969 L 73.152344 23.621094 L 73.171875 23.695312 L 73.183594 23.773438 L 73.199219 23.851562 L 73.214844 24.007812 L 73.21875 24.085938 L 73.21875 27.171875 L 73.214844 27.25 L 73.207031 27.328125 L 73.199219 27.402344 L 73.183594 27.480469 L 73.171875 27.558594 L 73.152344 27.632812 L 73.132812 27.710938 L 73.109375 27.785156 L 73.054688 27.933594 L 73.023438 28.003906 L 72.953125 28.144531 L 72.914062 28.210938 L 72.828125 28.34375 L 72.734375 28.46875 L 72.683594 28.53125 L 72.632812 28.589844 L 72.578125 28.644531 L 72.519531 28.699219 L 72.402344 28.800781 L 72.339844 28.851562 L 72.277344 28.894531 L 72.144531 28.980469 L 72.078125 29.019531 L 71.9375 29.089844 L 71.863281 29.121094 L 71.792969 29.148438 L 71.71875 29.175781 L 71.644531 29.199219 L 71.566406 29.21875 L 71.492188 29.238281 L 71.414062 29.253906 L 71.257812 29.277344 L 71.023438 29.289062 L 52.085938 29.289062 L 52.007812 29.292969 L 51.851562 29.308594 L 51.695312 29.339844 L 51.621094 29.355469 L 51.546875 29.378906 L 51.46875 29.402344 L 51.394531 29.425781 L 51.324219 29.457031 L 51.25 29.488281 L 51.179688 29.519531 L 51.113281 29.558594 L 51.042969 29.59375 L 50.910156 29.679688 L 50.785156 29.773438 L 50.726562 29.824219 L 50.667969 29.878906 L 50.609375 29.929688 L 44.574219 35.96875 L 44.519531 36.023438 L 44.417969 36.140625 L 44.324219 36.265625 L 44.238281 36.398438 L 44.199219 36.46875 L 44.164062 36.535156 L 44.128906 36.609375 L 44.097656 36.679688 L 44.042969 36.828125 L 44.019531 36.902344 L 44 36.976562 L 43.980469 37.054688 L 43.96875 37.128906 L 43.953125 37.207031 L 43.9375 37.363281 L 43.933594 37.441406 L 43.933594 43.101562 L 43.9375 43.179688 L 43.953125 43.335938 L 43.96875 43.414062 L 43.980469 43.488281 L 44 43.566406 L 44.019531 43.640625 L 44.042969 43.714844 L 44.097656 43.863281 L 44.128906 43.933594 L 44.199219 44.074219 L 44.238281 44.144531 L 44.28125 44.210938 L 44.324219 44.273438 L 44.371094 44.339844 L 44.417969 44.402344 L 44.519531 44.519531 L 50.609375 50.609375 L 50.726562 50.71875 L 50.785156 50.769531 L 50.910156 50.863281 L 50.976562 50.90625 L 51.042969 50.945312 L 51.113281 50.984375 L 51.179688 51.023438 L 51.25 51.054688 L 51.324219 51.085938 L 51.394531 51.117188 L 51.46875 51.140625 L 51.546875 51.164062 L 51.621094 51.1875 L 51.695312 51.203125 L 51.773438 51.21875 L 51.929688 51.242188 L 52.007812 51.25 L 52.085938 51.253906 L 53.449219 51.253906 L 53.449219 43.933594 L 53.292969 43.925781 L 53.136719 43.910156 L 53.0625 43.898438 L 52.984375 43.882812 L 52.90625 43.863281 L 52.832031 43.84375 L 52.757812 43.820312 L 52.609375 43.765625 L 52.539062 43.734375 L 52.398438 43.664062 L 52.328125 43.625 L 52.261719 43.582031 L 52.199219 43.539062 L 52.132812 43.492188 L 52.074219 43.445312 L 52.011719 43.394531 L 51.953125 43.34375 L 51.898438 43.289062 L 51.84375 43.230469 L 51.789062 43.175781 L 51.742188 43.113281 L 51.691406 43.050781 L 51.648438 42.988281 L 51.601562 42.921875 L 51.523438 42.789062 L 51.453125 42.648438 L 51.421875 42.578125 L 51.367188 42.429688 L 51.34375 42.355469 L 51.324219 42.277344 L 51.304688 42.203125 L 51.289062 42.125 L 51.265625 41.96875 L 51.261719 41.890625 L 51.253906 41.8125 L 51.253906 38.726562 L 51.261719 38.648438 L 51.265625 38.570312 L 51.277344 38.496094 L 51.289062 38.417969 L 51.304688 38.339844 L 51.324219 38.261719 L 51.34375 38.1875 L 51.367188 38.113281 L 51.421875 37.964844 L 51.453125 37.894531 L 51.523438 37.753906 L 51.601562 37.621094 L 51.648438 37.554688 L 51.691406 37.492188 L 51.742188 37.429688 L 51.789062 37.367188 L 51.84375 37.308594 L 51.953125 37.199219 L 52.011719 37.148438 L 52.074219 37.097656 L 52.132812 37.046875 L 52.199219 37.003906 L 52.261719 36.957031 L 52.328125 36.917969 L 52.398438 36.878906 L 52.539062 36.808594 L 52.609375 36.777344 L 52.757812 36.722656 L 52.832031 36.699219 L 52.90625 36.679688 L 52.984375 36.660156 L 53.0625 36.644531 L 53.136719 36.632812 L 53.214844 36.621094 L 53.449219 36.609375 L 71.023438 36.609375 L 71.257812 36.621094 L 71.414062 36.644531 L 71.492188 36.660156 L 71.566406 36.679688 L 71.644531 36.699219 L 71.71875 36.722656 L 71.792969 36.75 L 71.863281 36.777344 L 71.9375 36.808594 L 72.078125 36.878906 L 72.210938 36.957031 L 72.277344 37.003906 L 72.339844 37.046875 L 72.402344 37.097656 L 72.519531 37.199219 L 72.578125 37.253906 L 72.632812 37.308594 L 72.683594 37.367188 L 72.734375 37.429688 L 72.828125 37.554688 L 72.914062 37.6875 L 72.953125 37.753906 L 73.023438 37.894531 L 73.054688 37.964844 L 73.109375 38.113281 L 73.132812 38.1875 L 73.152344 38.261719 L 73.171875 38.339844 L 73.183594 38.417969 L 73.199219 38.496094 L 73.207031 38.570312 L 73.214844 38.648438 L 73.21875 38.726562 L 73.21875 41.8125 L 73.214844 41.890625 L 73.199219 42.046875 L 73.183594 42.125 L 73.171875 42.203125 L 73.152344 42.277344 L 73.132812 42.355469 L 73.109375 42.429688 L 73.054688 42.578125 L 73.023438 42.648438 L 72.953125 42.789062 L 72.914062 42.855469 L 72.828125 42.988281 L 72.734375 43.113281 L 72.683594 43.175781 L 72.632812 43.230469 L 72.578125 43.289062 L 72.519531 43.34375 L 72.402344 43.445312 L 72.277344 43.539062 L 72.144531 43.625 L 72.078125 43.664062 L 71.9375 43.734375 L 71.863281 43.765625 L 71.792969 43.792969 L 71.71875 43.820312 L 71.644531 43.84375 L 71.566406 43.863281 L 71.492188 43.882812 L 71.414062 43.898438 L 71.335938 43.910156 L 71.179688 43.925781 L 71.023438 43.933594 L 53.449219 43.933594 L 53.449219 51.253906 L 78.425781 51.253906 L 78.503906 51.25 L 78.582031 51.242188 L 78.660156 51.230469 L 78.734375 51.21875 L 78.890625 51.1875 L 79.113281 51.117188 L 79.1875 51.085938 L 79.328125 51.023438 L 79.398438 50.984375 L 79.464844 50.945312 L 79.535156 50.90625 L 79.597656 50.863281 L 79.664062 50.816406 L 79.722656 50.769531 L 79.785156 50.71875 L 79.84375 50.664062 L 79.953125 50.554688 L 80.054688 50.4375 L 80.105469 50.375 L 80.148438 50.308594 L 80.195312 50.246094 L 80.234375 50.179688 L 80.273438 50.109375 L 80.34375 49.96875 L 80.375 49.898438 L 80.429688 49.75 L 80.453125 49.675781 L 80.472656 49.601562 L 80.492188 49.523438 L 80.507812 49.449219 L 80.53125 49.292969 L 80.542969 49.058594 L 80.542969 22.875 L 80.53125 22.640625 L 80.507812 22.484375 L 80.492188 22.410156 L 80.472656 22.332031 L 80.453125 22.257812 L 80.429688 22.183594 L 80.375 22.035156 L 80.34375 21.964844 L 80.273438 21.824219 L 80.234375 21.753906 L 80.195312 21.6875 L 80.148438 21.625 L 80.105469 21.558594 L 80.054688 21.496094 L 79.953125 21.378906 L 73.808594 15.234375 L 73.75 15.179688 L 73.6875 15.128906 L 73.5625 15.035156 L 73.5 14.992188 L 73.429688 14.953125 L 73.363281 14.914062 L 73.292969 14.875 L 73.152344 14.8125 L 73.078125 14.78125 L 72.855469 14.710938 L 72.699219 14.679688 L 72.625 14.667969 L 72.546875 14.65625 L 72.46875 14.648438 L 72.390625 14.644531 L 53.371094 14.644531 L 53.292969 14.648438 L 53.214844 14.65625 L 53.136719 14.667969 L 53.0625 14.679688 L 52.90625 14.710938 L 52.683594 14.78125 L 52.609375 14.8125 L 52.46875 14.875 L 52.328125 14.953125 L 52.261719 14.992188 L 52.199219 15.035156 L 52.132812 15.082031 L 52.074219 15.128906 L 52.011719 15.179688 L 51.953125 15.234375 L 51.84375 15.34375 L 51.789062 15.402344 L 51.742188 15.460938 L 51.691406 15.523438 L 51.648438 15.589844 L 51.601562 15.652344 L 51.5625 15.71875 L 51.523438 15.789062 L 51.453125 15.929688 L 51.421875 16 L 51.367188 16.148438 L 51.34375 16.222656 L 51.324219 16.296875 L 51.304688 16.375 L 51.289062 16.449219 L 51.265625 16.605469 L 51.261719 16.683594 L 51.253906 16.761719 Z M 0.644531 6.679688 L 0.589844 6.734375 L 0.535156 6.792969 L 0.484375 6.855469 L 0.4375 6.914062 L 0.390625 6.980469 L 0.347656 7.042969 L 0.308594 7.109375 L 0.230469 7.25 L 0.167969 7.390625 L 0.136719 7.464844 L 0.0664062 7.6875 L 0.0351562 7.84375 L 0.0234375 7.917969 L 0.0117188 7.996094 L 0.00390625 8.074219 L 0 8.152344 L 0 49.136719 L 0.00390625 49.214844 L 0.0117188 49.292969 L 0.0351562 49.449219 L 0.0507812 49.523438 L 0.0664062 49.601562 L 0.136719 49.824219 L 0.167969 49.898438 L 0.230469 50.039062 L 0.308594 50.179688 L 0.347656 50.246094 L 0.390625 50.308594 L 0.4375 50.375 L 0.484375 50.4375 L 0.535156 50.496094 L 0.589844 50.554688 L 0.699219 50.664062 L 0.757812 50.71875 L 0.816406 50.769531 L 0.878906 50.816406 L 0.945312 50.863281 L 1.007812 50.90625 L 1.074219 50.945312 L 1.214844 51.023438 L 1.355469 51.085938 L 1.429688 51.117188 L 1.652344 51.1875 L 1.730469 51.203125 L 1.804688 51.21875 L 1.960938 51.242188 L 2.039062 51.25 L 2.117188 51.253906 L 5.203125 51.253906 L 5.28125 51.25 L 5.359375 51.242188 L 5.515625 51.21875 L 5.59375 51.203125 L 5.667969 51.1875 L 5.746094 51.164062 L 5.894531 51.117188 L 5.964844 51.085938 L 6.039062 51.054688 L 6.109375 51.023438 L 6.179688 50.984375 L 6.3125 50.90625 L 6.378906 50.863281 L 6.503906 50.769531 L 6.5625 50.71875 L 6.679688 50.609375 L 6.734375 50.554688 L 6.835938 50.4375 L 6.882812 50.375 L 6.929688 50.308594 L 6.972656 50.246094 L 7.015625 50.179688 L 7.054688 50.109375 L 7.125 49.96875 L 7.15625 49.898438 L 7.210938 49.75 L 7.234375 49.675781 L 7.253906 49.601562 L 7.273438 49.523438 L 7.289062 49.449219 L 7.300781 49.371094 L 7.316406 49.214844 L 7.320312 49.136719 L 7.320312 38.808594 L 7.324219 38.726562 L 7.328125 38.648438 L 7.335938 38.570312 L 7.34375 38.496094 L 7.355469 38.417969 L 7.371094 38.339844 L 7.390625 38.261719 L 7.410156 38.1875 L 7.433594 38.113281 L 7.488281 37.964844 L 7.519531 37.894531 L 7.589844 37.753906 L 7.628906 37.6875 L 7.714844 37.554688 L 7.808594 37.429688 L 7.859375 37.367188 L 7.910156 37.308594 L 7.964844 37.253906 L 8.023438 37.199219 L 8.140625 37.097656 L 8.203125 37.046875 L 8.265625 37.003906 L 8.332031 36.957031 L 8.464844 36.878906 L 8.605469 36.808594 L 8.679688 36.777344 L 8.75 36.75 L 8.824219 36.722656 L 8.898438 36.699219 L 8.976562 36.679688 L 9.050781 36.660156 L 9.128906 36.644531 L 9.285156 36.621094 L 9.519531 36.609375 L 9.519531 29.289062 L 9.285156 29.277344 L 9.128906 29.253906 L 9.050781 29.238281 L 8.976562 29.21875 L 8.898438 29.199219 L 8.824219 29.175781 L 8.75 29.148438 L 8.679688 29.121094 L 8.605469 29.089844 L 8.464844 29.019531 L 8.398438 28.980469 L 8.265625 28.894531 L 8.203125 28.851562 L 8.140625 28.800781 L 8.023438 28.699219 L 7.964844 28.644531 L 7.910156 28.589844 L 7.859375 28.53125 L 7.808594 28.46875 L 7.714844 28.34375 L 7.628906 28.210938 L 7.589844 28.144531 L 7.519531 28.003906 L 7.488281 27.933594 L 7.433594 27.785156 L 7.410156 27.710938 L 7.390625 27.632812 L 7.371094 27.558594 L 7.355469 27.480469 L 7.34375 27.402344 L 7.335938 27.328125 L 7.328125 27.25 L 7.324219 27.171875 L 7.320312 27.089844 L 7.320312 9.519531 L 7.328125 9.363281 L 7.34375 9.207031 L 7.355469 9.128906 L 7.371094 9.050781 L 7.390625 8.976562 L 7.410156 8.898438 L 7.433594 8.824219 L 7.460938 8.75 L 7.488281 8.679688 L 7.519531 8.605469 L 7.589844 8.464844 L 7.628906 8.398438 L 7.714844 8.265625 L 7.808594 8.140625 L 7.910156 8.023438 L 7.964844 7.964844 L 8.023438 7.910156 L 8.140625 7.808594 L 8.265625 7.714844 L 8.398438 7.628906 L 8.464844 7.589844 L 8.605469 7.519531 L 8.679688 7.488281 L 8.75 7.460938 L 8.824219 7.433594 L 8.898438 7.410156 L 8.976562 7.390625 L 9.050781 7.371094 L 9.128906 7.355469 L 9.207031 7.34375 L 9.363281 7.328125 L 9.519531 7.320312 L 27.089844 7.320312 L 27.171875 7.324219 L 27.25 7.328125 L 27.328125 7.335938 L 27.402344 7.34375 L 27.480469 7.355469 L 27.558594 7.371094 L 27.632812 7.390625 L 27.710938 7.410156 L 27.785156 7.433594 L 27.933594 7.488281 L 28.003906 7.519531 L 28.144531 7.589844 L 28.210938 7.628906 L 28.34375 7.714844 L 28.46875 7.808594 L 28.53125 7.859375 L 28.589844 7.910156 L 28.644531 7.964844 L 28.699219 8.023438 L 28.800781 8.140625 L 28.851562 8.203125 L 28.894531 8.265625 L 28.980469 8.398438 L 29.019531 8.464844 L 29.089844 8.605469 L 29.121094 8.679688 L 29.148438 8.75 L 29.175781 8.824219 L 29.199219 8.898438 L 29.21875 8.976562 L 29.238281 9.050781 L 29.253906 9.128906 L 29.277344 9.285156 L 29.289062 9.519531 L 29.289062 27.089844 L 29.285156 27.171875 L 29.277344 27.328125 L 29.265625 27.402344 L 29.253906 27.480469 L 29.238281 27.558594 L 29.21875 27.632812 L 29.199219 27.710938 L 29.175781 27.785156 L 29.121094 27.933594 L 29.089844 28.003906 L 29.019531 28.144531 L 28.980469 28.210938 L 28.894531 28.34375 L 28.851562 28.40625 L 28.75 28.53125 L 28.699219 28.589844 L 28.589844 28.699219 L 28.53125 28.75 L 28.40625 28.851562 L 28.34375 28.894531 L 28.210938 28.980469 L 28.144531 29.019531 L 28.003906 29.089844 L 27.933594 29.121094 L 27.785156 29.175781 L 27.710938 29.199219 L 27.632812 29.21875 L 27.558594 29.238281 L 27.480469 29.253906 L 27.402344 29.265625 L 27.328125 29.277344 L 27.171875 29.285156 L 27.089844 29.289062 L 9.519531 29.289062 L 9.519531 36.609375 L 27.089844 36.609375 L 27.171875 36.613281 L 27.328125 36.621094 L 27.402344 36.632812 L 27.480469 36.644531 L 27.558594 36.660156 L 27.632812 36.679688 L 27.710938 36.699219 L 27.785156 36.722656 L 27.933594 36.777344 L 28.003906 36.808594 L 28.144531 36.878906 L 28.277344 36.957031 L 28.34375 37.003906 L 28.40625 37.046875 L 28.53125 37.148438 L 28.589844 37.199219 L 28.699219 37.308594 L 28.75 37.367188 L 28.851562 37.492188 L 28.894531 37.554688 L 28.980469 37.6875 L 29.019531 37.753906 L 29.089844 37.894531 L 29.121094 37.964844 L 29.175781 38.113281 L 29.199219 38.1875 L 29.21875 38.261719 L 29.238281 38.339844 L 29.253906 38.417969 L 29.265625 38.496094 L 29.277344 38.570312 L 29.285156 38.726562 L 29.289062 38.808594 L 29.289062 49.136719 L 29.292969 49.214844 L 29.308594 49.371094 L 29.324219 49.449219 L 29.339844 49.523438 L 29.355469 49.601562 L 29.425781 49.824219 L 29.457031 49.898438 L 29.519531 50.039062 L 29.558594 50.109375 L 29.59375 50.179688 L 29.636719 50.246094 L 29.679688 50.308594 L 29.726562 50.375 L 29.773438 50.4375 L 29.824219 50.496094 L 29.878906 50.554688 L 29.929688 50.609375 L 30.046875 50.71875 L 30.105469 50.769531 L 30.230469 50.863281 L 30.296875 50.90625 L 30.363281 50.945312 L 30.433594 50.984375 L 30.5 51.023438 L 30.570312 51.054688 L 30.71875 51.117188 L 30.941406 51.1875 L 31.019531 51.203125 L 31.09375 51.21875 L 31.25 51.242188 L 31.328125 51.25 L 31.40625 51.253906 L 34.492188 51.253906 L 34.570312 51.25 L 34.648438 51.242188 L 34.804688 51.21875 L 34.878906 51.203125 L 34.957031 51.1875 L 35.179688 51.117188 L 35.253906 51.085938 L 35.324219 51.054688 L 35.398438 51.023438 L 35.464844 50.984375 L 35.535156 50.945312 L 35.601562 50.90625 L 35.667969 50.863281 L 35.792969 50.769531 L 35.851562 50.71875 L 35.96875 50.609375 L 36.019531 50.554688 L 36.074219 50.496094 L 36.125 50.4375 L 36.171875 50.375 L 36.21875 50.308594 L 36.261719 50.246094 L 36.300781 50.179688 L 36.378906 50.039062 L 36.441406 49.898438 L 36.472656 49.824219 L 36.542969 49.601562 L 36.558594 49.523438 L 36.574219 49.449219 L 36.597656 49.292969 L 36.605469 49.214844 L 36.609375 49.136719 L 36.609375 8.152344 L 36.605469 8.074219 L 36.597656 7.996094 L 36.585938 7.917969 L 36.574219 7.84375 L 36.542969 7.6875 L 36.472656 7.464844 L 36.441406 7.390625 L 36.378906 7.25 L 36.300781 7.109375 L 36.261719 7.042969 L 36.21875 6.980469 L 36.171875 6.914062 L 36.125 6.855469 L 36.074219 6.792969 L 36.019531 6.734375 L 35.96875 6.679688 L 29.929688 0.644531 L 29.875 0.589844 L 29.816406 0.535156 L 29.757812 0.484375 L 29.632812 0.390625 L 29.566406 0.347656 L 29.5 0.308594 L 29.429688 0.269531 L 29.363281 0.230469 L 29.289062 0.199219 L 29.21875 0.167969 L 29.144531 0.136719 L 28.921875 0.0664062 L 28.84375 0.0507812 L 28.769531 0.0351562 L 28.613281 0.0117188 L 28.535156 0.00390625 L 28.457031 0 L 8.152344 0 L 8.074219 0.00390625 L 7.996094 0.0117188 L 7.917969 0.0234375 L 7.84375 0.0351562 L 7.6875 0.0664062 L 7.464844 0.136719 L 7.390625 0.167969 L 7.25 0.230469 L 7.109375 0.308594 L 7.042969 0.347656 L 6.980469 0.390625 L 6.914062 0.4375 L 6.855469 0.484375 L 6.792969 0.535156 L 6.734375 0.589844 Z M 0.644531 6.679688 "/>
</svg>
