<?xml version="1.0" encoding="UTF-8"?>
<svg xmlns="http://www.w3.org/2000/svg" xmlns:xlink="http://www.w3.org/1999/xlink" width="288" height="125" viewBox="0 0 288 125">
<path fill-rule="nonzero" fill="rgb(84.3137%, 0%, 0%)" fill-opacity="0.5" d="M 223.199219 13.871094 L 237.601562 13.871094 L 237.601562 14.160156 L 223.199219 14.160156 Z M 223.199219 14.640625 L 237.601562 14.640625 L 237.601562 14.929688 L 223.199219 14.929688 Z M 237.601562 14.640625 L 237.6875 14.640625 L 237.714844 14.644531 L 237.742188 14.644531 L 237.773438 14.648438 L 237.800781 14.648438 L 237.828125 14.652344 L 237.859375 14.65625 L 237.914062 14.664062 L 237.945312 14.667969 L 238 14.675781 L 238.027344 14.683594 L 238.054688 14.6875 L 238.085938 14.695312 L 238.113281 14.703125 L 238.140625 14.707031 L 238.222656 14.730469 L 238.25 14.742188 L 238.304688 14.757812 L 238.332031 14.769531 L 238.359375 14.777344 L 238.414062 14.800781 L 238.441406 14.808594 L 238.464844 14.820312 L 238.519531 14.84375 L 238.542969 14.859375 L 238.597656 14.882812 L 238.621094 14.898438 L 238.648438 14.910156 L 238.671875 14.925781 L 238.695312 14.9375 L 238.722656 14.953125 L 238.839844 15.03125 L 238.863281 15.050781 L 238.910156 15.082031 L 238.933594 15.101562 L 238.957031 15.117188 L 238.980469 15.136719 L 239 15.15625 L 239.023438 15.175781 L 239.042969 15.195312 L 239.066406 15.210938 L 239.085938 15.234375 L 239.105469 15.253906 L 239.128906 15.273438 L 239.167969 15.3125 L 239.1875 15.335938 L 239.207031 15.355469 L 239.226562 15.378906 L 239.246094 15.398438 L 239.261719 15.421875 L 239.28125 15.445312 L 239.300781 15.464844 L 239.332031 15.511719 L 239.351562 15.535156 L 239.429688 15.652344 L 239.445312 15.679688 L 239.476562 15.726562 L 239.488281 15.753906 L 239.503906 15.777344 L 239.515625 15.804688 L 239.53125 15.828125 L 239.554688 15.882812 L 239.566406 15.90625 L 239.601562 15.988281 L 239.613281 16.011719 L 239.621094 16.039062 L 239.632812 16.066406 L 239.640625 16.09375 L 239.652344 16.121094 L 239.691406 16.257812 L 239.699219 16.289062 L 239.703125 16.316406 L 239.71875 16.371094 L 239.722656 16.398438 L 239.726562 16.429688 L 239.734375 16.457031 L 239.742188 16.511719 L 239.746094 16.542969 L 239.746094 16.570312 L 239.75 16.597656 L 239.753906 16.628906 L 239.753906 16.65625 L 239.757812 16.683594 L 239.757812 16.742188 L 239.761719 16.769531 L 239.761719 16.800781 L 239.472656 16.800781 L 239.472656 16.746094 L 239.46875 16.71875 L 239.46875 16.667969 L 239.460938 16.613281 L 239.460938 16.585938 L 239.457031 16.558594 L 239.453125 16.535156 L 239.441406 16.453125 L 239.433594 16.429688 L 239.429688 16.402344 L 239.421875 16.375 L 239.417969 16.351562 L 239.402344 16.296875 L 239.394531 16.273438 L 239.386719 16.246094 L 239.378906 16.222656 L 239.371094 16.195312 L 239.363281 16.171875 L 239.355469 16.144531 L 239.34375 16.121094 L 239.335938 16.097656 L 239.324219 16.070312 L 239.3125 16.046875 L 239.304688 16.023438 L 239.292969 16 L 239.28125 15.972656 L 239.269531 15.949219 L 239.253906 15.925781 L 239.230469 15.878906 L 239.214844 15.855469 L 239.203125 15.832031 L 239.1875 15.808594 L 239.175781 15.789062 L 239.144531 15.742188 L 239.128906 15.722656 L 239.113281 15.699219 L 239.097656 15.679688 L 239.082031 15.65625 L 239.066406 15.636719 L 239.050781 15.613281 L 239.03125 15.59375 L 239.015625 15.574219 L 238.996094 15.554688 L 238.980469 15.535156 L 238.921875 15.476562 L 238.90625 15.457031 L 238.886719 15.4375 L 238.867188 15.421875 L 238.847656 15.402344 L 238.824219 15.386719 L 238.804688 15.367188 L 238.765625 15.335938 L 238.742188 15.316406 L 238.722656 15.300781 L 238.699219 15.285156 L 238.679688 15.269531 L 238.632812 15.238281 L 238.613281 15.226562 L 238.566406 15.195312 L 238.519531 15.171875 L 238.496094 15.15625 L 238.378906 15.097656 L 238.351562 15.085938 L 238.328125 15.074219 L 238.304688 15.066406 L 238.277344 15.054688 L 238.253906 15.046875 L 238.230469 15.035156 L 238.203125 15.027344 L 238.179688 15.019531 L 238.152344 15.011719 L 238.128906 15.003906 L 238.074219 14.988281 L 238.050781 14.984375 L 238.023438 14.976562 L 237.996094 14.972656 L 237.972656 14.964844 L 237.917969 14.957031 L 237.894531 14.949219 L 237.867188 14.945312 L 237.839844 14.945312 L 237.785156 14.9375 L 237.761719 14.933594 L 237.734375 14.933594 L 237.707031 14.929688 L 237.601562 14.929688 Z M 237.601562 13.871094 L 237.667969 13.871094 L 237.699219 13.875 L 237.765625 13.875 L 237.800781 13.878906 L 237.832031 13.882812 L 237.867188 13.882812 L 237.898438 13.886719 L 237.933594 13.890625 L 237.964844 13.894531 L 238 13.898438 L 238.03125 13.902344 L 238.066406 13.910156 L 238.097656 13.914062 L 238.128906 13.921875 L 238.164062 13.925781 L 238.226562 13.941406 L 238.261719 13.949219 L 238.324219 13.964844 L 238.359375 13.972656 L 238.421875 13.988281 L 238.453125 14 L 238.484375 14.007812 L 238.515625 14.019531 L 238.550781 14.03125 L 238.582031 14.042969 L 238.613281 14.050781 L 238.675781 14.074219 L 238.707031 14.089844 L 238.734375 14.101562 L 238.765625 14.113281 L 238.796875 14.128906 L 238.828125 14.140625 L 238.859375 14.15625 L 238.886719 14.171875 L 238.917969 14.183594 L 238.945312 14.199219 L 239.007812 14.230469 L 239.035156 14.246094 L 239.0625 14.265625 L 239.09375 14.28125 L 239.121094 14.296875 L 239.148438 14.316406 L 239.179688 14.332031 L 239.261719 14.390625 L 239.289062 14.40625 L 239.34375 14.445312 L 239.371094 14.46875 L 239.394531 14.488281 L 239.449219 14.527344 L 239.472656 14.550781 L 239.5 14.570312 L 239.523438 14.59375 L 239.550781 14.613281 L 239.621094 14.683594 L 239.648438 14.707031 L 239.71875 14.777344 L 239.738281 14.800781 L 239.761719 14.824219 L 239.785156 14.851562 L 239.808594 14.875 L 239.828125 14.902344 L 239.851562 14.925781 L 239.871094 14.953125 L 239.890625 14.976562 L 239.914062 15.003906 L 240.03125 15.167969 L 240.046875 15.195312 L 240.085938 15.25 L 240.101562 15.277344 L 240.117188 15.308594 L 240.136719 15.335938 L 240.152344 15.363281 L 240.167969 15.394531 L 240.183594 15.421875 L 240.214844 15.484375 L 240.230469 15.511719 L 240.246094 15.542969 L 240.257812 15.574219 L 240.273438 15.601562 L 240.296875 15.664062 L 240.3125 15.695312 L 240.371094 15.851562 L 240.378906 15.882812 L 240.402344 15.945312 L 240.410156 15.976562 L 240.417969 16.011719 L 240.429688 16.042969 L 240.445312 16.105469 L 240.453125 16.140625 L 240.460938 16.171875 L 240.464844 16.203125 L 240.472656 16.238281 L 240.480469 16.269531 L 240.484375 16.300781 L 240.492188 16.335938 L 240.496094 16.367188 L 240.5 16.402344 L 240.503906 16.433594 L 240.507812 16.46875 L 240.511719 16.5 L 240.515625 16.535156 L 240.519531 16.566406 L 240.519531 16.601562 L 240.523438 16.632812 L 240.523438 16.667969 L 240.527344 16.699219 L 240.527344 16.800781 L 240.238281 16.800781 L 240.238281 16.671875 L 240.234375 16.640625 L 240.234375 16.609375 L 240.226562 16.546875 L 240.226562 16.515625 L 240.21875 16.453125 L 240.210938 16.421875 L 240.199219 16.328125 L 240.183594 16.265625 L 240.179688 16.234375 L 240.15625 16.140625 L 240.148438 16.113281 L 240.132812 16.050781 L 240.121094 16.019531 L 240.113281 15.988281 L 240.101562 15.960938 L 240.09375 15.929688 L 240.082031 15.898438 L 240.070312 15.871094 L 240.058594 15.839844 L 240.046875 15.8125 L 240.035156 15.78125 L 240.023438 15.753906 L 240.011719 15.722656 L 239.996094 15.695312 L 239.984375 15.667969 L 239.96875 15.636719 L 239.957031 15.609375 L 239.925781 15.554688 L 239.914062 15.527344 L 239.882812 15.472656 L 239.863281 15.445312 L 239.816406 15.363281 L 239.796875 15.335938 L 239.78125 15.308594 L 239.761719 15.285156 L 239.742188 15.257812 L 239.722656 15.234375 L 239.707031 15.207031 L 239.6875 15.183594 L 239.667969 15.15625 L 239.648438 15.132812 L 239.625 15.109375 L 239.605469 15.085938 L 239.585938 15.058594 L 239.566406 15.035156 L 239.542969 15.011719 L 239.523438 14.988281 L 239.5 14.96875 L 239.476562 14.945312 L 239.457031 14.921875 L 239.433594 14.898438 L 239.410156 14.878906 L 239.386719 14.855469 L 239.363281 14.835938 L 239.339844 14.8125 L 239.292969 14.773438 L 239.265625 14.753906 L 239.21875 14.714844 L 239.191406 14.695312 L 239.167969 14.675781 L 239.140625 14.65625 L 239.117188 14.636719 L 239.089844 14.621094 L 239.0625 14.601562 L 239.035156 14.585938 L 239.011719 14.566406 L 238.847656 14.472656 L 238.816406 14.457031 L 238.789062 14.445312 L 238.734375 14.414062 L 238.703125 14.402344 L 238.675781 14.390625 L 238.648438 14.375 L 238.617188 14.363281 L 238.589844 14.351562 L 238.558594 14.339844 L 238.53125 14.328125 L 238.5 14.316406 L 238.46875 14.308594 L 238.441406 14.296875 L 238.410156 14.289062 L 238.378906 14.277344 L 238.347656 14.269531 L 238.320312 14.257812 L 238.195312 14.226562 L 238.164062 14.222656 L 238.101562 14.207031 L 238.074219 14.203125 L 238.042969 14.195312 L 237.980469 14.1875 L 237.945312 14.183594 L 237.820312 14.167969 L 237.789062 14.167969 L 237.757812 14.164062 L 237.726562 14.164062 L 237.695312 14.160156 L 237.601562 14.160156 Z M 240.527344 16.800781 L 240.527344 62.398438 L 240.238281 62.398438 L 240.238281 16.800781 Z M 239.761719 16.800781 L 239.761719 62.398438 L 239.472656 62.398438 L 239.472656 16.800781 Z M 240.527344 62.398438 L 240.527344 108 L 240.238281 108 L 240.238281 62.398438 Z M 239.761719 62.398438 L 239.761719 108 L 239.472656 108 L 239.472656 62.398438 Z M 239.761719 108 L 239.761719 108.125 L 239.765625 108.15625 L 239.765625 108.191406 L 239.773438 108.253906 L 239.773438 108.285156 L 239.78125 108.347656 L 239.789062 108.378906 L 239.800781 108.472656 L 239.816406 108.535156 L 239.820312 108.566406 L 239.835938 108.628906 L 239.84375 108.65625 L 239.867188 108.75 L 239.878906 108.78125 L 239.886719 108.808594 L 239.898438 108.839844 L 239.90625 108.871094 L 239.917969 108.898438 L 239.929688 108.929688 L 239.941406 108.957031 L 239.964844 109.019531 L 239.988281 109.074219 L 240.003906 109.105469 L 240.015625 109.132812 L 240.03125 109.160156 L 240.042969 109.191406 L 240.074219 109.246094 L 240.085938 109.273438 L 240.117188 109.328125 L 240.136719 109.355469 L 240.183594 109.4375 L 240.203125 109.464844 L 240.21875 109.488281 L 240.257812 109.542969 L 240.277344 109.566406 L 240.292969 109.59375 L 240.332031 109.640625 L 240.351562 109.667969 L 240.375 109.691406 L 240.433594 109.761719 L 240.457031 109.785156 L 240.476562 109.808594 L 240.523438 109.855469 L 240.542969 109.878906 L 240.566406 109.898438 L 240.613281 109.945312 L 240.660156 109.984375 L 240.683594 110.007812 L 240.707031 110.027344 L 240.734375 110.046875 L 240.78125 110.085938 L 240.808594 110.105469 L 240.832031 110.125 L 240.859375 110.144531 L 240.882812 110.160156 L 240.9375 110.199219 L 240.964844 110.214844 L 240.988281 110.230469 L 241.015625 110.25 L 241.152344 110.328125 L 241.183594 110.34375 L 241.210938 110.355469 L 241.238281 110.371094 L 241.265625 110.382812 L 241.296875 110.398438 L 241.351562 110.421875 L 241.382812 110.4375 L 241.410156 110.449219 L 241.441406 110.460938 L 241.46875 110.472656 L 241.5 110.480469 L 241.53125 110.492188 L 241.558594 110.503906 L 241.589844 110.511719 L 241.621094 110.523438 L 241.652344 110.53125 L 241.679688 110.539062 L 241.710938 110.546875 L 241.742188 110.558594 L 241.773438 110.5625 L 241.867188 110.585938 L 241.898438 110.589844 L 241.925781 110.597656 L 241.957031 110.601562 L 241.988281 110.609375 L 242.019531 110.613281 L 242.054688 110.617188 L 242.148438 110.628906 L 242.179688 110.628906 L 242.242188 110.636719 L 242.304688 110.636719 L 242.335938 110.640625 L 242.398438 110.640625 L 242.398438 110.929688 L 242.367188 110.929688 L 242.332031 110.925781 L 242.265625 110.925781 L 242.234375 110.921875 L 242.199219 110.921875 L 242.167969 110.917969 L 242.132812 110.914062 L 242.101562 110.914062 L 242.066406 110.910156 L 242.035156 110.90625 L 242 110.902344 L 241.96875 110.894531 L 241.933594 110.890625 L 241.902344 110.886719 L 241.871094 110.878906 L 241.835938 110.875 L 241.773438 110.859375 L 241.738281 110.851562 L 241.675781 110.835938 L 241.640625 110.828125 L 241.609375 110.820312 L 241.578125 110.808594 L 241.546875 110.800781 L 241.515625 110.789062 L 241.484375 110.78125 L 241.449219 110.769531 L 241.292969 110.710938 L 241.265625 110.699219 L 241.234375 110.6875 L 241.203125 110.671875 L 241.171875 110.660156 L 241.140625 110.644531 L 241.113281 110.628906 L 241.082031 110.613281 L 241.054688 110.601562 L 240.992188 110.570312 L 240.964844 110.550781 L 240.9375 110.535156 L 240.90625 110.519531 L 240.878906 110.5 L 240.851562 110.484375 L 240.820312 110.464844 L 240.792969 110.449219 L 240.628906 110.332031 L 240.605469 110.3125 L 240.578125 110.292969 L 240.550781 110.269531 L 240.527344 110.25 L 240.5 110.230469 L 240.476562 110.207031 L 240.449219 110.183594 L 240.425781 110.164062 L 240.378906 110.117188 L 240.351562 110.09375 L 240.28125 110.023438 L 240.261719 110 L 240.238281 109.972656 L 240.191406 109.925781 L 240.171875 109.898438 L 240.148438 109.875 L 240.109375 109.820312 L 240.085938 109.796875 L 239.96875 109.632812 L 239.953125 109.605469 L 239.914062 109.550781 L 239.898438 109.519531 L 239.882812 109.492188 L 239.863281 109.464844 L 239.847656 109.433594 L 239.832031 109.40625 L 239.816406 109.375 L 239.800781 109.347656 L 239.785156 109.316406 L 239.769531 109.289062 L 239.753906 109.257812 L 239.742188 109.226562 L 239.726562 109.195312 L 239.714844 109.167969 L 239.703125 109.136719 L 239.6875 109.105469 L 239.628906 108.949219 L 239.621094 108.917969 L 239.597656 108.855469 L 239.589844 108.820312 L 239.582031 108.789062 L 239.570312 108.757812 L 239.5625 108.726562 L 239.554688 108.691406 L 239.539062 108.628906 L 239.535156 108.597656 L 239.527344 108.5625 L 239.519531 108.53125 L 239.515625 108.496094 L 239.507812 108.464844 L 239.503906 108.433594 L 239.5 108.398438 L 239.496094 108.367188 L 239.492188 108.332031 L 239.488281 108.300781 L 239.484375 108.265625 L 239.480469 108.234375 L 239.480469 108.199219 L 239.476562 108.167969 L 239.476562 108.132812 L 239.472656 108.101562 L 239.472656 108 Z M 240.527344 108 L 240.527344 108.054688 L 240.53125 108.082031 L 240.53125 108.132812 L 240.539062 108.1875 L 240.539062 108.214844 L 240.542969 108.238281 L 240.554688 108.320312 L 240.558594 108.34375 L 240.566406 108.371094 L 240.570312 108.398438 L 240.578125 108.425781 L 240.582031 108.449219 L 240.589844 108.476562 L 240.597656 108.5 L 240.613281 108.554688 L 240.621094 108.578125 L 240.628906 108.605469 L 240.644531 108.652344 L 240.65625 108.679688 L 240.664062 108.703125 L 240.675781 108.730469 L 240.6875 108.753906 L 240.695312 108.777344 L 240.71875 108.824219 L 240.730469 108.851562 L 240.746094 108.875 L 240.769531 108.921875 L 240.785156 108.945312 L 240.796875 108.964844 L 240.8125 108.988281 L 240.824219 109.011719 L 240.839844 109.035156 L 240.855469 109.054688 L 240.886719 109.101562 L 240.902344 109.121094 L 240.917969 109.144531 L 240.949219 109.183594 L 240.96875 109.207031 L 240.984375 109.226562 L 241.003906 109.246094 L 241.019531 109.265625 L 241.078125 109.324219 L 241.09375 109.34375 L 241.113281 109.359375 L 241.152344 109.398438 L 241.175781 109.414062 L 241.195312 109.433594 L 241.234375 109.464844 L 241.257812 109.484375 L 241.277344 109.5 L 241.300781 109.515625 L 241.320312 109.53125 L 241.34375 109.546875 L 241.367188 109.558594 L 241.386719 109.574219 L 241.410156 109.589844 L 241.433594 109.601562 L 241.457031 109.617188 L 241.480469 109.628906 L 241.503906 109.644531 L 241.621094 109.703125 L 241.648438 109.714844 L 241.671875 109.722656 L 241.695312 109.734375 L 241.722656 109.746094 L 241.769531 109.761719 L 241.796875 109.773438 L 241.820312 109.78125 L 241.847656 109.789062 L 241.871094 109.796875 L 241.898438 109.804688 L 241.925781 109.808594 L 241.949219 109.816406 L 241.976562 109.824219 L 242.003906 109.828125 L 242.027344 109.835938 L 242.082031 109.84375 L 242.105469 109.847656 L 242.214844 109.863281 L 242.238281 109.863281 L 242.265625 109.867188 L 242.292969 109.867188 L 242.320312 109.871094 L 242.398438 109.871094 L 242.398438 110.160156 L 242.3125 110.160156 L 242.285156 110.15625 L 242.257812 110.15625 L 242.226562 110.152344 L 242.199219 110.152344 L 242.171875 110.148438 L 242.140625 110.144531 L 242.085938 110.136719 L 242.054688 110.132812 L 242.027344 110.128906 L 242 110.121094 L 241.972656 110.117188 L 241.945312 110.109375 L 241.914062 110.105469 L 241.695312 110.042969 L 241.667969 110.03125 L 241.640625 110.023438 L 241.558594 109.988281 L 241.535156 109.980469 L 241.507812 109.96875 L 241.480469 109.953125 L 241.457031 109.941406 L 241.402344 109.917969 L 241.378906 109.902344 L 241.351562 109.890625 L 241.304688 109.859375 L 241.277344 109.847656 L 241.183594 109.785156 L 241.160156 109.765625 L 241.113281 109.734375 L 241.089844 109.714844 L 241.066406 109.699219 L 241.042969 109.679688 L 241.019531 109.664062 L 241 109.644531 L 240.976562 109.625 L 240.957031 109.605469 L 240.933594 109.585938 L 240.894531 109.546875 L 240.871094 109.527344 L 240.851562 109.507812 L 240.832031 109.484375 L 240.792969 109.445312 L 240.773438 109.421875 L 240.753906 109.402344 L 240.738281 109.378906 L 240.699219 109.332031 L 240.683594 109.3125 L 240.667969 109.289062 L 240.648438 109.265625 L 240.585938 109.171875 L 240.570312 109.144531 L 240.539062 109.097656 L 240.523438 109.070312 L 240.511719 109.046875 L 240.496094 109.019531 L 240.484375 108.996094 L 240.46875 108.96875 L 240.457031 108.945312 L 240.433594 108.890625 L 240.421875 108.867188 L 240.386719 108.785156 L 240.378906 108.757812 L 240.367188 108.734375 L 240.359375 108.707031 L 240.347656 108.679688 L 240.324219 108.597656 L 240.316406 108.566406 L 240.300781 108.511719 L 240.296875 108.484375 L 240.28125 108.429688 L 240.277344 108.398438 L 240.273438 108.371094 L 240.265625 108.34375 L 240.261719 108.316406 L 240.257812 108.285156 L 240.253906 108.257812 L 240.253906 108.230469 L 240.25 108.199219 L 240.246094 108.171875 L 240.246094 108.144531 L 240.242188 108.113281 L 240.242188 108.058594 L 240.238281 108.027344 L 240.238281 108 Z M 242.398438 109.871094 L 256.800781 109.871094 L 256.800781 110.160156 L 242.398438 110.160156 Z M 242.398438 110.640625 L 256.800781 110.640625 L 256.800781 110.929688 L 242.398438 110.929688 Z M 287.761719 96 L 287.789062 96 L 287.796875 96.003906 L 287.808594 96.003906 L 287.816406 96.007812 L 287.824219 96.007812 L 287.835938 96.011719 L 287.867188 96.027344 L 287.878906 96.03125 L 287.894531 96.039062 L 287.902344 96.046875 L 287.910156 96.050781 L 287.914062 96.058594 L 287.921875 96.0625 L 287.9375 96.078125 L 287.941406 96.085938 L 287.949219 96.089844 L 287.953125 96.097656 L 287.960938 96.105469 L 287.96875 96.121094 L 287.972656 96.132812 L 287.988281 96.164062 L 287.992188 96.175781 L 287.992188 96.183594 L 287.996094 96.191406 L 287.996094 96.203125 L 288 96.210938 L 288 124.589844 L 287.996094 124.597656 L 287.996094 124.605469 L 287.992188 124.617188 L 287.992188 124.625 L 287.988281 124.632812 L 287.984375 124.644531 L 287.960938 124.691406 L 287.953125 124.699219 L 287.949219 124.707031 L 287.941406 124.714844 L 287.9375 124.722656 L 287.929688 124.730469 L 287.921875 124.734375 L 287.914062 124.742188 L 287.910156 124.75 L 287.894531 124.757812 L 287.886719 124.765625 L 287.878906 124.769531 L 287.867188 124.773438 L 287.835938 124.789062 L 287.824219 124.789062 L 287.808594 124.796875 L 287.789062 124.796875 L 287.777344 124.800781 L 280.558594 124.800781 L 280.558594 117.601562 L 280.570312 117.601562 L 280.578125 117.597656 L 280.597656 117.597656 L 280.605469 117.59375 L 280.617188 117.59375 L 280.625 117.589844 L 280.632812 117.589844 L 280.644531 117.585938 L 280.683594 117.566406 L 280.691406 117.558594 L 280.699219 117.554688 L 280.707031 117.546875 L 280.714844 117.542969 L 280.722656 117.535156 L 280.730469 117.53125 L 280.734375 117.523438 L 280.75 117.507812 L 280.757812 117.492188 L 280.765625 117.484375 L 280.78125 117.453125 L 280.785156 117.441406 L 280.789062 117.433594 L 280.789062 117.425781 L 280.792969 117.417969 L 280.796875 117.40625 L 280.796875 117.386719 L 280.800781 117.378906 L 280.800781 103.421875 L 280.796875 103.410156 L 280.796875 103.394531 L 280.792969 103.382812 L 280.789062 103.375 L 280.789062 103.367188 L 280.785156 103.355469 L 280.765625 103.316406 L 280.757812 103.308594 L 280.75 103.292969 L 280.734375 103.277344 L 280.730469 103.269531 L 280.722656 103.265625 L 280.707031 103.25 L 280.691406 103.242188 L 280.683594 103.234375 L 280.644531 103.214844 L 280.632812 103.210938 L 280.625 103.210938 L 280.617188 103.207031 L 280.605469 103.203125 L 280.589844 103.203125 L 280.578125 103.199219 L 280.558594 103.199219 L 280.558594 96 Z M 280.558594 124.800781 L 268.800781 124.800781 L 268.800781 117.601562 L 280.558594 117.601562 Z M 280.558594 103.199219 L 268.800781 103.199219 L 268.800781 96 L 280.558594 96 Z M 268.800781 124.800781 L 256.800781 110.929688 L 256.800781 110.640625 L 268.800781 117.601562 Z M 268.800781 103.199219 L 256.800781 110.160156 L 256.800781 109.871094 L 268.800781 96 Z M 0.238281 28.800781 L 0.222656 28.800781 L 0.210938 28.796875 L 0.191406 28.796875 L 0.175781 28.789062 L 0.164062 28.789062 L 0.132812 28.773438 L 0.121094 28.769531 L 0.113281 28.765625 L 0.105469 28.757812 L 0.0898438 28.75 L 0.0859375 28.742188 L 0.078125 28.734375 L 0.0703125 28.730469 L 0.0625 28.722656 L 0.0585938 28.714844 L 0.0507812 28.707031 L 0.046875 28.699219 L 0.0390625 28.691406 L 0.015625 28.644531 L 0.0117188 28.632812 L 0.0078125 28.625 L 0.0078125 28.617188 L 0.00390625 28.605469 L 0.00390625 28.597656 L 0 28.589844 L 0 0.210938 L 0.00390625 0.203125 L 0.00390625 0.191406 L 0.0078125 0.183594 L 0.0078125 0.175781 L 0.0117188 0.164062 L 0.0273438 0.132812 L 0.03125 0.121094 L 0.0390625 0.105469 L 0.046875 0.0976562 L 0.0507812 0.0898438 L 0.0585938 0.0859375 L 0.0625 0.078125 L 0.078125 0.0625 L 0.0859375 0.0585938 L 0.0898438 0.0507812 L 0.0976562 0.046875 L 0.105469 0.0390625 L 0.121094 0.03125 L 0.132812 0.0273438 L 0.164062 0.0117188 L 0.175781 0.0078125 L 0.183594 0.0078125 L 0.191406 0.00390625 L 0.203125 0.00390625 L 0.210938 0 L 7.441406 0 L 7.441406 7.199219 L 7.421875 7.199219 L 7.410156 7.203125 L 7.394531 7.203125 L 7.382812 7.207031 L 7.375 7.210938 L 7.367188 7.210938 L 7.355469 7.214844 L 7.316406 7.234375 L 7.308594 7.242188 L 7.292969 7.25 L 7.277344 7.265625 L 7.269531 7.269531 L 7.265625 7.277344 L 7.25 7.292969 L 7.242188 7.308594 L 7.234375 7.316406 L 7.214844 7.355469 L 7.210938 7.367188 L 7.210938 7.375 L 7.207031 7.382812 L 7.203125 7.394531 L 7.203125 7.410156 L 7.199219 7.421875 L 7.199219 21.378906 L 7.203125 21.386719 L 7.203125 21.40625 L 7.207031 21.417969 L 7.210938 21.425781 L 7.210938 21.433594 L 7.214844 21.441406 L 7.21875 21.453125 L 7.234375 21.484375 L 7.242188 21.492188 L 7.25 21.507812 L 7.265625 21.523438 L 7.269531 21.53125 L 7.277344 21.535156 L 7.285156 21.542969 L 7.292969 21.546875 L 7.300781 21.554688 L 7.308594 21.558594 L 7.316406 21.566406 L 7.355469 21.585938 L 7.367188 21.589844 L 7.375 21.589844 L 7.382812 21.59375 L 7.394531 21.59375 L 7.402344 21.597656 L 7.421875 21.597656 L 7.429688 21.601562 L 7.441406 21.601562 L 7.441406 28.800781 Z M 7.441406 0 L 19.199219 0 L 19.199219 7.199219 L 7.441406 7.199219 Z M 7.441406 21.601562 L 19.199219 21.601562 L 19.199219 28.800781 L 7.441406 28.800781 Z M 19.199219 0 L 31.199219 13.871094 L 31.199219 14.160156 L 19.199219 7.199219 Z M 19.199219 21.601562 L 31.199219 14.640625 L 31.199219 14.929688 L 19.199219 28.800781 Z M 31.199219 13.871094 L 223.199219 13.871094 L 223.199219 14.160156 L 31.199219 14.160156 Z M 31.199219 14.640625 L 223.199219 14.640625 L 223.199219 14.929688 L 31.199219 14.929688 Z M 127.199219 15.304688 L 127.199219 15.296875 L 127.203125 15.289062 L 127.203125 15.277344 L 127.207031 15.269531 L 127.207031 15.261719 L 127.210938 15.253906 L 127.214844 15.25 L 127.222656 15.234375 L 127.226562 15.230469 L 127.230469 15.222656 L 127.234375 15.21875 L 127.238281 15.210938 L 127.246094 15.207031 L 127.253906 15.199219 L 127.269531 15.191406 L 127.273438 15.1875 L 127.289062 15.179688 L 127.292969 15.175781 L 127.300781 15.175781 L 127.308594 15.171875 L 127.316406 15.171875 L 127.320312 15.167969 L 127.34375 15.167969 L 127.34375 15.457031 L 127.328125 15.457031 L 127.320312 15.453125 L 127.308594 15.453125 L 127.292969 15.445312 L 127.289062 15.445312 L 127.273438 15.4375 L 127.269531 15.433594 L 127.253906 15.425781 L 127.234375 15.40625 L 127.230469 15.398438 L 127.226562 15.394531 L 127.222656 15.386719 L 127.21875 15.382812 L 127.210938 15.367188 L 127.207031 15.363281 L 127.207031 15.355469 L 127.203125 15.347656 L 127.203125 15.332031 L 127.199219 15.328125 Z M 127.199219 16.074219 L 127.199219 16.066406 L 127.203125 16.058594 L 127.203125 16.042969 L 127.207031 16.035156 L 127.207031 16.03125 L 127.214844 16.015625 L 127.21875 16.011719 L 127.226562 15.996094 L 127.230469 15.992188 L 127.234375 15.984375 L 127.238281 15.980469 L 127.246094 15.976562 L 127.25 15.972656 L 127.253906 15.964844 L 127.269531 15.957031 L 127.273438 15.953125 L 127.28125 15.949219 L 127.289062 15.949219 L 127.292969 15.945312 L 127.300781 15.941406 L 127.308594 15.941406 L 127.316406 15.9375 L 127.34375 15.9375 L 127.34375 16.222656 L 127.316406 16.222656 L 127.308594 16.21875 L 127.300781 16.21875 L 127.292969 16.214844 L 127.289062 16.210938 L 127.28125 16.210938 L 127.273438 16.207031 L 127.269531 16.203125 L 127.253906 16.195312 L 127.25 16.1875 L 127.246094 16.183594 L 127.238281 16.179688 L 127.234375 16.171875 L 127.226562 16.164062 L 127.21875 16.148438 L 127.214844 16.144531 L 127.207031 16.128906 L 127.207031 16.125 L 127.203125 16.117188 L 127.203125 16.101562 L 127.199219 16.09375 Z M 127.34375 15.167969 L 136.800781 15.167969 L 136.800781 15.457031 L 127.34375 15.457031 Z M 127.34375 15.9375 L 136.800781 15.9375 L 136.800781 16.222656 L 127.34375 16.222656 Z M 136.800781 15.9375 L 136.914062 15.9375 L 136.945312 15.941406 L 136.972656 15.941406 L 137 15.945312 L 137.03125 15.949219 L 137.113281 15.960938 L 137.144531 15.964844 L 137.199219 15.972656 L 137.226562 15.980469 L 137.257812 15.984375 L 137.285156 15.992188 L 137.3125 15.996094 L 137.449219 16.035156 L 137.476562 16.046875 L 137.53125 16.0625 L 137.585938 16.085938 L 137.613281 16.09375 L 137.667969 16.117188 L 137.691406 16.128906 L 137.746094 16.152344 L 137.769531 16.167969 L 137.796875 16.179688 L 137.820312 16.191406 L 137.847656 16.207031 L 137.871094 16.21875 L 137.898438 16.234375 L 137.992188 16.296875 L 138.019531 16.3125 L 138.066406 16.34375 L 138.089844 16.363281 L 138.109375 16.378906 L 138.132812 16.398438 L 138.15625 16.414062 L 138.179688 16.433594 L 138.199219 16.453125 L 138.222656 16.46875 L 138.242188 16.488281 L 138.265625 16.507812 L 138.285156 16.527344 L 138.308594 16.546875 L 138.328125 16.570312 L 138.386719 16.628906 L 138.40625 16.652344 L 138.425781 16.671875 L 138.445312 16.695312 L 138.460938 16.71875 L 138.480469 16.738281 L 138.5 16.761719 L 138.515625 16.785156 L 138.535156 16.808594 L 138.582031 16.878906 L 138.601562 16.902344 L 138.632812 16.949219 L 138.644531 16.976562 L 138.675781 17.023438 L 138.691406 17.050781 L 138.703125 17.074219 L 138.714844 17.101562 L 138.730469 17.125 L 138.742188 17.152344 L 138.753906 17.175781 L 138.789062 17.257812 L 138.800781 17.28125 L 138.8125 17.308594 L 138.820312 17.335938 L 138.832031 17.363281 L 138.839844 17.390625 L 138.851562 17.417969 L 138.898438 17.582031 L 138.90625 17.613281 L 138.910156 17.640625 L 138.917969 17.667969 L 138.921875 17.695312 L 138.929688 17.722656 L 138.933594 17.753906 L 138.945312 17.835938 L 138.949219 17.867188 L 138.949219 17.894531 L 138.953125 17.921875 L 138.957031 17.953125 L 138.957031 18.007812 L 138.960938 18.039062 L 138.960938 18.097656 L 138.671875 18.097656 L 138.671875 18.015625 L 138.667969 17.988281 L 138.667969 17.960938 L 138.664062 17.9375 L 138.664062 17.910156 L 138.652344 17.828125 L 138.648438 17.804688 L 138.640625 17.75 L 138.632812 17.722656 L 138.628906 17.699219 L 138.625 17.671875 L 138.617188 17.644531 L 138.609375 17.621094 L 138.605469 17.59375 L 138.597656 17.570312 L 138.582031 17.515625 L 138.570312 17.492188 L 138.5625 17.46875 L 138.554688 17.441406 L 138.542969 17.417969 L 138.535156 17.390625 L 138.523438 17.367188 L 138.515625 17.34375 L 138.503906 17.316406 L 138.457031 17.222656 L 138.441406 17.199219 L 138.417969 17.152344 L 138.402344 17.128906 L 138.390625 17.105469 L 138.375 17.082031 L 138.359375 17.0625 L 138.328125 17.015625 L 138.316406 16.996094 L 138.296875 16.972656 L 138.265625 16.933594 L 138.25 16.910156 L 138.230469 16.890625 L 138.214844 16.871094 L 138.195312 16.851562 L 138.179688 16.832031 L 138.140625 16.792969 L 138.125 16.773438 L 138.085938 16.734375 L 138.066406 16.71875 L 138.027344 16.679688 L 138.003906 16.664062 L 137.984375 16.648438 L 137.964844 16.628906 L 137.941406 16.613281 L 137.921875 16.597656 L 137.898438 16.582031 L 137.878906 16.566406 L 137.855469 16.550781 L 137.835938 16.535156 L 137.8125 16.519531 L 137.789062 16.507812 L 137.765625 16.492188 L 137.742188 16.480469 L 137.71875 16.464844 L 137.554688 16.382812 L 137.527344 16.371094 L 137.503906 16.363281 L 137.480469 16.351562 L 137.453125 16.34375 L 137.429688 16.332031 L 137.402344 16.324219 L 137.378906 16.316406 L 137.351562 16.308594 L 137.328125 16.300781 L 137.300781 16.292969 L 137.277344 16.285156 L 137.25 16.277344 L 137.222656 16.273438 L 137.199219 16.265625 L 137.144531 16.257812 L 137.121094 16.25 L 137.011719 16.234375 L 136.988281 16.234375 L 136.960938 16.230469 L 136.933594 16.230469 L 136.90625 16.226562 L 136.851562 16.226562 L 136.828125 16.222656 L 136.800781 16.222656 Z M 136.800781 15.167969 L 136.898438 15.167969 L 136.933594 15.171875 L 136.964844 15.171875 L 137 15.175781 L 137.03125 15.175781 L 137.066406 15.179688 L 137.097656 15.183594 L 137.132812 15.1875 L 137.164062 15.191406 L 137.199219 15.195312 L 137.230469 15.199219 L 137.265625 15.207031 L 137.296875 15.210938 L 137.332031 15.214844 L 137.394531 15.230469 L 137.429688 15.234375 L 137.492188 15.25 L 137.527344 15.257812 L 137.558594 15.269531 L 137.621094 15.285156 L 137.652344 15.296875 L 137.6875 15.304688 L 137.71875 15.316406 L 137.75 15.324219 L 137.90625 15.382812 L 137.9375 15.398438 L 137.964844 15.410156 L 137.996094 15.425781 L 138.027344 15.4375 L 138.058594 15.453125 L 138.085938 15.464844 L 138.148438 15.496094 L 138.175781 15.511719 L 138.207031 15.527344 L 138.234375 15.542969 L 138.265625 15.558594 L 138.292969 15.578125 L 138.320312 15.59375 L 138.351562 15.613281 L 138.378906 15.628906 L 138.433594 15.667969 L 138.460938 15.683594 L 138.570312 15.761719 L 138.59375 15.785156 L 138.648438 15.824219 L 138.671875 15.847656 L 138.699219 15.867188 L 138.722656 15.890625 L 138.75 15.910156 L 138.796875 15.957031 L 138.824219 15.980469 L 138.941406 16.097656 L 138.960938 16.121094 L 138.984375 16.148438 L 139.007812 16.171875 L 139.027344 16.195312 L 139.050781 16.222656 L 139.070312 16.25 L 139.09375 16.273438 L 139.132812 16.328125 L 139.152344 16.351562 L 139.25 16.488281 L 139.265625 16.519531 L 139.285156 16.546875 L 139.300781 16.574219 L 139.320312 16.601562 L 139.335938 16.632812 L 139.351562 16.660156 L 139.367188 16.691406 L 139.382812 16.71875 L 139.398438 16.75 L 139.414062 16.777344 L 139.445312 16.839844 L 139.457031 16.867188 L 139.472656 16.898438 L 139.484375 16.929688 L 139.5 16.960938 L 139.582031 17.179688 L 139.589844 17.210938 L 139.601562 17.242188 L 139.609375 17.273438 L 139.621094 17.304688 L 139.628906 17.339844 L 139.652344 17.433594 L 139.660156 17.46875 L 139.667969 17.5 L 139.671875 17.53125 L 139.679688 17.566406 L 139.683594 17.597656 L 139.691406 17.632812 L 139.695312 17.664062 L 139.699219 17.699219 L 139.707031 17.730469 L 139.710938 17.761719 L 139.710938 17.796875 L 139.714844 17.828125 L 139.71875 17.863281 L 139.722656 17.894531 L 139.722656 17.929688 L 139.726562 17.960938 L 139.726562 18.097656 L 139.441406 18.097656 L 139.441406 18.0625 L 139.4375 18.03125 L 139.4375 17.96875 L 139.433594 17.9375 L 139.433594 17.90625 L 139.429688 17.875 L 139.429688 17.84375 L 139.414062 17.71875 L 139.40625 17.6875 L 139.398438 17.625 L 139.390625 17.59375 L 139.386719 17.5625 L 139.347656 17.40625 L 139.339844 17.378906 L 139.324219 17.316406 L 139.3125 17.285156 L 139.304688 17.257812 L 139.28125 17.195312 L 139.269531 17.167969 L 139.257812 17.136719 L 139.246094 17.109375 L 139.234375 17.078125 L 139.222656 17.050781 L 139.210938 17.019531 L 139.199219 16.992188 L 139.183594 16.960938 L 139.171875 16.933594 L 139.140625 16.878906 L 139.128906 16.851562 L 139.113281 16.820312 L 139.066406 16.738281 L 139.046875 16.710938 L 139.03125 16.6875 L 139.015625 16.660156 L 138.996094 16.632812 L 138.980469 16.605469 L 138.960938 16.582031 L 138.941406 16.554688 L 138.925781 16.527344 L 138.90625 16.503906 L 138.886719 16.476562 L 138.828125 16.40625 L 138.804688 16.378906 L 138.765625 16.332031 L 138.742188 16.308594 L 138.722656 16.285156 L 138.632812 16.195312 L 138.609375 16.175781 L 138.585938 16.152344 L 138.5625 16.132812 L 138.539062 16.109375 L 138.46875 16.050781 L 138.441406 16.027344 L 138.417969 16.007812 L 138.390625 15.992188 L 138.367188 15.972656 L 138.339844 15.953125 L 138.316406 15.933594 L 138.289062 15.917969 L 138.261719 15.898438 L 138.238281 15.882812 L 138.210938 15.863281 L 138.019531 15.753906 L 137.988281 15.738281 L 137.960938 15.726562 L 137.933594 15.710938 L 137.90625 15.699219 L 137.875 15.683594 L 137.847656 15.671875 L 137.816406 15.660156 L 137.789062 15.648438 L 137.757812 15.636719 L 137.730469 15.625 L 137.667969 15.601562 L 137.640625 15.59375 L 137.609375 15.582031 L 137.578125 15.574219 L 137.550781 15.566406 L 137.519531 15.554688 L 137.394531 15.523438 L 137.367188 15.515625 L 137.335938 15.511719 L 137.304688 15.503906 L 137.273438 15.5 L 137.242188 15.492188 L 137.054688 15.46875 L 137.019531 15.464844 L 136.988281 15.460938 L 136.925781 15.460938 L 136.894531 15.457031 L 136.800781 15.457031 Z M 139.726562 18.097656 L 139.726562 32.496094 L 139.441406 32.496094 L 139.441406 18.097656 Z M 138.960938 18.097656 L 138.960938 32.496094 L 138.671875 32.496094 L 138.671875 18.097656 Z M 138.960938 32.496094 L 138.960938 32.554688 L 138.957031 32.582031 L 138.957031 32.640625 L 138.949219 32.695312 L 138.949219 32.726562 L 138.941406 32.78125 L 138.9375 32.8125 L 138.929688 32.867188 L 138.921875 32.894531 L 138.917969 32.925781 L 138.910156 32.953125 L 138.90625 32.980469 L 138.882812 33.0625 L 138.875 33.09375 L 138.851562 33.175781 L 138.839844 33.203125 L 138.832031 33.230469 L 138.820312 33.253906 L 138.8125 33.28125 L 138.777344 33.363281 L 138.765625 33.386719 L 138.742188 33.441406 L 138.730469 33.464844 L 138.714844 33.492188 L 138.703125 33.515625 L 138.691406 33.542969 L 138.675781 33.566406 L 138.660156 33.59375 L 138.644531 33.617188 L 138.632812 33.640625 L 138.617188 33.664062 L 138.601562 33.691406 L 138.582031 33.714844 L 138.535156 33.785156 L 138.515625 33.808594 L 138.5 33.828125 L 138.460938 33.875 L 138.445312 33.898438 L 138.425781 33.917969 L 138.40625 33.941406 L 138.367188 33.980469 L 138.347656 34.003906 L 138.308594 34.042969 L 138.285156 34.0625 L 138.265625 34.082031 L 138.242188 34.101562 L 138.222656 34.121094 L 138.199219 34.140625 L 138.179688 34.160156 L 138.15625 34.175781 L 138.132812 34.195312 L 138.109375 34.210938 L 138.089844 34.230469 L 138.042969 34.261719 L 138.019531 34.28125 L 137.992188 34.296875 L 137.921875 34.34375 L 137.898438 34.355469 L 137.871094 34.371094 L 137.847656 34.386719 L 137.820312 34.398438 L 137.796875 34.414062 L 137.769531 34.425781 L 137.746094 34.4375 L 137.71875 34.449219 L 137.691406 34.464844 L 137.667969 34.476562 L 137.640625 34.484375 L 137.558594 34.519531 L 137.53125 34.527344 L 137.503906 34.539062 L 137.285156 34.601562 L 137.257812 34.605469 L 137.226562 34.613281 L 137.199219 34.617188 L 137.171875 34.625 L 137.144531 34.628906 L 137.113281 34.632812 L 137.03125 34.644531 L 137 34.648438 L 136.972656 34.648438 L 136.945312 34.652344 L 136.886719 34.652344 L 136.859375 34.65625 L 136.800781 34.65625 L 136.800781 34.367188 L 136.878906 34.367188 L 136.90625 34.363281 L 136.933594 34.363281 L 136.960938 34.359375 L 136.988281 34.359375 L 137.011719 34.355469 L 137.121094 34.339844 L 137.144531 34.335938 L 137.171875 34.332031 L 137.199219 34.324219 L 137.222656 34.320312 L 137.277344 34.304688 L 137.300781 34.300781 L 137.328125 34.292969 L 137.351562 34.285156 L 137.378906 34.277344 L 137.402344 34.269531 L 137.429688 34.257812 L 137.453125 34.25 L 137.480469 34.242188 L 137.527344 34.21875 L 137.554688 34.210938 L 137.695312 34.140625 L 137.71875 34.125 L 137.742188 34.113281 L 137.765625 34.097656 L 137.789062 34.085938 L 137.835938 34.054688 L 137.855469 34.042969 L 137.878906 34.027344 L 137.898438 34.011719 L 137.921875 33.996094 L 137.941406 33.976562 L 137.964844 33.960938 L 138.003906 33.929688 L 138.027344 33.910156 L 138.046875 33.894531 L 138.085938 33.855469 L 138.105469 33.839844 L 138.125 33.820312 L 138.140625 33.800781 L 138.179688 33.761719 L 138.195312 33.742188 L 138.214844 33.722656 L 138.230469 33.703125 L 138.25 33.679688 L 138.28125 33.640625 L 138.296875 33.617188 L 138.316406 33.597656 L 138.328125 33.574219 L 138.34375 33.550781 L 138.359375 33.53125 L 138.390625 33.484375 L 138.402344 33.460938 L 138.417969 33.441406 L 138.441406 33.394531 L 138.457031 33.371094 L 138.46875 33.347656 L 138.480469 33.320312 L 138.515625 33.25 L 138.523438 33.226562 L 138.535156 33.199219 L 138.542969 33.175781 L 138.554688 33.148438 L 138.570312 33.101562 L 138.582031 33.074219 L 138.589844 33.050781 L 138.605469 32.996094 L 138.609375 32.972656 L 138.617188 32.945312 L 138.625 32.921875 L 138.632812 32.867188 L 138.640625 32.839844 L 138.644531 32.816406 L 138.65625 32.734375 L 138.660156 32.710938 L 138.664062 32.683594 L 138.664062 32.65625 L 138.667969 32.628906 L 138.667969 32.601562 L 138.671875 32.574219 L 138.671875 32.496094 Z M 139.726562 32.496094 L 139.726562 32.628906 L 139.722656 32.664062 L 139.722656 32.695312 L 139.71875 32.730469 L 139.714844 32.761719 L 139.710938 32.796875 L 139.710938 32.828125 L 139.707031 32.863281 L 139.699219 32.894531 L 139.695312 32.925781 L 139.691406 32.960938 L 139.683594 32.992188 L 139.679688 33.027344 L 139.671875 33.058594 L 139.667969 33.089844 L 139.660156 33.125 L 139.644531 33.1875 L 139.636719 33.222656 L 139.621094 33.285156 L 139.609375 33.316406 L 139.601562 33.351562 L 139.589844 33.382812 L 139.582031 33.414062 L 139.5 33.632812 L 139.484375 33.664062 L 139.472656 33.691406 L 139.457031 33.722656 L 139.445312 33.753906 L 139.429688 33.785156 L 139.414062 33.8125 L 139.398438 33.84375 L 139.382812 33.871094 L 139.367188 33.902344 L 139.351562 33.929688 L 139.335938 33.960938 L 139.320312 33.988281 L 139.300781 34.015625 L 139.285156 34.046875 L 139.265625 34.074219 L 139.25 34.101562 L 139.113281 34.292969 L 139.09375 34.316406 L 139.070312 34.34375 L 139.050781 34.371094 L 139.027344 34.394531 L 139.007812 34.421875 L 138.960938 34.46875 L 138.941406 34.496094 L 138.824219 34.613281 L 138.796875 34.636719 L 138.773438 34.660156 L 138.75 34.679688 L 138.722656 34.703125 L 138.699219 34.726562 L 138.671875 34.746094 L 138.648438 34.765625 L 138.621094 34.789062 L 138.59375 34.808594 L 138.570312 34.828125 L 138.40625 34.945312 L 138.378906 34.960938 L 138.351562 34.980469 L 138.320312 34.996094 L 138.292969 35.015625 L 138.265625 35.03125 L 138.234375 35.046875 L 138.207031 35.0625 L 138.175781 35.082031 L 138.148438 35.097656 L 138.117188 35.109375 L 138.085938 35.125 L 138.058594 35.140625 L 138.027344 35.15625 L 137.964844 35.179688 L 137.9375 35.195312 L 137.71875 35.277344 L 137.6875 35.285156 L 137.652344 35.296875 L 137.621094 35.304688 L 137.589844 35.316406 L 137.527344 35.332031 L 137.492188 35.339844 L 137.429688 35.355469 L 137.394531 35.363281 L 137.363281 35.371094 L 137.332031 35.375 L 137.296875 35.382812 L 137.265625 35.386719 L 137.230469 35.390625 L 137.199219 35.398438 L 137.164062 35.402344 L 137.132812 35.40625 L 137.097656 35.410156 L 137.066406 35.410156 L 137.03125 35.414062 L 137 35.417969 L 136.964844 35.417969 L 136.933594 35.421875 L 136.832031 35.421875 L 136.800781 35.425781 L 136.800781 35.136719 L 136.863281 35.136719 L 136.894531 35.132812 L 136.957031 35.132812 L 137.019531 35.125 L 137.054688 35.125 L 137.210938 35.105469 L 137.242188 35.097656 L 137.273438 35.09375 L 137.304688 35.085938 L 137.335938 35.082031 L 137.367188 35.074219 L 137.394531 35.066406 L 137.425781 35.058594 L 137.457031 35.054688 L 137.488281 35.042969 L 137.550781 35.027344 L 137.578125 35.019531 L 137.609375 35.007812 L 137.640625 35 L 137.667969 34.988281 L 137.699219 34.976562 L 137.730469 34.96875 L 137.757812 34.957031 L 137.789062 34.945312 L 137.816406 34.933594 L 137.847656 34.917969 L 137.875 34.90625 L 137.90625 34.894531 L 137.933594 34.878906 L 137.960938 34.867188 L 137.988281 34.851562 L 138.019531 34.839844 L 138.183594 34.746094 L 138.210938 34.726562 L 138.238281 34.710938 L 138.261719 34.691406 L 138.289062 34.675781 L 138.316406 34.65625 L 138.339844 34.640625 L 138.367188 34.621094 L 138.390625 34.601562 L 138.417969 34.582031 L 138.441406 34.5625 L 138.46875 34.542969 L 138.515625 34.503906 L 138.539062 34.480469 L 138.5625 34.460938 L 138.585938 34.4375 L 138.609375 34.417969 L 138.632812 34.394531 L 138.65625 34.375 L 138.679688 34.351562 L 138.699219 34.328125 L 138.722656 34.304688 L 138.742188 34.28125 L 138.765625 34.257812 L 138.804688 34.210938 L 138.828125 34.1875 L 138.847656 34.164062 L 138.867188 34.136719 L 138.90625 34.089844 L 138.925781 34.0625 L 138.941406 34.039062 L 138.980469 33.984375 L 138.996094 33.960938 L 139.015625 33.933594 L 139.046875 33.878906 L 139.066406 33.851562 L 139.128906 33.742188 L 139.140625 33.714844 L 139.15625 33.6875 L 139.171875 33.65625 L 139.183594 33.628906 L 139.199219 33.601562 L 139.210938 33.570312 L 139.222656 33.542969 L 139.234375 33.511719 L 139.246094 33.484375 L 139.257812 33.453125 L 139.269531 33.425781 L 139.28125 33.394531 L 139.292969 33.367188 L 139.304688 33.335938 L 139.3125 33.304688 L 139.324219 33.277344 L 139.355469 33.152344 L 139.363281 33.125 L 139.386719 33.03125 L 139.390625 33 L 139.398438 32.96875 L 139.40625 32.90625 L 139.414062 32.875 L 139.429688 32.75 L 139.429688 32.71875 L 139.433594 32.6875 L 139.433594 32.652344 L 139.4375 32.621094 L 139.4375 32.558594 L 139.441406 32.527344 L 139.441406 32.496094 Z M 136.800781 35.425781 L 112.800781 35.425781 L 112.800781 35.136719 L 136.800781 35.136719 Z M 136.800781 34.65625 L 112.800781 34.65625 L 112.800781 34.367188 L 136.800781 34.367188 Z M 112.800781 34.65625 L 112.703125 34.65625 L 112.671875 34.660156 L 112.640625 34.660156 L 112.609375 34.664062 L 112.578125 34.664062 L 112.421875 34.683594 L 112.386719 34.6875 L 112.355469 34.695312 L 112.292969 34.703125 L 112.261719 34.710938 L 112.234375 34.71875 L 112.203125 34.726562 L 112.171875 34.730469 L 112.109375 34.746094 L 112.078125 34.757812 L 112.015625 34.773438 L 111.988281 34.785156 L 111.957031 34.792969 L 111.925781 34.804688 L 111.898438 34.816406 L 111.867188 34.828125 L 111.835938 34.835938 L 111.808594 34.847656 L 111.777344 34.863281 L 111.75 34.875 L 111.71875 34.886719 L 111.691406 34.898438 L 111.664062 34.914062 L 111.632812 34.925781 L 111.550781 34.972656 L 111.523438 34.984375 L 111.492188 35 L 111.464844 35.019531 L 111.410156 35.050781 L 111.386719 35.066406 L 111.359375 35.085938 L 111.332031 35.101562 L 111.304688 35.121094 L 111.277344 35.136719 L 111.253906 35.15625 L 111.226562 35.175781 L 111.203125 35.195312 L 111.175781 35.214844 L 111.128906 35.253906 L 111.101562 35.273438 L 111.078125 35.292969 L 111.054688 35.316406 L 111.03125 35.335938 L 111.007812 35.359375 L 110.984375 35.378906 L 110.960938 35.402344 L 110.9375 35.421875 L 110.917969 35.445312 L 110.871094 35.492188 L 110.851562 35.515625 L 110.828125 35.539062 L 110.789062 35.585938 L 110.765625 35.609375 L 110.746094 35.636719 L 110.726562 35.660156 L 110.707031 35.6875 L 110.6875 35.710938 L 110.667969 35.738281 L 110.652344 35.761719 L 110.613281 35.816406 L 110.597656 35.839844 L 110.578125 35.867188 L 110.515625 35.976562 L 110.496094 36.003906 L 110.484375 36.03125 L 110.453125 36.085938 L 110.4375 36.117188 L 110.425781 36.144531 L 110.410156 36.171875 L 110.398438 36.203125 L 110.382812 36.230469 L 110.371094 36.261719 L 110.359375 36.289062 L 110.347656 36.320312 L 110.335938 36.347656 L 110.324219 36.378906 L 110.3125 36.40625 L 110.304688 36.4375 L 110.292969 36.46875 L 110.285156 36.5 L 110.273438 36.527344 L 110.257812 36.589844 L 110.246094 36.621094 L 110.230469 36.683594 L 110.226562 36.714844 L 110.21875 36.742188 L 110.210938 36.773438 L 110.207031 36.804688 L 110.199219 36.835938 L 110.191406 36.898438 L 110.183594 36.933594 L 110.171875 37.027344 L 110.171875 37.058594 L 110.164062 37.121094 L 110.164062 37.183594 L 110.160156 37.214844 L 110.160156 37.375 L 110.164062 37.40625 L 110.164062 37.46875 L 110.167969 37.503906 L 110.171875 37.535156 L 110.171875 37.566406 L 110.183594 37.660156 L 110.191406 37.691406 L 110.199219 37.753906 L 110.207031 37.785156 L 110.210938 37.816406 L 110.226562 37.878906 L 110.230469 37.910156 L 110.246094 37.972656 L 110.257812 38.003906 L 110.265625 38.03125 L 110.273438 38.0625 L 110.285156 38.09375 L 110.292969 38.125 L 110.304688 38.152344 L 110.3125 38.183594 L 110.324219 38.214844 L 110.335938 38.242188 L 110.347656 38.273438 L 110.359375 38.300781 L 110.371094 38.332031 L 110.382812 38.359375 L 110.398438 38.390625 L 110.410156 38.417969 L 110.425781 38.449219 L 110.4375 38.476562 L 110.46875 38.53125 L 110.484375 38.5625 L 110.496094 38.589844 L 110.515625 38.617188 L 110.5625 38.699219 L 110.578125 38.722656 L 110.597656 38.75 L 110.613281 38.777344 L 110.632812 38.804688 L 110.652344 38.828125 L 110.667969 38.855469 L 110.6875 38.882812 L 110.726562 38.929688 L 110.746094 38.957031 L 110.765625 38.980469 L 110.789062 39.003906 L 110.808594 39.027344 L 110.828125 39.054688 L 110.851562 39.078125 L 110.871094 39.101562 L 110.894531 39.121094 L 110.917969 39.144531 L 110.9375 39.167969 L 110.960938 39.191406 L 110.984375 39.210938 L 111.007812 39.234375 L 111.03125 39.253906 L 111.054688 39.277344 L 111.101562 39.316406 L 111.128906 39.339844 L 111.175781 39.378906 L 111.203125 39.398438 L 111.226562 39.417969 L 111.253906 39.433594 L 111.277344 39.453125 L 111.304688 39.472656 L 111.332031 39.488281 L 111.359375 39.507812 L 111.386719 39.523438 L 111.410156 39.542969 L 111.492188 39.589844 L 111.523438 39.605469 L 111.605469 39.652344 L 111.632812 39.664062 L 111.664062 39.679688 L 111.691406 39.691406 L 111.71875 39.707031 L 111.75 39.71875 L 111.777344 39.730469 L 111.808594 39.742188 L 111.835938 39.753906 L 111.898438 39.777344 L 111.925781 39.789062 L 111.957031 39.796875 L 111.988281 39.808594 L 112.015625 39.816406 L 112.046875 39.828125 L 112.234375 39.875 L 112.261719 39.882812 L 112.292969 39.886719 L 112.324219 39.894531 L 112.386719 39.902344 L 112.421875 39.910156 L 112.515625 39.921875 L 112.546875 39.921875 L 112.609375 39.929688 L 112.640625 39.929688 L 112.671875 39.933594 L 112.738281 39.933594 L 112.769531 39.9375 L 112.800781 39.9375 L 112.800781 40.222656 L 112.667969 40.222656 L 112.632812 40.21875 L 112.597656 40.21875 L 112.566406 40.214844 L 112.53125 40.210938 L 112.5 40.207031 L 112.464844 40.203125 L 112.433594 40.199219 L 112.398438 40.195312 L 112.367188 40.191406 L 112.332031 40.1875 L 112.300781 40.179688 L 112.269531 40.175781 L 112.234375 40.167969 L 112.203125 40.164062 L 112.167969 40.15625 L 112.105469 40.140625 L 112.070312 40.132812 L 112.039062 40.125 L 112.007812 40.113281 L 111.976562 40.105469 L 111.941406 40.097656 L 111.878906 40.074219 L 111.847656 40.066406 L 111.691406 40.007812 L 111.660156 39.992188 L 111.628906 39.980469 L 111.597656 39.964844 L 111.570312 39.953125 L 111.507812 39.921875 L 111.476562 39.910156 L 111.449219 39.894531 L 111.417969 39.878906 L 111.390625 39.863281 L 111.359375 39.84375 L 111.332031 39.828125 L 111.300781 39.8125 L 111.273438 39.792969 L 111.246094 39.777344 L 111.21875 39.757812 L 111.1875 39.742188 L 111.023438 39.625 L 111 39.605469 L 110.972656 39.582031 L 110.945312 39.5625 L 110.921875 39.542969 L 110.894531 39.519531 L 110.871094 39.496094 L 110.84375 39.476562 L 110.796875 39.429688 L 110.769531 39.40625 L 110.652344 39.289062 L 110.632812 39.261719 L 110.585938 39.214844 L 110.566406 39.1875 L 110.542969 39.164062 L 110.523438 39.136719 L 110.5 39.109375 L 110.480469 39.082031 L 110.460938 39.058594 L 110.363281 38.921875 L 110.347656 38.894531 L 110.328125 38.863281 L 110.308594 38.835938 L 110.292969 38.808594 L 110.277344 38.777344 L 110.257812 38.75 L 110.242188 38.722656 L 110.226562 38.691406 L 110.210938 38.664062 L 110.179688 38.601562 L 110.164062 38.574219 L 110.152344 38.542969 L 110.121094 38.480469 L 110.109375 38.449219 L 110.097656 38.421875 L 110.082031 38.390625 L 110.035156 38.265625 L 110.027344 38.234375 L 110.015625 38.199219 L 110.003906 38.167969 L 109.996094 38.136719 L 109.984375 38.105469 L 109.976562 38.074219 L 109.96875 38.039062 L 109.953125 37.976562 L 109.945312 37.941406 L 109.929688 37.878906 L 109.925781 37.84375 L 109.917969 37.8125 L 109.910156 37.777344 L 109.90625 37.746094 L 109.902344 37.710938 L 109.898438 37.679688 L 109.894531 37.644531 L 109.890625 37.613281 L 109.886719 37.578125 L 109.882812 37.546875 L 109.878906 37.511719 L 109.878906 37.480469 L 109.875 37.445312 L 109.875 37.378906 L 109.871094 37.347656 L 109.871094 37.246094 L 109.875 37.210938 L 109.875 37.144531 L 109.878906 37.113281 L 109.878906 37.078125 L 109.882812 37.046875 L 109.886719 37.011719 L 109.890625 36.980469 L 109.894531 36.945312 L 109.898438 36.914062 L 109.902344 36.878906 L 109.90625 36.847656 L 109.910156 36.8125 L 109.917969 36.78125 L 109.925781 36.746094 L 109.929688 36.714844 L 109.9375 36.683594 L 109.945312 36.648438 L 109.960938 36.585938 L 109.96875 36.550781 L 109.984375 36.488281 L 109.996094 36.453125 L 110.003906 36.421875 L 110.027344 36.359375 L 110.035156 36.328125 L 110.082031 36.203125 L 110.097656 36.171875 L 110.121094 36.109375 L 110.136719 36.078125 L 110.152344 36.050781 L 110.164062 36.019531 L 110.179688 35.988281 L 110.195312 35.960938 L 110.226562 35.898438 L 110.242188 35.871094 L 110.257812 35.839844 L 110.277344 35.8125 L 110.292969 35.785156 L 110.308594 35.753906 L 110.347656 35.699219 L 110.363281 35.671875 L 110.5 35.480469 L 110.523438 35.457031 L 110.542969 35.429688 L 110.566406 35.402344 L 110.585938 35.378906 L 110.609375 35.351562 L 110.632812 35.328125 L 110.652344 35.304688 L 110.675781 35.28125 L 110.699219 35.253906 L 110.769531 35.183594 L 110.796875 35.160156 L 110.820312 35.140625 L 110.84375 35.117188 L 110.871094 35.09375 L 110.894531 35.070312 L 110.921875 35.050781 L 110.945312 35.03125 L 110.972656 35.007812 L 111 34.988281 L 111.023438 34.96875 L 111.050781 34.945312 L 111.132812 34.886719 L 111.160156 34.871094 L 111.1875 34.851562 L 111.21875 34.832031 L 111.246094 34.816406 L 111.273438 34.796875 L 111.300781 34.78125 L 111.332031 34.761719 L 111.359375 34.746094 L 111.390625 34.730469 L 111.417969 34.714844 L 111.449219 34.699219 L 111.476562 34.683594 L 111.539062 34.652344 L 111.570312 34.640625 L 111.597656 34.625 L 111.628906 34.613281 L 111.660156 34.597656 L 111.878906 34.515625 L 111.910156 34.507812 L 111.941406 34.496094 L 111.976562 34.488281 L 112.007812 34.476562 L 112.070312 34.460938 L 112.105469 34.453125 L 112.167969 34.4375 L 112.203125 34.429688 L 112.234375 34.421875 L 112.269531 34.417969 L 112.300781 34.410156 L 112.332031 34.40625 L 112.367188 34.398438 L 112.398438 34.394531 L 112.433594 34.390625 L 112.464844 34.386719 L 112.5 34.382812 L 112.53125 34.378906 L 112.566406 34.378906 L 112.597656 34.375 L 112.632812 34.371094 L 112.699219 34.371094 L 112.734375 34.367188 L 112.800781 34.367188 Z M 112.800781 35.425781 L 112.691406 35.425781 L 112.667969 35.429688 L 112.640625 35.429688 L 112.585938 35.4375 L 112.558594 35.4375 L 112.535156 35.441406 L 112.507812 35.445312 L 112.480469 35.453125 L 112.453125 35.457031 L 112.429688 35.460938 L 112.402344 35.464844 L 112.375 35.472656 L 112.351562 35.480469 L 112.324219 35.484375 L 112.296875 35.492188 L 112.273438 35.5 L 112.246094 35.507812 L 112.222656 35.515625 L 112.195312 35.523438 L 112.171875 35.53125 L 112.144531 35.542969 L 112.121094 35.550781 L 112.097656 35.5625 L 112.070312 35.570312 L 112 35.605469 L 111.972656 35.617188 L 111.878906 35.664062 L 111.855469 35.679688 L 111.832031 35.691406 L 111.808594 35.707031 L 111.789062 35.722656 L 111.765625 35.734375 L 111.742188 35.75 L 111.722656 35.765625 L 111.699219 35.78125 L 111.679688 35.796875 L 111.65625 35.8125 L 111.636719 35.828125 L 111.613281 35.847656 L 111.59375 35.863281 L 111.574219 35.882812 L 111.554688 35.898438 L 111.535156 35.917969 L 111.515625 35.933594 L 111.4375 36.011719 L 111.421875 36.03125 L 111.402344 36.050781 L 111.386719 36.070312 L 111.367188 36.089844 L 111.351562 36.109375 L 111.335938 36.132812 L 111.316406 36.152344 L 111.300781 36.175781 L 111.285156 36.195312 L 111.269531 36.21875 L 111.253906 36.238281 L 111.238281 36.261719 L 111.226562 36.285156 L 111.210938 36.304688 L 111.195312 36.328125 L 111.171875 36.375 L 111.15625 36.398438 L 111.109375 36.492188 L 111.097656 36.519531 L 111.074219 36.566406 L 111.066406 36.59375 L 111.054688 36.617188 L 111.046875 36.640625 L 111.035156 36.667969 L 111.027344 36.691406 L 111.019531 36.71875 L 111.011719 36.742188 L 111.003906 36.769531 L 110.996094 36.792969 L 110.988281 36.820312 L 110.984375 36.847656 L 110.976562 36.871094 L 110.972656 36.898438 L 110.964844 36.925781 L 110.960938 36.949219 L 110.957031 36.976562 L 110.949219 37.003906 L 110.945312 37.03125 L 110.945312 37.054688 L 110.933594 37.136719 L 110.933594 37.164062 L 110.929688 37.1875 L 110.929688 37.402344 L 110.933594 37.429688 L 110.933594 37.457031 L 110.9375 37.484375 L 110.941406 37.507812 L 110.945312 37.535156 L 110.945312 37.5625 L 110.949219 37.589844 L 110.957031 37.613281 L 110.964844 37.667969 L 110.972656 37.695312 L 110.976562 37.71875 L 110.984375 37.746094 L 110.988281 37.773438 L 110.996094 37.796875 L 111.003906 37.824219 L 111.011719 37.847656 L 111.019531 37.875 L 111.027344 37.898438 L 111.035156 37.925781 L 111.046875 37.949219 L 111.054688 37.976562 L 111.066406 38 L 111.074219 38.023438 L 111.085938 38.050781 L 111.15625 38.191406 L 111.171875 38.214844 L 111.195312 38.261719 L 111.226562 38.308594 L 111.238281 38.332031 L 111.253906 38.351562 L 111.269531 38.375 L 111.285156 38.394531 L 111.300781 38.417969 L 111.316406 38.4375 L 111.335938 38.460938 L 111.367188 38.5 L 111.386719 38.523438 L 111.402344 38.542969 L 111.421875 38.5625 L 111.4375 38.582031 L 111.476562 38.621094 L 111.496094 38.636719 L 111.535156 38.675781 L 111.554688 38.691406 L 111.574219 38.710938 L 111.59375 38.726562 L 111.613281 38.746094 L 111.636719 38.761719 L 111.65625 38.777344 L 111.679688 38.792969 L 111.699219 38.808594 L 111.722656 38.824219 L 111.742188 38.839844 L 111.789062 38.871094 L 111.808594 38.886719 L 111.832031 38.898438 L 111.855469 38.914062 L 111.902344 38.9375 L 111.925781 38.953125 L 111.972656 38.976562 L 112 38.988281 L 112.023438 39 L 112.046875 39.007812 L 112.070312 39.019531 L 112.097656 39.03125 L 112.121094 39.039062 L 112.144531 39.050781 L 112.171875 39.058594 L 112.195312 39.066406 L 112.222656 39.078125 L 112.246094 39.085938 L 112.273438 39.09375 L 112.296875 39.097656 L 112.351562 39.113281 L 112.375 39.121094 L 112.429688 39.128906 L 112.453125 39.136719 L 112.535156 39.148438 L 112.558594 39.152344 L 112.613281 39.160156 L 112.640625 39.160156 L 112.667969 39.164062 L 112.691406 39.164062 L 112.71875 39.167969 L 112.800781 39.167969 L 112.800781 39.457031 L 112.742188 39.457031 L 112.714844 39.453125 L 112.65625 39.453125 L 112.628906 39.449219 L 112.597656 39.445312 L 112.570312 39.445312 L 112.542969 39.441406 L 112.511719 39.4375 L 112.457031 39.429688 L 112.429688 39.421875 L 112.398438 39.417969 L 112.371094 39.414062 L 112.34375 39.40625 L 112.316406 39.402344 L 112.289062 39.394531 L 112.257812 39.386719 L 112.121094 39.347656 L 112.09375 39.335938 L 112.066406 39.328125 L 112.039062 39.316406 L 112.011719 39.308594 L 111.988281 39.296875 L 111.90625 39.261719 L 111.882812 39.25 L 111.828125 39.226562 L 111.804688 39.210938 L 111.777344 39.199219 L 111.753906 39.183594 L 111.726562 39.171875 L 111.679688 39.140625 L 111.652344 39.128906 L 111.605469 39.097656 L 111.582031 39.078125 L 111.511719 39.03125 L 111.488281 39.011719 L 111.464844 38.996094 L 111.445312 38.976562 L 111.421875 38.957031 L 111.398438 38.941406 L 111.378906 38.921875 L 111.355469 38.902344 L 111.335938 38.882812 L 111.3125 38.863281 L 111.253906 38.804688 L 111.234375 38.78125 L 111.210938 38.761719 L 111.195312 38.738281 L 111.175781 38.71875 L 111.15625 38.695312 L 111.136719 38.675781 L 111.117188 38.652344 L 111.101562 38.628906 L 111.082031 38.605469 L 111.066406 38.585938 L 111.050781 38.5625 L 111.03125 38.539062 L 111.015625 38.515625 L 111 38.488281 L 110.953125 38.417969 L 110.9375 38.390625 L 110.925781 38.367188 L 110.910156 38.34375 L 110.898438 38.316406 L 110.882812 38.292969 L 110.871094 38.265625 L 110.859375 38.242188 L 110.84375 38.214844 L 110.832031 38.1875 L 110.820312 38.164062 L 110.808594 38.136719 L 110.800781 38.109375 L 110.777344 38.054688 L 110.769531 38.027344 L 110.757812 38 L 110.742188 37.945312 L 110.730469 37.917969 L 110.707031 37.835938 L 110.703125 37.808594 L 110.6875 37.753906 L 110.683594 37.722656 L 110.675781 37.695312 L 110.667969 37.640625 L 110.664062 37.609375 L 110.652344 37.527344 L 110.648438 37.496094 L 110.648438 37.46875 L 110.644531 37.441406 L 110.644531 37.410156 L 110.640625 37.382812 L 110.640625 37.210938 L 110.644531 37.179688 L 110.644531 37.152344 L 110.648438 37.125 L 110.648438 37.09375 L 110.65625 37.039062 L 110.660156 37.007812 L 110.671875 36.925781 L 110.675781 36.894531 L 110.683594 36.867188 L 110.6875 36.839844 L 110.703125 36.785156 L 110.707031 36.753906 L 110.730469 36.671875 L 110.742188 36.644531 L 110.757812 36.589844 L 110.769531 36.5625 L 110.777344 36.535156 L 110.789062 36.507812 L 110.800781 36.484375 L 110.808594 36.457031 L 110.832031 36.402344 L 110.84375 36.378906 L 110.859375 36.351562 L 110.871094 36.324219 L 110.882812 36.300781 L 110.898438 36.273438 L 110.910156 36.25 L 110.925781 36.222656 L 110.9375 36.199219 L 110.953125 36.175781 L 110.96875 36.148438 L 111.03125 36.054688 L 111.050781 36.03125 L 111.082031 35.984375 L 111.101562 35.960938 L 111.117188 35.941406 L 111.15625 35.894531 L 111.175781 35.875 L 111.195312 35.851562 L 111.210938 35.832031 L 111.335938 35.707031 L 111.355469 35.691406 L 111.378906 35.671875 L 111.398438 35.652344 L 111.445312 35.613281 L 111.464844 35.597656 L 111.488281 35.578125 L 111.535156 35.546875 L 111.558594 35.527344 L 111.652344 35.464844 L 111.679688 35.449219 L 111.703125 35.433594 L 111.726562 35.421875 L 111.753906 35.40625 L 111.777344 35.394531 L 111.804688 35.378906 L 111.828125 35.367188 L 111.855469 35.351562 L 111.882812 35.339844 L 111.90625 35.328125 L 111.960938 35.304688 L 111.988281 35.296875 L 112.011719 35.285156 L 112.039062 35.273438 L 112.066406 35.265625 L 112.09375 35.253906 L 112.148438 35.238281 L 112.175781 35.226562 L 112.257812 35.203125 L 112.289062 35.199219 L 112.34375 35.183594 L 112.371094 35.179688 L 112.398438 35.171875 L 112.429688 35.167969 L 112.511719 35.15625 L 112.542969 35.152344 L 112.597656 35.144531 L 112.628906 35.144531 L 112.65625 35.140625 L 112.683594 35.140625 L 112.714844 35.136719 L 112.800781 35.136719 Z M 112.800781 39.167969 L 136.558594 39.167969 L 136.558594 39.457031 L 112.800781 39.457031 Z M 112.800781 39.9375 L 136.558594 39.9375 L 136.558594 40.222656 L 112.800781 40.222656 Z M 136.847656 39.167969 L 136.875 39.167969 L 136.886719 39.171875 L 136.894531 39.171875 L 136.902344 39.175781 L 136.914062 39.175781 L 136.929688 39.183594 L 136.941406 39.1875 L 136.980469 39.207031 L 136.988281 39.214844 L 136.996094 39.21875 L 137.003906 39.226562 L 137.011719 39.230469 L 137.019531 39.238281 L 137.023438 39.246094 L 137.042969 39.265625 L 137.050781 39.28125 L 137.058594 39.289062 L 137.0625 39.300781 L 137.078125 39.332031 L 137.078125 39.34375 L 137.082031 39.351562 L 137.082031 39.359375 L 137.085938 39.371094 L 137.085938 39.398438 L 137.089844 39.40625 L 137.089844 39.984375 L 137.085938 39.992188 L 137.085938 40.023438 L 137.082031 40.03125 L 137.082031 40.039062 L 137.078125 40.050781 L 137.078125 40.058594 L 137.070312 40.074219 L 137.066406 40.085938 L 137.058594 40.101562 L 137.050781 40.109375 L 137.042969 40.125 L 137.035156 40.132812 L 137.03125 40.140625 L 137.003906 40.167969 L 136.996094 40.171875 L 136.988281 40.179688 L 136.972656 40.1875 L 136.964844 40.195312 L 136.941406 40.207031 L 136.929688 40.210938 L 136.921875 40.210938 L 136.914062 40.214844 L 136.902344 40.21875 L 136.894531 40.21875 L 136.886719 40.222656 L 136.558594 40.222656 L 136.558594 39.9375 L 136.570312 39.9375 L 136.578125 39.933594 L 136.597656 39.933594 L 136.605469 39.929688 L 136.617188 39.929688 L 136.625 39.925781 L 136.632812 39.925781 L 136.644531 39.921875 L 136.683594 39.902344 L 136.691406 39.894531 L 136.699219 39.890625 L 136.707031 39.882812 L 136.714844 39.878906 L 136.722656 39.871094 L 136.730469 39.867188 L 136.734375 39.859375 L 136.75 39.84375 L 136.757812 39.828125 L 136.765625 39.820312 L 136.78125 39.789062 L 136.785156 39.777344 L 136.789062 39.769531 L 136.789062 39.761719 L 136.792969 39.753906 L 136.796875 39.742188 L 136.796875 39.722656 L 136.800781 39.714844 L 136.800781 39.675781 L 136.796875 39.667969 L 136.796875 39.648438 L 136.792969 39.640625 L 136.789062 39.628906 L 136.789062 39.621094 L 136.78125 39.605469 L 136.777344 39.59375 L 136.765625 39.570312 L 136.757812 39.5625 L 136.75 39.546875 L 136.714844 39.511719 L 136.707031 39.507812 L 136.699219 39.5 L 136.675781 39.488281 L 136.667969 39.480469 L 136.652344 39.472656 L 136.644531 39.472656 L 136.632812 39.46875 L 136.617188 39.460938 L 136.605469 39.460938 L 136.597656 39.457031 L 136.558594 39.457031 L 136.558594 39.167969 Z M 136.847656 39.167969 "/>
</svg>
