<?xml version="1.0" encoding="UTF-8"?>
<svg xmlns="http://www.w3.org/2000/svg" xmlns:xlink="http://www.w3.org/1999/xlink" width="288" height="288" viewBox="0 0 288 288">
<path fill-rule="nonzero" fill="rgb(100%, 0%, 0%)" fill-opacity="1" d="M 14.398438 216 L 13.773438 216.015625 L 13.144531 216.054688 L 12.519531 216.125 L 11.898438 216.21875 L 11.285156 216.339844 L 10.671875 216.492188 L 10.070312 216.667969 L 9.476562 216.867188 L 8.890625 217.097656 L 8.3125 217.347656 L 7.75 217.628906 L 7.199219 217.929688 L 6.664062 218.253906 L 6.140625 218.605469 L 5.632812 218.976562 L 5.144531 219.367188 L 4.671875 219.785156 L 4.21875 220.21875 L 3.785156 220.671875 L 3.367188 221.144531 L 2.976562 221.632812 L 2.605469 222.140625 L 2.253906 222.664062 L 1.929688 223.199219 L 1.628906 223.75 L 1.347656 224.3125 L 1.097656 224.890625 L 0.867188 225.476562 L 0.667969 226.070312 L 0.492188 226.671875 L 0.339844 227.285156 L 0.21875 227.898438 L 0.125 228.519531 L 0.0546875 229.144531 L 0.015625 229.773438 L 0 230.398438 L 0 273.601562 L 0.015625 274.226562 L 0.0546875 274.855469 L 0.125 275.480469 L 0.21875 276.101562 L 0.339844 276.714844 L 0.492188 277.328125 L 0.667969 277.929688 L 0.867188 278.523438 L 1.097656 279.109375 L 1.347656 279.6875 L 1.628906 280.25 L 1.929688 280.800781 L 2.253906 281.335938 L 2.605469 281.859375 L 2.976562 282.367188 L 3.367188 282.855469 L 3.785156 283.328125 L 4.21875 283.78125 L 4.671875 284.214844 L 5.144531 284.632812 L 5.632812 285.023438 L 6.140625 285.394531 L 6.664062 285.746094 L 7.199219 286.070312 L 7.75 286.371094 L 8.3125 286.652344 L 8.890625 286.902344 L 9.476562 287.132812 L 10.070312 287.332031 L 10.671875 287.507812 L 11.285156 287.660156 L 11.898438 287.78125 L 12.519531 287.875 L 13.144531 287.945312 L 13.773438 287.984375 L 14.398438 288 L 129.601562 288 L 130.226562 287.984375 L 130.855469 287.945312 L 131.480469 287.875 L 132.101562 287.78125 L 132.714844 287.660156 L 133.328125 287.507812 L 133.929688 287.332031 L 134.523438 287.132812 L 135.109375 286.902344 L 135.6875 286.652344 L 136.25 286.371094 L 136.800781 286.070312 L 137.335938 285.746094 L 137.859375 285.394531 L 138.367188 285.023438 L 138.855469 284.632812 L 139.328125 284.214844 L 139.78125 283.78125 L 140.214844 283.328125 L 140.632812 282.855469 L 141.023438 282.367188 L 141.394531 281.859375 L 141.746094 281.335938 L 142.070312 280.800781 L 142.371094 280.25 L 142.652344 279.6875 L 142.902344 279.109375 L 143.132812 278.523438 L 143.332031 277.929688 L 143.507812 277.328125 L 143.660156 276.714844 L 143.78125 276.101562 L 143.875 275.480469 L 143.945312 274.855469 L 143.984375 274.226562 L 144 273.601562 L 144 230.398438 L 143.984375 229.773438 L 143.945312 229.144531 L 143.875 228.519531 L 143.78125 227.898438 L 143.660156 227.285156 L 143.507812 226.671875 L 143.332031 226.070312 L 143.132812 225.476562 L 142.902344 224.890625 L 142.652344 224.3125 L 142.371094 223.75 L 142.070312 223.199219 L 141.746094 222.664062 L 141.394531 222.140625 L 141.023438 221.632812 L 140.632812 221.144531 L 140.214844 220.671875 L 139.78125 220.21875 L 139.328125 219.785156 L 138.855469 219.367188 L 138.367188 218.976562 L 137.859375 218.605469 L 137.335938 218.253906 L 136.800781 217.929688 L 136.25 217.628906 L 135.6875 217.347656 L 135.109375 217.097656 L 134.523438 216.867188 L 133.929688 216.667969 L 133.328125 216.492188 L 132.714844 216.339844 L 132.101562 216.21875 L 131.480469 216.125 L 130.855469 216.054688 L 130.226562 216.015625 L 129.601562 216 L 122.398438 216 L 121.773438 215.984375 L 121.144531 215.945312 L 120.519531 215.875 L 119.898438 215.78125 L 119.285156 215.660156 L 118.671875 215.507812 L 118.070312 215.332031 L 117.476562 215.132812 L 116.890625 214.902344 L 116.3125 214.652344 L 115.75 214.371094 L 115.199219 214.070312 L 114.664062 213.746094 L 114.140625 213.394531 L 113.632812 213.023438 L 113.144531 212.632812 L 112.671875 212.214844 L 112.21875 211.78125 L 111.785156 211.328125 L 111.367188 210.855469 L 110.976562 210.367188 L 110.605469 209.859375 L 110.253906 209.335938 L 109.929688 208.800781 L 109.628906 208.25 L 109.347656 207.6875 L 109.097656 207.109375 L 108.867188 206.523438 L 108.667969 205.929688 L 108.492188 205.328125 L 108.339844 204.714844 L 108.21875 204.101562 L 108.125 203.480469 L 108.054688 202.855469 L 108.015625 202.226562 L 108 201.601562 L 108 86.398438 L 108.015625 85.773438 L 108.054688 85.144531 L 108.125 84.519531 L 108.21875 83.898438 L 108.339844 83.285156 L 108.492188 82.671875 L 108.667969 82.070312 L 108.867188 81.476562 L 109.097656 80.890625 L 109.347656 80.3125 L 109.628906 79.75 L 109.929688 79.199219 L 110.253906 78.664062 L 110.605469 78.140625 L 110.976562 77.632812 L 111.367188 77.144531 L 111.785156 76.671875 L 112.21875 76.21875 L 112.671875 75.785156 L 113.144531 75.367188 L 113.632812 74.976562 L 114.140625 74.605469 L 114.664062 74.253906 L 115.199219 73.929688 L 115.75 73.628906 L 116.3125 73.347656 L 116.890625 73.097656 L 117.476562 72.867188 L 118.070312 72.667969 L 118.671875 72.492188 L 119.285156 72.339844 L 119.898438 72.21875 L 120.519531 72.125 L 121.144531 72.054688 L 121.773438 72.015625 L 122.398438 72 L 129.601562 72 L 130.226562 71.984375 L 130.855469 71.945312 L 131.480469 71.875 L 132.101562 71.78125 L 132.714844 71.660156 L 133.328125 71.507812 L 133.929688 71.332031 L 134.523438 71.132812 L 135.109375 70.902344 L 135.6875 70.652344 L 136.25 70.371094 L 136.800781 70.070312 L 137.335938 69.746094 L 137.859375 69.394531 L 138.367188 69.023438 L 138.855469 68.632812 L 139.328125 68.214844 L 139.78125 67.78125 L 140.214844 67.328125 L 140.632812 66.855469 L 141.023438 66.367188 L 141.394531 65.859375 L 141.746094 65.335938 L 142.070312 64.800781 L 142.371094 64.25 L 142.652344 63.6875 L 142.902344 63.109375 L 143.132812 62.523438 L 143.332031 61.929688 L 143.507812 61.328125 L 143.660156 60.714844 L 143.78125 60.101562 L 143.875 59.480469 L 143.945312 58.855469 L 143.984375 58.226562 L 144 57.601562 L 144 14.398438 L 143.984375 13.773438 L 143.945312 13.144531 L 143.875 12.519531 L 143.78125 11.898438 L 143.660156 11.285156 L 143.507812 10.671875 L 143.332031 10.070312 L 143.132812 9.476562 L 142.902344 8.890625 L 142.652344 8.3125 L 142.371094 7.75 L 142.070312 7.199219 L 141.746094 6.664062 L 141.394531 6.140625 L 141.023438 5.632812 L 140.632812 5.144531 L 140.214844 4.671875 L 139.78125 4.21875 L 139.328125 3.785156 L 138.855469 3.367188 L 138.367188 2.976562 L 137.859375 2.605469 L 137.335938 2.253906 L 136.800781 1.929688 L 136.25 1.628906 L 135.6875 1.347656 L 135.109375 1.097656 L 134.523438 0.867188 L 133.929688 0.667969 L 133.328125 0.492188 L 132.714844 0.339844 L 132.101562 0.21875 L 131.480469 0.125 L 130.855469 0.0546875 L 130.226562 0.015625 L 129.601562 0 L 14.398438 0 L 13.773438 0.015625 L 13.144531 0.0546875 L 12.519531 0.125 L 11.898438 0.21875 L 11.285156 0.339844 L 10.671875 0.492188 L 10.070312 0.667969 L 9.476562 0.867188 L 8.890625 1.097656 L 8.3125 1.347656 L 7.75 1.628906 L 7.199219 1.929688 L 6.664062 2.253906 L 6.140625 2.605469 L 5.632812 2.976562 L 5.144531 3.367188 L 4.671875 3.785156 L 4.21875 4.21875 L 3.785156 4.671875 L 3.367188 5.144531 L 2.976562 5.632812 L 2.605469 6.140625 L 2.253906 6.664062 L 1.929688 7.199219 L 1.628906 7.75 L 1.347656 8.3125 L 1.097656 8.890625 L 0.867188 9.476562 L 0.667969 10.070312 L 0.492188 10.671875 L 0.339844 11.285156 L 0.21875 11.898438 L 0.125 12.519531 L 0.0546875 13.144531 L 0.015625 13.773438 L 0 14.398438 L 0 57.601562 L 0.015625 58.226562 L 0.0546875 58.855469 L 0.125 59.480469 L 0.21875 60.101562 L 0.339844 60.714844 L 0.492188 61.328125 L 0.667969 61.929688 L 0.867188 62.523438 L 1.097656 63.109375 L 1.347656 63.6875 L 1.628906 64.25 L 1.929688 64.800781 L 2.253906 65.335938 L 2.605469 65.859375 L 2.976562 66.367188 L 3.367188 66.855469 L 3.785156 67.328125 L 4.21875 67.78125 L 4.671875 68.214844 L 5.144531 68.632812 L 5.632812 69.023438 L 6.140625 69.394531 L 6.664062 69.746094 L 7.199219 70.070312 L 7.75 70.371094 L 8.3125 70.652344 L 8.890625 70.902344 L 9.476562 71.132812 L 10.070312 71.332031 L 10.671875 71.507812 L 11.285156 71.660156 L 11.898438 71.78125 L 12.519531 71.875 L 13.144531 71.945312 L 13.773438 71.984375 L 14.398438 72 L 21.601562 72 L 22.226562 72.015625 L 22.855469 72.054688 L 23.480469 72.125 L 24.101562 72.21875 L 24.714844 72.339844 L 25.328125 72.492188 L 25.929688 72.667969 L 26.523438 72.867188 L 27.109375 73.097656 L 27.6875 73.347656 L 28.25 73.628906 L 28.800781 73.929688 L 29.335938 74.253906 L 29.859375 74.605469 L 30.367188 74.976562 L 30.855469 75.367188 L 31.328125 75.785156 L 31.78125 76.21875 L 32.214844 76.671875 L 32.632812 77.144531 L 33.023438 77.632812 L 33.394531 78.140625 L 33.746094 78.664062 L 34.070312 79.199219 L 34.371094 79.75 L 34.652344 80.3125 L 34.902344 80.890625 L 35.132812 81.476562 L 35.332031 82.070312 L 35.507812 82.671875 L 35.660156 83.285156 L 35.78125 83.898438 L 35.875 84.519531 L 35.945312 85.144531 L 35.984375 85.773438 L 36 86.398438 L 36 201.601562 L 35.984375 202.226562 L 35.945312 202.855469 L 35.875 203.480469 L 35.78125 204.101562 L 35.660156 204.714844 L 35.507812 205.328125 L 35.332031 205.929688 L 35.132812 206.523438 L 34.902344 207.109375 L 34.652344 207.6875 L 34.371094 208.25 L 34.070312 208.800781 L 33.746094 209.335938 L 33.394531 209.859375 L 33.023438 210.367188 L 32.632812 210.855469 L 32.214844 211.328125 L 31.78125 211.78125 L 31.328125 212.214844 L 30.855469 212.632812 L 30.367188 213.023438 L 29.859375 213.394531 L 29.335938 213.746094 L 28.800781 214.070312 L 28.25 214.371094 L 27.6875 214.652344 L 27.109375 214.902344 L 26.523438 215.132812 L 25.929688 215.332031 L 25.328125 215.507812 L 24.714844 215.660156 L 24.101562 215.78125 L 23.480469 215.875 L 22.855469 215.945312 L 22.226562 215.984375 L 21.601562 216 Z M 14.398438 216 "/>
</svg>
