<?xml version="1.0" encoding="UTF-8"?>
<svg xmlns="http://www.w3.org/2000/svg" xmlns:xlink="http://www.w3.org/1999/xlink" width="432" height="144" viewBox="0 0 432 144">
<path fill-rule="nonzero" fill="rgb(84.3137%, 0%, 0%)" fill-opacity="0.5" d="M 66.460938 0.664062 L 66.601562 0.664062 L 66.738281 0.667969 L 67.019531 0.683594 L 67.15625 0.695312 L 67.296875 0.707031 L 67.433594 0.722656 L 67.570312 0.742188 L 67.710938 0.761719 L 67.847656 0.785156 L 68.121094 0.839844 L 68.253906 0.867188 L 68.527344 0.9375 L 68.660156 0.972656 L 68.792969 1.011719 L 69.058594 1.097656 L 69.1875 1.144531 L 69.320312 1.195312 L 69.578125 1.296875 L 69.707031 1.355469 L 69.832031 1.410156 L 70.207031 1.597656 L 70.328125 1.664062 L 70.570312 1.804688 L 70.6875 1.875 L 70.804688 1.953125 L 70.921875 2.027344 L 71.035156 2.105469 L 71.261719 2.269531 L 71.480469 2.441406 L 71.589844 2.53125 L 71.695312 2.621094 L 71.796875 2.714844 L 71.902344 2.808594 L 72 2.902344 L 72.101562 3 L 72.199219 3.101562 L 72.292969 3.199219 L 72.386719 3.304688 L 72.480469 3.40625 L 72.570312 3.511719 L 72.660156 3.621094 L 72.832031 3.839844 L 72.996094 4.066406 L 73.074219 4.179688 L 73.148438 4.296875 L 73.226562 4.414062 L 73.296875 4.53125 L 73.4375 4.773438 L 73.503906 4.894531 L 73.691406 5.269531 L 73.746094 5.394531 L 73.804688 5.523438 L 73.90625 5.78125 L 73.957031 5.914062 L 74.003906 6.042969 L 74.089844 6.308594 L 74.128906 6.441406 L 74.164062 6.574219 L 74.234375 6.847656 L 74.261719 6.980469 L 74.316406 7.253906 L 74.339844 7.390625 L 74.359375 7.53125 L 74.378906 7.667969 L 74.394531 7.804688 L 74.40625 7.945312 L 74.417969 8.082031 L 74.433594 8.363281 L 74.4375 8.5 L 74.4375 8.640625 L 75.101562 8.640625 L 75.101562 8.488281 L 75.097656 8.339844 L 75.089844 8.1875 L 75.082031 8.039062 L 75.070312 7.886719 L 75.054688 7.738281 L 75.039062 7.585938 L 75.015625 7.4375 L 74.996094 7.289062 L 74.914062 6.84375 L 74.878906 6.695312 L 74.84375 6.550781 L 74.808594 6.402344 L 74.679688 5.96875 L 74.628906 5.828125 L 74.582031 5.683594 L 74.472656 5.402344 L 74.414062 5.265625 L 74.355469 5.125 L 74.292969 4.988281 L 74.226562 4.851562 L 74.160156 4.71875 L 74.089844 4.582031 L 74.019531 4.453125 L 73.945312 4.320312 L 73.789062 4.0625 L 73.707031 3.933594 L 73.625 3.808594 L 73.539062 3.683594 L 73.453125 3.5625 L 73.363281 3.441406 L 73.269531 3.320312 L 73.082031 3.085938 L 72.980469 2.972656 L 72.882812 2.859375 L 72.78125 2.746094 L 72.675781 2.636719 L 72.464844 2.425781 L 72.355469 2.320312 L 72.242188 2.21875 L 72.128906 2.121094 L 72.015625 2.019531 L 71.78125 1.832031 L 71.660156 1.738281 L 71.539062 1.648438 L 71.417969 1.5625 L 71.292969 1.476562 L 71.167969 1.394531 L 71.039062 1.3125 L 70.78125 1.15625 L 70.648438 1.082031 L 70.519531 1.011719 L 70.382812 0.941406 L 70.25 0.875 L 70.113281 0.808594 L 69.976562 0.746094 L 69.835938 0.6875 L 69.699219 0.628906 L 69.417969 0.519531 L 69.273438 0.472656 L 69.132812 0.421875 L 68.699219 0.292969 L 68.550781 0.257812 L 68.40625 0.222656 L 68.257812 0.1875 L 67.8125 0.105469 L 67.664062 0.0859375 L 67.515625 0.0625 L 67.363281 0.046875 L 67.214844 0.03125 L 67.0625 0.0195312 L 66.914062 0.0117188 L 66.761719 0.00390625 L 66.613281 0 L 66.460938 0 Z M 74.4375 8.640625 L 74.4375 28.578125 L 75.101562 28.578125 L 75.101562 8.640625 Z M 74.4375 28.578125 L 74.4375 48.515625 L 75.101562 48.515625 L 75.101562 28.578125 Z M 74.4375 48.515625 L 74.4375 48.667969 L 74.441406 48.820312 L 74.449219 48.96875 L 74.457031 49.121094 L 74.46875 49.269531 L 74.484375 49.421875 L 74.5 49.570312 L 74.519531 49.71875 L 74.566406 50.015625 L 74.59375 50.164062 L 74.625 50.3125 L 74.660156 50.460938 L 74.695312 50.605469 L 74.730469 50.753906 L 74.773438 50.898438 L 74.8125 51.042969 L 74.859375 51.1875 L 74.90625 51.328125 L 74.957031 51.472656 L 75.066406 51.753906 L 75.125 51.894531 L 75.183594 52.03125 L 75.246094 52.167969 L 75.3125 52.304688 L 75.378906 52.4375 L 75.449219 52.574219 L 75.519531 52.707031 L 75.59375 52.835938 L 75.671875 52.96875 L 75.75 53.09375 L 75.832031 53.222656 L 75.914062 53.347656 L 76 53.472656 L 76.085938 53.59375 L 76.175781 53.714844 L 76.269531 53.835938 L 76.457031 54.070312 L 76.554688 54.183594 L 76.757812 54.410156 L 76.863281 54.519531 L 77.074219 54.730469 L 77.183594 54.835938 L 77.410156 55.039062 L 77.523438 55.136719 L 77.757812 55.324219 L 77.878906 55.417969 L 78 55.507812 L 78.121094 55.59375 L 78.246094 55.679688 L 78.371094 55.761719 L 78.5 55.84375 L 78.757812 56 L 78.886719 56.074219 L 79.019531 56.144531 L 79.15625 56.214844 L 79.289062 56.28125 L 79.425781 56.347656 L 79.5625 56.410156 L 79.699219 56.46875 L 79.839844 56.527344 L 80.121094 56.636719 L 80.265625 56.6875 L 80.40625 56.734375 L 80.550781 56.78125 L 80.695312 56.820312 L 80.839844 56.863281 L 80.988281 56.898438 L 81.132812 56.933594 L 81.28125 56.96875 L 81.429688 57 L 81.578125 57.027344 L 81.875 57.074219 L 82.023438 57.09375 L 82.171875 57.109375 L 82.324219 57.125 L 82.472656 57.136719 L 82.777344 57.152344 L 82.925781 57.15625 L 83.078125 57.15625 L 83.078125 56.492188 L 82.9375 56.492188 L 82.796875 56.488281 L 82.660156 56.480469 L 82.519531 56.472656 L 82.382812 56.460938 L 82.242188 56.449219 L 82.105469 56.433594 L 81.96875 56.414062 L 81.828125 56.394531 L 81.554688 56.347656 L 81.417969 56.316406 L 81.28125 56.289062 L 81.148438 56.253906 L 81.011719 56.21875 L 80.878906 56.183594 L 80.746094 56.144531 L 80.480469 56.058594 L 80.347656 56.011719 L 79.960938 55.859375 L 79.832031 55.804688 L 79.707031 55.746094 L 79.332031 55.558594 L 79.210938 55.492188 L 78.96875 55.351562 L 78.851562 55.28125 L 78.734375 55.207031 L 78.617188 55.128906 L 78.503906 55.050781 L 78.277344 54.886719 L 78.058594 54.714844 L 77.949219 54.625 L 77.84375 54.535156 L 77.742188 54.445312 L 77.636719 54.351562 L 77.535156 54.253906 L 77.339844 54.058594 L 77.242188 53.957031 L 77.148438 53.851562 L 77.058594 53.75 L 76.96875 53.644531 L 76.878906 53.535156 L 76.707031 53.316406 L 76.542969 53.089844 L 76.464844 52.976562 L 76.386719 52.859375 L 76.3125 52.742188 L 76.242188 52.625 L 76.101562 52.382812 L 76.035156 52.261719 L 75.847656 51.886719 L 75.792969 51.761719 L 75.734375 51.632812 L 75.582031 51.246094 L 75.535156 51.113281 L 75.449219 50.847656 L 75.410156 50.714844 L 75.375 50.582031 L 75.339844 50.445312 L 75.304688 50.3125 L 75.222656 49.902344 L 75.199219 49.765625 L 75.179688 49.625 L 75.160156 49.488281 L 75.144531 49.351562 L 75.132812 49.210938 L 75.121094 49.074219 L 75.113281 48.933594 L 75.105469 48.796875 L 75.101562 48.65625 L 75.101562 48.515625 Z M 83.078125 57.15625 L 315.691406 57.15625 L 315.691406 56.492188 L 83.078125 56.492188 Z M 315.691406 57.15625 L 315.84375 57.15625 L 315.992188 57.152344 L 316.296875 57.136719 L 316.445312 57.125 L 316.59375 57.109375 L 316.746094 57.09375 L 316.894531 57.074219 L 317.191406 57.027344 L 317.339844 57 L 317.488281 56.96875 L 317.636719 56.933594 L 317.78125 56.898438 L 317.929688 56.863281 L 318.074219 56.820312 L 318.21875 56.78125 L 318.363281 56.734375 L 318.503906 56.6875 L 318.648438 56.636719 L 318.929688 56.527344 L 319.066406 56.46875 L 319.207031 56.410156 L 319.34375 56.347656 L 319.480469 56.28125 L 319.613281 56.214844 L 319.75 56.144531 L 319.882812 56.074219 L 320.011719 56 L 320.269531 55.84375 L 320.398438 55.761719 L 320.523438 55.679688 L 320.648438 55.59375 L 320.769531 55.507812 L 320.890625 55.417969 L 321.011719 55.324219 L 321.246094 55.136719 L 321.359375 55.039062 L 321.585938 54.835938 L 321.695312 54.730469 L 321.90625 54.519531 L 322.011719 54.410156 L 322.214844 54.183594 L 322.3125 54.070312 L 322.5 53.835938 L 322.59375 53.714844 L 322.683594 53.59375 L 322.769531 53.472656 L 322.855469 53.347656 L 322.9375 53.222656 L 323.019531 53.09375 L 323.097656 52.96875 L 323.175781 52.835938 L 323.25 52.707031 L 323.320312 52.574219 L 323.390625 52.4375 L 323.457031 52.304688 L 323.523438 52.167969 L 323.585938 52.03125 L 323.644531 51.894531 L 323.703125 51.753906 L 323.8125 51.472656 L 323.863281 51.328125 L 323.910156 51.1875 L 324.039062 50.753906 L 324.074219 50.605469 L 324.109375 50.460938 L 324.144531 50.3125 L 324.226562 49.867188 L 324.25 49.71875 L 324.269531 49.570312 L 324.285156 49.421875 L 324.300781 49.269531 L 324.3125 49.121094 L 324.320312 48.96875 L 324.328125 48.820312 L 324.332031 48.667969 L 324.332031 48.515625 L 323.667969 48.515625 L 323.667969 48.65625 L 323.664062 48.796875 L 323.65625 48.933594 L 323.648438 49.074219 L 323.636719 49.210938 L 323.625 49.351562 L 323.609375 49.488281 L 323.589844 49.625 L 323.570312 49.765625 L 323.546875 49.902344 L 323.464844 50.3125 L 323.429688 50.445312 L 323.394531 50.582031 L 323.359375 50.714844 L 323.320312 50.847656 L 323.234375 51.113281 L 323.1875 51.246094 L 323.035156 51.632812 L 322.976562 51.761719 L 322.921875 51.886719 L 322.734375 52.261719 L 322.667969 52.382812 L 322.527344 52.625 L 322.457031 52.742188 L 322.382812 52.859375 L 322.304688 52.976562 L 322.226562 53.089844 L 322.0625 53.316406 L 321.890625 53.535156 L 321.800781 53.644531 L 321.710938 53.75 L 321.621094 53.851562 L 321.523438 53.957031 L 321.429688 54.058594 L 321.234375 54.253906 L 321.132812 54.351562 L 321.027344 54.445312 L 320.925781 54.535156 L 320.820312 54.625 L 320.710938 54.714844 L 320.492188 54.886719 L 320.265625 55.050781 L 320.152344 55.128906 L 320.035156 55.207031 L 319.917969 55.28125 L 319.800781 55.351562 L 319.558594 55.492188 L 319.4375 55.558594 L 319.0625 55.746094 L 318.9375 55.804688 L 318.808594 55.859375 L 318.421875 56.011719 L 318.289062 56.058594 L 318.023438 56.144531 L 317.890625 56.183594 L 317.757812 56.21875 L 317.621094 56.253906 L 317.488281 56.289062 L 317.351562 56.316406 L 317.214844 56.347656 L 316.941406 56.394531 L 316.800781 56.414062 L 316.664062 56.433594 L 316.527344 56.449219 L 316.386719 56.460938 L 316.25 56.472656 L 315.96875 56.488281 L 315.832031 56.492188 L 315.691406 56.492188 Z M 324.332031 48.515625 L 324.332031 28.578125 L 323.667969 28.578125 L 323.667969 48.515625 Z M 324.332031 28.578125 L 324.332031 8.640625 L 323.667969 8.640625 L 323.667969 28.578125 Z M 324.332031 8.640625 L 324.332031 8.5 L 324.335938 8.363281 L 324.351562 8.082031 L 324.363281 7.945312 L 324.375 7.804688 L 324.390625 7.667969 L 324.410156 7.53125 L 324.429688 7.390625 L 324.453125 7.253906 L 324.507812 6.980469 L 324.535156 6.847656 L 324.605469 6.574219 L 324.640625 6.441406 L 324.679688 6.308594 L 324.765625 6.042969 L 324.8125 5.914062 L 324.863281 5.78125 L 324.964844 5.523438 L 325.023438 5.394531 L 325.078125 5.269531 L 325.265625 4.894531 L 325.332031 4.773438 L 325.472656 4.53125 L 325.542969 4.414062 L 325.617188 4.296875 L 325.695312 4.179688 L 325.773438 4.066406 L 325.9375 3.839844 L 326.109375 3.621094 L 326.199219 3.511719 L 326.289062 3.40625 L 326.378906 3.304688 L 326.476562 3.199219 L 326.570312 3.101562 L 326.667969 3 L 326.765625 2.902344 L 326.867188 2.808594 L 326.972656 2.714844 L 327.074219 2.621094 L 327.179688 2.53125 L 327.289062 2.441406 L 327.507812 2.269531 L 327.734375 2.105469 L 327.847656 2.027344 L 327.964844 1.953125 L 328.082031 1.875 L 328.199219 1.804688 L 328.441406 1.664062 L 328.5625 1.597656 L 328.9375 1.410156 L 329.0625 1.355469 L 329.191406 1.296875 L 329.578125 1.144531 L 329.710938 1.097656 L 329.976562 1.011719 L 330.109375 0.972656 L 330.242188 0.9375 L 330.378906 0.902344 L 330.511719 0.867188 L 330.921875 0.785156 L 331.058594 0.761719 L 331.199219 0.742188 L 331.335938 0.722656 L 331.472656 0.707031 L 331.613281 0.695312 L 331.75 0.683594 L 332.03125 0.667969 L 332.167969 0.664062 L 332.308594 0.664062 L 332.308594 0 L 332.15625 0 L 332.007812 0.00390625 L 331.703125 0.0195312 L 331.554688 0.03125 L 331.40625 0.046875 L 331.253906 0.0625 L 331.105469 0.0859375 L 330.957031 0.105469 L 330.511719 0.1875 L 330.363281 0.222656 L 330.21875 0.257812 L 330.070312 0.292969 L 329.636719 0.421875 L 329.496094 0.472656 L 329.351562 0.519531 L 329.070312 0.628906 L 328.933594 0.6875 L 328.792969 0.746094 L 328.65625 0.808594 L 328.519531 0.875 L 328.386719 0.941406 L 328.25 1.011719 L 328.117188 1.082031 L 327.988281 1.15625 L 327.730469 1.3125 L 327.601562 1.394531 L 327.476562 1.476562 L 327.351562 1.5625 L 327.230469 1.648438 L 327.109375 1.738281 L 326.988281 1.832031 L 326.753906 2.019531 L 326.640625 2.121094 L 326.527344 2.21875 L 326.414062 2.320312 L 326.304688 2.425781 L 326.09375 2.636719 L 325.988281 2.746094 L 325.785156 2.972656 L 325.6875 3.085938 L 325.5 3.320312 L 325.40625 3.441406 L 325.316406 3.5625 L 325.230469 3.683594 L 325.144531 3.808594 L 325.0625 3.933594 L 324.980469 4.0625 L 324.824219 4.320312 L 324.75 4.453125 L 324.679688 4.582031 L 324.609375 4.71875 L 324.542969 4.851562 L 324.476562 4.988281 L 324.414062 5.125 L 324.355469 5.265625 L 324.296875 5.402344 L 324.1875 5.683594 L 324.136719 5.828125 L 324.089844 5.96875 L 323.960938 6.402344 L 323.925781 6.550781 L 323.890625 6.695312 L 323.855469 6.84375 L 323.773438 7.289062 L 323.75 7.4375 L 323.730469 7.585938 L 323.714844 7.738281 L 323.699219 7.886719 L 323.6875 8.039062 L 323.679688 8.1875 L 323.671875 8.339844 L 323.667969 8.488281 L 323.667969 8.640625 Z M 49.847656 17.28125 L 49.984375 17.28125 L 50.125 17.285156 L 50.261719 17.289062 L 50.402344 17.300781 L 50.542969 17.308594 L 50.816406 17.339844 L 50.957031 17.359375 L 51.09375 17.378906 L 51.367188 17.425781 L 51.503906 17.453125 L 51.777344 17.515625 L 51.910156 17.550781 L 52.042969 17.589844 L 52.179688 17.628906 L 52.3125 17.671875 L 52.441406 17.714844 L 52.574219 17.761719 L 52.703125 17.808594 L 52.832031 17.859375 L 53.089844 17.96875 L 53.214844 18.027344 L 53.34375 18.085938 L 53.46875 18.148438 L 53.832031 18.347656 L 53.953125 18.417969 L 54.074219 18.492188 L 54.191406 18.566406 L 54.304688 18.644531 L 54.421875 18.722656 L 54.535156 18.804688 L 54.644531 18.886719 L 54.757812 18.96875 L 54.863281 19.058594 L 54.972656 19.144531 L 55.078125 19.234375 L 55.183594 19.328125 L 55.285156 19.421875 L 55.386719 19.519531 L 55.582031 19.714844 L 55.679688 19.816406 L 55.773438 19.917969 L 55.867188 20.023438 L 55.957031 20.128906 L 56.042969 20.234375 L 56.128906 20.34375 L 56.214844 20.457031 L 56.296875 20.566406 L 56.378906 20.679688 L 56.457031 20.796875 L 56.535156 20.910156 L 56.609375 21.027344 L 56.683594 21.148438 L 56.753906 21.269531 L 56.953125 21.632812 L 57.015625 21.757812 L 57.074219 21.886719 L 57.132812 22.011719 L 57.242188 22.269531 L 57.292969 22.398438 L 57.339844 22.527344 L 57.386719 22.660156 L 57.429688 22.789062 L 57.472656 22.921875 L 57.511719 23.058594 L 57.550781 23.191406 L 57.585938 23.324219 L 57.648438 23.597656 L 57.675781 23.734375 L 57.722656 24.007812 L 57.742188 24.144531 L 57.761719 24.285156 L 57.792969 24.558594 L 57.800781 24.699219 L 57.8125 24.839844 L 57.816406 24.976562 L 57.820312 25.117188 L 57.820312 25.253906 L 58.484375 25.253906 L 58.484375 25.105469 L 58.480469 24.953125 L 58.472656 24.804688 L 58.464844 24.652344 L 58.453125 24.503906 L 58.4375 24.351562 L 58.421875 24.203125 L 58.402344 24.054688 L 58.378906 23.902344 L 58.355469 23.753906 L 58.328125 23.605469 L 58.296875 23.460938 L 58.265625 23.3125 L 58.230469 23.164062 L 58.152344 22.875 L 58.109375 22.730469 L 58.015625 22.441406 L 57.914062 22.160156 L 57.855469 22.019531 L 57.800781 21.878906 L 57.613281 21.46875 L 57.542969 21.332031 L 57.476562 21.199219 L 57.328125 20.933594 L 57.253906 20.804688 L 57.171875 20.675781 L 57.09375 20.550781 L 56.835938 20.175781 L 56.746094 20.054688 L 56.65625 19.9375 L 56.5625 19.816406 L 56.464844 19.703125 L 56.367188 19.585938 L 56.265625 19.472656 L 56.0625 19.253906 L 55.957031 19.144531 L 55.847656 19.039062 L 55.628906 18.835938 L 55.515625 18.734375 L 55.398438 18.636719 L 55.285156 18.539062 L 55.164062 18.445312 L 55.046875 18.355469 L 54.925781 18.265625 L 54.550781 18.007812 L 54.425781 17.929688 L 54.296875 17.847656 L 54.167969 17.773438 L 53.902344 17.625 L 53.769531 17.558594 L 53.632812 17.488281 L 53.222656 17.300781 L 53.082031 17.246094 L 52.941406 17.1875 L 52.660156 17.085938 L 52.371094 16.992188 L 52.226562 16.949219 L 51.9375 16.871094 L 51.789062 16.835938 L 51.640625 16.804688 L 51.496094 16.773438 L 51.347656 16.746094 L 51.199219 16.722656 L 51.046875 16.699219 L 50.898438 16.679688 L 50.75 16.664062 L 50.597656 16.648438 L 50.449219 16.636719 L 50.296875 16.628906 L 50.148438 16.621094 L 49.996094 16.617188 L 49.847656 16.617188 Z M 57.820312 25.253906 L 57.820312 40.210938 L 58.484375 40.210938 L 58.484375 25.253906 Z M 57.820312 40.210938 L 57.820312 55.164062 L 58.484375 55.164062 L 58.484375 40.210938 Z M 57.820312 55.164062 L 57.824219 55.3125 L 57.832031 55.617188 L 57.84375 55.765625 L 57.855469 55.917969 L 57.867188 56.066406 L 57.886719 56.214844 L 57.90625 56.367188 L 57.953125 56.664062 L 57.980469 56.8125 L 58.011719 56.960938 L 58.042969 57.105469 L 58.078125 57.253906 L 58.15625 57.542969 L 58.199219 57.6875 L 58.292969 57.976562 L 58.394531 58.257812 L 58.449219 58.398438 L 58.507812 58.539062 L 58.570312 58.675781 L 58.632812 58.816406 L 58.695312 58.949219 L 58.761719 59.085938 L 58.832031 59.21875 L 58.980469 59.484375 L 59.054688 59.613281 L 59.132812 59.742188 L 59.214844 59.867188 L 59.296875 59.996094 L 59.382812 60.117188 L 59.472656 60.242188 L 59.5625 60.363281 L 59.652344 60.480469 L 59.746094 60.601562 L 59.84375 60.714844 L 59.941406 60.832031 L 60.039062 60.945312 L 60.144531 61.054688 L 60.246094 61.164062 L 60.351562 61.273438 L 60.460938 61.378906 L 60.679688 61.582031 L 60.792969 61.683594 L 60.90625 61.78125 L 61.023438 61.878906 L 61.140625 61.972656 L 61.503906 62.242188 L 61.628906 62.324219 L 61.753906 62.410156 L 61.882812 62.488281 L 62.011719 62.570312 L 62.140625 62.644531 L 62.40625 62.792969 L 62.539062 62.863281 L 62.675781 62.929688 L 62.808594 62.992188 L 62.949219 63.054688 L 63.085938 63.117188 L 63.226562 63.175781 L 63.367188 63.230469 L 63.648438 63.332031 L 63.792969 63.378906 L 63.933594 63.425781 L 64.078125 63.46875 L 64.226562 63.507812 L 64.371094 63.546875 L 64.519531 63.582031 L 64.664062 63.613281 L 64.8125 63.644531 L 64.960938 63.671875 L 65.257812 63.71875 L 65.410156 63.738281 L 65.707031 63.769531 L 65.859375 63.78125 L 66.007812 63.792969 L 66.3125 63.800781 L 66.460938 63.804688 L 66.460938 63.136719 L 66.324219 63.136719 L 66.042969 63.128906 L 65.90625 63.117188 L 65.765625 63.109375 L 65.628906 63.09375 L 65.488281 63.078125 L 65.351562 63.0625 L 64.941406 62.992188 L 64.804688 62.964844 L 64.53125 62.902344 L 64.398438 62.867188 L 64.261719 62.828125 L 63.996094 62.75 L 63.863281 62.703125 L 63.734375 62.65625 L 63.601562 62.609375 L 63.472656 62.558594 L 63.34375 62.503906 L 63.21875 62.449219 L 63.089844 62.390625 L 62.964844 62.332031 L 62.839844 62.269531 L 62.71875 62.203125 L 62.59375 62.136719 L 62.472656 62.070312 L 62.355469 62 L 62.234375 61.925781 L 62.117188 61.851562 L 62 61.773438 L 61.773438 61.617188 L 61.660156 61.53125 L 61.550781 61.449219 L 61.441406 61.359375 L 61.335938 61.273438 L 61.230469 61.183594 L 61.125 61.089844 L 61.023438 60.996094 L 60.820312 60.800781 L 60.722656 60.703125 L 60.535156 60.5 L 60.441406 60.394531 L 60.261719 60.183594 L 60.175781 60.074219 L 60.09375 59.960938 L 60.007812 59.851562 L 59.929688 59.738281 L 59.851562 59.621094 L 59.773438 59.507812 L 59.699219 59.390625 L 59.625 59.269531 L 59.554688 59.152344 L 59.484375 59.03125 L 59.417969 58.90625 L 59.355469 58.785156 L 59.292969 58.660156 L 59.234375 58.535156 L 59.175781 58.40625 L 59.121094 58.28125 L 59.066406 58.152344 L 59.015625 58.019531 L 58.96875 57.890625 L 58.921875 57.757812 L 58.875 57.628906 L 58.796875 57.363281 L 58.757812 57.226562 L 58.722656 57.09375 L 58.660156 56.820312 L 58.605469 56.546875 L 58.585938 56.410156 L 58.5625 56.273438 L 58.546875 56.136719 L 58.53125 55.996094 L 58.515625 55.859375 L 58.503906 55.71875 L 58.496094 55.582031 L 58.488281 55.300781 L 58.484375 55.164062 Z M 66.460938 63.804688 L 348.921875 63.804688 L 348.921875 63.136719 L 66.460938 63.136719 Z M 348.921875 63.804688 L 365.539062 63.804688 L 365.539062 63.136719 L 348.921875 63.136719 Z M 365.539062 63.804688 L 365.6875 63.800781 L 365.992188 63.792969 L 366.140625 63.78125 L 366.292969 63.769531 L 366.589844 63.738281 L 366.742188 63.71875 L 367.039062 63.671875 L 367.1875 63.644531 L 367.335938 63.613281 L 367.480469 63.582031 L 367.628906 63.546875 L 367.773438 63.507812 L 367.921875 63.46875 L 368.066406 63.425781 L 368.207031 63.378906 L 368.351562 63.332031 L 368.632812 63.230469 L 368.773438 63.175781 L 368.914062 63.117188 L 369.050781 63.054688 L 369.191406 62.992188 L 369.324219 62.929688 L 369.460938 62.863281 L 369.59375 62.792969 L 369.859375 62.644531 L 369.988281 62.570312 L 370.117188 62.488281 L 370.246094 62.410156 L 370.371094 62.324219 L 370.496094 62.242188 L 370.859375 61.972656 L 370.976562 61.878906 L 371.09375 61.78125 L 371.207031 61.683594 L 371.320312 61.582031 L 371.539062 61.378906 L 371.648438 61.273438 L 371.753906 61.164062 L 371.855469 61.054688 L 371.960938 60.945312 L 372.058594 60.832031 L 372.15625 60.714844 L 372.253906 60.601562 L 372.347656 60.480469 L 372.4375 60.363281 L 372.527344 60.242188 L 372.617188 60.117188 L 372.703125 59.996094 L 372.785156 59.867188 L 372.867188 59.742188 L 372.945312 59.613281 L 373.019531 59.484375 L 373.167969 59.21875 L 373.238281 59.085938 L 373.304688 58.949219 L 373.367188 58.816406 L 373.429688 58.675781 L 373.492188 58.539062 L 373.550781 58.398438 L 373.605469 58.257812 L 373.707031 57.976562 L 373.800781 57.6875 L 373.84375 57.542969 L 373.921875 57.253906 L 373.957031 57.105469 L 373.988281 56.960938 L 374.019531 56.8125 L 374.046875 56.664062 L 374.09375 56.367188 L 374.113281 56.214844 L 374.132812 56.066406 L 374.144531 55.917969 L 374.15625 55.765625 L 374.167969 55.617188 L 374.175781 55.3125 L 374.179688 55.164062 L 373.515625 55.164062 L 373.511719 55.300781 L 373.503906 55.582031 L 373.496094 55.71875 L 373.484375 55.859375 L 373.46875 55.996094 L 373.453125 56.136719 L 373.4375 56.273438 L 373.414062 56.410156 L 373.394531 56.546875 L 373.339844 56.820312 L 373.277344 57.09375 L 373.242188 57.226562 L 373.203125 57.363281 L 373.125 57.628906 L 373.078125 57.757812 L 373.03125 57.890625 L 372.984375 58.019531 L 372.933594 58.152344 L 372.878906 58.28125 L 372.824219 58.40625 L 372.765625 58.535156 L 372.707031 58.660156 L 372.644531 58.785156 L 372.582031 58.90625 L 372.515625 59.03125 L 372.445312 59.152344 L 372.375 59.269531 L 372.300781 59.390625 L 372.226562 59.507812 L 372.148438 59.621094 L 372.070312 59.738281 L 371.992188 59.851562 L 371.90625 59.960938 L 371.824219 60.074219 L 371.738281 60.183594 L 371.558594 60.394531 L 371.464844 60.5 L 371.277344 60.703125 L 371.179688 60.800781 L 370.976562 60.996094 L 370.875 61.089844 L 370.769531 61.183594 L 370.664062 61.273438 L 370.558594 61.359375 L 370.449219 61.449219 L 370.339844 61.53125 L 370.226562 61.617188 L 370 61.773438 L 369.882812 61.851562 L 369.765625 61.925781 L 369.644531 62 L 369.527344 62.070312 L 369.40625 62.136719 L 369.28125 62.203125 L 369.160156 62.269531 L 369.035156 62.332031 L 368.910156 62.390625 L 368.78125 62.449219 L 368.65625 62.503906 L 368.527344 62.558594 L 368.398438 62.609375 L 368.265625 62.65625 L 368.136719 62.703125 L 368.003906 62.75 L 367.738281 62.828125 L 367.601562 62.867188 L 367.46875 62.902344 L 367.195312 62.964844 L 367.058594 62.992188 L 366.648438 63.0625 L 366.511719 63.078125 L 366.371094 63.09375 L 366.234375 63.109375 L 366.09375 63.117188 L 365.957031 63.128906 L 365.675781 63.136719 L 365.539062 63.136719 Z M 374.179688 55.164062 L 374.179688 40.210938 L 373.515625 40.210938 L 373.515625 55.164062 Z M 374.179688 40.210938 L 374.179688 25.253906 L 373.515625 25.253906 L 373.515625 40.210938 Z M 374.179688 25.253906 L 374.179688 25.117188 L 374.183594 24.976562 L 374.1875 24.839844 L 374.199219 24.699219 L 374.207031 24.558594 L 374.238281 24.285156 L 374.257812 24.144531 L 374.277344 24.007812 L 374.324219 23.734375 L 374.351562 23.597656 L 374.414062 23.324219 L 374.449219 23.191406 L 374.488281 23.058594 L 374.527344 22.921875 L 374.570312 22.789062 L 374.613281 22.660156 L 374.660156 22.527344 L 374.707031 22.398438 L 374.757812 22.269531 L 374.867188 22.011719 L 374.925781 21.886719 L 374.984375 21.757812 L 375.046875 21.632812 L 375.246094 21.269531 L 375.316406 21.148438 L 375.390625 21.027344 L 375.464844 20.910156 L 375.542969 20.796875 L 375.621094 20.679688 L 375.703125 20.566406 L 375.785156 20.457031 L 375.871094 20.34375 L 375.957031 20.234375 L 376.042969 20.128906 L 376.132812 20.023438 L 376.226562 19.917969 L 376.320312 19.816406 L 376.417969 19.714844 L 376.613281 19.519531 L 376.714844 19.421875 L 376.816406 19.328125 L 376.921875 19.234375 L 377.027344 19.144531 L 377.136719 19.058594 L 377.242188 18.96875 L 377.355469 18.886719 L 377.464844 18.804688 L 377.578125 18.722656 L 377.695312 18.644531 L 377.808594 18.566406 L 377.925781 18.492188 L 378.046875 18.417969 L 378.167969 18.347656 L 378.53125 18.148438 L 378.65625 18.085938 L 378.785156 18.027344 L 378.910156 17.96875 L 379.167969 17.859375 L 379.296875 17.808594 L 379.425781 17.761719 L 379.558594 17.714844 L 379.6875 17.671875 L 379.820312 17.628906 L 379.957031 17.589844 L 380.089844 17.550781 L 380.222656 17.515625 L 380.496094 17.453125 L 380.632812 17.425781 L 380.90625 17.378906 L 381.042969 17.359375 L 381.183594 17.339844 L 381.457031 17.308594 L 381.597656 17.300781 L 381.738281 17.289062 L 381.875 17.285156 L 382.015625 17.28125 L 382.152344 17.28125 L 382.152344 16.617188 L 382.003906 16.617188 L 381.851562 16.621094 L 381.703125 16.628906 L 381.550781 16.636719 L 381.402344 16.648438 L 381.25 16.664062 L 381.101562 16.679688 L 380.953125 16.699219 L 380.800781 16.722656 L 380.652344 16.746094 L 380.503906 16.773438 L 380.359375 16.804688 L 380.210938 16.835938 L 380.0625 16.871094 L 379.773438 16.949219 L 379.628906 16.992188 L 379.339844 17.085938 L 379.058594 17.1875 L 378.917969 17.246094 L 378.777344 17.300781 L 378.367188 17.488281 L 378.230469 17.558594 L 378.097656 17.625 L 377.832031 17.773438 L 377.703125 17.847656 L 377.574219 17.929688 L 377.449219 18.007812 L 377.074219 18.265625 L 376.953125 18.355469 L 376.835938 18.445312 L 376.714844 18.539062 L 376.601562 18.636719 L 376.484375 18.734375 L 376.371094 18.835938 L 376.152344 19.039062 L 376.042969 19.144531 L 375.9375 19.253906 L 375.734375 19.472656 L 375.632812 19.585938 L 375.535156 19.703125 L 375.4375 19.816406 L 375.34375 19.9375 L 375.253906 20.054688 L 375.164062 20.175781 L 374.90625 20.550781 L 374.828125 20.675781 L 374.746094 20.804688 L 374.671875 20.933594 L 374.523438 21.199219 L 374.457031 21.332031 L 374.386719 21.46875 L 374.199219 21.878906 L 374.144531 22.019531 L 374.085938 22.160156 L 373.984375 22.441406 L 373.890625 22.730469 L 373.847656 22.875 L 373.769531 23.164062 L 373.734375 23.3125 L 373.703125 23.460938 L 373.671875 23.605469 L 373.644531 23.753906 L 373.621094 23.902344 L 373.597656 24.054688 L 373.578125 24.203125 L 373.5625 24.351562 L 373.546875 24.503906 L 373.535156 24.652344 L 373.527344 24.804688 L 373.519531 24.953125 L 373.515625 25.105469 L 373.515625 25.253906 Z M 382.152344 17.28125 L 398.769531 17.28125 L 398.769531 16.617188 L 382.152344 16.617188 Z M 0 100.355469 L 16.617188 100.355469 L 16.617188 99.691406 L 0 99.691406 Z M 16.617188 100.355469 L 16.765625 100.355469 L 16.917969 100.351562 L 17.066406 100.34375 L 17.21875 100.335938 L 17.367188 100.324219 L 17.519531 100.308594 L 17.667969 100.292969 L 17.816406 100.273438 L 17.96875 100.25 L 18.117188 100.226562 L 18.265625 100.199219 L 18.410156 100.167969 L 18.558594 100.136719 L 18.707031 100.101562 L 18.996094 100.023438 L 19.140625 99.980469 L 19.429688 99.886719 L 19.570312 99.835938 L 19.992188 99.671875 L 20.402344 99.484375 L 20.539062 99.414062 L 20.804688 99.273438 L 20.933594 99.199219 L 21.066406 99.121094 L 21.195312 99.042969 L 21.320312 98.964844 L 21.695312 98.707031 L 21.816406 98.617188 L 22.167969 98.335938 L 22.285156 98.238281 L 22.398438 98.136719 L 22.617188 97.933594 L 22.726562 97.828125 L 22.832031 97.71875 L 23.035156 97.5 L 23.136719 97.386719 L 23.234375 97.269531 L 23.515625 96.917969 L 23.605469 96.796875 L 23.863281 96.421875 L 23.941406 96.296875 L 24.019531 96.167969 L 24.097656 96.035156 L 24.171875 95.90625 L 24.3125 95.640625 L 24.382812 95.503906 L 24.570312 95.09375 L 24.734375 94.671875 L 24.785156 94.53125 L 24.878906 94.242188 L 24.921875 94.097656 L 25 93.808594 L 25.035156 93.660156 L 25.066406 93.511719 L 25.097656 93.367188 L 25.125 93.21875 L 25.148438 93.070312 L 25.171875 92.917969 L 25.191406 92.769531 L 25.207031 92.621094 L 25.222656 92.46875 L 25.234375 92.320312 L 25.242188 92.167969 L 25.25 92.019531 L 25.253906 91.867188 L 25.253906 91.71875 L 24.589844 91.71875 L 24.589844 91.855469 L 24.585938 91.996094 L 24.578125 92.132812 L 24.570312 92.273438 L 24.558594 92.410156 L 24.546875 92.550781 L 24.53125 92.6875 L 24.511719 92.828125 L 24.492188 92.964844 L 24.445312 93.238281 L 24.417969 93.375 L 24.386719 93.511719 L 24.355469 93.644531 L 24.320312 93.78125 L 24.242188 94.046875 L 24.15625 94.3125 L 24.109375 94.445312 L 24.0625 94.574219 L 24.011719 94.703125 L 23.902344 94.960938 L 23.84375 95.085938 L 23.785156 95.214844 L 23.722656 95.335938 L 23.65625 95.460938 L 23.523438 95.703125 L 23.453125 95.824219 L 23.378906 95.941406 L 23.304688 96.0625 L 23.226562 96.175781 L 23.148438 96.292969 L 23.066406 96.40625 L 22.984375 96.515625 L 22.898438 96.628906 L 22.8125 96.734375 L 22.726562 96.84375 L 22.632812 96.949219 L 22.542969 97.054688 L 22.449219 97.15625 L 22.351562 97.257812 L 22.15625 97.453125 L 22.054688 97.550781 L 21.953125 97.644531 L 21.847656 97.734375 L 21.742188 97.828125 L 21.632812 97.914062 L 21.527344 98 L 21.414062 98.085938 L 21.304688 98.167969 L 21.191406 98.25 L 21.074219 98.328125 L 20.960938 98.40625 L 20.839844 98.480469 L 20.722656 98.554688 L 20.601562 98.625 L 20.359375 98.757812 L 20.234375 98.824219 L 20.113281 98.886719 L 19.984375 98.945312 L 19.859375 99.003906 L 19.601562 99.113281 L 19.472656 99.164062 L 19.34375 99.210938 L 19.210938 99.257812 L 18.945312 99.34375 L 18.679688 99.421875 L 18.542969 99.457031 L 18.410156 99.488281 L 18.273438 99.519531 L 18.136719 99.546875 L 17.863281 99.59375 L 17.726562 99.613281 L 17.585938 99.632812 L 17.449219 99.648438 L 17.308594 99.660156 L 17.171875 99.671875 L 17.03125 99.679688 L 16.894531 99.6875 L 16.753906 99.691406 L 16.617188 99.691406 Z M 25.253906 91.71875 L 25.253906 85.070312 L 24.589844 85.070312 L 24.589844 91.71875 Z M 25.253906 85.070312 L 25.253906 78.425781 L 24.589844 78.425781 L 24.589844 85.070312 Z M 25.253906 78.425781 L 25.261719 78.144531 L 25.265625 78.007812 L 25.273438 77.867188 L 25.285156 77.730469 L 25.300781 77.589844 L 25.332031 77.316406 L 25.355469 77.175781 L 25.375 77.039062 L 25.429688 76.765625 L 25.460938 76.628906 L 25.492188 76.496094 L 25.527344 76.359375 L 25.5625 76.226562 L 25.605469 76.09375 L 25.644531 75.960938 L 25.738281 75.695312 L 25.785156 75.566406 L 25.835938 75.4375 L 25.945312 75.179688 L 26.0625 74.929688 L 26.1875 74.679688 L 26.253906 74.558594 L 26.394531 74.316406 L 26.617188 73.964844 L 26.699219 73.851562 L 26.777344 73.738281 L 26.863281 73.625 L 26.945312 73.515625 L 27.03125 73.40625 L 27.121094 73.296875 L 27.210938 73.191406 L 27.304688 73.089844 L 27.398438 72.984375 L 27.492188 72.882812 L 27.589844 72.785156 L 27.792969 72.589844 L 27.894531 72.496094 L 28.210938 72.226562 L 28.429688 72.054688 L 28.65625 71.890625 L 28.769531 71.8125 L 28.886719 71.734375 L 29.003906 71.660156 L 29.125 71.589844 L 29.242188 71.519531 L 29.363281 71.449219 L 29.488281 71.382812 L 29.609375 71.320312 L 29.859375 71.195312 L 29.988281 71.140625 L 30.113281 71.082031 L 30.371094 70.980469 L 30.503906 70.929688 L 30.632812 70.882812 L 30.898438 70.796875 L 31.03125 70.757812 L 31.167969 70.722656 L 31.300781 70.6875 L 31.4375 70.652344 L 31.847656 70.570312 L 31.984375 70.546875 L 32.257812 70.507812 L 32.398438 70.492188 L 32.535156 70.480469 L 32.675781 70.46875 L 32.8125 70.460938 L 32.953125 70.453125 L 33.089844 70.449219 L 33.230469 70.449219 L 33.230469 69.785156 L 33.078125 69.785156 L 32.929688 69.789062 L 32.777344 69.796875 L 32.628906 69.804688 L 32.476562 69.816406 L 32.179688 69.847656 L 32.027344 69.867188 L 31.730469 69.914062 L 31.582031 69.941406 L 31.433594 69.972656 L 31.289062 70.007812 L 31.140625 70.042969 L 30.996094 70.078125 L 30.847656 70.121094 L 30.703125 70.164062 L 30.5625 70.207031 L 30.417969 70.253906 L 30.277344 70.304688 L 30.132812 70.359375 L 29.996094 70.414062 L 29.714844 70.53125 L 29.578125 70.59375 L 29.441406 70.660156 L 29.308594 70.726562 L 29.042969 70.867188 L 28.910156 70.941406 L 28.652344 71.097656 L 28.523438 71.179688 L 28.398438 71.261719 L 28.273438 71.347656 L 28.152344 71.433594 L 28.03125 71.523438 L 27.910156 71.617188 L 27.675781 71.804688 L 27.5625 71.902344 L 27.449219 72.003906 L 27.339844 72.105469 L 27.121094 72.316406 L 27.015625 72.421875 L 26.910156 72.53125 L 26.808594 72.644531 L 26.613281 72.871094 L 26.515625 72.988281 L 26.421875 73.105469 L 26.152344 73.46875 L 26.066406 73.59375 L 25.984375 73.71875 L 25.902344 73.847656 L 25.824219 73.976562 L 25.675781 74.234375 L 25.601562 74.367188 L 25.53125 74.503906 L 25.464844 74.636719 L 25.398438 74.773438 L 25.335938 74.910156 L 25.277344 75.046875 L 25.21875 75.1875 L 25.164062 75.328125 L 25.113281 75.46875 L 25.0625 75.613281 L 25.011719 75.753906 L 24.925781 76.042969 L 24.886719 76.1875 L 24.847656 76.335938 L 24.8125 76.480469 L 24.75 76.777344 L 24.695312 77.074219 L 24.65625 77.371094 L 24.636719 77.523438 L 24.613281 77.820312 L 24.601562 77.972656 L 24.597656 78.125 L 24.59375 78.273438 L 24.589844 78.425781 Z M 33.230469 70.449219 L 49.847656 70.449219 L 49.847656 69.785156 L 33.230469 69.785156 Z M 49.847656 70.449219 L 348.921875 70.449219 L 348.921875 69.785156 L 49.847656 69.785156 Z M 348.921875 70.449219 L 382.152344 70.449219 L 382.152344 69.785156 L 348.921875 69.785156 Z M 382.152344 70.449219 L 382.304688 70.449219 L 382.457031 70.445312 L 382.605469 70.4375 L 382.757812 70.429688 L 382.90625 70.417969 L 383.058594 70.402344 L 383.207031 70.386719 L 383.355469 70.363281 L 383.503906 70.34375 L 383.949219 70.261719 L 384.097656 70.226562 L 384.242188 70.191406 L 384.390625 70.15625 L 384.824219 70.027344 L 384.964844 69.976562 L 385.109375 69.929688 L 385.390625 69.820312 L 385.53125 69.761719 L 385.667969 69.703125 L 385.804688 69.640625 L 386.078125 69.507812 L 386.34375 69.367188 L 386.472656 69.292969 L 386.605469 69.214844 L 386.730469 69.136719 L 386.859375 69.054688 L 386.984375 68.972656 L 387.109375 68.886719 L 387.230469 68.800781 L 387.355469 68.710938 L 387.707031 68.429688 L 387.820312 68.328125 L 387.933594 68.230469 L 388.046875 68.128906 L 388.15625 68.023438 L 388.367188 67.8125 L 388.472656 67.703125 L 388.675781 67.476562 L 388.773438 67.363281 L 388.960938 67.128906 L 389.054688 67.007812 L 389.144531 66.886719 L 389.230469 66.765625 L 389.316406 66.640625 L 389.398438 66.515625 L 389.480469 66.386719 L 389.636719 66.128906 L 389.710938 65.996094 L 389.78125 65.867188 L 389.851562 65.730469 L 389.917969 65.597656 L 389.984375 65.460938 L 390.046875 65.324219 L 390.105469 65.183594 L 390.164062 65.046875 L 390.273438 64.765625 L 390.324219 64.621094 L 390.371094 64.480469 L 390.417969 64.335938 L 390.460938 64.191406 L 390.5 64.046875 L 390.539062 63.898438 L 390.574219 63.753906 L 390.636719 63.457031 L 390.664062 63.308594 L 390.710938 63.011719 L 390.730469 62.863281 L 390.746094 62.710938 L 390.761719 62.5625 L 390.773438 62.410156 L 390.78125 62.261719 L 390.789062 62.109375 L 390.792969 61.960938 L 390.792969 61.808594 L 390.128906 61.808594 L 390.128906 61.949219 L 390.125 62.085938 L 390.109375 62.367188 L 390.097656 62.503906 L 390.085938 62.644531 L 390.070312 62.78125 L 390.050781 62.917969 L 390.03125 63.058594 L 389.984375 63.332031 L 389.953125 63.46875 L 389.925781 63.601562 L 389.890625 63.738281 L 389.859375 63.875 L 389.78125 64.140625 L 389.695312 64.40625 L 389.648438 64.535156 L 389.597656 64.667969 L 389.496094 64.925781 L 389.441406 65.054688 L 389.382812 65.179688 L 389.320312 65.304688 L 389.261719 65.429688 L 389.195312 65.554688 L 389.0625 65.796875 L 388.988281 65.917969 L 388.917969 66.035156 L 388.84375 66.152344 L 388.765625 66.269531 L 388.6875 66.382812 L 388.523438 66.609375 L 388.351562 66.828125 L 388.261719 66.9375 L 388.171875 67.042969 L 388.082031 67.144531 L 387.988281 67.25 L 387.890625 67.347656 L 387.792969 67.449219 L 387.695312 67.546875 L 387.492188 67.734375 L 387.386719 67.828125 L 387.28125 67.917969 L 387.171875 68.007812 L 386.953125 68.179688 L 386.726562 68.34375 L 386.613281 68.421875 L 386.496094 68.496094 L 386.378906 68.574219 L 386.261719 68.644531 L 386.019531 68.785156 L 385.898438 68.851562 L 385.523438 69.039062 L 385.398438 69.09375 L 385.269531 69.152344 L 384.882812 69.304688 L 384.75 69.351562 L 384.484375 69.4375 L 384.351562 69.476562 L 384.21875 69.511719 L 384.082031 69.546875 L 383.949219 69.582031 L 383.539062 69.664062 L 383.402344 69.6875 L 383.265625 69.707031 L 383.125 69.726562 L 382.988281 69.742188 L 382.847656 69.753906 L 382.710938 69.765625 L 382.570312 69.773438 L 382.433594 69.78125 L 382.292969 69.785156 L 382.152344 69.785156 Z M 390.792969 61.808594 L 390.792969 60.148438 L 390.128906 60.148438 L 390.128906 61.808594 Z M 390.792969 60.148438 L 390.792969 58.484375 L 390.128906 58.484375 L 390.128906 60.148438 Z M 390.792969 58.484375 L 390.796875 58.347656 L 390.796875 58.207031 L 390.804688 58.070312 L 390.8125 57.929688 L 390.824219 57.792969 L 390.835938 57.652344 L 390.851562 57.515625 L 390.871094 57.375 L 390.890625 57.238281 L 390.914062 57.101562 L 390.96875 56.828125 L 391 56.691406 L 391.03125 56.558594 L 391.066406 56.421875 L 391.101562 56.289062 L 391.140625 56.15625 L 391.226562 55.890625 L 391.273438 55.757812 L 391.375 55.5 L 391.484375 55.242188 L 391.542969 55.117188 L 391.601562 54.988281 L 391.664062 54.867188 L 391.726562 54.742188 L 391.792969 54.621094 L 391.933594 54.378906 L 392.003906 54.261719 L 392.082031 54.140625 L 392.15625 54.027344 L 392.234375 53.910156 L 392.316406 53.796875 L 392.398438 53.6875 L 392.484375 53.574219 L 392.570312 53.46875 L 392.660156 53.359375 L 392.75 53.253906 L 392.84375 53.148438 L 393.03125 52.945312 L 393.128906 52.847656 L 393.230469 52.75 L 393.328125 52.652344 L 393.433594 52.558594 L 393.535156 52.46875 L 393.644531 52.375 L 393.75 52.289062 L 393.96875 52.117188 L 394.195312 51.953125 L 394.308594 51.875 L 394.425781 51.796875 L 394.660156 51.648438 L 394.78125 51.578125 L 395.023438 51.445312 L 395.148438 51.378906 L 395.273438 51.316406 L 395.523438 51.199219 L 395.78125 51.089844 L 395.910156 51.039062 L 396.042969 50.992188 L 396.171875 50.945312 L 396.4375 50.859375 L 396.703125 50.78125 L 396.839844 50.746094 L 396.976562 50.714844 L 397.109375 50.683594 L 397.246094 50.65625 L 397.382812 50.632812 L 397.523438 50.609375 L 397.796875 50.570312 L 397.9375 50.554688 L 398.074219 50.542969 L 398.214844 50.53125 L 398.351562 50.523438 L 398.492188 50.515625 L 398.628906 50.511719 L 398.769531 50.511719 L 398.769531 49.847656 L 398.617188 49.847656 L 398.46875 49.851562 L 398.316406 49.859375 L 398.167969 49.867188 L 398.015625 49.878906 L 397.867188 49.894531 L 397.714844 49.910156 L 397.566406 49.929688 L 397.269531 49.976562 L 397.121094 50.003906 L 396.824219 50.066406 L 396.679688 50.101562 L 396.53125 50.140625 L 396.386719 50.179688 L 396.242188 50.222656 L 396.097656 50.269531 L 395.957031 50.316406 L 395.8125 50.367188 L 395.53125 50.476562 L 395.394531 50.53125 L 395.253906 50.59375 L 394.980469 50.71875 L 394.582031 50.929688 L 394.449219 51.003906 L 394.0625 51.238281 L 393.8125 51.410156 L 393.691406 51.496094 L 393.570312 51.585938 L 393.449219 51.679688 L 393.214844 51.867188 L 393.101562 51.964844 L 392.875 52.167969 L 392.765625 52.269531 L 392.660156 52.375 L 392.449219 52.59375 L 392.347656 52.703125 L 392.25 52.816406 L 392.152344 52.933594 L 392.054688 53.046875 L 391.960938 53.167969 L 391.867188 53.285156 L 391.78125 53.40625 L 391.691406 53.53125 L 391.605469 53.65625 L 391.441406 53.90625 L 391.363281 54.035156 L 391.285156 54.167969 L 391.210938 54.296875 L 391.070312 54.5625 L 390.9375 54.835938 L 390.875 54.972656 L 390.816406 55.109375 L 390.757812 55.25 L 390.648438 55.53125 L 390.601562 55.671875 L 390.550781 55.816406 L 390.421875 56.25 L 390.386719 56.394531 L 390.316406 56.691406 L 390.289062 56.835938 L 390.234375 57.132812 L 390.214844 57.285156 L 390.175781 57.582031 L 390.160156 57.734375 L 390.148438 57.882812 L 390.140625 58.035156 L 390.132812 58.183594 L 390.128906 58.335938 L 390.128906 58.484375 Z M 398.769531 50.511719 L 432 50.511719 L 432 49.847656 L 398.769531 49.847656 Z M 232.617188 116.972656 L 232.765625 116.972656 L 232.917969 116.96875 L 233.066406 116.960938 L 233.21875 116.953125 L 233.367188 116.9375 L 233.519531 116.925781 L 233.816406 116.886719 L 233.96875 116.867188 L 234.265625 116.8125 L 234.410156 116.785156 L 234.707031 116.714844 L 234.851562 116.679688 L 235.285156 116.550781 L 235.429688 116.5 L 235.570312 116.453125 L 235.851562 116.34375 L 235.992188 116.285156 L 236.128906 116.226562 L 236.265625 116.164062 L 236.539062 116.03125 L 236.804688 115.890625 L 236.933594 115.816406 L 237.066406 115.738281 L 237.195312 115.660156 L 237.445312 115.496094 L 237.570312 115.410156 L 237.695312 115.320312 L 237.816406 115.234375 L 238.050781 115.046875 L 238.285156 114.851562 L 238.398438 114.753906 L 238.507812 114.652344 L 238.726562 114.441406 L 238.832031 114.335938 L 238.933594 114.226562 L 239.136719 114 L 239.234375 113.886719 L 239.421875 113.652344 L 239.515625 113.53125 L 239.605469 113.410156 L 239.691406 113.289062 L 239.863281 113.039062 L 240.097656 112.652344 L 240.171875 112.519531 L 240.382812 112.121094 L 240.507812 111.847656 L 240.570312 111.707031 L 240.625 111.570312 L 240.734375 111.289062 L 240.785156 111.144531 L 240.832031 111.003906 L 240.878906 110.859375 L 240.921875 110.714844 L 240.960938 110.570312 L 241 110.421875 L 241.035156 110.277344 L 241.097656 109.980469 L 241.125 109.832031 L 241.171875 109.535156 L 241.191406 109.386719 L 241.207031 109.234375 L 241.222656 109.085938 L 241.234375 108.933594 L 241.242188 108.785156 L 241.25 108.632812 L 241.253906 108.484375 L 241.253906 108.332031 L 240.589844 108.332031 L 240.589844 108.472656 L 240.585938 108.609375 L 240.578125 108.75 L 240.570312 108.886719 L 240.558594 109.027344 L 240.546875 109.164062 L 240.53125 109.304688 L 240.492188 109.578125 L 240.46875 109.71875 L 240.445312 109.855469 L 240.417969 109.992188 L 240.386719 110.125 L 240.355469 110.261719 L 240.320312 110.398438 L 240.242188 110.664062 L 240.15625 110.929688 L 240.109375 111.058594 L 240.0625 111.191406 L 240.011719 111.320312 L 239.902344 111.578125 L 239.785156 111.828125 L 239.722656 111.953125 L 239.65625 112.078125 L 239.523438 112.320312 L 239.453125 112.441406 L 239.304688 112.675781 L 239.226562 112.792969 L 239.148438 112.90625 L 238.984375 113.132812 L 238.8125 113.351562 L 238.726562 113.457031 L 238.632812 113.566406 L 238.542969 113.667969 L 238.449219 113.773438 L 238.351562 113.871094 L 238.253906 113.972656 L 238.15625 114.070312 L 237.953125 114.257812 L 237.847656 114.351562 L 237.742188 114.441406 L 237.632812 114.53125 L 237.527344 114.617188 L 237.414062 114.703125 L 237.304688 114.785156 L 237.191406 114.867188 L 237.074219 114.945312 L 236.960938 115.019531 L 236.839844 115.097656 L 236.722656 115.167969 L 236.480469 115.308594 L 236.359375 115.375 L 236.234375 115.4375 L 236.113281 115.5 L 235.984375 115.558594 L 235.859375 115.617188 L 235.601562 115.726562 L 235.34375 115.828125 L 235.210938 115.875 L 234.945312 115.960938 L 234.8125 116 L 234.679688 116.035156 L 234.542969 116.070312 L 234.410156 116.101562 L 234.273438 116.132812 L 234 116.1875 L 233.863281 116.210938 L 233.726562 116.230469 L 233.585938 116.25 L 233.449219 116.265625 L 233.308594 116.277344 L 233.171875 116.289062 L 233.03125 116.296875 L 232.894531 116.304688 L 232.753906 116.304688 L 232.617188 116.308594 Z M 241.253906 108.332031 L 241.253906 96.703125 L 240.589844 96.703125 L 240.589844 108.332031 Z M 241.253906 96.703125 L 241.253906 85.070312 L 240.589844 85.070312 L 240.589844 96.703125 Z M 241.253906 85.070312 L 241.257812 84.929688 L 241.261719 84.792969 L 241.265625 84.652344 L 241.273438 84.515625 L 241.285156 84.375 L 241.300781 84.238281 L 241.316406 84.097656 L 241.332031 83.960938 L 241.355469 83.824219 L 241.375 83.6875 L 241.429688 83.414062 L 241.492188 83.140625 L 241.527344 83.007812 L 241.5625 82.871094 L 241.605469 82.738281 L 241.644531 82.605469 L 241.691406 82.472656 L 241.738281 82.34375 L 241.785156 82.210938 L 241.835938 82.082031 L 241.890625 81.953125 L 241.945312 81.828125 L 242.003906 81.699219 L 242.0625 81.574219 L 242.125 81.449219 L 242.1875 81.328125 L 242.253906 81.203125 L 242.324219 81.082031 L 242.394531 80.964844 L 242.46875 80.84375 L 242.617188 80.609375 L 242.699219 80.496094 L 242.777344 80.382812 L 242.863281 80.269531 L 242.945312 80.160156 L 243.03125 80.050781 L 243.210938 79.839844 L 243.304688 79.734375 L 243.492188 79.53125 L 243.589844 79.429688 L 243.691406 79.332031 L 243.894531 79.144531 L 244 79.050781 L 244.210938 78.871094 L 244.320312 78.785156 L 244.429688 78.703125 L 244.542969 78.617188 L 244.65625 78.539062 L 244.769531 78.457031 L 245.003906 78.308594 L 245.125 78.234375 L 245.242188 78.164062 L 245.363281 78.09375 L 245.488281 78.027344 L 245.609375 77.964844 L 245.734375 77.902344 L 245.859375 77.84375 L 245.988281 77.785156 L 246.113281 77.730469 L 246.242188 77.675781 L 246.371094 77.625 L 246.503906 77.578125 L 246.632812 77.53125 L 246.765625 77.484375 L 247.03125 77.40625 L 247.167969 77.367188 L 247.300781 77.332031 L 247.574219 77.269531 L 247.847656 77.214844 L 247.984375 77.195312 L 248.121094 77.171875 L 248.257812 77.15625 L 248.398438 77.140625 L 248.535156 77.125 L 248.675781 77.113281 L 248.8125 77.105469 L 248.953125 77.101562 L 249.089844 77.097656 L 249.230469 77.09375 L 249.230469 76.429688 L 249.078125 76.433594 L 248.929688 76.4375 L 248.777344 76.441406 L 248.628906 76.453125 L 248.476562 76.464844 L 248.328125 76.476562 L 248.179688 76.496094 L 248.027344 76.515625 L 247.730469 76.5625 L 247.582031 76.589844 L 247.433594 76.621094 L 247.289062 76.652344 L 247.140625 76.6875 L 246.996094 76.726562 L 246.847656 76.765625 L 246.703125 76.808594 L 246.5625 76.855469 L 246.417969 76.902344 L 246.277344 76.953125 L 246.132812 77.003906 L 245.996094 77.058594 L 245.855469 77.117188 L 245.714844 77.179688 L 245.441406 77.304688 L 245.308594 77.371094 L 245.175781 77.441406 L 244.910156 77.589844 L 244.78125 77.664062 L 244.652344 77.742188 L 244.523438 77.824219 L 244.398438 77.90625 L 244.273438 77.992188 L 243.910156 78.261719 L 243.792969 78.355469 L 243.675781 78.453125 L 243.449219 78.648438 L 243.339844 78.75 L 243.121094 78.960938 L 242.910156 79.179688 L 242.808594 79.289062 L 242.613281 79.515625 L 242.515625 79.632812 L 242.421875 79.75 L 242.152344 80.113281 L 242.066406 80.238281 L 241.984375 80.363281 L 241.902344 80.492188 L 241.824219 80.621094 L 241.75 80.75 L 241.601562 81.015625 L 241.53125 81.148438 L 241.464844 81.285156 L 241.398438 81.417969 L 241.335938 81.554688 L 241.21875 81.835938 L 241.164062 81.972656 L 241.113281 82.117188 L 241.0625 82.257812 L 241.011719 82.402344 L 240.96875 82.542969 L 240.925781 82.6875 L 240.886719 82.835938 L 240.847656 82.980469 L 240.8125 83.128906 L 240.78125 83.273438 L 240.75 83.421875 L 240.695312 83.71875 L 240.675781 83.867188 L 240.65625 84.019531 L 240.636719 84.167969 L 240.625 84.316406 L 240.613281 84.46875 L 240.601562 84.617188 L 240.59375 84.921875 L 240.589844 85.070312 Z M 249.230469 77.09375 L 348.921875 77.09375 L 348.921875 76.429688 L 249.230469 76.429688 Z M 348.921875 77.09375 L 365.539062 77.09375 L 365.539062 76.429688 L 348.921875 76.429688 Z M 365.539062 77.09375 L 365.675781 77.097656 L 365.957031 77.105469 L 366.09375 77.113281 L 366.234375 77.125 L 366.371094 77.140625 L 366.511719 77.15625 L 366.648438 77.171875 L 366.785156 77.195312 L 366.921875 77.214844 L 367.195312 77.269531 L 367.46875 77.332031 L 367.601562 77.367188 L 367.738281 77.40625 L 368.003906 77.484375 L 368.136719 77.53125 L 368.265625 77.578125 L 368.398438 77.625 L 368.527344 77.675781 L 368.65625 77.730469 L 368.78125 77.785156 L 368.910156 77.84375 L 369.035156 77.902344 L 369.160156 77.964844 L 369.28125 78.027344 L 369.40625 78.09375 L 369.527344 78.164062 L 369.644531 78.234375 L 369.765625 78.308594 L 370 78.457031 L 370.113281 78.539062 L 370.226562 78.617188 L 370.339844 78.703125 L 370.449219 78.785156 L 370.558594 78.871094 L 370.769531 79.050781 L 370.875 79.144531 L 371.078125 79.332031 L 371.179688 79.429688 L 371.277344 79.53125 L 371.464844 79.734375 L 371.558594 79.839844 L 371.738281 80.050781 L 371.824219 80.160156 L 371.90625 80.269531 L 371.992188 80.382812 L 372.148438 80.609375 L 372.226562 80.726562 L 372.300781 80.84375 L 372.375 80.964844 L 372.445312 81.082031 L 372.515625 81.203125 L 372.582031 81.328125 L 372.644531 81.449219 L 372.707031 81.574219 L 372.765625 81.699219 L 372.824219 81.828125 L 372.878906 81.953125 L 372.933594 82.082031 L 372.984375 82.210938 L 373.03125 82.34375 L 373.078125 82.472656 L 373.125 82.605469 L 373.203125 82.871094 L 373.242188 83.007812 L 373.277344 83.140625 L 373.339844 83.414062 L 373.394531 83.6875 L 373.414062 83.824219 L 373.4375 83.960938 L 373.453125 84.097656 L 373.46875 84.238281 L 373.484375 84.375 L 373.496094 84.515625 L 373.503906 84.652344 L 373.507812 84.792969 L 373.511719 84.929688 L 373.515625 85.070312 L 374.179688 85.070312 L 374.175781 84.921875 L 374.167969 84.617188 L 374.15625 84.46875 L 374.144531 84.316406 L 374.132812 84.167969 L 374.113281 84.019531 L 374.09375 83.867188 L 374.046875 83.570312 L 374.019531 83.421875 L 373.988281 83.273438 L 373.957031 83.128906 L 373.921875 82.980469 L 373.882812 82.835938 L 373.84375 82.6875 L 373.800781 82.542969 L 373.753906 82.402344 L 373.707031 82.257812 L 373.65625 82.117188 L 373.605469 81.972656 L 373.550781 81.835938 L 373.492188 81.695312 L 373.429688 81.554688 L 373.367188 81.417969 L 373.304688 81.285156 L 373.238281 81.148438 L 373.167969 81.015625 L 373.019531 80.75 L 372.945312 80.621094 L 372.867188 80.492188 L 372.785156 80.363281 L 372.703125 80.238281 L 372.617188 80.113281 L 372.347656 79.75 L 372.253906 79.632812 L 372.15625 79.515625 L 371.960938 79.289062 L 371.855469 79.179688 L 371.753906 79.070312 L 371.648438 78.960938 L 371.429688 78.75 L 371.320312 78.648438 L 371.09375 78.453125 L 370.976562 78.355469 L 370.859375 78.261719 L 370.496094 77.992188 L 370.371094 77.90625 L 370.246094 77.824219 L 370.117188 77.742188 L 369.988281 77.664062 L 369.859375 77.589844 L 369.59375 77.441406 L 369.460938 77.371094 L 369.324219 77.304688 L 369.191406 77.242188 L 369.050781 77.179688 L 368.914062 77.117188 L 368.773438 77.058594 L 368.632812 77.003906 L 368.351562 76.902344 L 368.207031 76.855469 L 368.066406 76.808594 L 367.921875 76.765625 L 367.773438 76.726562 L 367.628906 76.6875 L 367.480469 76.652344 L 367.335938 76.621094 L 367.1875 76.589844 L 367.039062 76.5625 L 366.742188 76.515625 L 366.589844 76.496094 L 366.441406 76.476562 L 366.292969 76.464844 L 366.140625 76.453125 L 365.992188 76.441406 L 365.6875 76.433594 L 365.539062 76.429688 Z M 373.515625 85.070312 L 373.515625 96.703125 L 374.179688 96.703125 L 374.179688 85.070312 Z M 373.515625 96.703125 L 373.515625 108.332031 L 374.179688 108.332031 L 374.179688 96.703125 Z M 373.515625 108.332031 L 373.515625 108.484375 L 373.519531 108.632812 L 373.527344 108.785156 L 373.535156 108.933594 L 373.546875 109.085938 L 373.5625 109.234375 L 373.578125 109.386719 L 373.597656 109.535156 L 373.644531 109.832031 L 373.671875 109.980469 L 373.734375 110.277344 L 373.769531 110.421875 L 373.808594 110.570312 L 373.847656 110.714844 L 373.890625 110.859375 L 373.9375 111.003906 L 373.984375 111.144531 L 374.035156 111.289062 L 374.085938 111.429688 L 374.144531 111.570312 L 374.199219 111.707031 L 374.261719 111.847656 L 374.386719 112.121094 L 374.457031 112.253906 L 374.523438 112.386719 L 374.671875 112.652344 L 374.746094 112.78125 L 374.828125 112.910156 L 374.90625 113.039062 L 375.078125 113.289062 L 375.164062 113.410156 L 375.34375 113.652344 L 375.4375 113.769531 L 375.535156 113.886719 L 375.632812 114 L 375.835938 114.226562 L 375.9375 114.335938 L 376.042969 114.441406 L 376.261719 114.652344 L 376.371094 114.753906 L 376.484375 114.851562 L 376.601562 114.949219 L 376.714844 115.046875 L 376.835938 115.140625 L 376.953125 115.234375 L 377.074219 115.320312 L 377.199219 115.410156 L 377.324219 115.496094 L 377.574219 115.660156 L 377.832031 115.816406 L 377.964844 115.890625 L 378.230469 116.03125 L 378.503906 116.164062 L 378.640625 116.226562 L 378.777344 116.285156 L 378.917969 116.34375 L 379.199219 116.453125 L 379.339844 116.5 L 379.484375 116.550781 L 379.917969 116.679688 L 380.0625 116.714844 L 380.359375 116.785156 L 380.503906 116.8125 L 380.800781 116.867188 L 380.953125 116.886719 L 381.25 116.925781 L 381.402344 116.9375 L 381.550781 116.953125 L 381.703125 116.960938 L 381.851562 116.96875 L 382.003906 116.972656 L 382.152344 116.972656 L 382.152344 116.308594 L 382.015625 116.304688 L 381.875 116.304688 L 381.738281 116.296875 L 381.597656 116.289062 L 381.457031 116.277344 L 381.320312 116.265625 L 381.183594 116.25 L 381.042969 116.230469 L 380.90625 116.210938 L 380.769531 116.1875 L 380.496094 116.132812 L 380.222656 116.070312 L 379.957031 116 L 379.820312 115.960938 L 379.6875 115.917969 L 379.558594 115.875 L 379.425781 115.828125 L 379.167969 115.726562 L 378.910156 115.617188 L 378.785156 115.558594 L 378.65625 115.5 L 378.53125 115.4375 L 378.410156 115.375 L 378.289062 115.308594 L 377.925781 115.097656 L 377.808594 115.019531 L 377.695312 114.945312 L 377.578125 114.867188 L 377.464844 114.785156 L 377.355469 114.703125 L 377.242188 114.617188 L 377.136719 114.53125 L 377.027344 114.441406 L 376.921875 114.351562 L 376.816406 114.257812 L 376.613281 114.070312 L 376.515625 113.972656 L 376.417969 113.871094 L 376.320312 113.773438 L 376.226562 113.667969 L 376.132812 113.566406 L 376.042969 113.457031 L 375.957031 113.351562 L 375.785156 113.132812 L 375.621094 112.90625 L 375.542969 112.792969 L 375.464844 112.675781 L 375.316406 112.441406 L 375.246094 112.320312 L 375.113281 112.078125 L 375.046875 111.953125 L 374.984375 111.828125 L 374.867188 111.578125 L 374.757812 111.320312 L 374.707031 111.191406 L 374.660156 111.058594 L 374.613281 110.929688 L 374.527344 110.664062 L 374.449219 110.398438 L 374.414062 110.261719 L 374.382812 110.125 L 374.351562 109.992188 L 374.324219 109.855469 L 374.300781 109.71875 L 374.277344 109.578125 L 374.238281 109.304688 L 374.222656 109.164062 L 374.207031 109.027344 L 374.199219 108.886719 L 374.1875 108.75 L 374.183594 108.609375 L 374.179688 108.472656 L 374.179688 108.332031 Z M 382.152344 116.972656 L 398.769531 116.972656 L 398.769531 116.308594 L 382.152344 116.308594 Z M 66.460938 133.585938 L 66.613281 133.585938 L 66.761719 133.582031 L 66.914062 133.574219 L 67.0625 133.566406 L 67.214844 133.554688 L 67.363281 133.539062 L 67.515625 133.523438 L 67.664062 133.503906 L 67.960938 133.457031 L 68.109375 133.429688 L 68.40625 133.367188 L 68.550781 133.332031 L 68.699219 133.292969 L 68.84375 133.253906 L 68.988281 133.210938 L 69.132812 133.164062 L 69.273438 133.117188 L 69.417969 133.066406 L 69.558594 133.015625 L 69.699219 132.957031 L 69.835938 132.902344 L 69.976562 132.839844 L 70.25 132.714844 L 70.382812 132.644531 L 70.519531 132.578125 L 70.648438 132.503906 L 70.78125 132.429688 L 70.910156 132.355469 L 71.039062 132.273438 L 71.167969 132.195312 L 71.417969 132.023438 L 71.539062 131.9375 L 71.78125 131.757812 L 71.898438 131.664062 L 72.015625 131.566406 L 72.128906 131.46875 L 72.355469 131.265625 L 72.464844 131.164062 L 72.570312 131.058594 L 72.78125 130.839844 L 72.882812 130.730469 L 72.980469 130.617188 L 73.082031 130.5 L 73.175781 130.386719 L 73.269531 130.265625 L 73.363281 130.148438 L 73.453125 130.027344 L 73.625 129.777344 L 73.789062 129.527344 L 73.945312 129.269531 L 74.019531 129.136719 L 74.160156 128.871094 L 74.292969 128.597656 L 74.355469 128.460938 L 74.414062 128.324219 L 74.472656 128.183594 L 74.582031 127.902344 L 74.628906 127.761719 L 74.679688 127.617188 L 74.808594 127.183594 L 74.84375 127.039062 L 74.914062 126.742188 L 74.941406 126.597656 L 74.996094 126.300781 L 75.015625 126.148438 L 75.039062 126 L 75.054688 125.851562 L 75.070312 125.699219 L 75.082031 125.550781 L 75.089844 125.398438 L 75.097656 125.25 L 75.101562 125.097656 L 75.101562 124.949219 L 74.4375 124.949219 L 74.4375 125.085938 L 74.433594 125.226562 L 74.425781 125.363281 L 74.417969 125.503906 L 74.40625 125.644531 L 74.394531 125.78125 L 74.378906 125.917969 L 74.359375 126.058594 L 74.339844 126.195312 L 74.316406 126.332031 L 74.234375 126.742188 L 74.199219 126.878906 L 74.128906 127.144531 L 74.089844 127.28125 L 74.046875 127.414062 L 74.003906 127.542969 L 73.957031 127.675781 L 73.804688 128.0625 L 73.746094 128.191406 L 73.691406 128.316406 L 73.628906 128.445312 L 73.566406 128.570312 L 73.503906 128.691406 L 73.4375 128.8125 L 73.226562 129.175781 L 73.148438 129.292969 L 73.074219 129.40625 L 72.996094 129.523438 L 72.914062 129.636719 L 72.832031 129.746094 L 72.746094 129.859375 L 72.660156 129.964844 L 72.570312 130.074219 L 72.480469 130.179688 L 72.386719 130.285156 L 72.199219 130.488281 L 72.101562 130.585938 L 72 130.683594 L 71.902344 130.78125 L 71.796875 130.875 L 71.695312 130.964844 L 71.589844 131.058594 L 71.261719 131.316406 L 71.035156 131.480469 L 70.921875 131.558594 L 70.804688 131.636719 L 70.570312 131.785156 L 70.449219 131.855469 L 70.207031 131.988281 L 70.082031 132.054688 L 69.957031 132.117188 L 69.707031 132.234375 L 69.449219 132.34375 L 69.320312 132.394531 L 69.1875 132.441406 L 69.058594 132.488281 L 68.792969 132.574219 L 68.527344 132.652344 L 68.390625 132.6875 L 68.253906 132.71875 L 68.121094 132.75 L 67.984375 132.777344 L 67.710938 132.824219 L 67.570312 132.84375 L 67.433594 132.863281 L 67.296875 132.878906 L 67.15625 132.894531 L 67.019531 132.902344 L 66.878906 132.914062 L 66.738281 132.917969 L 66.601562 132.921875 L 66.460938 132.921875 Z M 75.101562 124.949219 L 75.101562 105.007812 L 74.4375 105.007812 L 74.4375 124.949219 Z M 75.101562 105.007812 L 75.101562 85.070312 L 74.4375 85.070312 L 74.4375 105.007812 Z M 75.101562 85.070312 L 75.101562 84.929688 L 75.105469 84.792969 L 75.113281 84.652344 L 75.121094 84.515625 L 75.132812 84.375 L 75.144531 84.238281 L 75.160156 84.097656 L 75.199219 83.824219 L 75.222656 83.6875 L 75.304688 83.277344 L 75.339844 83.140625 L 75.375 83.007812 L 75.410156 82.871094 L 75.449219 82.738281 L 75.535156 82.472656 L 75.582031 82.34375 L 75.632812 82.210938 L 75.734375 81.953125 L 75.792969 81.828125 L 75.847656 81.699219 L 75.972656 81.449219 L 76.035156 81.328125 L 76.101562 81.203125 L 76.171875 81.082031 L 76.242188 80.964844 L 76.3125 80.84375 L 76.386719 80.726562 L 76.464844 80.609375 L 76.542969 80.496094 L 76.707031 80.269531 L 76.878906 80.050781 L 77.148438 79.734375 L 77.242188 79.632812 L 77.4375 79.429688 L 77.535156 79.332031 L 77.636719 79.238281 L 77.742188 79.144531 L 77.84375 79.050781 L 77.949219 78.960938 L 78.058594 78.871094 L 78.167969 78.785156 L 78.277344 78.703125 L 78.390625 78.617188 L 78.503906 78.539062 L 78.617188 78.457031 L 78.96875 78.234375 L 79.210938 78.09375 L 79.332031 78.027344 L 79.582031 77.902344 L 79.832031 77.785156 L 80.089844 77.675781 L 80.21875 77.625 L 80.347656 77.578125 L 80.613281 77.484375 L 81.011719 77.367188 L 81.148438 77.332031 L 81.28125 77.300781 L 81.417969 77.269531 L 81.691406 77.214844 L 81.828125 77.195312 L 81.96875 77.171875 L 82.242188 77.140625 L 82.382812 77.125 L 82.519531 77.113281 L 82.660156 77.105469 L 82.796875 77.101562 L 83.078125 77.09375 L 83.078125 76.429688 L 82.925781 76.433594 L 82.777344 76.4375 L 82.625 76.441406 L 82.472656 76.453125 L 82.324219 76.464844 L 82.171875 76.476562 L 81.875 76.515625 L 81.578125 76.5625 L 81.429688 76.589844 L 81.132812 76.652344 L 80.988281 76.6875 L 80.839844 76.726562 L 80.695312 76.765625 L 80.550781 76.808594 L 80.40625 76.855469 L 80.265625 76.902344 L 80.121094 76.953125 L 79.980469 77.003906 L 79.839844 77.058594 L 79.699219 77.117188 L 79.289062 77.304688 L 79.15625 77.371094 L 79.019531 77.441406 L 78.886719 77.515625 L 78.628906 77.664062 L 78.5 77.742188 L 78.371094 77.824219 L 78.246094 77.90625 L 78.121094 77.992188 L 77.757812 78.261719 L 77.640625 78.355469 L 77.523438 78.453125 L 77.296875 78.648438 L 77.183594 78.75 L 77.074219 78.855469 L 76.96875 78.960938 L 76.757812 79.179688 L 76.65625 79.289062 L 76.554688 79.402344 L 76.457031 79.515625 L 76.269531 79.75 L 76.175781 79.871094 L 76.085938 79.992188 L 76 80.113281 L 75.914062 80.238281 L 75.832031 80.363281 L 75.75 80.492188 L 75.59375 80.75 L 75.519531 80.882812 L 75.378906 81.148438 L 75.3125 81.285156 L 75.246094 81.417969 L 75.183594 81.554688 L 75.066406 81.835938 L 75.011719 81.972656 L 74.957031 82.117188 L 74.90625 82.257812 L 74.859375 82.402344 L 74.8125 82.542969 L 74.773438 82.6875 L 74.730469 82.835938 L 74.695312 82.980469 L 74.660156 83.128906 L 74.625 83.273438 L 74.59375 83.421875 L 74.566406 83.570312 L 74.519531 83.867188 L 74.5 84.019531 L 74.46875 84.316406 L 74.457031 84.46875 L 74.449219 84.617188 L 74.441406 84.769531 L 74.4375 84.921875 L 74.4375 85.070312 Z M 83.078125 77.09375 L 149.539062 77.09375 L 149.539062 76.429688 L 83.078125 76.429688 Z M 149.539062 77.09375 L 149.675781 77.097656 L 149.957031 77.105469 L 150.09375 77.113281 L 150.234375 77.125 L 150.371094 77.140625 L 150.511719 77.15625 L 150.648438 77.171875 L 150.785156 77.195312 L 150.921875 77.214844 L 151.195312 77.269531 L 151.46875 77.332031 L 151.601562 77.367188 L 151.738281 77.40625 L 152.003906 77.484375 L 152.136719 77.53125 L 152.265625 77.578125 L 152.398438 77.625 L 152.527344 77.675781 L 152.65625 77.730469 L 152.78125 77.785156 L 152.910156 77.84375 L 153.035156 77.902344 L 153.160156 77.964844 L 153.28125 78.027344 L 153.40625 78.09375 L 153.527344 78.164062 L 153.644531 78.234375 L 153.765625 78.308594 L 154 78.457031 L 154.113281 78.539062 L 154.226562 78.617188 L 154.339844 78.703125 L 154.449219 78.785156 L 154.558594 78.871094 L 154.769531 79.050781 L 154.875 79.144531 L 155.078125 79.332031 L 155.179688 79.429688 L 155.277344 79.53125 L 155.464844 79.734375 L 155.558594 79.839844 L 155.738281 80.050781 L 155.824219 80.160156 L 155.90625 80.269531 L 155.992188 80.382812 L 156.148438 80.609375 L 156.226562 80.726562 L 156.300781 80.84375 L 156.375 80.964844 L 156.445312 81.082031 L 156.515625 81.203125 L 156.582031 81.328125 L 156.644531 81.449219 L 156.707031 81.574219 L 156.765625 81.699219 L 156.824219 81.828125 L 156.878906 81.953125 L 156.933594 82.082031 L 156.984375 82.210938 L 157.03125 82.34375 L 157.078125 82.472656 L 157.125 82.605469 L 157.203125 82.871094 L 157.242188 83.007812 L 157.277344 83.140625 L 157.339844 83.414062 L 157.394531 83.6875 L 157.414062 83.824219 L 157.4375 83.960938 L 157.453125 84.097656 L 157.46875 84.238281 L 157.484375 84.375 L 157.496094 84.515625 L 157.503906 84.652344 L 157.507812 84.792969 L 157.511719 84.929688 L 157.515625 85.070312 L 158.179688 85.070312 L 158.175781 84.921875 L 158.167969 84.617188 L 158.15625 84.46875 L 158.144531 84.316406 L 158.132812 84.167969 L 158.113281 84.019531 L 158.09375 83.867188 L 158.046875 83.570312 L 158.019531 83.421875 L 157.988281 83.273438 L 157.957031 83.128906 L 157.921875 82.980469 L 157.882812 82.835938 L 157.84375 82.6875 L 157.800781 82.542969 L 157.753906 82.402344 L 157.707031 82.257812 L 157.65625 82.117188 L 157.605469 81.972656 L 157.550781 81.835938 L 157.492188 81.695312 L 157.429688 81.554688 L 157.367188 81.417969 L 157.304688 81.285156 L 157.238281 81.148438 L 157.167969 81.015625 L 157.019531 80.75 L 156.945312 80.621094 L 156.867188 80.492188 L 156.785156 80.363281 L 156.703125 80.238281 L 156.617188 80.113281 L 156.347656 79.75 L 156.253906 79.632812 L 156.15625 79.515625 L 155.960938 79.289062 L 155.855469 79.179688 L 155.753906 79.070312 L 155.648438 78.960938 L 155.429688 78.75 L 155.320312 78.648438 L 155.09375 78.453125 L 154.976562 78.355469 L 154.859375 78.261719 L 154.496094 77.992188 L 154.371094 77.90625 L 154.246094 77.824219 L 154.117188 77.742188 L 153.988281 77.664062 L 153.859375 77.589844 L 153.59375 77.441406 L 153.460938 77.371094 L 153.324219 77.304688 L 153.191406 77.242188 L 153.050781 77.179688 L 152.914062 77.117188 L 152.773438 77.058594 L 152.632812 77.003906 L 152.351562 76.902344 L 152.207031 76.855469 L 152.066406 76.808594 L 151.921875 76.765625 L 151.773438 76.726562 L 151.628906 76.6875 L 151.480469 76.652344 L 151.335938 76.621094 L 151.1875 76.589844 L 151.039062 76.5625 L 150.742188 76.515625 L 150.589844 76.496094 L 150.441406 76.476562 L 150.292969 76.464844 L 150.140625 76.453125 L 149.992188 76.441406 L 149.6875 76.433594 L 149.539062 76.429688 Z M 157.515625 85.070312 L 157.515625 105.007812 L 158.179688 105.007812 L 158.179688 85.070312 Z M 157.515625 105.007812 L 157.515625 124.949219 L 158.179688 124.949219 L 158.179688 105.007812 Z M 157.515625 124.949219 L 157.515625 125.097656 L 157.519531 125.25 L 157.527344 125.398438 L 157.535156 125.550781 L 157.546875 125.699219 L 157.5625 125.851562 L 157.578125 126 L 157.597656 126.148438 L 157.621094 126.300781 L 157.644531 126.449219 L 157.671875 126.597656 L 157.703125 126.742188 L 157.734375 126.890625 L 157.769531 127.039062 L 157.847656 127.328125 L 157.890625 127.472656 L 157.984375 127.761719 L 158.085938 128.042969 L 158.144531 128.183594 L 158.199219 128.324219 L 158.386719 128.734375 L 158.457031 128.871094 L 158.523438 129.003906 L 158.671875 129.269531 L 158.746094 129.398438 L 158.828125 129.527344 L 158.90625 129.652344 L 159.164062 130.027344 L 159.253906 130.148438 L 159.34375 130.265625 L 159.4375 130.386719 L 159.535156 130.5 L 159.632812 130.617188 L 159.734375 130.730469 L 159.9375 130.949219 L 160.042969 131.058594 L 160.152344 131.164062 L 160.371094 131.367188 L 160.484375 131.46875 L 160.601562 131.566406 L 160.714844 131.664062 L 160.835938 131.757812 L 160.953125 131.847656 L 161.074219 131.9375 L 161.449219 132.195312 L 161.574219 132.273438 L 161.703125 132.355469 L 161.832031 132.429688 L 162.097656 132.578125 L 162.230469 132.644531 L 162.367188 132.714844 L 162.777344 132.902344 L 162.917969 132.957031 L 163.058594 133.015625 L 163.339844 133.117188 L 163.628906 133.210938 L 163.773438 133.253906 L 164.0625 133.332031 L 164.210938 133.367188 L 164.359375 133.398438 L 164.503906 133.429688 L 164.652344 133.457031 L 164.800781 133.480469 L 164.953125 133.503906 L 165.101562 133.523438 L 165.25 133.539062 L 165.402344 133.554688 L 165.550781 133.566406 L 165.703125 133.574219 L 165.851562 133.582031 L 166.003906 133.585938 L 166.152344 133.585938 L 166.152344 132.921875 L 166.015625 132.921875 L 165.875 132.917969 L 165.738281 132.914062 L 165.597656 132.902344 L 165.457031 132.894531 L 165.183594 132.863281 L 165.042969 132.84375 L 164.90625 132.824219 L 164.632812 132.777344 L 164.496094 132.75 L 164.222656 132.6875 L 164.089844 132.652344 L 163.957031 132.613281 L 163.820312 132.574219 L 163.6875 132.53125 L 163.558594 132.488281 L 163.425781 132.441406 L 163.296875 132.394531 L 163.167969 132.34375 L 162.910156 132.234375 L 162.785156 132.175781 L 162.65625 132.117188 L 162.53125 132.054688 L 162.167969 131.855469 L 162.046875 131.785156 L 161.925781 131.710938 L 161.808594 131.636719 L 161.695312 131.558594 L 161.578125 131.480469 L 161.464844 131.398438 L 161.355469 131.316406 L 161.242188 131.230469 L 161.136719 131.144531 L 161.027344 131.058594 L 160.921875 130.964844 L 160.816406 130.875 L 160.714844 130.78125 L 160.613281 130.683594 L 160.417969 130.488281 L 160.320312 130.386719 L 160.226562 130.285156 L 160.132812 130.179688 L 160.042969 130.074219 L 159.957031 129.964844 L 159.871094 129.859375 L 159.785156 129.746094 L 159.703125 129.636719 L 159.621094 129.523438 L 159.542969 129.40625 L 159.464844 129.292969 L 159.390625 129.175781 L 159.316406 129.054688 L 159.246094 128.933594 L 159.046875 128.570312 L 158.984375 128.445312 L 158.925781 128.316406 L 158.867188 128.191406 L 158.757812 127.933594 L 158.707031 127.804688 L 158.660156 127.675781 L 158.613281 127.542969 L 158.570312 127.414062 L 158.527344 127.28125 L 158.488281 127.144531 L 158.449219 127.011719 L 158.414062 126.878906 L 158.351562 126.605469 L 158.324219 126.46875 L 158.277344 126.195312 L 158.257812 126.058594 L 158.238281 125.917969 L 158.207031 125.644531 L 158.199219 125.503906 L 158.1875 125.363281 L 158.183594 125.226562 L 158.179688 125.085938 L 158.179688 124.949219 Z M 157.515625 124.949219 "/>
<path fill-rule="nonzero" fill="rgb(54.902%, 23.5294%, 100%)" fill-opacity="0.5" d="M 33.230469 83.410156 L 365.539062 83.410156 L 365.539062 50.179688 L 33.230469 50.179688 Z M 33.230469 83.410156 "/>
</svg>
