<?xml version="1.0" encoding="UTF-8"?>
<svg xmlns="http://www.w3.org/2000/svg" xmlns:xlink="http://www.w3.org/1999/xlink" width="288" height="288" viewBox="0 0 288 288">
<path fill-rule="nonzero" fill="rgb(0%, 0%, 0%)" fill-opacity="1" d="M 99.457031 0 L 99.457031 38.179688 L 96.628906 38.179688 L 96.628906 0 Z M 91.914062 0 L 91.914062 38.179688 L 89.085938 38.179688 L 89.085938 0 Z M 99.457031 41.007812 L 89.085938 41.007812 L 89.085938 38.179688 L 99.457031 38.179688 Z M 99.457031 56.089844 L 89.085938 56.089844 L 89.085938 53.261719 L 99.457031 53.261719 Z M 99.457031 56.089844 L 99.457031 132.453125 L 96.628906 132.453125 L 96.628906 56.089844 Z M 91.914062 56.089844 L 91.914062 132.453125 L 89.085938 132.453125 L 89.085938 56.089844 Z M 99.457031 135.28125 L 89.085938 135.28125 L 89.085938 132.453125 L 99.457031 132.453125 Z M 99.457031 150.363281 L 89.085938 150.363281 L 89.085938 147.535156 L 99.457031 147.535156 Z M 99.457031 150.363281 L 99.457031 188.542969 L 96.628906 188.542969 L 96.628906 150.363281 Z M 91.914062 150.363281 L 91.914062 188.542969 L 89.085938 188.542969 L 89.085938 150.363281 Z M 91.914062 188.542969 L 91.914062 188.949219 L 91.917969 189.359375 L 91.925781 189.960938 L 91.9375 190.566406 L 91.949219 191.167969 L 91.96875 191.773438 L 91.992188 192.375 L 92.015625 192.980469 L 92.078125 194.183594 L 92.117188 194.785156 L 92.15625 195.390625 L 92.25 196.59375 L 92.359375 197.796875 L 92.417969 198.394531 L 92.480469 198.996094 L 92.550781 199.597656 L 92.621094 200.195312 L 92.695312 200.792969 L 92.773438 201.394531 L 92.855469 201.992188 L 92.941406 202.589844 L 93.03125 203.183594 L 93.125 203.78125 L 93.222656 204.378906 L 93.320312 204.972656 L 93.425781 205.566406 L 93.644531 206.753906 L 93.761719 207.347656 L 93.882812 207.9375 L 94.003906 208.53125 L 94.261719 209.710938 L 94.394531 210.296875 L 94.535156 210.886719 L 94.675781 211.472656 L 94.820312 212.058594 L 94.96875 212.644531 L 95.121094 213.226562 L 95.277344 213.808594 L 95.4375 214.390625 L 95.765625 215.554688 L 95.9375 216.132812 L 96.289062 217.289062 L 96.46875 217.863281 L 96.84375 219.011719 L 97.035156 219.582031 L 97.230469 220.15625 L 97.429688 220.722656 L 97.632812 221.292969 L 97.839844 221.859375 L 98.261719 222.992188 L 98.699219 224.117188 L 99.152344 225.234375 L 99.382812 225.792969 L 99.617188 226.347656 L 99.855469 226.90625 L 100.097656 227.457031 L 100.589844 228.558594 L 100.84375 229.109375 L 101.097656 229.65625 L 101.355469 230.199219 L 101.617188 230.746094 L 101.882812 231.285156 L 102.152344 231.828125 L 102.421875 232.367188 L 102.976562 233.4375 L 103.261719 233.972656 L 103.546875 234.503906 L 103.835938 235.035156 L 104.125 235.5625 L 104.421875 236.089844 L 104.71875 236.613281 L 105.023438 237.136719 L 105.328125 237.65625 L 105.636719 238.175781 L 106.261719 239.207031 L 106.582031 239.722656 L 106.902344 240.230469 L 107.226562 240.742188 L 107.554688 241.246094 L 107.882812 241.753906 L 108.21875 242.253906 L 108.554688 242.757812 L 108.894531 243.253906 L 109.238281 243.75 L 109.585938 244.246094 L 109.933594 244.738281 L 110.644531 245.714844 L 111.003906 246.203125 L 111.363281 246.683594 L 112.097656 247.644531 L 112.46875 248.121094 L 112.839844 248.59375 L 113.21875 249.066406 L 113.597656 249.535156 L 113.980469 250.003906 L 114.363281 250.46875 L 115.144531 251.390625 L 115.539062 251.847656 L 115.933594 252.300781 L 116.335938 252.753906 L 117.140625 253.652344 L 117.550781 254.09375 L 117.960938 254.539062 L 118.375 254.976562 L 118.792969 255.414062 L 119.210938 255.847656 L 119.632812 256.28125 L 120.058594 256.710938 L 120.484375 257.136719 L 120.914062 257.558594 L 121.347656 257.980469 L 121.78125 258.398438 L 122.21875 258.816406 L 123.101562 259.636719 L 123.546875 260.046875 L 124.445312 260.851562 L 124.898438 261.25 L 125.355469 261.648438 L 125.8125 262.039062 L 126.734375 262.820312 L 127.199219 263.203125 L 127.667969 263.585938 L 128.136719 263.964844 L 128.609375 264.339844 L 129.085938 264.714844 L 129.5625 265.082031 L 130.042969 265.449219 L 130.523438 265.8125 L 131.007812 266.175781 L 131.492188 266.53125 L 131.980469 266.886719 L 132.964844 267.589844 L 133.957031 268.277344 L 134.457031 268.617188 L 134.957031 268.953125 L 135.964844 269.617188 L 136.472656 269.941406 L 136.984375 270.265625 L 137.496094 270.585938 L 138.007812 270.902344 L 138.523438 271.21875 L 139.039062 271.527344 L 139.558594 271.835938 L 140.082031 272.140625 L 140.605469 272.441406 L 141.128906 272.738281 L 141.65625 273.035156 L 142.183594 273.324219 L 142.714844 273.613281 L 143.246094 273.898438 L 143.78125 274.179688 L 144.316406 274.457031 L 145.394531 275.003906 L 145.9375 275.269531 L 146.476562 275.535156 L 147.023438 275.796875 L 147.566406 276.054688 L 148.117188 276.308594 L 148.664062 276.558594 L 149.765625 277.050781 L 150.875 277.527344 L 151.433594 277.761719 L 151.992188 277.992188 L 152.550781 278.21875 L 153.113281 278.441406 L 153.671875 278.660156 L 154.238281 278.878906 L 154.800781 279.089844 L 155.367188 279.296875 L 155.9375 279.503906 L 156.503906 279.707031 L 157.074219 279.902344 L 157.648438 280.097656 L 158.21875 280.289062 L 158.792969 280.476562 L 159.367188 280.660156 L 159.945312 280.84375 L 160.519531 281.019531 L 161.097656 281.191406 L 161.679688 281.363281 L 162.257812 281.527344 L 162.839844 281.691406 L 164.003906 282.003906 L 164.589844 282.15625 L 165.175781 282.304688 L 165.761719 282.449219 L 166.347656 282.589844 L 166.9375 282.726562 L 167.523438 282.859375 L 168.113281 282.988281 L 168.707031 283.113281 L 169.886719 283.355469 L 170.480469 283.46875 L 171.667969 283.6875 L 172.261719 283.789062 L 172.859375 283.890625 L 173.453125 283.988281 L 174.648438 284.167969 L 175.246094 284.253906 L 176.441406 284.410156 L 177.042969 284.484375 L 177.640625 284.554688 L 178.242188 284.621094 L 178.839844 284.683594 L 179.441406 284.742188 L 180.042969 284.796875 L 180.644531 284.847656 L 181.847656 284.941406 L 182.449219 284.980469 L 183.054688 285.015625 L 184.257812 285.078125 L 184.863281 285.101562 L 185.464844 285.121094 L 186.070312 285.140625 L 186.671875 285.152344 L 187.277344 285.164062 L 187.878906 285.167969 L 188.484375 285.171875 L 189.085938 285.171875 L 189.691406 285.164062 L 190.292969 285.15625 L 190.898438 285.144531 L 191.5 285.125 L 192.105469 285.105469 L 192.707031 285.082031 L 193.308594 285.054688 L 193.914062 285.023438 L 194.515625 284.988281 L 195.117188 284.949219 L 195.71875 284.90625 L 196.320312 284.859375 L 196.921875 284.808594 L 197.523438 284.753906 L 198.125 284.695312 L 198.726562 284.632812 L 199.324219 284.570312 L 199.925781 284.5 L 200.523438 284.425781 L 201.125 284.347656 L 201.722656 284.269531 L 202.917969 284.097656 L 203.511719 284.003906 L 204.109375 283.910156 L 204.703125 283.8125 L 205.300781 283.707031 L 205.894531 283.601562 L 206.488281 283.492188 L 207.082031 283.378906 L 208.261719 283.136719 L 208.855469 283.011719 L 209.445312 282.882812 L 210.03125 282.753906 L 210.621094 282.617188 L 211.207031 282.476562 L 212.378906 282.1875 L 212.964844 282.035156 L 214.128906 281.722656 L 214.710938 281.5625 L 215.292969 281.394531 L 215.871094 281.226562 L 216.449219 281.054688 L 217.027344 280.878906 L 217.605469 280.699219 L 218.179688 280.515625 L 218.753906 280.328125 L 219.324219 280.136719 L 219.898438 279.945312 L 220.46875 279.746094 L 221.039062 279.542969 L 221.605469 279.339844 L 222.171875 279.132812 L 222.738281 278.917969 L 223.300781 278.703125 L 223.863281 278.484375 L 224.425781 278.261719 L 224.984375 278.039062 L 225.542969 277.808594 L 226.097656 277.574219 L 226.65625 277.339844 L 227.207031 277.097656 L 227.761719 276.855469 L 228.3125 276.609375 L 228.863281 276.359375 L 229.410156 276.105469 L 229.957031 275.847656 L 231.042969 275.324219 L 231.585938 275.058594 L 232.125 274.785156 L 232.660156 274.511719 L 233.199219 274.234375 L 233.730469 273.953125 L 234.265625 273.671875 L 234.796875 273.382812 L 235.324219 273.09375 L 236.378906 272.5 L 236.902344 272.199219 L 237.421875 271.898438 L 238.460938 271.28125 L 239.492188 270.648438 L 240.003906 270.328125 L 240.511719 270.007812 L 241.527344 269.351562 L 242.03125 269.019531 L 242.53125 268.683594 L 243.03125 268.34375 L 243.527344 268.003906 L 244.023438 267.65625 L 244.515625 267.308594 L 245.007812 266.957031 L 245.496094 266.605469 L 245.984375 266.246094 L 246.46875 265.886719 L 246.949219 265.523438 L 247.429688 265.15625 L 248.382812 264.414062 L 248.855469 264.039062 L 249.792969 263.28125 L 250.722656 262.507812 L 251.183594 262.117188 L 251.640625 261.726562 L 252.097656 261.332031 L 252.550781 260.933594 L 253.449219 260.128906 L 254.339844 259.308594 L 254.78125 258.898438 L 255.21875 258.484375 L 255.652344 258.066406 L 256.085938 257.644531 L 256.515625 257.222656 L 256.945312 256.796875 L 257.371094 256.367188 L 257.792969 255.933594 L 258.628906 255.066406 L 259.042969 254.625 L 259.453125 254.183594 L 259.863281 253.738281 L 260.269531 253.292969 L 260.671875 252.84375 L 261.46875 251.9375 L 262.257812 251.023438 L 263.03125 250.09375 L 263.414062 249.628906 L 263.792969 249.160156 L 264.171875 248.6875 L 264.546875 248.214844 L 264.917969 247.738281 L 265.285156 247.261719 L 265.648438 246.78125 L 266.011719 246.296875 L 266.371094 245.8125 L 267.082031 244.835938 L 267.777344 243.851562 L 268.121094 243.355469 L 268.464844 242.855469 L 268.800781 242.355469 L 269.136719 241.851562 L 269.46875 241.347656 L 269.796875 240.84375 L 270.121094 240.332031 L 270.441406 239.824219 L 270.761719 239.308594 L 271.078125 238.796875 L 271.390625 238.28125 L 271.699219 237.761719 L 272.003906 237.242188 L 272.605469 236.195312 L 272.902344 235.667969 L 273.195312 235.140625 L 273.484375 234.609375 L 274.054688 233.546875 L 274.332031 233.011719 L 274.609375 232.472656 L 274.882812 231.933594 L 275.152344 231.394531 L 275.417969 230.851562 L 275.679688 230.308594 L 275.9375 229.765625 L 276.195312 229.21875 L 276.445312 228.667969 L 276.695312 228.121094 L 276.941406 227.566406 L 277.183594 227.015625 L 277.421875 226.460938 L 277.65625 225.90625 L 278.117188 224.789062 L 278.339844 224.226562 L 278.5625 223.667969 L 278.78125 223.101562 L 278.996094 222.539062 L 279.617188 220.839844 L 279.816406 220.269531 L 280.011719 219.699219 L 280.394531 218.550781 L 280.761719 217.402344 L 280.941406 216.824219 L 281.113281 216.25 L 281.285156 215.667969 L 281.453125 215.089844 L 281.617188 214.507812 L 281.777344 213.925781 L 281.933594 213.34375 L 282.089844 212.757812 L 282.238281 212.175781 L 282.527344 211.003906 L 282.664062 210.414062 L 282.800781 209.828125 L 283.058594 208.648438 L 283.179688 208.054688 L 283.300781 207.464844 L 283.417969 206.871094 L 283.53125 206.28125 L 283.640625 205.6875 L 283.746094 205.089844 L 283.847656 204.496094 L 283.945312 203.902344 L 284.039062 203.304688 L 284.128906 202.707031 L 284.214844 202.109375 L 284.296875 201.511719 L 284.453125 200.316406 L 284.523438 199.714844 L 284.589844 199.117188 L 284.65625 198.515625 L 284.773438 197.3125 L 284.875 196.109375 L 284.921875 195.507812 L 285 194.304688 L 285.035156 193.703125 L 285.0625 193.097656 L 285.089844 192.496094 L 285.113281 191.894531 L 285.132812 191.289062 L 285.148438 190.6875 L 285.160156 190.082031 L 285.167969 189.480469 L 285.171875 188.875 L 285.171875 188.273438 L 285.167969 187.667969 L 285.160156 187.066406 L 285.148438 186.460938 L 285.132812 185.859375 L 285.117188 185.253906 L 285.09375 184.652344 L 285.066406 184.046875 L 285.039062 183.445312 L 285.003906 182.84375 L 284.964844 182.238281 L 284.925781 181.636719 L 284.832031 180.433594 L 284.722656 179.230469 L 284.660156 178.632812 L 284.597656 178.03125 L 284.53125 177.429688 L 284.460938 176.832031 L 284.382812 176.234375 L 284.304688 175.632812 L 284.222656 175.035156 L 284.136719 174.4375 L 284.046875 173.84375 L 283.953125 173.246094 L 283.855469 172.648438 L 283.753906 172.054688 L 283.542969 170.867188 L 283.429688 170.273438 L 283.3125 169.679688 L 283.070312 168.5 L 282.8125 167.320312 L 282.675781 166.730469 L 282.539062 166.144531 L 282.398438 165.554688 L 282.253906 164.96875 L 282.101562 164.386719 L 281.949219 163.800781 L 281.792969 163.21875 L 281.632812 162.636719 L 281.46875 162.054688 L 281.304688 161.476562 L 281.132812 160.894531 L 280.957031 160.320312 L 280.78125 159.742188 L 280.597656 159.167969 L 280.414062 158.589844 L 280.222656 158.019531 L 280.03125 157.445312 L 279.835938 156.875 L 279.636719 156.304688 L 279.433594 155.738281 L 279.226562 155.171875 L 279.015625 154.605469 L 278.800781 154.039062 L 278.585938 153.476562 L 278.363281 152.914062 L 278.140625 152.355469 L 277.679688 151.238281 L 277.445312 150.683594 L 277.207031 150.128906 L 276.964844 149.574219 L 276.472656 148.472656 L 276.21875 147.921875 L 275.964844 147.375 L 275.707031 146.832031 L 275.175781 145.746094 L 274.910156 145.207031 L 274.636719 144.667969 L 274.359375 144.128906 L 274.082031 143.59375 L 273.511719 142.53125 L 273.222656 142 L 272.636719 140.945312 L 272.035156 139.898438 L 271.730469 139.378906 L 271.421875 138.859375 L 271.109375 138.34375 L 270.792969 137.828125 L 270.152344 136.804688 L 269.828125 136.296875 L 269.5 135.789062 L 268.835938 134.78125 L 268.15625 133.78125 L 267.8125 133.285156 L 267.117188 132.300781 L 266.761719 131.808594 L 266.40625 131.324219 L 266.046875 130.835938 L 265.6875 130.355469 L 264.953125 129.394531 L 264.582031 128.917969 L 263.832031 127.972656 L 263.453125 127.503906 L 263.070312 127.039062 L 262.296875 126.109375 L 261.113281 124.738281 L 260.308594 123.839844 L 259.902344 123.390625 L 259.496094 122.945312 L 259.085938 122.503906 L 258.671875 122.066406 L 258.253906 121.628906 L 257.835938 121.195312 L 257.410156 120.761719 L 256.988281 120.335938 L 256.558594 119.90625 L 256.128906 119.484375 L 255.695312 119.0625 L 255.261719 118.644531 L 254.824219 118.230469 L 254.382812 117.816406 L 253.941406 117.40625 L 253.496094 117 L 253.046875 116.597656 L 252.59375 116.195312 L 251.6875 115.398438 L 251.230469 115.007812 L 250.769531 114.617188 L 249.839844 113.84375 L 248.902344 113.085938 L 248.429688 112.710938 L 247.953125 112.335938 L 247.476562 111.96875 L 246.996094 111.601562 L 246.515625 111.238281 L 246.03125 110.875 L 245.546875 110.519531 L 245.054688 110.164062 L 244.566406 109.8125 L 244.074219 109.464844 L 243.578125 109.117188 L 243.082031 108.777344 L 242.582031 108.4375 L 242.078125 108.101562 L 241.578125 107.769531 L 241.070312 107.4375 L 240.054688 106.789062 L 239.542969 106.46875 L 239.027344 106.152344 L 237.996094 105.527344 L 237.476562 105.21875 L 235.90625 104.316406 L 235.378906 104.023438 L 234.316406 103.445312 L 233.785156 103.160156 L 233.25 102.878906 L 232.714844 102.601562 L 232.175781 102.328125 L 231.097656 101.789062 L 230.554688 101.523438 L 230.011719 101.265625 L 229.464844 101.007812 L 228.917969 100.753906 L 227.816406 100.253906 L 227.265625 100.011719 L 226.15625 99.535156 L 225.597656 99.300781 L 224.480469 98.847656 L 223.355469 98.402344 L 222.792969 98.1875 L 221.660156 97.765625 L 221.09375 97.5625 L 220.523438 97.359375 L 219.382812 96.96875 L 218.808594 96.777344 L 218.238281 96.589844 L 217.660156 96.40625 L 217.085938 96.226562 L 216.507812 96.050781 L 215.351562 95.707031 L 214.1875 95.378906 L 213.023438 95.066406 L 212.4375 94.914062 L 211.265625 94.625 L 210.679688 94.484375 L 210.089844 94.347656 L 209.503906 94.214844 L 208.914062 94.085938 L 208.324219 93.960938 L 207.730469 93.839844 L 207.140625 93.722656 L 206.546875 93.605469 L 205.953125 93.496094 L 204.765625 93.285156 L 204.167969 93.1875 L 203.574219 93.089844 L 202.378906 92.910156 L 201.78125 92.824219 L 200.585938 92.667969 L 199.984375 92.59375 L 199.386719 92.523438 L 198.183594 92.398438 L 197.585938 92.339844 L 196.984375 92.285156 L 196.382812 92.234375 L 195.78125 92.1875 L 195.179688 92.144531 L 194.574219 92.101562 L 193.972656 92.066406 L 193.371094 92.035156 L 192.765625 92.007812 L 191.5625 91.960938 L 190.957031 91.945312 L 190.355469 91.933594 L 189.75 91.921875 L 189.148438 91.917969 L 188.542969 91.914062 L 188.542969 89.085938 L 188.945312 89.085938 L 189.34375 89.089844 L 190.570312 89.105469 L 191.183594 89.121094 L 191.792969 89.140625 L 192.40625 89.160156 L 193.019531 89.1875 L 193.628906 89.21875 L 194.242188 89.25 L 194.851562 89.285156 L 195.464844 89.328125 L 196.074219 89.371094 L 196.683594 89.421875 L 197.296875 89.472656 L 197.90625 89.527344 L 198.515625 89.585938 L 199.734375 89.71875 L 200.339844 89.789062 L 200.949219 89.863281 L 201.554688 89.941406 L 202.164062 90.023438 L 202.769531 90.109375 L 203.375 90.199219 L 203.980469 90.292969 L 204.585938 90.390625 L 205.1875 90.488281 L 205.792969 90.59375 L 206.996094 90.8125 L 208.199219 91.046875 L 208.800781 91.171875 L 209.398438 91.296875 L 210.59375 91.5625 L 211.191406 91.699219 L 211.789062 91.839844 L 212.382812 91.984375 L 212.976562 92.132812 L 213.570312 92.285156 L 214.160156 92.441406 L 214.753906 92.601562 L 215.34375 92.765625 L 215.933594 92.933594 L 216.519531 93.101562 L 217.109375 93.277344 L 217.695312 93.453125 L 218.277344 93.636719 L 218.863281 93.820312 L 219.445312 94.007812 L 220.609375 94.398438 L 221.1875 94.597656 L 221.765625 94.800781 L 222.339844 95.003906 L 222.917969 95.214844 L 223.492188 95.429688 L 224.0625 95.644531 L 225.203125 96.089844 L 225.773438 96.316406 L 226.339844 96.546875 L 226.90625 96.78125 L 227.46875 97.019531 L 228.03125 97.261719 L 228.59375 97.507812 L 229.152344 97.753906 L 230.269531 98.261719 L 230.824219 98.519531 L 231.378906 98.785156 L 232.480469 99.316406 L 233.027344 99.589844 L 234.121094 100.144531 L 234.664062 100.425781 L 235.207031 100.710938 L 235.746094 101 L 236.285156 101.292969 L 237.355469 101.886719 L 238.417969 102.496094 L 238.945312 102.804688 L 239.472656 103.117188 L 240 103.433594 L 240.523438 103.75 L 241.042969 104.070312 L 241.5625 104.398438 L 242.59375 105.054688 L 243.617188 105.726562 L 244.128906 106.070312 L 245.136719 106.757812 L 245.640625 107.109375 L 246.140625 107.460938 L 246.640625 107.820312 L 247.136719 108.179688 L 247.628906 108.539062 L 248.121094 108.90625 L 248.609375 109.273438 L 249.097656 109.644531 L 249.582031 110.019531 L 250.542969 110.777344 L 251.023438 111.160156 L 251.496094 111.546875 L 252.441406 112.328125 L 252.910156 112.722656 L 253.375 113.121094 L 253.835938 113.519531 L 254.757812 114.332031 L 255.210938 114.738281 L 256.117188 115.566406 L 256.5625 115.984375 L 257.453125 116.828125 L 257.890625 117.253906 L 258.332031 117.679688 L 259.199219 118.546875 L 259.628906 118.984375 L 260.054688 119.421875 L 260.476562 119.863281 L 261.320312 120.753906 L 261.734375 121.203125 L 262.148438 121.65625 L 262.558594 122.109375 L 262.964844 122.566406 L 263.371094 123.027344 L 263.773438 123.488281 L 264.171875 123.953125 L 264.566406 124.417969 L 264.960938 124.890625 L 265.351562 125.359375 L 266.125 126.3125 L 266.507812 126.789062 L 266.886719 127.273438 L 267.261719 127.753906 L 268.003906 128.730469 L 268.371094 129.21875 L 268.734375 129.710938 L 269.453125 130.703125 L 269.808594 131.203125 L 270.160156 131.703125 L 270.507812 132.207031 L 271.195312 133.222656 L 271.535156 133.730469 L 271.871094 134.246094 L 272.203125 134.757812 L 272.53125 135.273438 L 272.859375 135.792969 L 273.179688 136.3125 L 273.5 136.835938 L 273.816406 137.359375 L 274.132812 137.886719 L 274.75 138.941406 L 275.054688 139.476562 L 275.351562 140.007812 L 275.652344 140.542969 L 275.945312 141.082031 L 276.523438 142.160156 L 277.085938 143.246094 L 277.363281 143.792969 L 277.636719 144.339844 L 277.910156 144.890625 L 278.175781 145.441406 L 278.699219 146.550781 L 278.957031 147.105469 L 279.210938 147.664062 L 279.460938 148.222656 L 279.707031 148.78125 L 279.949219 149.34375 L 280.1875 149.90625 L 280.425781 150.472656 L 280.65625 151.039062 L 280.886719 151.609375 L 281.113281 152.175781 L 281.335938 152.746094 L 281.554688 153.320312 L 281.769531 153.894531 L 281.980469 154.46875 L 282.1875 155.042969 L 282.394531 155.621094 L 282.792969 156.777344 L 283.175781 157.941406 L 283.363281 158.523438 L 283.722656 159.695312 L 283.898438 160.28125 L 284.074219 160.871094 L 284.242188 161.457031 L 284.40625 162.046875 L 284.566406 162.640625 L 284.726562 163.230469 L 285.03125 164.417969 L 285.320312 165.605469 L 285.59375 166.800781 L 285.726562 167.398438 L 285.855469 167.996094 L 285.980469 168.597656 L 286.101562 169.195312 L 286.21875 169.796875 L 286.332031 170.398438 L 286.441406 171.003906 L 286.546875 171.605469 L 286.648438 172.210938 L 286.75 172.8125 L 286.84375 173.417969 L 287.023438 174.628906 L 287.105469 175.238281 L 287.1875 175.84375 L 287.261719 176.453125 L 287.335938 177.058594 L 287.46875 178.277344 L 287.53125 178.886719 L 287.640625 180.105469 L 287.691406 180.714844 L 287.738281 181.328125 L 287.78125 181.9375 L 287.820312 182.550781 L 287.855469 183.160156 L 287.886719 183.773438 L 287.914062 184.382812 L 287.9375 184.996094 L 287.957031 185.609375 L 287.972656 186.21875 L 287.984375 186.832031 L 288 188.058594 L 288 188.671875 L 287.996094 189.28125 L 287.992188 189.894531 L 287.980469 190.507812 L 287.964844 191.121094 L 287.949219 191.730469 L 287.902344 192.957031 L 287.875 193.566406 L 287.839844 194.179688 L 287.804688 194.789062 L 287.761719 195.402344 L 287.71875 196.011719 L 287.671875 196.621094 L 287.621094 197.234375 L 287.503906 198.453125 L 287.441406 199.0625 L 287.375 199.667969 L 287.304688 200.277344 L 287.230469 200.886719 L 287.152344 201.492188 L 287.070312 202.101562 L 286.988281 202.707031 L 286.898438 203.3125 L 286.804688 203.917969 L 286.609375 205.128906 L 286.503906 205.730469 L 286.394531 206.332031 L 286.285156 206.9375 L 286.167969 207.535156 L 286.050781 208.136719 L 285.929688 208.738281 L 285.800781 209.335938 L 285.671875 209.9375 L 285.539062 210.535156 L 285.402344 211.128906 L 285.261719 211.726562 L 285.117188 212.320312 L 284.96875 212.914062 L 284.816406 213.507812 L 284.660156 214.101562 L 284.339844 215.28125 L 284.171875 215.871094 L 284 216.460938 L 283.828125 217.046875 L 283.652344 217.632812 L 283.46875 218.21875 L 283.285156 218.800781 L 283.097656 219.386719 L 282.90625 219.96875 L 282.710938 220.546875 L 282.511719 221.125 L 282.308594 221.703125 L 282.101562 222.28125 L 281.894531 222.855469 L 281.464844 224.003906 L 281.019531 225.144531 L 280.792969 225.714844 L 280.5625 226.28125 L 280.328125 226.847656 L 280.089844 227.410156 L 279.847656 227.976562 L 279.605469 228.535156 L 279.355469 229.097656 L 279.105469 229.65625 L 278.851562 230.210938 L 278.59375 230.765625 L 278.332031 231.320312 L 278.066406 231.871094 L 277.796875 232.421875 L 277.523438 232.972656 L 277.25 233.519531 L 276.972656 234.0625 L 276.6875 234.609375 L 276.402344 235.148438 L 276.117188 235.691406 L 275.824219 236.226562 L 275.527344 236.765625 L 275.230469 237.300781 L 274.621094 238.363281 L 274.003906 239.417969 L 273.6875 239.945312 L 273.371094 240.46875 L 272.722656 241.507812 L 272.394531 242.027344 L 272.066406 242.542969 L 271.394531 243.566406 L 271.054688 244.074219 L 270.710938 244.582031 L 270.363281 245.085938 L 270.011719 245.589844 L 269.660156 246.089844 L 269.304688 246.589844 L 268.945312 247.085938 L 268.21875 248.070312 L 267.851562 248.558594 L 267.480469 249.046875 L 266.730469 250.015625 L 266.347656 250.496094 L 265.964844 250.972656 L 265.578125 251.449219 L 265.191406 251.921875 L 264.800781 252.390625 L 264.40625 252.859375 L 264.007812 253.324219 L 263.605469 253.789062 L 263.203125 254.25 L 262.390625 255.164062 L 261.5625 256.070312 L 261.144531 256.519531 L 260.726562 256.964844 L 260.304688 257.40625 L 259.878906 257.847656 L 259.449219 258.285156 L 259.019531 258.71875 L 258.585938 259.152344 L 257.710938 260.011719 L 257.269531 260.433594 L 256.378906 261.277344 L 255.929688 261.691406 L 255.476562 262.105469 L 255.023438 262.515625 L 254.566406 262.925781 L 254.109375 263.328125 L 253.644531 263.730469 L 253.183594 264.132812 L 252.246094 264.921875 L 251.773438 265.3125 L 251.300781 265.699219 L 250.824219 266.085938 L 250.347656 266.46875 L 249.863281 266.847656 L 249.382812 267.222656 L 248.40625 267.964844 L 247.917969 268.332031 L 247.425781 268.695312 L 246.929688 269.058594 L 246.433594 269.414062 L 245.933594 269.769531 L 245.433594 270.121094 L 244.929688 270.472656 L 244.425781 270.816406 L 243.917969 271.160156 L 243.40625 271.5 L 242.894531 271.835938 L 242.382812 272.167969 L 241.867188 272.496094 L 241.347656 272.824219 L 240.828125 273.148438 L 240.304688 273.46875 L 239.78125 273.785156 L 239.257812 274.097656 L 238.726562 274.410156 L 238.199219 274.71875 L 237.667969 275.023438 L 237.132812 275.324219 L 236.597656 275.621094 L 236.0625 275.914062 L 235.523438 276.207031 L 234.4375 276.777344 L 233.894531 277.058594 L 233.347656 277.335938 L 232.800781 277.609375 L 232.253906 277.878906 L 231.703125 278.148438 L 230.59375 278.671875 L 230.039062 278.929688 L 229.480469 279.183594 L 228.921875 279.433594 L 228.363281 279.679688 L 227.800781 279.925781 L 227.238281 280.164062 L 226.671875 280.402344 L 225.539062 280.863281 L 224.96875 281.089844 L 224.398438 281.3125 L 223.828125 281.53125 L 223.253906 281.746094 L 222.679688 281.957031 L 222.101562 282.167969 L 221.527344 282.371094 L 220.949219 282.574219 L 219.785156 282.964844 L 219.203125 283.15625 L 218.621094 283.34375 L 218.039062 283.527344 L 217.453125 283.707031 L 216.867188 283.882812 L 216.277344 284.054688 L 215.6875 284.222656 L 215.101562 284.390625 L 214.507812 284.550781 L 213.917969 284.707031 L 213.324219 284.863281 L 212.730469 285.015625 L 211.542969 285.304688 L 210.945312 285.445312 L 210.347656 285.582031 L 209.152344 285.839844 L 208.550781 285.964844 L 207.953125 286.089844 L 207.351562 286.207031 L 206.75 286.320312 L 206.148438 286.429688 L 205.542969 286.535156 L 204.941406 286.640625 L 204.335938 286.738281 L 203.125 286.925781 L 201.914062 287.097656 L 201.304688 287.179688 L 200.699219 287.253906 L 200.089844 287.328125 L 199.480469 287.398438 L 198.261719 287.523438 L 197.652344 287.582031 L 197.042969 287.636719 L 196.433594 287.6875 L 195.824219 287.734375 L 195.210938 287.777344 L 194.601562 287.816406 L 193.988281 287.851562 L 193.378906 287.882812 L 192.765625 287.910156 L 192.152344 287.933594 L 191.542969 287.953125 L 190.929688 287.972656 L 190.316406 287.984375 L 189.703125 287.992188 L 189.09375 288 L 188.480469 288 L 187.253906 287.992188 L 186.644531 287.980469 L 186.03125 287.96875 L 184.804688 287.929688 L 184.195312 287.90625 L 183.582031 287.875 L 182.972656 287.84375 L 182.359375 287.808594 L 181.75 287.769531 L 181.136719 287.722656 L 180.527344 287.675781 L 179.917969 287.625 L 179.308594 287.570312 L 178.699219 287.511719 L 178.089844 287.449219 L 177.480469 287.382812 L 176.871094 287.3125 L 176.261719 287.238281 L 175.050781 287.082031 L 174.441406 286.996094 L 173.835938 286.90625 L 172.625 286.71875 L 172.023438 286.617188 L 171.417969 286.515625 L 170.214844 286.296875 L 169.011719 286.0625 L 168.410156 285.941406 L 167.8125 285.816406 L 167.214844 285.6875 L 166.019531 285.414062 L 165.421875 285.273438 L 164.828125 285.132812 L 164.234375 284.984375 L 163.640625 284.832031 L 163.046875 284.675781 L 162.457031 284.519531 L 161.863281 284.355469 L 161.277344 284.1875 L 160.6875 284.019531 L 160.101562 283.847656 L 159.511719 283.667969 L 158.929688 283.488281 L 158.34375 283.304688 L 157.761719 283.117188 L 157.179688 282.925781 L 156.597656 282.730469 L 156.019531 282.53125 L 154.863281 282.125 L 153.714844 281.703125 L 153.140625 281.484375 L 152.570312 281.265625 L 152 281.042969 L 151.429688 280.816406 L 150.863281 280.585938 L 150.296875 280.351562 L 149.171875 279.875 L 148.046875 279.382812 L 147.488281 279.132812 L 146.933594 278.878906 L 146.378906 278.621094 L 145.824219 278.359375 L 145.269531 278.09375 L 144.71875 277.824219 L 144.171875 277.554688 L 143.078125 277 L 142.535156 276.71875 L 141.992188 276.433594 L 140.914062 275.855469 L 139.84375 275.261719 L 139.308594 274.960938 L 138.777344 274.652344 L 138.25 274.347656 L 137.722656 274.035156 L 137.195312 273.71875 L 136.671875 273.402344 L 136.152344 273.082031 L 135.632812 272.757812 L 135.113281 272.429688 L 134.597656 272.097656 L 134.085938 271.765625 L 133.574219 271.429688 L 133.066406 271.089844 L 132.558594 270.746094 L 132.050781 270.398438 L 131.550781 270.050781 L 131.046875 269.699219 L 130.550781 269.339844 L 130.054688 268.984375 L 129.558594 268.621094 L 129.066406 268.257812 L 128.578125 267.890625 L 128.089844 267.519531 L 127.121094 266.769531 L 126.640625 266.386719 L 125.6875 265.621094 L 124.742188 264.839844 L 124.273438 264.445312 L 123.34375 263.648438 L 122.882812 263.246094 L 122.425781 262.839844 L 121.96875 262.429688 L 121.515625 262.019531 L 121.0625 261.605469 L 120.617188 261.1875 L 120.167969 260.769531 L 119.726562 260.347656 L 119.285156 259.921875 L 118.847656 259.496094 L 118.410156 259.0625 L 117.976562 258.628906 L 117.546875 258.195312 L 117.121094 257.757812 L 116.695312 257.316406 L 116.273438 256.871094 L 115.855469 256.425781 L 115.4375 255.976562 L 115.023438 255.523438 L 114.613281 255.070312 L 114.203125 254.613281 L 113.800781 254.15625 L 113.398438 253.695312 L 112.996094 253.230469 L 112.207031 252.292969 L 111.816406 251.824219 L 111.425781 251.351562 L 111.042969 250.875 L 110.660156 250.394531 L 109.902344 249.433594 L 109.160156 248.457031 L 108.792969 247.96875 L 108.429688 247.476562 L 108.066406 246.980469 L 107.707031 246.484375 L 107.351562 245.988281 L 107 245.484375 L 106.304688 244.476562 L 105.960938 243.96875 L 105.625 243.460938 L 105.285156 242.949219 L 104.621094 241.917969 L 104.296875 241.402344 L 103.972656 240.882812 L 103.332031 239.835938 L 102.707031 238.78125 L 102.402344 238.253906 L 102.097656 237.722656 L 101.496094 236.652344 L 101.203125 236.117188 L 100.910156 235.578125 L 100.625 235.039062 L 100.339844 234.496094 L 100.058594 233.953125 L 99.503906 232.859375 L 98.964844 231.757812 L 98.703125 231.207031 L 98.441406 230.652344 L 98.183594 230.097656 L 97.929688 229.539062 L 97.429688 228.421875 L 96.945312 227.296875 L 96.476562 226.164062 L 96.246094 225.597656 L 96.019531 225.027344 L 95.796875 224.457031 L 95.578125 223.886719 L 95.148438 222.738281 L 94.941406 222.164062 L 94.734375 221.585938 L 94.535156 221.007812 L 94.335938 220.425781 L 94.140625 219.847656 L 93.949219 219.265625 L 93.761719 218.683594 L 93.578125 218.097656 L 93.398438 217.511719 L 93.222656 216.925781 L 93.050781 216.339844 L 92.878906 215.75 L 92.550781 214.570312 L 92.394531 213.980469 L 92.238281 213.386719 L 91.941406 212.199219 L 91.796875 211.601562 L 91.65625 211.007812 L 91.519531 210.410156 L 91.386719 209.8125 L 91.257812 209.214844 L 91.132812 208.613281 L 91.011719 208.015625 L 90.777344 206.8125 L 90.667969 206.207031 L 90.457031 205.003906 L 90.261719 203.792969 L 90.082031 202.582031 L 89.996094 201.976562 L 89.917969 201.367188 L 89.839844 200.761719 L 89.765625 200.152344 L 89.695312 199.542969 L 89.570312 198.324219 L 89.511719 197.714844 L 89.457031 197.105469 L 89.40625 196.496094 L 89.359375 195.886719 L 89.316406 195.273438 L 89.273438 194.664062 L 89.238281 194.050781 L 89.207031 193.441406 L 89.179688 192.828125 L 89.15625 192.21875 L 89.132812 191.605469 L 89.117188 190.992188 L 89.105469 190.378906 L 89.09375 189.769531 L 89.085938 188.542969 Z M 99.457031 188.542969 L 99.457031 188.925781 L 99.460938 189.304688 L 99.464844 189.882812 L 99.476562 190.464844 L 99.492188 191.042969 L 99.511719 191.621094 L 99.53125 192.203125 L 99.585938 193.359375 L 99.65625 194.515625 L 99.742188 195.671875 L 99.789062 196.25 L 99.898438 197.40625 L 99.957031 197.980469 L 100.019531 198.558594 L 100.160156 199.707031 L 100.234375 200.285156 L 100.3125 200.859375 L 100.394531 201.429688 L 100.480469 202.003906 L 100.570312 202.578125 L 100.757812 203.71875 L 100.859375 204.292969 L 100.964844 204.863281 L 101.070312 205.429688 L 101.183594 206 L 101.300781 206.566406 L 101.417969 207.136719 L 101.539062 207.703125 L 101.667969 208.265625 L 101.796875 208.832031 L 101.929688 209.394531 L 102.210938 210.519531 L 102.355469 211.082031 L 102.503906 211.640625 L 102.65625 212.203125 L 102.8125 212.761719 L 102.96875 213.316406 L 103.132812 213.875 L 103.46875 214.984375 L 103.820312 216.085938 L 104.1875 217.1875 L 104.375 217.734375 L 104.566406 218.28125 L 104.761719 218.828125 L 104.960938 219.371094 L 105.164062 219.914062 L 105.578125 221 L 105.792969 221.539062 L 106.007812 222.074219 L 106.226562 222.609375 L 106.679688 223.679688 L 107.140625 224.742188 L 107.378906 225.269531 L 107.863281 226.324219 L 108.363281 227.371094 L 108.617188 227.890625 L 108.875 228.410156 L 109.398438 229.441406 L 109.667969 229.957031 L 109.9375 230.46875 L 110.214844 230.980469 L 110.492188 231.488281 L 110.773438 231.996094 L 111.054688 232.5 L 111.34375 233.003906 L 111.929688 234.003906 L 112.226562 234.503906 L 112.527344 234.996094 L 112.832031 235.492188 L 113.136719 235.984375 L 113.761719 236.960938 L 114.078125 237.445312 L 114.398438 237.929688 L 115.046875 238.890625 L 115.375 239.367188 L 115.707031 239.839844 L 116.042969 240.3125 L 116.382812 240.785156 L 116.722656 241.253906 L 117.066406 241.71875 L 117.414062 242.183594 L 117.765625 242.644531 L 118.121094 243.105469 L 118.476562 243.5625 L 118.835938 244.015625 L 119.199219 244.46875 L 119.5625 244.917969 L 119.929688 245.367188 L 120.300781 245.8125 L 120.675781 246.253906 L 121.054688 246.695312 L 121.433594 247.132812 L 122.199219 248 L 122.980469 248.859375 L 123.375 249.285156 L 123.769531 249.707031 L 124.167969 250.125 L 124.570312 250.542969 L 125.382812 251.371094 L 125.792969 251.78125 L 126.621094 252.59375 L 127.039062 252.992188 L 127.882812 253.789062 L 128.308594 254.179688 L 129.167969 254.960938 L 129.601562 255.34375 L 130.039062 255.726562 L 130.476562 256.105469 L 131.359375 256.855469 L 131.804688 257.226562 L 132.253906 257.59375 L 132.703125 257.957031 L 133.15625 258.320312 L 133.613281 258.679688 L 134.070312 259.035156 L 134.992188 259.738281 L 135.457031 260.085938 L 135.921875 260.429688 L 136.390625 260.769531 L 137.335938 261.441406 L 137.8125 261.773438 L 138.289062 262.101562 L 139.25 262.75 L 139.734375 263.070312 L 140.21875 263.386719 L 140.707031 263.699219 L 141.199219 264.007812 L 141.6875 264.3125 L 142.183594 264.617188 L 142.679688 264.917969 L 143.175781 265.214844 L 143.675781 265.507812 L 144.683594 266.085938 L 145.1875 266.367188 L 145.695312 266.648438 L 146.203125 266.925781 L 146.714844 267.199219 L 147.226562 267.46875 L 147.742188 267.738281 L 148.257812 268 L 148.777344 268.261719 L 149.296875 268.519531 L 149.816406 268.773438 L 150.339844 269.023438 L 150.863281 269.269531 L 151.917969 269.753906 L 152.445312 269.988281 L 152.976562 270.222656 L 153.507812 270.453125 L 154.042969 270.679688 L 154.578125 270.902344 L 155.113281 271.121094 L 155.652344 271.335938 L 156.730469 271.757812 L 157.816406 272.164062 L 158.363281 272.363281 L 159.457031 272.746094 L 160.003906 272.933594 L 161.105469 273.300781 L 161.65625 273.476562 L 162.765625 273.820312 L 163.875 274.148438 L 164.992188 274.460938 L 165.550781 274.613281 L 166.113281 274.757812 L 166.671875 274.902344 L 167.234375 275.042969 L 167.796875 275.179688 L 168.363281 275.3125 L 168.925781 275.445312 L 169.492188 275.570312 L 170.058594 275.691406 L 170.628906 275.808594 L 171.195312 275.925781 L 171.765625 276.035156 L 172.332031 276.144531 L 172.902344 276.246094 L 173.476562 276.347656 L 174.617188 276.535156 L 175.191406 276.625 L 176.339844 276.789062 L 176.914062 276.867188 L 177.488281 276.941406 L 178.0625 277.011719 L 178.640625 277.078125 L 179.214844 277.140625 L 179.792969 277.199219 L 180.367188 277.253906 L 180.945312 277.304688 L 182.101562 277.398438 L 182.679688 277.4375 L 183.257812 277.472656 L 184.414062 277.535156 L 184.996094 277.558594 L 185.574219 277.582031 L 186.152344 277.597656 L 186.734375 277.613281 L 187.890625 277.628906 L 189.050781 277.628906 L 189.628906 277.625 L 190.210938 277.613281 L 190.789062 277.601562 L 191.367188 277.585938 L 191.949219 277.566406 L 193.105469 277.511719 L 193.683594 277.480469 L 194.261719 277.445312 L 194.84375 277.40625 L 195.421875 277.363281 L 195.996094 277.316406 L 197.152344 277.214844 L 197.730469 277.15625 L 198.304688 277.09375 L 198.882812 277.027344 L 199.457031 276.960938 L 200.03125 276.886719 L 201.179688 276.730469 L 202.328125 276.558594 L 203.46875 276.371094 L 204.042969 276.273438 L 205.183594 276.0625 L 205.75 275.953125 L 206.320312 275.839844 L 206.886719 275.722656 L 207.453125 275.601562 L 208.019531 275.476562 L 208.585938 275.347656 L 209.148438 275.214844 L 209.710938 275.078125 L 210.835938 274.796875 L 211.398438 274.648438 L 211.957031 274.5 L 213.074219 274.1875 L 213.628906 274.023438 L 214.1875 273.859375 L 214.738281 273.691406 L 215.292969 273.519531 L 215.847656 273.34375 L 216.398438 273.164062 L 216.945312 272.980469 L 217.496094 272.792969 L 218.042969 272.605469 L 218.589844 272.410156 L 219.132812 272.214844 L 219.679688 272.011719 L 220.21875 271.808594 L 220.761719 271.601562 L 221.300781 271.390625 L 221.839844 271.175781 L 222.375 270.957031 L 222.910156 270.734375 L 223.445312 270.507812 L 223.976562 270.28125 L 225.039062 269.8125 L 225.566406 269.574219 L 226.09375 269.328125 L 227.140625 268.835938 L 227.664062 268.582031 L 228.183594 268.324219 L 228.699219 268.066406 L 229.21875 267.804688 L 229.730469 267.535156 L 230.246094 267.265625 L 230.757812 266.992188 L 231.265625 266.71875 L 232.28125 266.15625 L 232.785156 265.867188 L 233.285156 265.578125 L 234.285156 264.992188 L 234.78125 264.691406 L 235.273438 264.390625 L 235.769531 264.082031 L 236.257812 263.773438 L 237.234375 263.148438 L 237.71875 262.828125 L 238.199219 262.507812 L 238.679688 262.183594 L 239.15625 261.855469 L 239.632812 261.523438 L 240.105469 261.191406 L 240.578125 260.851562 L 241.515625 260.171875 L 241.980469 259.824219 L 242.441406 259.476562 L 242.902344 259.121094 L 243.359375 258.769531 L 243.816406 258.410156 L 244.722656 257.683594 L 245.171875 257.316406 L 245.617188 256.949219 L 246.5 256.199219 L 246.941406 255.820312 L 247.375 255.4375 L 247.8125 255.054688 L 248.242188 254.667969 L 248.671875 254.277344 L 249.097656 253.886719 L 249.523438 253.492188 L 249.941406 253.09375 L 250.363281 252.691406 L 250.777344 252.289062 L 251.191406 251.882812 L 251.601562 251.472656 L 252.007812 251.0625 L 252.414062 250.648438 L 253.21875 249.8125 L 253.613281 249.386719 L 254.007812 248.964844 L 254.402344 248.535156 L 255.175781 247.675781 L 255.558594 247.238281 L 255.941406 246.804688 L 256.691406 245.921875 L 257.0625 245.476562 L 257.433594 245.027344 L 257.800781 244.578125 L 258.164062 244.128906 L 258.523438 243.675781 L 258.878906 243.21875 L 259.234375 242.757812 L 259.585938 242.296875 L 259.933594 241.835938 L 260.277344 241.367188 L 260.621094 240.902344 L 260.960938 240.429688 L 261.296875 239.957031 L 261.628906 239.484375 L 261.957031 239.007812 L 262.285156 238.527344 L 262.609375 238.046875 L 262.929688 237.566406 L 263.246094 237.082031 L 263.5625 236.59375 L 263.871094 236.105469 L 264.179688 235.613281 L 264.484375 235.121094 L 265.085938 234.128906 L 265.671875 233.128906 L 265.960938 232.625 L 266.246094 232.121094 L 266.527344 231.613281 L 267.082031 230.597656 L 267.351562 230.085938 L 267.621094 229.570312 L 267.886719 229.054688 L 268.148438 228.539062 L 268.40625 228.019531 L 268.660156 227.5 L 268.914062 226.976562 L 269.40625 225.929688 L 269.648438 225.402344 L 269.886719 224.871094 L 270.121094 224.34375 L 270.351562 223.8125 L 270.804688 222.742188 L 271.242188 221.671875 L 271.457031 221.132812 L 271.664062 220.589844 L 271.871094 220.050781 L 272.277344 218.964844 L 272.472656 218.417969 L 272.664062 217.871094 L 272.851562 217.324219 L 273.039062 216.773438 L 273.398438 215.671875 L 273.574219 215.121094 L 273.746094 214.566406 L 273.914062 214.011719 L 274.074219 213.457031 L 274.238281 212.898438 L 274.394531 212.339844 L 274.546875 211.78125 L 274.695312 211.222656 L 274.984375 210.097656 L 275.257812 208.972656 L 275.515625 207.839844 L 275.757812 206.707031 L 275.875 206.140625 L 275.988281 205.570312 L 276.097656 205.003906 L 276.203125 204.433594 L 276.304688 203.863281 L 276.402344 203.289062 L 276.496094 202.71875 L 276.585938 202.144531 L 276.671875 201.574219 L 276.835938 200.425781 L 276.910156 199.851562 L 276.980469 199.277344 L 277.050781 198.699219 L 277.113281 198.125 L 277.175781 197.546875 L 277.230469 196.972656 L 277.285156 196.394531 L 277.378906 195.238281 L 277.457031 194.082031 L 277.492188 193.503906 L 277.523438 192.925781 L 277.550781 192.34375 L 277.589844 191.1875 L 277.605469 190.609375 L 277.617188 190.027344 L 277.625 189.449219 L 277.628906 188.867188 L 277.628906 188.289062 L 277.625 187.710938 L 277.617188 187.128906 L 277.609375 186.550781 L 277.59375 185.972656 L 277.574219 185.390625 L 277.527344 184.234375 L 277.496094 183.65625 L 277.425781 182.5 L 277.339844 181.34375 L 277.238281 180.1875 L 277.179688 179.609375 L 277.121094 179.035156 L 277.058594 178.457031 L 276.917969 177.308594 L 276.84375 176.730469 L 276.765625 176.15625 L 276.683594 175.585938 L 276.597656 175.011719 L 276.507812 174.4375 L 276.414062 173.867188 L 276.316406 173.296875 L 276.214844 172.726562 L 276.109375 172.15625 L 275.890625 171.015625 L 275.773438 170.449219 L 275.53125 169.316406 L 275.273438 168.183594 L 275 167.058594 L 274.859375 166.496094 L 274.714844 165.933594 L 274.566406 165.375 L 274.414062 164.816406 L 274.257812 164.257812 L 274.097656 163.699219 L 273.933594 163.144531 L 273.765625 162.589844 L 273.59375 162.035156 L 273.421875 161.484375 L 273.242188 160.929688 L 273.0625 160.378906 L 272.6875 159.285156 L 272.496094 158.738281 L 272.300781 158.191406 L 272.101562 157.648438 L 271.898438 157.105469 L 271.691406 156.5625 L 271.269531 155.484375 L 271.050781 154.945312 L 270.832031 154.410156 L 270.609375 153.875 L 270.378906 153.339844 L 270.148438 152.808594 L 269.914062 152.28125 L 269.675781 151.75 L 269.4375 151.222656 L 268.945312 150.175781 L 268.691406 149.652344 L 268.4375 149.132812 L 268.179688 148.613281 L 267.917969 148.09375 L 267.652344 147.578125 L 267.386719 147.066406 L 266.839844 146.042969 L 266.5625 145.535156 L 266.28125 145.027344 L 265.996094 144.523438 L 265.707031 144.019531 L 265.121094 143.019531 L 264.824219 142.523438 L 264.523438 142.027344 L 264.21875 141.535156 L 263.910156 141.042969 L 263.601562 140.554688 L 263.285156 140.066406 L 262.96875 139.582031 L 262.648438 139.097656 L 262 138.136719 L 261.667969 137.660156 L 261.335938 137.1875 L 260.664062 136.242188 L 260.320312 135.777344 L 259.976562 135.308594 L 259.628906 134.847656 L 259.277344 134.386719 L 258.921875 133.925781 L 258.566406 133.46875 L 258.207031 133.015625 L 257.84375 132.5625 L 257.480469 132.113281 L 257.109375 131.664062 L 256.738281 131.222656 L 256.363281 130.777344 L 255.988281 130.339844 L 255.222656 129.464844 L 254.839844 129.03125 L 254.449219 128.601562 L 254.058594 128.175781 L 253.664062 127.75 L 253.265625 127.328125 L 252.867188 126.910156 L 252.464844 126.492188 L 251.652344 125.664062 L 251.242188 125.253906 L 250.828125 124.847656 L 250.414062 124.445312 L 249.996094 124.042969 L 249.574219 123.644531 L 248.722656 122.855469 L 248.296875 122.464844 L 247.863281 122.078125 L 246.996094 121.3125 L 246.554688 120.933594 L 245.671875 120.183594 L 245.226562 119.816406 L 244.328125 119.082031 L 243.875 118.722656 L 243.417969 118.363281 L 242.960938 118.007812 L 242.039062 117.304688 L 241.574219 116.960938 L 240.636719 116.273438 L 240.164062 115.9375 L 239.21875 115.273438 L 238.738281 114.945312 L 237.777344 114.296875 L 236.808594 113.664062 L 236.320312 113.351562 L 235.335938 112.734375 L 234.84375 112.433594 L 234.347656 112.132812 L 233.847656 111.835938 L 233.347656 111.542969 L 232.847656 111.253906 L 232.34375 110.96875 L 231.835938 110.683594 L 231.328125 110.402344 L 230.820312 110.125 L 230.308594 109.851562 L 229.796875 109.582031 L 229.28125 109.316406 L 228.765625 109.054688 L 228.246094 108.792969 L 227.726562 108.535156 L 227.207031 108.285156 L 226.683594 108.035156 L 226.160156 107.789062 L 225.632812 107.542969 L 225.105469 107.304688 L 224.042969 106.835938 L 223.511719 106.605469 L 222.976562 106.378906 L 221.90625 105.941406 L 221.367188 105.722656 L 220.828125 105.511719 L 220.289062 105.304688 L 219.746094 105.097656 L 219.203125 104.898438 L 218.65625 104.699219 L 217.5625 104.316406 L 217.015625 104.128906 L 216.464844 103.945312 L 215.914062 103.765625 L 215.363281 103.589844 L 214.253906 103.246094 L 213.699219 103.082031 L 213.140625 102.921875 L 212.585938 102.761719 L 212.027344 102.605469 L 211.464844 102.457031 L 210.90625 102.308594 L 210.34375 102.164062 L 209.78125 102.023438 L 208.65625 101.757812 L 208.089844 101.628906 L 206.957031 101.378906 L 206.390625 101.261719 L 205.820312 101.148438 L 205.253906 101.039062 L 204.683594 100.929688 L 203.542969 100.726562 L 202.96875 100.632812 L 202.398438 100.539062 L 201.25 100.367188 L 200.675781 100.285156 L 199.527344 100.136719 L 198.953125 100.066406 L 198.375 100 L 197.800781 99.9375 L 197.222656 99.878906 L 196.648438 99.824219 L 196.070312 99.773438 L 195.492188 99.726562 L 194.914062 99.683594 L 194.335938 99.644531 L 193.757812 99.609375 L 193.179688 99.578125 L 192.597656 99.550781 L 192.019531 99.523438 L 191.441406 99.503906 L 190.863281 99.488281 L 190.28125 99.472656 L 189.703125 99.464844 L 189.121094 99.457031 L 188.542969 99.457031 L 188.542969 96.628906 L 189.050781 96.628906 L 189.558594 96.632812 L 190.144531 96.640625 L 191.324219 96.671875 L 191.910156 96.691406 L 192.5 96.714844 L 193.085938 96.742188 L 193.675781 96.773438 L 194.261719 96.804688 L 194.851562 96.84375 L 195.4375 96.886719 L 196.023438 96.933594 L 196.609375 96.984375 L 197.199219 97.035156 L 197.785156 97.09375 L 198.367188 97.15625 L 198.953125 97.21875 L 200.125 97.359375 L 201.289062 97.515625 L 201.871094 97.601562 L 202.457031 97.6875 L 203.035156 97.777344 L 204.199219 97.972656 L 204.777344 98.074219 L 205.355469 98.179688 L 205.9375 98.289062 L 206.511719 98.402344 L 207.089844 98.519531 L 207.667969 98.640625 L 208.816406 98.890625 L 209.390625 99.023438 L 209.964844 99.160156 L 210.535156 99.296875 L 211.675781 99.585938 L 212.816406 99.890625 L 213.382812 100.046875 L 213.949219 100.210938 L 214.511719 100.375 L 215.078125 100.542969 L 215.640625 100.714844 L 216.765625 101.066406 L 217.324219 101.25 L 217.882812 101.4375 L 218.4375 101.625 L 218.996094 101.820312 L 219.550781 102.015625 L 220.105469 102.214844 L 221.207031 102.628906 L 221.757812 102.839844 L 222.304688 103.054688 L 223.398438 103.492188 L 224.484375 103.945312 L 225.023438 104.179688 L 225.566406 104.414062 L 226.101562 104.652344 L 226.640625 104.894531 L 227.175781 105.140625 L 228.238281 105.640625 L 228.769531 105.898438 L 229.296875 106.15625 L 230.351562 106.6875 L 230.875 106.957031 L 231.914062 107.503906 L 232.433594 107.785156 L 232.949219 108.066406 L 233.464844 108.351562 L 233.976562 108.644531 L 234.488281 108.933594 L 234.996094 109.230469 L 235.503906 109.53125 L 236.007812 109.832031 L 236.511719 110.136719 L 237.011719 110.445312 L 237.511719 110.757812 L 238.011719 111.074219 L 238.503906 111.394531 L 239 111.714844 L 239.488281 112.039062 L 239.976562 112.367188 L 240.464844 112.699219 L 240.949219 113.03125 L 241.433594 113.371094 L 241.914062 113.710938 L 242.867188 114.398438 L 243.8125 115.101562 L 244.28125 115.457031 L 244.75 115.816406 L 245.214844 116.175781 L 246.136719 116.910156 L 246.59375 117.28125 L 247.046875 117.652344 L 247.5 118.027344 L 247.953125 118.40625 L 248.398438 118.789062 L 249.289062 119.5625 L 249.730469 119.953125 L 250.167969 120.347656 L 250.601562 120.742188 L 251.035156 121.140625 L 251.894531 121.945312 L 252.320312 122.355469 L 252.742188 122.765625 L 253.160156 123.175781 L 253.578125 123.59375 L 254.40625 124.429688 L 254.816406 124.851562 L 255.222656 125.277344 L 256.027344 126.136719 L 256.425781 126.570312 L 257.214844 127.445312 L 257.601562 127.886719 L 257.992188 128.332031 L 258.375 128.777344 L 258.757812 129.226562 L 259.132812 129.675781 L 259.511719 130.128906 L 260.253906 131.042969 L 260.621094 131.503906 L 260.984375 131.96875 L 261.703125 132.898438 L 262.058594 133.371094 L 262.410156 133.839844 L 262.757812 134.316406 L 263.445312 135.269531 L 263.785156 135.753906 L 264.121094 136.234375 L 264.457031 136.71875 L 265.113281 137.695312 L 265.4375 138.1875 L 265.757812 138.683594 L 266.078125 139.175781 L 266.703125 140.175781 L 267.011719 140.675781 L 267.316406 141.179688 L 267.617188 141.683594 L 267.914062 142.191406 L 268.210938 142.703125 L 268.503906 143.214844 L 268.792969 143.726562 L 269.078125 144.242188 L 269.359375 144.757812 L 269.914062 145.796875 L 270.1875 146.320312 L 270.71875 147.367188 L 270.980469 147.894531 L 271.242188 148.425781 L 271.496094 148.953125 L 271.746094 149.488281 L 271.996094 150.019531 L 272.242188 150.554688 L 272.484375 151.09375 L 272.722656 151.632812 L 272.957031 152.171875 L 273.1875 152.710938 L 273.414062 153.253906 L 273.640625 153.800781 L 273.859375 154.34375 L 274.078125 154.894531 L 274.289062 155.441406 L 274.5 155.992188 L 274.707031 156.542969 L 274.910156 157.09375 L 275.308594 158.203125 L 275.5 158.761719 L 275.6875 159.316406 L 275.875 159.875 L 276.054688 160.4375 L 276.234375 160.996094 L 276.410156 161.558594 L 276.578125 162.125 L 276.746094 162.6875 L 276.910156 163.253906 L 277.070312 163.820312 L 277.226562 164.386719 L 277.378906 164.957031 L 277.53125 165.523438 L 277.675781 166.09375 L 277.816406 166.667969 L 277.957031 167.238281 L 278.222656 168.386719 L 278.472656 169.535156 L 278.707031 170.691406 L 278.820312 171.269531 L 278.929688 171.847656 L 279.035156 172.425781 L 279.136719 173.007812 L 279.234375 173.585938 L 279.328125 174.167969 L 279.417969 174.75 L 279.503906 175.332031 L 279.585938 175.914062 L 279.664062 176.5 L 279.742188 177.082031 L 279.8125 177.667969 L 279.878906 178.25 L 279.945312 178.835938 L 280.0625 180.007812 L 280.164062 181.179688 L 280.207031 181.769531 L 280.25 182.355469 L 280.289062 182.941406 L 280.320312 183.53125 L 280.351562 184.117188 L 280.378906 184.707031 L 280.402344 185.292969 L 280.433594 186.472656 L 280.445312 187.058594 L 280.453125 187.648438 L 280.457031 188.238281 L 280.457031 188.828125 L 280.453125 189.414062 L 280.445312 190.003906 L 280.433594 190.59375 L 280.421875 191.179688 L 280.402344 191.769531 L 280.378906 192.359375 L 280.351562 192.945312 L 280.324219 193.535156 L 280.289062 194.121094 L 280.25 194.710938 L 280.210938 195.296875 L 280.117188 196.46875 L 280.007812 197.640625 L 279.882812 198.8125 L 279.816406 199.398438 L 279.742188 199.984375 L 279.667969 200.566406 L 279.589844 201.148438 L 279.507812 201.734375 L 279.421875 202.316406 L 279.332031 202.898438 L 279.238281 203.476562 L 279.140625 204.058594 L 279.039062 204.640625 L 278.933594 205.21875 L 278.824219 205.796875 L 278.597656 206.953125 L 278.476562 207.527344 L 278.351562 208.105469 L 278.226562 208.679688 L 278.09375 209.253906 L 277.960938 209.824219 L 277.824219 210.398438 L 277.535156 211.539062 L 277.386719 212.109375 L 277.234375 212.679688 L 277.078125 213.246094 L 276.917969 213.8125 L 276.753906 214.378906 L 276.585938 214.941406 L 276.242188 216.066406 L 276.0625 216.628906 L 275.695312 217.746094 L 275.507812 218.304688 L 275.3125 218.863281 L 275.117188 219.417969 L 274.917969 219.972656 L 274.714844 220.523438 L 274.507812 221.074219 L 274.296875 221.625 L 274.085938 222.171875 L 273.648438 223.265625 L 273.421875 223.8125 L 273.195312 224.355469 L 272.964844 224.894531 L 272.730469 225.433594 L 272.492188 225.972656 L 272.25 226.511719 L 272.003906 227.046875 L 271.757812 227.578125 L 271.503906 228.113281 L 271.25 228.640625 L 270.992188 229.171875 L 270.730469 229.699219 L 270.464844 230.222656 L 269.925781 231.269531 L 269.371094 232.308594 L 268.515625 233.855469 L 268.222656 234.363281 L 267.925781 234.875 L 267.628906 235.382812 L 267.328125 235.886719 L 267.023438 236.390625 L 266.714844 236.894531 L 266.402344 237.394531 L 266.089844 237.890625 L 265.769531 238.386719 L 265.449219 238.878906 L 265.125 239.371094 L 264.46875 240.347656 L 264.136719 240.832031 L 263.796875 241.316406 L 263.460938 241.796875 L 263.117188 242.277344 L 262.769531 242.753906 L 262.421875 243.226562 L 262.070312 243.699219 L 261.359375 244.636719 L 260.632812 245.566406 L 260.265625 246.023438 L 259.898438 246.484375 L 259.523438 246.9375 L 259.148438 247.394531 L 258.390625 248.292969 L 257.617188 249.183594 L 257.226562 249.625 L 256.835938 250.0625 L 256.441406 250.5 L 256.042969 250.933594 L 255.238281 251.792969 L 254.832031 252.21875 L 254.421875 252.640625 L 254.007812 253.0625 L 253.59375 253.480469 L 252.757812 254.308594 L 252.335938 254.71875 L 251.910156 255.125 L 251.050781 255.929688 L 250.183594 256.726562 L 249.746094 257.117188 L 248.863281 257.898438 L 248.417969 258.28125 L 247.96875 258.664062 L 247.519531 259.042969 L 247.066406 259.417969 L 246.609375 259.792969 L 246.152344 260.164062 L 245.691406 260.53125 L 245.230469 260.894531 L 244.765625 261.257812 L 244.300781 261.617188 L 243.832031 261.972656 L 242.886719 262.675781 L 242.410156 263.019531 L 241.929688 263.363281 L 240.96875 264.042969 L 240.484375 264.375 L 239.996094 264.707031 L 239.507812 265.035156 L 239.015625 265.359375 L 238.523438 265.679688 L 238.027344 266 L 237.53125 266.316406 L 237.03125 266.628906 L 236.53125 266.9375 L 235.523438 267.546875 L 234.507812 268.140625 L 233.996094 268.433594 L 233.484375 268.722656 L 232.453125 269.292969 L 231.414062 269.847656 L 230.894531 270.121094 L 230.371094 270.390625 L 229.84375 270.65625 L 228.789062 271.179688 L 227.726562 271.6875 L 227.195312 271.9375 L 226.660156 272.183594 L 226.125 272.425781 L 225.585938 272.664062 L 225.046875 272.898438 L 224.503906 273.132812 L 223.417969 273.585938 L 222.871094 273.808594 L 221.777344 274.238281 L 220.675781 274.660156 L 220.125 274.863281 L 219.015625 275.261719 L 218.460938 275.453125 L 217.902344 275.644531 L 216.785156 276.011719 L 216.222656 276.191406 L 215.664062 276.367188 L 215.097656 276.539062 L 214.535156 276.707031 L 213.96875 276.871094 L 212.835938 277.191406 L 212.269531 277.34375 L 211.128906 277.640625 L 210.558594 277.78125 L 209.984375 277.921875 L 209.414062 278.058594 L 208.839844 278.191406 L 208.265625 278.316406 L 207.6875 278.441406 L 207.113281 278.5625 L 206.535156 278.679688 L 205.957031 278.792969 L 205.378906 278.902344 L 204.800781 279.007812 L 204.21875 279.113281 L 203.640625 279.210938 L 203.058594 279.304688 L 201.894531 279.484375 L 200.730469 279.648438 L 200.144531 279.722656 L 199.5625 279.796875 L 198.390625 279.929688 L 197.804688 279.992188 L 196.632812 280.101562 L 196.046875 280.152344 L 195.460938 280.199219 L 194.871094 280.238281 L 194.285156 280.277344 L 193.699219 280.3125 L 193.109375 280.34375 L 192.523438 280.371094 L 191.933594 280.394531 L 191.34375 280.414062 L 190.757812 280.429688 L 190.167969 280.445312 L 189.578125 280.453125 L 188.992188 280.457031 L 187.8125 280.457031 L 187.222656 280.449219 L 186.636719 280.4375 L 186.046875 280.425781 L 185.457031 280.40625 L 184.871094 280.386719 L 184.28125 280.359375 L 183.695312 280.332031 L 183.105469 280.296875 L 182.519531 280.261719 L 181.929688 280.21875 L 181.34375 280.175781 L 180.757812 280.128906 L 180.171875 280.078125 L 179 279.960938 L 178.414062 279.898438 L 177.828125 279.832031 L 177.246094 279.761719 L 176.660156 279.6875 L 176.078125 279.609375 L 175.492188 279.527344 L 174.910156 279.441406 L 174.328125 279.351562 L 173.75 279.257812 L 173.167969 279.164062 L 172.585938 279.0625 L 171.429688 278.851562 L 170.273438 278.625 L 169.695312 278.503906 L 169.121094 278.382812 L 168.546875 278.257812 L 167.398438 277.992188 L 166.828125 277.855469 L 166.253906 277.714844 L 165.683594 277.570312 L 165.113281 277.421875 L 164.546875 277.269531 L 163.976562 277.113281 L 163.410156 276.957031 L 162.84375 276.792969 L 162.28125 276.625 L 161.714844 276.457031 L 161.152344 276.28125 L 160.59375 276.105469 L 160.03125 275.925781 L 158.914062 275.550781 L 158.359375 275.359375 L 157.25 274.96875 L 156.695312 274.765625 L 156.144531 274.558594 L 155.59375 274.347656 L 155.046875 274.136719 L 154.496094 273.921875 L 153.953125 273.699219 L 153.40625 273.476562 L 152.863281 273.25 L 152.320312 273.019531 L 151.242188 272.550781 L 150.707031 272.308594 L 150.167969 272.066406 L 149.636719 271.816406 L 149.101562 271.566406 L 148.570312 271.3125 L 148.042969 271.054688 L 147.515625 270.792969 L 146.988281 270.527344 L 146.464844 270.261719 L 145.941406 269.988281 L 145.421875 269.714844 L 144.902344 269.4375 L 144.386719 269.15625 L 143.871094 268.871094 L 143.355469 268.582031 L 142.84375 268.292969 L 142.335938 268 L 141.320312 267.398438 L 140.816406 267.097656 L 140.3125 266.789062 L 139.8125 266.476562 L 139.316406 266.164062 L 138.820312 265.847656 L 138.324219 265.527344 L 137.832031 265.203125 L 137.34375 264.878906 L 136.855469 264.546875 L 136.371094 264.214844 L 135.886719 263.878906 L 134.925781 263.199219 L 134.449219 262.855469 L 133.972656 262.507812 L 133.5 262.15625 L 132.5625 261.445312 L 132.097656 261.082031 L 131.632812 260.722656 L 131.171875 260.355469 L 130.257812 259.613281 L 129.351562 258.863281 L 128.902344 258.480469 L 128.457031 258.097656 L 128.011719 257.710938 L 127.128906 256.929688 L 126.691406 256.535156 L 126.257812 256.136719 L 125.828125 255.738281 L 125.398438 255.335938 L 124.972656 254.929688 L 124.546875 254.519531 L 124.125 254.109375 L 123.707031 253.695312 L 122.878906 252.859375 L 122.46875 252.4375 L 122.058594 252.011719 L 121.65625 251.585938 L 121.253906 251.15625 L 120.851562 250.722656 L 120.457031 250.289062 L 120.0625 249.851562 L 119.28125 248.96875 L 118.515625 248.078125 L 118.132812 247.628906 L 117.757812 247.175781 L 117.382812 246.71875 L 117.011719 246.261719 L 116.644531 245.804688 L 116.277344 245.34375 L 115.914062 244.878906 L 115.558594 244.410156 L 115.199219 243.941406 L 114.847656 243.472656 L 114.496094 243 L 114.148438 242.523438 L 113.804688 242.046875 L 113.125 241.085938 L 112.789062 240.601562 L 112.460938 240.113281 L 112.128906 239.625 L 111.804688 239.136719 L 111.480469 238.640625 L 111.164062 238.148438 L 110.847656 237.652344 L 110.222656 236.652344 L 109.613281 235.644531 L 109.3125 235.136719 L 109.015625 234.628906 L 108.722656 234.121094 L 108.433594 233.605469 L 108.148438 233.09375 L 107.863281 232.578125 L 107.582031 232.058594 L 107.304688 231.539062 L 107.03125 231.019531 L 106.761719 230.496094 L 106.496094 229.972656 L 106.230469 229.445312 L 105.96875 228.917969 L 105.460938 227.855469 L 105.210938 227.324219 L 104.71875 226.253906 L 104.242188 225.175781 L 104.011719 224.632812 L 103.78125 224.09375 L 103.554688 223.550781 L 103.332031 223.003906 L 103.113281 222.457031 L 102.898438 221.910156 L 102.476562 220.808594 L 102.273438 220.257812 L 102.070312 219.703125 L 101.679688 218.59375 L 101.488281 218.039062 L 101.300781 217.480469 L 101.117188 216.917969 L 100.9375 216.359375 L 100.761719 215.796875 L 100.589844 215.234375 L 100.421875 214.671875 L 100.253906 214.105469 L 99.933594 212.972656 L 99.78125 212.40625 L 99.628906 211.835938 L 99.480469 211.265625 L 99.335938 210.695312 L 99.199219 210.121094 L 99.0625 209.550781 L 98.929688 208.976562 L 98.800781 208.402344 L 98.675781 207.828125 L 98.550781 207.25 L 98.433594 206.675781 L 98.320312 206.097656 L 98.101562 204.941406 L 98 204.359375 L 97.898438 203.78125 L 97.710938 202.617188 L 97.539062 201.453125 L 97.457031 200.871094 L 97.382812 200.285156 L 97.308594 199.703125 L 97.238281 199.117188 L 97.171875 198.53125 L 97.109375 197.945312 L 97.050781 197.359375 L 96.996094 196.773438 L 96.945312 196.1875 L 96.898438 195.601562 L 96.855469 195.015625 L 96.816406 194.425781 L 96.78125 193.839844 L 96.75 193.25 L 96.722656 192.664062 L 96.695312 192.074219 L 96.675781 191.488281 L 96.644531 190.308594 L 96.636719 189.722656 L 96.628906 189.132812 L 96.628906 188.542969 Z M 188.542969 99.457031 L 150.363281 99.457031 L 150.363281 96.628906 L 188.542969 96.628906 Z M 188.542969 91.914062 L 150.363281 91.914062 L 150.363281 89.085938 L 188.542969 89.085938 Z M 147.535156 99.457031 L 147.535156 89.085938 L 150.363281 89.085938 L 150.363281 99.457031 Z M 132.453125 99.457031 L 132.453125 89.085938 L 135.28125 89.085938 L 135.28125 99.457031 Z M 132.453125 99.457031 L 103.226562 99.457031 L 103.226562 96.628906 L 132.453125 96.628906 Z M 132.453125 91.914062 L 103.226562 91.914062 L 103.226562 89.085938 L 132.453125 89.085938 Z M 100.398438 99.457031 L 100.398438 89.085938 L 103.226562 89.085938 L 103.226562 99.457031 Z M 85.316406 99.457031 L 85.316406 89.085938 L 88.144531 89.085938 L 88.144531 99.457031 Z M 85.316406 99.457031 L 56.09375 99.457031 L 56.09375 96.628906 L 85.316406 96.628906 Z M 85.316406 91.914062 L 56.09375 91.914062 L 56.09375 89.085938 L 85.316406 89.085938 Z M 53.265625 99.457031 L 53.265625 89.085938 L 56.09375 89.085938 L 56.09375 99.457031 Z M 38.179688 99.457031 L 38.179688 89.085938 L 41.007812 89.085938 L 41.007812 99.457031 Z M 38.179688 99.457031 L 0 99.457031 L 0 96.628906 L 38.179688 96.628906 Z M 38.179688 91.914062 L 0 91.914062 L 0 89.085938 L 38.179688 89.085938 Z M 38.179688 91.914062 "/>
<path fill-rule="nonzero" fill="rgb(0%, 67.451%, 78.0392%)" fill-opacity="0.5" d="M 57.035156 97.570312 L 37.238281 97.570312 L 37.238281 90.972656 L 57.035156 90.972656 Z M 104.171875 97.570312 L 84.375 97.570312 L 84.375 90.972656 L 104.171875 90.972656 Z M 151.304688 97.570312 L 131.507812 97.570312 L 131.507812 90.972656 L 151.304688 90.972656 Z M 97.570312 131.507812 L 97.570312 151.304688 L 90.972656 151.304688 L 90.972656 131.507812 Z M 97.570312 37.238281 L 97.570312 57.035156 L 90.972656 57.035156 L 90.972656 37.238281 Z M 97.570312 37.238281 "/>
<path fill-rule="nonzero" fill="rgb(90.5882%, 64.7059%, 0%)" fill-opacity="0.5" d="M 57.976562 95.6875 L 36.292969 95.6875 L 36.292969 92.859375 L 57.976562 92.859375 Z M 105.113281 95.6875 L 83.429688 95.6875 L 83.429688 92.859375 L 105.113281 92.859375 Z M 152.25 95.6875 L 130.566406 95.6875 L 130.566406 92.859375 L 152.25 92.859375 Z M 95.6875 130.566406 L 95.6875 152.25 L 92.859375 152.25 L 92.859375 130.566406 Z M 95.6875 36.292969 L 95.6875 57.976562 L 92.859375 57.976562 L 92.859375 36.292969 Z M 95.6875 36.292969 "/>
</svg>
