<?xml version="1.0" encoding="UTF-8"?>
<svg xmlns="http://www.w3.org/2000/svg" xmlns:xlink="http://www.w3.org/1999/xlink" width="432" height="144" viewBox="0 0 432 144">
<path fill-rule="nonzero" fill="rgb(84.3137%, 0%, 0%)" fill-opacity="0.5" d="M 66.460938 0 L 66.578125 0 L 66.695312 0.00390625 L 66.847656 0.0078125 L 67 0.015625 L 67.148438 0.0273438 L 67.300781 0.0390625 L 67.453125 0.0585938 L 67.601562 0.0742188 L 67.753906 0.0976562 L 67.902344 0.121094 L 68.199219 0.175781 L 68.347656 0.207031 L 68.496094 0.242188 L 68.644531 0.28125 L 68.789062 0.320312 L 69.078125 0.40625 L 69.222656 0.453125 L 69.367188 0.503906 L 69.507812 0.554688 L 69.648438 0.609375 L 69.929688 0.726562 L 70.066406 0.789062 L 70.207031 0.851562 L 70.339844 0.921875 L 70.476562 0.988281 L 70.742188 1.136719 L 70.871094 1.210938 L 71.003906 1.289062 L 71.132812 1.371094 L 71.257812 1.453125 L 71.507812 1.625 L 71.628906 1.714844 L 71.75 1.808594 L 71.984375 1.996094 L 72.101562 2.09375 L 72.328125 2.296875 L 72.546875 2.507812 L 72.652344 2.613281 L 72.757812 2.722656 L 73.0625 3.0625 L 73.15625 3.179688 L 73.253906 3.296875 L 73.433594 3.539062 L 73.523438 3.664062 L 73.695312 3.914062 L 73.777344 4.039062 L 73.855469 4.167969 L 73.933594 4.300781 L 74.082031 4.566406 L 74.152344 4.699219 L 74.285156 4.972656 L 74.347656 5.109375 L 74.40625 5.246094 L 74.523438 5.527344 L 74.574219 5.671875 L 74.625 5.8125 L 74.675781 5.957031 L 74.761719 6.246094 L 74.804688 6.394531 L 74.84375 6.539062 L 74.878906 6.6875 L 74.941406 6.984375 L 74.96875 7.132812 L 75.015625 7.429688 L 75.035156 7.582031 L 75.054688 7.730469 L 75.066406 7.882812 L 75.082031 8.035156 L 75.089844 8.183594 L 75.097656 8.335938 L 75.101562 8.488281 L 75.101562 8.640625 L 74.4375 8.640625 L 74.4375 8.566406 L 74.433594 8.488281 L 74.425781 8.199219 L 74.414062 8.054688 L 74.402344 7.90625 L 74.371094 7.617188 L 74.351562 7.472656 L 74.328125 7.332031 L 74.304688 7.1875 L 74.277344 7.042969 L 74.246094 6.902344 L 74.210938 6.757812 L 74.175781 6.617188 L 74.136719 6.476562 L 74.097656 6.339844 L 74.054688 6.199219 L 74.007812 6.0625 L 73.960938 5.921875 L 73.910156 5.789062 L 73.800781 5.515625 L 73.742188 5.382812 L 73.679688 5.25 L 73.617188 5.121094 L 73.550781 4.988281 L 73.484375 4.859375 L 73.414062 4.734375 L 73.34375 4.605469 L 73.265625 4.480469 L 73.191406 4.359375 L 73.109375 4.238281 L 73.03125 4.117188 L 72.945312 3.996094 L 72.773438 3.761719 L 72.683594 3.648438 L 72.589844 3.535156 L 72.496094 3.425781 L 72.300781 3.207031 L 72.203125 3.101562 L 72.097656 3 L 71.996094 2.898438 L 71.890625 2.796875 L 71.671875 2.601562 L 71.5625 2.507812 L 71.449219 2.417969 L 71.335938 2.324219 L 71.101562 2.152344 L 70.859375 1.988281 L 70.738281 1.910156 L 70.613281 1.832031 L 70.363281 1.683594 L 70.234375 1.613281 L 69.976562 1.480469 L 69.84375 1.417969 L 69.714844 1.359375 L 69.578125 1.300781 L 69.445312 1.242188 L 69.035156 1.089844 L 68.898438 1.046875 L 68.617188 0.960938 L 68.476562 0.921875 L 68.335938 0.886719 L 68.195312 0.855469 L 68.050781 0.824219 L 67.910156 0.796875 L 67.621094 0.75 L 67.332031 0.710938 L 66.898438 0.675781 L 66.753906 0.671875 L 66.605469 0.664062 L 66.460938 0.664062 Z M 75.101562 8.640625 L 75.101562 28.578125 L 74.4375 28.578125 L 74.4375 8.640625 Z M 75.101562 28.578125 L 75.101562 48.515625 L 74.4375 48.515625 L 74.4375 28.578125 Z M 75.101562 48.515625 L 75.101562 48.667969 L 75.105469 48.8125 L 75.113281 48.957031 L 75.125 49.105469 L 75.148438 49.394531 L 75.1875 49.683594 L 75.210938 49.828125 L 75.234375 49.96875 L 75.261719 50.113281 L 75.292969 50.253906 L 75.328125 50.398438 L 75.398438 50.679688 L 75.441406 50.820312 L 75.484375 50.957031 L 75.53125 51.097656 L 75.578125 51.234375 L 75.628906 51.371094 L 75.683594 51.503906 L 75.738281 51.640625 L 75.855469 51.90625 L 75.921875 52.035156 L 75.984375 52.167969 L 76.054688 52.296875 L 76.125 52.421875 L 76.195312 52.550781 L 76.269531 52.675781 L 76.347656 52.796875 L 76.425781 52.921875 L 76.507812 53.039062 L 76.59375 53.160156 L 76.765625 53.394531 L 76.855469 53.507812 L 76.949219 53.621094 L 77.042969 53.730469 L 77.238281 53.949219 L 77.335938 54.054688 L 77.4375 54.160156 L 77.542969 54.261719 L 77.648438 54.359375 L 77.867188 54.554688 L 77.976562 54.648438 L 78.089844 54.742188 L 78.203125 54.832031 L 78.4375 55.003906 L 78.558594 55.089844 L 78.679688 55.167969 L 78.800781 55.25 L 78.921875 55.324219 L 79.046875 55.398438 L 79.175781 55.472656 L 79.304688 55.542969 L 79.5625 55.675781 L 79.691406 55.738281 L 79.824219 55.800781 L 79.957031 55.859375 L 80.09375 55.914062 L 80.503906 56.066406 L 80.640625 56.109375 L 80.78125 56.15625 L 80.921875 56.195312 L 81.058594 56.234375 L 81.203125 56.269531 L 81.484375 56.332031 L 81.773438 56.386719 L 81.917969 56.40625 L 82.058594 56.425781 L 82.203125 56.445312 L 82.351562 56.460938 L 82.496094 56.472656 L 82.785156 56.488281 L 82.929688 56.492188 L 83.078125 56.492188 L 83.078125 57.15625 L 82.960938 57.15625 L 82.84375 57.152344 L 82.691406 57.148438 L 82.539062 57.140625 L 82.386719 57.128906 L 82.238281 57.117188 L 82.085938 57.101562 L 81.9375 57.082031 L 81.785156 57.058594 L 81.636719 57.035156 L 81.339844 56.980469 L 81.191406 56.949219 L 80.894531 56.878906 L 80.75 56.835938 L 80.605469 56.796875 L 80.316406 56.703125 L 80.171875 56.652344 L 80.03125 56.601562 L 79.886719 56.546875 L 79.746094 56.488281 L 79.609375 56.429688 L 79.46875 56.367188 L 79.332031 56.304688 L 79.195312 56.238281 L 78.929688 56.097656 L 78.796875 56.023438 L 78.664062 55.945312 L 78.535156 55.867188 L 78.40625 55.785156 L 78.28125 55.703125 L 78.03125 55.53125 L 77.910156 55.441406 L 77.667969 55.253906 L 77.550781 55.160156 L 77.4375 55.0625 L 77.210938 54.859375 L 77.101562 54.757812 L 76.992188 54.652344 L 76.78125 54.433594 L 76.675781 54.320312 L 76.578125 54.207031 L 76.476562 54.09375 L 76.382812 53.976562 L 76.285156 53.859375 L 76.195312 53.738281 L 76.101562 53.617188 L 76.015625 53.496094 L 75.929688 53.371094 L 75.84375 53.242188 L 75.761719 53.117188 L 75.683594 52.988281 L 75.605469 52.855469 L 75.53125 52.726562 L 75.457031 52.59375 L 75.386719 52.457031 L 75.253906 52.183594 L 75.128906 51.910156 L 75.074219 51.769531 L 75.015625 51.628906 L 74.964844 51.484375 L 74.914062 51.34375 L 74.863281 51.199219 L 74.816406 51.054688 L 74.773438 50.910156 L 74.734375 50.765625 L 74.695312 50.617188 L 74.660156 50.46875 L 74.597656 50.171875 L 74.542969 49.875 L 74.523438 49.726562 L 74.503906 49.574219 L 74.484375 49.425781 L 74.46875 49.273438 L 74.457031 49.121094 L 74.449219 48.972656 L 74.441406 48.820312 L 74.4375 48.667969 L 74.4375 48.515625 Z M 83.078125 56.492188 L 315.691406 56.492188 L 315.691406 57.15625 L 83.078125 57.15625 Z M 315.691406 56.492188 L 315.84375 56.492188 L 315.988281 56.488281 L 316.132812 56.480469 L 316.28125 56.46875 L 316.570312 56.445312 L 316.859375 56.40625 L 317.003906 56.382812 L 317.144531 56.359375 L 317.289062 56.332031 L 317.429688 56.300781 L 317.574219 56.265625 L 317.855469 56.195312 L 317.992188 56.152344 L 318.132812 56.109375 L 318.269531 56.0625 L 318.410156 56.015625 L 318.546875 55.964844 L 318.679688 55.910156 L 318.816406 55.855469 L 319.082031 55.738281 L 319.210938 55.671875 L 319.34375 55.609375 L 319.472656 55.539062 L 319.597656 55.46875 L 319.726562 55.398438 L 319.851562 55.324219 L 320.09375 55.167969 L 320.214844 55.085938 L 320.335938 55 L 320.570312 54.828125 L 320.683594 54.738281 L 320.796875 54.644531 L 320.90625 54.550781 L 321.125 54.355469 L 321.230469 54.257812 L 321.4375 54.050781 L 321.535156 53.945312 L 321.730469 53.726562 L 321.824219 53.617188 L 321.917969 53.503906 L 322.007812 53.390625 L 322.179688 53.15625 L 322.425781 52.792969 L 322.5 52.671875 L 322.574219 52.546875 L 322.648438 52.417969 L 322.71875 52.292969 L 322.785156 52.164062 L 322.851562 52.03125 L 322.914062 51.902344 L 322.976562 51.769531 L 323.03125 51.636719 L 323.089844 51.5 L 323.242188 51.089844 L 323.285156 50.953125 L 323.328125 50.8125 L 323.371094 50.675781 L 323.410156 50.535156 L 323.445312 50.390625 L 323.507812 50.109375 L 323.535156 49.964844 L 323.582031 49.675781 L 323.601562 49.535156 L 323.621094 49.390625 L 323.632812 49.242188 L 323.65625 48.953125 L 323.664062 48.808594 L 323.667969 48.664062 L 323.667969 48.515625 L 324.332031 48.515625 L 324.332031 48.632812 L 324.328125 48.75 L 324.324219 48.902344 L 324.316406 49.054688 L 324.304688 49.207031 L 324.292969 49.355469 L 324.273438 49.507812 L 324.257812 49.65625 L 324.234375 49.808594 L 324.210938 49.957031 L 324.15625 50.253906 L 324.125 50.402344 L 324.089844 50.550781 L 324.050781 50.699219 L 323.972656 50.988281 L 323.925781 51.136719 L 323.878906 51.277344 L 323.828125 51.421875 L 323.777344 51.5625 L 323.722656 51.707031 L 323.664062 51.847656 L 323.605469 51.984375 L 323.542969 52.125 L 323.480469 52.261719 L 323.414062 52.398438 L 323.34375 52.53125 L 323.269531 52.664062 L 323.199219 52.796875 L 323.121094 52.929688 L 323.042969 53.058594 L 322.960938 53.1875 L 322.878906 53.3125 L 322.707031 53.5625 L 322.617188 53.683594 L 322.429688 53.925781 L 322.335938 54.042969 L 322.238281 54.15625 L 322.035156 54.382812 L 321.824219 54.601562 L 321.71875 54.707031 L 321.609375 54.8125 L 321.496094 54.917969 L 321.382812 55.015625 L 321.269531 55.117188 L 321.152344 55.210938 L 321.035156 55.308594 L 320.914062 55.398438 L 320.792969 55.492188 L 320.667969 55.578125 L 320.546875 55.664062 L 320.417969 55.75 L 320.292969 55.832031 L 320.164062 55.910156 L 320.03125 55.988281 L 319.765625 56.136719 L 319.632812 56.207031 L 319.359375 56.339844 L 319.085938 56.464844 L 318.945312 56.523438 L 318.804688 56.578125 L 318.660156 56.628906 L 318.519531 56.679688 L 318.375 56.730469 L 318.230469 56.777344 L 318.085938 56.820312 L 317.941406 56.859375 L 317.792969 56.898438 L 317.644531 56.933594 L 317.347656 56.996094 L 317.050781 57.050781 L 316.902344 57.070312 L 316.75 57.09375 L 316.601562 57.109375 L 316.449219 57.125 L 316.296875 57.136719 L 316.148438 57.144531 L 315.996094 57.152344 L 315.84375 57.15625 L 315.691406 57.15625 Z M 323.667969 48.515625 L 323.667969 28.578125 L 324.332031 28.578125 L 324.332031 48.515625 Z M 323.667969 28.578125 L 323.667969 8.640625 L 324.332031 8.640625 L 324.332031 28.578125 Z M 323.667969 8.640625 L 323.667969 8.523438 L 323.671875 8.40625 L 323.675781 8.253906 L 323.683594 8.101562 L 323.695312 7.953125 L 323.707031 7.800781 L 323.726562 7.648438 L 323.742188 7.5 L 323.765625 7.347656 L 323.789062 7.199219 L 323.84375 6.902344 L 323.875 6.753906 L 323.910156 6.605469 L 323.949219 6.457031 L 324.027344 6.167969 L 324.121094 5.878906 L 324.171875 5.734375 L 324.222656 5.59375 L 324.277344 5.453125 L 324.394531 5.171875 L 324.457031 5.035156 L 324.519531 4.894531 L 324.585938 4.761719 L 324.65625 4.625 L 324.730469 4.492188 L 324.800781 4.359375 L 324.878906 4.230469 L 324.957031 4.097656 L 325.039062 3.96875 L 325.121094 3.84375 L 325.292969 3.59375 L 325.382812 3.472656 L 325.476562 3.351562 L 325.664062 3.117188 L 325.761719 3 L 325.964844 2.773438 L 326.175781 2.554688 L 326.28125 2.449219 L 326.390625 2.34375 L 326.730469 2.039062 L 326.847656 1.945312 L 326.964844 1.847656 L 327.207031 1.667969 L 327.332031 1.578125 L 327.453125 1.492188 L 327.582031 1.40625 L 327.707031 1.324219 L 327.835938 1.246094 L 327.96875 1.167969 L 328.234375 1.019531 L 328.367188 0.949219 L 328.640625 0.816406 L 328.777344 0.753906 L 328.914062 0.695312 L 329.195312 0.578125 L 329.339844 0.527344 L 329.480469 0.476562 L 329.625 0.425781 L 330.058594 0.296875 L 330.207031 0.257812 L 330.355469 0.222656 L 330.652344 0.160156 L 330.800781 0.132812 L 331.097656 0.0859375 L 331.25 0.0664062 L 331.398438 0.046875 L 331.550781 0.0351562 L 331.703125 0.0195312 L 331.851562 0.0117188 L 332.003906 0.00390625 L 332.15625 0 L 332.308594 0 L 332.308594 0.664062 L 332.230469 0.664062 L 332.15625 0.667969 L 331.867188 0.675781 L 331.71875 0.6875 L 331.574219 0.699219 L 331.285156 0.730469 L 331.140625 0.75 L 330.996094 0.773438 L 330.855469 0.796875 L 330.710938 0.824219 L 330.570312 0.855469 L 330.425781 0.890625 L 330.285156 0.925781 L 330.144531 0.964844 L 330.007812 1.003906 L 329.867188 1.046875 L 329.730469 1.09375 L 329.589844 1.140625 L 329.453125 1.191406 L 329.320312 1.246094 L 329.183594 1.300781 L 329.050781 1.359375 L 328.917969 1.421875 L 328.789062 1.484375 L 328.65625 1.550781 L 328.527344 1.617188 L 328.402344 1.6875 L 328.273438 1.757812 L 328.148438 1.835938 L 328.027344 1.910156 L 327.90625 1.992188 L 327.785156 2.070312 L 327.664062 2.15625 L 327.429688 2.328125 L 327.316406 2.417969 L 327.203125 2.511719 L 327.09375 2.605469 L 326.875 2.800781 L 326.769531 2.898438 L 326.667969 3.003906 L 326.5625 3.105469 L 326.464844 3.210938 L 326.269531 3.429688 L 326.175781 3.539062 L 326.082031 3.652344 L 325.992188 3.765625 L 325.820312 4 L 325.574219 4.363281 L 325.351562 4.738281 L 325.28125 4.867188 L 325.148438 5.125 L 325.085938 5.257812 L 325.023438 5.386719 L 324.96875 5.523438 L 324.910156 5.65625 L 324.757812 6.066406 L 324.714844 6.203125 L 324.628906 6.484375 L 324.589844 6.625 L 324.554688 6.765625 L 324.523438 6.90625 L 324.492188 7.050781 L 324.464844 7.191406 L 324.417969 7.480469 L 324.378906 7.769531 L 324.34375 8.203125 L 324.335938 8.347656 L 324.332031 8.496094 L 324.332031 8.640625 Z M 49.847656 16.617188 L 50.082031 16.617188 L 50.230469 16.625 L 50.382812 16.632812 L 50.6875 16.65625 L 50.835938 16.671875 L 50.988281 16.691406 L 51.136719 16.710938 L 51.285156 16.734375 L 51.4375 16.761719 L 51.734375 16.824219 L 51.878906 16.859375 L 52.027344 16.894531 L 52.171875 16.933594 L 52.320312 16.976562 L 52.609375 17.070312 L 52.75 17.117188 L 52.894531 17.171875 L 53.175781 17.28125 L 53.316406 17.34375 L 53.453125 17.402344 L 53.726562 17.535156 L 53.859375 17.605469 L 53.996094 17.675781 L 54.125 17.75 L 54.257812 17.828125 L 54.515625 17.984375 L 54.640625 18.070312 L 54.769531 18.152344 L 55.132812 18.421875 L 55.253906 18.515625 L 55.488281 18.710938 L 55.601562 18.808594 L 55.710938 18.914062 L 55.824219 19.015625 L 56.039062 19.230469 L 56.144531 19.339844 L 56.246094 19.449219 L 56.347656 19.5625 L 56.542969 19.796875 L 56.636719 19.914062 L 56.730469 20.035156 L 56.910156 20.277344 L 56.996094 20.402344 L 57.078125 20.527344 L 57.160156 20.65625 L 57.316406 20.914062 L 57.464844 21.179688 L 57.535156 21.316406 L 57.601562 21.449219 L 57.667969 21.585938 L 57.730469 21.722656 L 57.792969 21.863281 L 57.851562 22.003906 L 57.960938 22.285156 L 58.011719 22.429688 L 58.105469 22.71875 L 58.148438 22.863281 L 58.1875 23.007812 L 58.226562 23.15625 L 58.261719 23.300781 L 58.296875 23.449219 L 58.324219 23.597656 L 58.355469 23.746094 L 58.378906 23.898438 L 58.402344 24.046875 L 58.421875 24.195312 L 58.453125 24.5 L 58.464844 24.648438 L 58.480469 24.953125 L 58.484375 25.105469 L 58.484375 25.253906 L 57.820312 25.253906 L 57.820312 25.105469 L 57.816406 24.957031 L 57.800781 24.667969 L 57.789062 24.523438 L 57.773438 24.378906 L 57.714844 23.945312 L 57.6875 23.800781 L 57.660156 23.660156 L 57.628906 23.515625 L 57.597656 23.375 L 57.5625 23.234375 L 57.523438 23.09375 L 57.480469 22.953125 L 57.4375 22.816406 L 57.394531 22.675781 L 57.242188 22.265625 L 57.066406 21.867188 L 57.003906 21.734375 L 56.871094 21.476562 L 56.800781 21.347656 L 56.652344 21.097656 L 56.574219 20.972656 L 56.496094 20.851562 L 56.414062 20.730469 L 56.332031 20.613281 L 56.246094 20.496094 L 56.15625 20.378906 L 56.066406 20.265625 L 55.878906 20.039062 L 55.785156 19.929688 L 55.6875 19.824219 L 55.484375 19.613281 L 55.273438 19.410156 L 55.167969 19.3125 L 55.058594 19.21875 L 54.832031 19.03125 L 54.71875 18.941406 L 54.367188 18.683594 L 54.246094 18.601562 L 54.121094 18.523438 L 54 18.445312 L 53.875 18.371094 L 53.746094 18.300781 L 53.621094 18.230469 L 53.492188 18.160156 L 53.359375 18.097656 L 53.230469 18.035156 L 53.097656 17.972656 L 52.964844 17.914062 L 52.828125 17.859375 L 52.695312 17.804688 L 52.558594 17.753906 L 52.421875 17.707031 L 52.28125 17.660156 L 52.144531 17.617188 L 51.863281 17.539062 L 51.722656 17.503906 L 51.578125 17.46875 L 51.4375 17.441406 L 51.292969 17.414062 L 51.152344 17.386719 L 51.007812 17.363281 L 50.863281 17.34375 L 50.574219 17.3125 L 50.429688 17.300781 L 50.28125 17.292969 L 50.136719 17.285156 L 49.992188 17.28125 L 49.847656 17.28125 Z M 58.484375 25.253906 L 58.484375 40.210938 L 57.820312 40.210938 L 57.820312 25.253906 Z M 58.484375 40.210938 L 58.484375 55.164062 L 57.820312 55.164062 L 57.820312 40.210938 Z M 58.484375 55.164062 L 58.488281 55.238281 L 58.488281 55.3125 L 58.492188 55.460938 L 58.507812 55.75 L 58.519531 55.894531 L 58.550781 56.183594 L 58.570312 56.328125 L 58.59375 56.472656 L 58.621094 56.617188 L 58.648438 56.757812 L 58.679688 56.902344 L 58.710938 57.042969 L 58.746094 57.183594 L 58.824219 57.464844 L 58.867188 57.605469 L 58.914062 57.742188 L 59.066406 58.152344 L 59.121094 58.285156 L 59.179688 58.417969 L 59.304688 58.683594 L 59.4375 58.941406 L 59.507812 59.070312 L 59.65625 59.320312 L 59.734375 59.445312 L 59.8125 59.566406 L 59.894531 59.6875 L 59.976562 59.804688 L 60.0625 59.921875 L 60.152344 60.039062 L 60.332031 60.265625 L 60.425781 60.378906 L 60.523438 60.488281 L 60.621094 60.59375 L 60.824219 60.804688 L 61.035156 61.007812 L 61.140625 61.105469 L 61.25 61.199219 L 61.363281 61.292969 L 61.472656 61.386719 L 61.589844 61.476562 L 61.703125 61.566406 L 61.824219 61.652344 L 61.941406 61.734375 L 62.0625 61.816406 L 62.183594 61.894531 L 62.308594 61.972656 L 62.433594 62.046875 L 62.558594 62.117188 L 62.816406 62.257812 L 62.945312 62.320312 L 63.078125 62.386719 L 63.34375 62.503906 L 63.476562 62.558594 L 63.613281 62.613281 L 63.75 62.664062 L 63.886719 62.710938 L 64.027344 62.757812 L 64.164062 62.800781 L 64.445312 62.878906 L 64.726562 62.949219 L 64.871094 62.976562 L 65.011719 63.007812 L 65.300781 63.054688 L 65.445312 63.074219 L 65.734375 63.105469 L 65.878906 63.117188 L 66.023438 63.125 L 66.171875 63.132812 L 66.316406 63.136719 L 66.460938 63.136719 L 66.460938 63.804688 L 66.34375 63.800781 L 66.226562 63.800781 L 66.074219 63.792969 L 65.925781 63.785156 L 65.773438 63.777344 L 65.621094 63.761719 L 65.472656 63.746094 L 65.320312 63.726562 L 65.171875 63.707031 L 65.019531 63.683594 L 64.871094 63.65625 L 64.574219 63.59375 L 64.425781 63.558594 L 64.28125 63.523438 L 64.132812 63.484375 L 63.84375 63.398438 L 63.699219 63.351562 L 63.554688 63.300781 L 63.132812 63.136719 L 62.992188 63.078125 L 62.855469 63.015625 L 62.582031 62.882812 L 62.445312 62.8125 L 62.3125 62.742188 L 62.179688 62.667969 L 62.050781 62.59375 L 61.921875 62.511719 L 61.792969 62.433594 L 61.664062 62.351562 L 61.539062 62.265625 L 61.417969 62.175781 L 61.292969 62.085938 L 61.171875 61.996094 L 61.054688 61.902344 L 60.820312 61.707031 L 60.707031 61.609375 L 60.59375 61.507812 L 60.375 61.296875 L 60.164062 61.078125 L 60.0625 60.96875 L 59.960938 60.855469 L 59.863281 60.738281 L 59.765625 60.625 L 59.671875 60.503906 L 59.578125 60.386719 L 59.488281 60.261719 L 59.398438 60.140625 L 59.3125 60.015625 L 59.230469 59.890625 L 59.066406 59.632812 L 58.992188 59.503906 L 58.914062 59.371094 L 58.773438 59.105469 L 58.703125 58.96875 L 58.640625 58.832031 L 58.574219 58.695312 L 58.457031 58.414062 L 58.347656 58.132812 L 58.296875 57.988281 L 58.25 57.847656 L 58.203125 57.703125 L 58.160156 57.554688 L 58.117188 57.410156 L 58.082031 57.261719 L 58.046875 57.117188 L 58.011719 56.96875 L 57.980469 56.820312 L 57.953125 56.671875 L 57.929688 56.519531 L 57.90625 56.371094 L 57.886719 56.222656 L 57.855469 55.917969 L 57.84375 55.769531 L 57.832031 55.617188 L 57.828125 55.464844 L 57.824219 55.316406 L 57.820312 55.164062 Z M 66.460938 63.136719 L 348.921875 63.136719 L 348.921875 63.804688 L 66.460938 63.804688 Z M 348.921875 63.136719 L 365.539062 63.136719 L 365.539062 63.804688 L 348.921875 63.804688 Z M 365.539062 63.136719 L 365.6875 63.136719 L 365.835938 63.132812 L 366.125 63.117188 L 366.269531 63.105469 L 366.558594 63.074219 L 366.703125 63.054688 L 366.847656 63.03125 L 366.992188 63.003906 L 367.132812 62.976562 L 367.277344 62.945312 L 367.417969 62.914062 L 367.558594 62.878906 L 367.839844 62.800781 L 367.980469 62.753906 L 368.117188 62.710938 L 368.527344 62.558594 L 368.660156 62.5 L 368.792969 62.445312 L 369.058594 62.320312 L 369.316406 62.1875 L 369.445312 62.117188 L 369.695312 61.96875 L 369.820312 61.890625 L 369.941406 61.8125 L 370.0625 61.730469 L 370.179688 61.648438 L 370.300781 61.5625 L 370.414062 61.472656 L 370.53125 61.382812 L 370.640625 61.292969 L 370.753906 61.195312 L 370.863281 61.101562 L 370.96875 61.003906 L 371.179688 60.800781 L 371.382812 60.589844 L 371.480469 60.484375 L 371.574219 60.375 L 371.671875 60.261719 L 371.851562 60.035156 L 371.941406 59.917969 L 372.027344 59.800781 L 372.109375 59.683594 L 372.191406 59.5625 L 372.269531 59.441406 L 372.347656 59.316406 L 372.496094 59.066406 L 372.5625 58.9375 L 372.632812 58.808594 L 372.699219 58.679688 L 372.761719 58.546875 L 372.878906 58.28125 L 372.933594 58.148438 L 372.988281 58.011719 L 373.039062 57.875 L 373.085938 57.738281 L 373.132812 57.597656 L 373.175781 57.460938 L 373.253906 57.179688 L 373.289062 57.039062 L 373.324219 56.894531 L 373.355469 56.753906 L 373.382812 56.609375 L 373.40625 56.46875 L 373.429688 56.324219 L 373.449219 56.179688 L 373.480469 55.890625 L 373.492188 55.746094 L 373.5 55.601562 L 373.507812 55.453125 L 373.515625 55.164062 L 374.179688 55.164062 L 374.175781 55.28125 L 374.175781 55.398438 L 374.167969 55.550781 L 374.160156 55.699219 L 374.152344 55.851562 L 374.136719 56.003906 L 374.121094 56.152344 L 374.101562 56.304688 L 374.082031 56.453125 L 374.058594 56.605469 L 374.03125 56.753906 L 373.96875 57.050781 L 373.9375 57.195312 L 373.859375 57.492188 L 373.773438 57.78125 L 373.726562 57.925781 L 373.675781 58.066406 L 373.625 58.210938 L 373.570312 58.351562 L 373.453125 58.632812 L 373.390625 58.769531 L 373.257812 59.042969 L 373.1875 59.175781 L 373.117188 59.3125 L 373.042969 59.445312 L 372.96875 59.574219 L 372.890625 59.703125 L 372.726562 59.960938 L 372.640625 60.085938 L 372.550781 60.207031 L 372.460938 60.332031 L 372.371094 60.453125 L 372.277344 60.570312 L 372.082031 60.804688 L 371.984375 60.917969 L 371.882812 61.03125 L 371.671875 61.25 L 371.453125 61.460938 L 371.34375 61.5625 L 371.230469 61.664062 L 371.117188 61.761719 L 371 61.859375 L 370.878906 61.953125 L 370.761719 62.046875 L 370.640625 62.136719 L 370.515625 62.226562 L 370.390625 62.3125 L 370.265625 62.394531 L 370.007812 62.558594 L 369.878906 62.632812 L 369.746094 62.710938 L 369.480469 62.851562 L 369.34375 62.921875 L 369.070312 63.046875 L 368.929688 63.109375 L 368.789062 63.167969 L 368.507812 63.277344 L 368.363281 63.328125 L 368.222656 63.375 L 368.078125 63.421875 L 367.933594 63.464844 L 367.785156 63.503906 L 367.640625 63.542969 L 367.34375 63.613281 L 367.195312 63.644531 L 367.046875 63.671875 L 366.898438 63.695312 L 366.746094 63.71875 L 366.597656 63.738281 L 366.445312 63.753906 L 366.296875 63.769531 L 365.992188 63.792969 L 365.839844 63.796875 L 365.691406 63.800781 L 365.539062 63.804688 Z M 373.515625 55.164062 L 373.515625 40.210938 L 374.179688 40.210938 L 374.179688 55.164062 Z M 373.515625 40.210938 L 373.515625 25.253906 L 374.179688 25.253906 L 374.179688 40.210938 Z M 373.515625 25.253906 L 373.515625 25.019531 L 373.523438 24.871094 L 373.53125 24.71875 L 373.554688 24.414062 L 373.570312 24.265625 L 373.589844 24.113281 L 373.609375 23.964844 L 373.636719 23.816406 L 373.660156 23.664062 L 373.722656 23.367188 L 373.757812 23.222656 L 373.792969 23.074219 L 373.832031 22.929688 L 373.875 22.78125 L 373.96875 22.492188 L 374.015625 22.351562 L 374.070312 22.207031 L 374.179688 21.925781 L 374.242188 21.785156 L 374.300781 21.648438 L 374.433594 21.375 L 374.503906 21.242188 L 374.574219 21.105469 L 374.648438 20.976562 L 374.726562 20.84375 L 374.882812 20.585938 L 374.96875 20.460938 L 375.050781 20.332031 L 375.320312 19.96875 L 375.414062 19.847656 L 375.609375 19.613281 L 375.707031 19.5 L 375.8125 19.390625 L 375.914062 19.277344 L 376.128906 19.0625 L 376.238281 18.957031 L 376.347656 18.855469 L 376.460938 18.753906 L 376.695312 18.558594 L 376.8125 18.464844 L 376.933594 18.371094 L 377.175781 18.191406 L 377.300781 18.105469 L 377.425781 18.023438 L 377.554688 17.941406 L 377.8125 17.785156 L 378.078125 17.636719 L 378.214844 17.566406 L 378.347656 17.5 L 378.484375 17.433594 L 378.621094 17.371094 L 378.761719 17.308594 L 378.902344 17.25 L 379.183594 17.140625 L 379.328125 17.089844 L 379.617188 16.996094 L 379.761719 16.953125 L 379.90625 16.914062 L 380.054688 16.875 L 380.199219 16.839844 L 380.347656 16.804688 L 380.496094 16.777344 L 380.644531 16.746094 L 380.796875 16.722656 L 380.945312 16.699219 L 381.09375 16.679688 L 381.398438 16.648438 L 381.546875 16.636719 L 381.851562 16.621094 L 382.003906 16.617188 L 382.152344 16.617188 L 382.152344 17.28125 L 382.003906 17.28125 L 381.859375 17.285156 L 381.710938 17.292969 L 381.566406 17.300781 L 381.421875 17.3125 L 381.277344 17.328125 L 380.84375 17.386719 L 380.699219 17.414062 L 380.558594 17.441406 L 380.414062 17.472656 L 380.273438 17.503906 L 380.132812 17.539062 L 379.992188 17.578125 L 379.851562 17.621094 L 379.714844 17.664062 L 379.574219 17.707031 L 379.164062 17.859375 L 378.765625 18.035156 L 378.632812 18.097656 L 378.375 18.230469 L 378.246094 18.300781 L 377.996094 18.449219 L 377.871094 18.527344 L 377.75 18.605469 L 377.628906 18.6875 L 377.511719 18.769531 L 377.394531 18.855469 L 377.277344 18.945312 L 377.164062 19.035156 L 376.9375 19.222656 L 376.828125 19.316406 L 376.722656 19.414062 L 376.511719 19.617188 L 376.308594 19.828125 L 376.210938 19.933594 L 376.117188 20.042969 L 375.929688 20.269531 L 375.839844 20.382812 L 375.582031 20.734375 L 375.5 20.855469 L 375.421875 20.980469 L 375.34375 21.101562 L 375.269531 21.226562 L 375.199219 21.355469 L 375.128906 21.480469 L 375.058594 21.609375 L 374.996094 21.738281 L 374.871094 22.003906 L 374.8125 22.136719 L 374.757812 22.273438 L 374.703125 22.40625 L 374.652344 22.542969 L 374.605469 22.679688 L 374.558594 22.820312 L 374.515625 22.957031 L 374.4375 23.238281 L 374.402344 23.378906 L 374.367188 23.523438 L 374.339844 23.664062 L 374.3125 23.808594 L 374.285156 23.949219 L 374.261719 24.09375 L 374.242188 24.238281 L 374.210938 24.527344 L 374.199219 24.671875 L 374.191406 24.820312 L 374.183594 24.964844 L 374.179688 25.109375 L 374.179688 25.253906 Z M 382.152344 16.617188 L 398.769531 16.617188 L 398.769531 17.28125 L 382.152344 17.28125 Z M 0 99.691406 L 16.617188 99.691406 L 16.617188 100.355469 L 0 100.355469 Z M 16.617188 99.691406 L 16.765625 99.691406 L 16.910156 99.6875 L 17.058594 99.679688 L 17.203125 99.671875 L 17.347656 99.660156 L 17.492188 99.644531 L 17.925781 99.585938 L 18.070312 99.558594 L 18.210938 99.53125 L 18.355469 99.5 L 18.496094 99.46875 L 18.636719 99.433594 L 18.777344 99.394531 L 18.917969 99.351562 L 19.054688 99.308594 L 19.195312 99.265625 L 19.46875 99.164062 L 19.605469 99.109375 L 19.738281 99.054688 L 20.003906 98.9375 L 20.136719 98.875 L 20.394531 98.742188 L 20.523438 98.671875 L 20.773438 98.523438 L 20.898438 98.445312 L 21.019531 98.367188 L 21.140625 98.285156 L 21.257812 98.203125 L 21.375 98.117188 L 21.492188 98.027344 L 21.605469 97.9375 L 21.832031 97.75 L 21.941406 97.65625 L 22.046875 97.558594 L 22.257812 97.355469 L 22.359375 97.25 L 22.457031 97.144531 L 22.558594 97.039062 L 22.652344 96.929688 L 22.839844 96.703125 L 22.929688 96.589844 L 23.1875 96.238281 L 23.269531 96.117188 L 23.347656 95.992188 L 23.425781 95.871094 L 23.5 95.746094 L 23.570312 95.617188 L 23.640625 95.492188 L 23.707031 95.363281 L 23.773438 95.230469 L 23.835938 95.101562 L 23.898438 94.96875 L 23.957031 94.835938 L 24.011719 94.699219 L 24.066406 94.566406 L 24.117188 94.429688 L 24.164062 94.289062 L 24.210938 94.152344 L 24.253906 94.015625 L 24.332031 93.734375 L 24.367188 93.59375 L 24.398438 93.449219 L 24.429688 93.308594 L 24.457031 93.164062 L 24.484375 93.023438 L 24.503906 92.878906 L 24.527344 92.734375 L 24.558594 92.445312 L 24.570312 92.300781 L 24.578125 92.152344 L 24.585938 92.007812 L 24.589844 91.863281 L 24.589844 91.71875 L 25.253906 91.71875 L 25.253906 91.953125 L 25.246094 92.101562 L 25.238281 92.253906 L 25.226562 92.40625 L 25.214844 92.554688 L 25.199219 92.707031 L 25.179688 92.859375 L 25.160156 93.007812 L 25.132812 93.15625 L 25.109375 93.304688 L 25.078125 93.457031 L 25.046875 93.601562 L 24.976562 93.898438 L 24.9375 94.042969 L 24.894531 94.191406 L 24.800781 94.480469 L 24.753906 94.621094 L 24.699219 94.765625 L 24.589844 95.046875 L 24.527344 95.183594 L 24.464844 95.324219 L 24.402344 95.460938 L 24.335938 95.597656 L 24.195312 95.863281 L 24.121094 95.996094 L 24.042969 96.128906 L 23.886719 96.386719 L 23.628906 96.761719 L 23.449219 97.003906 L 23.355469 97.125 L 23.257812 97.242188 L 23.160156 97.355469 L 23.058594 97.472656 L 22.957031 97.582031 L 22.855469 97.695312 L 22.640625 97.910156 L 22.53125 98.011719 L 22.421875 98.117188 L 22.308594 98.21875 L 22.074219 98.414062 L 21.957031 98.507812 L 21.835938 98.601562 L 21.714844 98.691406 L 21.59375 98.777344 L 21.46875 98.867188 L 21.34375 98.949219 L 21.214844 99.03125 L 20.957031 99.1875 L 20.691406 99.335938 L 20.554688 99.40625 L 20.421875 99.472656 L 20.285156 99.539062 L 20.144531 99.601562 L 20.007812 99.664062 L 19.867188 99.722656 L 19.585938 99.832031 L 19.441406 99.882812 L 19.152344 99.976562 L 19.007812 100.019531 L 18.863281 100.058594 L 18.714844 100.097656 L 18.570312 100.132812 L 18.421875 100.167969 L 18.125 100.222656 L 17.972656 100.25 L 17.824219 100.273438 L 17.671875 100.292969 L 17.523438 100.308594 L 17.371094 100.324219 L 17.222656 100.335938 L 16.917969 100.351562 L 16.765625 100.355469 L 16.617188 100.355469 Z M 24.589844 91.71875 L 24.589844 85.070312 L 25.253906 85.070312 L 25.253906 91.71875 Z M 24.589844 85.070312 L 24.589844 78.425781 L 25.253906 78.425781 L 25.253906 85.070312 Z M 24.589844 78.425781 L 24.589844 78.308594 L 24.59375 78.191406 L 24.597656 78.039062 L 24.609375 77.886719 L 24.617188 77.734375 L 24.632812 77.585938 L 24.648438 77.433594 L 24.667969 77.285156 L 24.6875 77.132812 L 24.710938 76.984375 L 24.765625 76.6875 L 24.800781 76.539062 L 24.832031 76.390625 L 24.871094 76.242188 L 24.910156 76.097656 L 24.996094 75.808594 L 25.042969 75.664062 L 25.09375 75.519531 L 25.144531 75.378906 L 25.199219 75.234375 L 25.257812 75.09375 L 25.316406 74.957031 L 25.378906 74.816406 L 25.511719 74.542969 L 25.652344 74.277344 L 25.800781 74.011719 L 25.878906 73.882812 L 25.960938 73.753906 L 26.042969 73.628906 L 26.128906 73.503906 L 26.21875 73.378906 L 26.304688 73.257812 L 26.492188 73.015625 L 26.585938 72.898438 L 26.6875 72.785156 L 26.785156 72.671875 L 26.886719 72.558594 L 27.097656 72.339844 L 27.203125 72.234375 L 27.316406 72.128906 L 27.425781 72.023438 L 27.539062 71.925781 L 27.652344 71.824219 L 27.769531 71.730469 L 27.890625 71.632812 L 28.007812 71.542969 L 28.128906 71.449219 L 28.503906 71.191406 L 28.632812 71.109375 L 28.890625 70.953125 L 29.15625 70.804688 L 29.289062 70.734375 L 29.5625 70.601562 L 29.699219 70.539062 L 29.839844 70.476562 L 29.980469 70.421875 L 30.121094 70.363281 L 30.402344 70.261719 L 30.546875 70.210938 L 30.691406 70.164062 L 30.835938 70.121094 L 30.984375 70.082031 L 31.128906 70.042969 L 31.277344 70.007812 L 31.574219 69.945312 L 31.871094 69.890625 L 32.023438 69.871094 L 32.171875 69.851562 L 32.324219 69.832031 L 32.472656 69.816406 L 32.625 69.804688 L 32.777344 69.796875 L 32.925781 69.789062 L 33.078125 69.785156 L 33.230469 69.785156 L 33.230469 70.449219 L 33.078125 70.449219 L 32.933594 70.453125 L 32.789062 70.460938 L 32.355469 70.496094 L 32.066406 70.535156 L 31.777344 70.582031 L 31.632812 70.609375 L 31.492188 70.640625 L 31.070312 70.746094 L 30.789062 70.832031 L 30.515625 70.925781 L 30.378906 70.976562 L 30.242188 71.03125 L 30.109375 71.085938 L 29.972656 71.144531 L 29.84375 71.203125 L 29.710938 71.269531 L 29.582031 71.332031 L 29.324219 71.472656 L 29.199219 71.542969 L 29.074219 71.617188 L 28.949219 71.695312 L 28.828125 71.773438 L 28.707031 71.855469 L 28.585938 71.941406 L 28.46875 72.027344 L 28.355469 72.113281 L 28.238281 72.203125 L 28.125 72.296875 L 28.015625 72.390625 L 27.90625 72.488281 L 27.800781 72.585938 L 27.691406 72.683594 L 27.589844 72.785156 L 27.386719 72.996094 L 27.191406 73.214844 L 27.097656 73.324219 L 26.917969 73.550781 L 26.828125 73.667969 L 26.742188 73.785156 L 26.578125 74.027344 L 26.421875 74.269531 L 26.347656 74.394531 L 26.273438 74.523438 L 26.203125 74.652344 L 26.070312 74.910156 L 26.007812 75.039062 L 25.949219 75.171875 L 25.890625 75.308594 L 25.835938 75.441406 L 25.78125 75.578125 L 25.730469 75.714844 L 25.636719 75.988281 L 25.550781 76.269531 L 25.515625 76.40625 L 25.480469 76.550781 L 25.445312 76.691406 L 25.414062 76.832031 L 25.386719 76.976562 L 25.339844 77.265625 L 25.320312 77.40625 L 25.304688 77.550781 L 25.289062 77.699219 L 25.265625 77.988281 L 25.257812 78.277344 L 25.253906 78.425781 Z M 33.230469 69.785156 L 49.847656 69.785156 L 49.847656 70.449219 L 33.230469 70.449219 Z M 49.847656 69.785156 L 348.921875 69.785156 L 348.921875 70.449219 L 49.847656 70.449219 Z M 348.921875 69.785156 L 382.152344 69.785156 L 382.152344 70.449219 L 348.921875 70.449219 Z M 382.152344 69.785156 L 382.230469 69.785156 L 382.304688 69.78125 L 382.59375 69.773438 L 382.742188 69.761719 L 382.886719 69.75 L 383.175781 69.71875 L 383.320312 69.699219 L 383.464844 69.675781 L 383.605469 69.652344 L 383.75 69.625 L 383.890625 69.59375 L 384.035156 69.558594 L 384.175781 69.523438 L 384.457031 69.445312 L 384.59375 69.402344 L 384.734375 69.355469 L 384.871094 69.308594 L 385.007812 69.257812 L 385.140625 69.203125 L 385.277344 69.148438 L 385.410156 69.089844 L 385.542969 69.027344 L 385.671875 68.964844 L 385.804688 68.902344 L 385.933594 68.832031 L 386.058594 68.761719 L 386.1875 68.691406 L 386.3125 68.613281 L 386.433594 68.539062 L 386.558594 68.457031 L 386.679688 68.378906 L 387.03125 68.121094 L 387.144531 68.03125 L 387.257812 67.9375 L 387.367188 67.84375 L 387.585938 67.648438 L 387.691406 67.550781 L 387.898438 67.34375 L 387.996094 67.238281 L 388.191406 67.019531 L 388.285156 66.910156 L 388.378906 66.796875 L 388.46875 66.683594 L 388.640625 66.449219 L 388.726562 66.328125 L 388.804688 66.207031 L 388.886719 66.085938 L 388.960938 65.960938 L 389.039062 65.835938 L 389.109375 65.710938 L 389.179688 65.582031 L 389.3125 65.324219 L 389.375 65.191406 L 389.4375 65.0625 L 389.496094 64.925781 L 389.550781 64.792969 L 389.703125 64.382812 L 389.75 64.246094 L 389.792969 64.105469 L 389.871094 63.824219 L 389.90625 63.683594 L 389.9375 63.542969 L 389.96875 63.398438 L 389.996094 63.257812 L 390.023438 63.113281 L 390.082031 62.679688 L 390.097656 62.535156 L 390.109375 62.390625 L 390.125 62.101562 L 390.128906 61.953125 L 390.128906 61.808594 L 390.792969 61.808594 L 390.792969 61.925781 L 390.789062 62.042969 L 390.785156 62.195312 L 390.777344 62.347656 L 390.765625 62.496094 L 390.753906 62.648438 L 390.738281 62.800781 L 390.71875 62.949219 L 390.695312 63.101562 L 390.671875 63.25 L 390.617188 63.546875 L 390.585938 63.695312 L 390.515625 63.992188 L 390.472656 64.136719 L 390.433594 64.28125 L 390.339844 64.570312 L 390.289062 64.714844 L 390.238281 64.855469 L 390.183594 64.996094 L 390.066406 65.277344 L 390.003906 65.414062 L 389.941406 65.554688 L 389.875 65.6875 L 389.804688 65.824219 L 389.734375 65.957031 L 389.660156 66.089844 L 389.582031 66.222656 L 389.503906 66.351562 L 389.421875 66.480469 L 389.339844 66.605469 L 389.167969 66.855469 L 388.988281 67.097656 L 388.894531 67.214844 L 388.699219 67.449219 L 388.496094 67.675781 L 388.394531 67.785156 L 388.289062 67.894531 L 388.070312 68.105469 L 387.730469 68.410156 L 387.613281 68.503906 L 387.496094 68.601562 L 387.132812 68.871094 L 387.007812 68.957031 L 386.878906 69.042969 L 386.753906 69.125 L 386.625 69.203125 L 386.492188 69.28125 L 386.363281 69.355469 L 386.230469 69.429688 L 386.09375 69.5 L 385.960938 69.566406 L 385.824219 69.632812 L 385.683594 69.695312 L 385.546875 69.753906 L 385.265625 69.871094 L 385.125 69.921875 L 384.835938 70.023438 L 384.402344 70.152344 L 384.253906 70.191406 L 384.105469 70.226562 L 383.960938 70.257812 L 383.8125 70.289062 L 383.660156 70.316406 L 383.363281 70.363281 L 383.210938 70.382812 L 383.0625 70.402344 L 382.910156 70.417969 L 382.757812 70.429688 L 382.609375 70.4375 L 382.457031 70.445312 L 382.304688 70.449219 L 382.152344 70.449219 Z M 390.128906 61.808594 L 390.128906 60.148438 L 390.792969 60.148438 L 390.792969 61.808594 Z M 390.128906 60.148438 L 390.128906 58.484375 L 390.792969 58.484375 L 390.792969 60.148438 Z M 390.128906 58.484375 L 390.128906 58.367188 L 390.132812 58.25 L 390.136719 58.101562 L 390.144531 57.949219 L 390.15625 57.796875 L 390.171875 57.644531 L 390.1875 57.496094 L 390.203125 57.34375 L 390.25 57.046875 L 390.277344 56.894531 L 390.304688 56.746094 L 390.335938 56.597656 L 390.371094 56.453125 L 390.410156 56.304688 L 390.449219 56.160156 L 390.492188 56.011719 L 390.535156 55.867188 L 390.582031 55.722656 L 390.632812 55.582031 L 390.683594 55.4375 L 390.738281 55.296875 L 390.796875 55.15625 L 390.855469 55.019531 L 390.917969 54.878906 L 391.050781 54.605469 L 391.117188 54.472656 L 391.339844 54.074219 L 391.417969 53.945312 L 391.5 53.816406 L 391.582031 53.691406 L 391.753906 53.441406 L 391.84375 53.320312 L 392.03125 53.078125 L 392.125 52.960938 L 392.222656 52.847656 L 392.324219 52.730469 L 392.425781 52.621094 L 392.53125 52.507812 L 392.636719 52.402344 L 392.742188 52.292969 L 392.851562 52.191406 L 392.964844 52.085938 L 393.078125 51.984375 L 393.191406 51.886719 L 393.308594 51.789062 L 393.425781 51.695312 L 393.546875 51.601562 L 393.667969 51.511719 L 393.792969 51.425781 L 393.917969 51.335938 L 394.042969 51.253906 L 394.171875 51.171875 L 394.429688 51.015625 L 394.695312 50.867188 L 394.828125 50.796875 L 395.101562 50.664062 L 395.238281 50.601562 L 395.378906 50.539062 L 395.515625 50.480469 L 395.65625 50.425781 L 395.800781 50.371094 L 395.941406 50.320312 L 396.230469 50.226562 L 396.375 50.183594 L 396.523438 50.144531 L 396.667969 50.105469 L 396.964844 50.035156 L 397.410156 49.953125 L 397.5625 49.929688 L 397.710938 49.910156 L 397.863281 49.894531 L 398.011719 49.878906 L 398.164062 49.867188 L 398.316406 49.859375 L 398.464844 49.851562 L 398.617188 49.847656 L 398.769531 49.847656 L 398.769531 50.511719 L 398.617188 50.511719 L 398.472656 50.515625 L 398.183594 50.53125 L 398.035156 50.542969 L 397.890625 50.558594 L 397.601562 50.597656 L 397.460938 50.617188 L 397.171875 50.671875 L 396.890625 50.734375 L 396.746094 50.769531 L 396.605469 50.808594 L 396.46875 50.851562 L 396.328125 50.894531 L 396.191406 50.9375 L 395.78125 51.089844 L 395.644531 51.148438 L 395.378906 51.265625 L 395.25 51.328125 L 394.992188 51.460938 L 394.863281 51.53125 L 394.613281 51.679688 L 394.488281 51.757812 L 394.367188 51.835938 L 394.125 52 L 394.007812 52.085938 L 393.890625 52.175781 L 393.777344 52.265625 L 393.664062 52.359375 L 393.445312 52.546875 L 393.335938 52.644531 L 393.230469 52.746094 L 393.128906 52.847656 L 392.925781 53.058594 L 392.828125 53.164062 L 392.730469 53.273438 L 392.636719 53.386719 L 392.457031 53.613281 L 392.367188 53.730469 L 392.28125 53.847656 L 392.199219 53.964844 L 392.117188 54.085938 L 392.039062 54.210938 L 391.960938 54.332031 L 391.886719 54.457031 L 391.8125 54.585938 L 391.742188 54.710938 L 391.675781 54.839844 L 391.609375 54.972656 L 391.546875 55.101562 L 391.429688 55.367188 L 391.371094 55.503906 L 391.320312 55.636719 L 391.21875 55.910156 L 391.175781 56.050781 L 391.132812 56.1875 L 391.089844 56.328125 L 391.054688 56.46875 L 391.015625 56.609375 L 390.984375 56.753906 L 390.953125 56.894531 L 390.925781 57.039062 L 390.902344 57.179688 L 390.878906 57.324219 L 390.839844 57.613281 L 390.816406 57.902344 L 390.804688 58.050781 L 390.792969 58.484375 Z M 398.769531 49.847656 L 432 49.847656 L 432 50.511719 L 398.769531 50.511719 Z M 232.617188 116.308594 L 232.691406 116.308594 L 232.765625 116.304688 L 232.910156 116.300781 L 233.058594 116.296875 L 233.347656 116.273438 L 233.636719 116.242188 L 233.78125 116.222656 L 234.070312 116.175781 L 234.210938 116.144531 L 234.355469 116.117188 L 234.636719 116.046875 L 234.917969 115.96875 L 235.054688 115.925781 L 235.195312 115.878906 L 235.332031 115.832031 L 235.46875 115.78125 L 235.605469 115.726562 L 235.738281 115.671875 L 235.871094 115.613281 L 236.136719 115.488281 L 236.394531 115.355469 L 236.523438 115.285156 L 236.648438 115.214844 L 236.773438 115.136719 L 236.898438 115.0625 L 237.019531 114.980469 L 237.140625 114.902344 L 237.492188 114.644531 L 237.605469 114.554688 L 237.832031 114.367188 L 237.941406 114.269531 L 238.046875 114.171875 L 238.257812 113.96875 L 238.359375 113.867188 L 238.457031 113.761719 L 238.558594 113.652344 L 238.746094 113.433594 L 238.839844 113.320312 L 238.929688 113.203125 L 239.015625 113.089844 L 239.101562 112.972656 L 239.1875 112.851562 L 239.269531 112.730469 L 239.347656 112.609375 L 239.425781 112.484375 L 239.5 112.359375 L 239.570312 112.234375 L 239.640625 112.105469 L 239.773438 111.847656 L 239.898438 111.582031 L 239.957031 111.449219 L 240.011719 111.316406 L 240.066406 111.179688 L 240.117188 111.042969 L 240.210938 110.769531 L 240.253906 110.628906 L 240.332031 110.347656 L 240.367188 110.207031 L 240.398438 110.066406 L 240.429688 109.921875 L 240.457031 109.78125 L 240.484375 109.636719 L 240.503906 109.492188 L 240.527344 109.347656 L 240.558594 109.058594 L 240.570312 108.914062 L 240.585938 108.625 L 240.589844 108.476562 L 240.589844 108.332031 L 241.253906 108.332031 L 241.253906 108.566406 L 241.238281 108.871094 L 241.226562 109.019531 L 241.214844 109.171875 L 241.199219 109.324219 L 241.179688 109.472656 L 241.160156 109.625 L 241.132812 109.773438 L 241.109375 109.921875 L 241.046875 110.21875 L 241.011719 110.367188 L 240.976562 110.511719 L 240.9375 110.660156 L 240.894531 110.804688 L 240.753906 111.238281 L 240.589844 111.660156 L 240.527344 111.800781 L 240.402344 112.074219 L 240.335938 112.210938 L 240.265625 112.347656 L 240.195312 112.480469 L 240.121094 112.613281 L 240.042969 112.742188 L 239.964844 112.875 L 239.886719 113 L 239.800781 113.128906 L 239.628906 113.378906 L 239.449219 113.621094 L 239.355469 113.738281 L 239.160156 113.972656 L 238.957031 114.199219 L 238.855469 114.308594 L 238.75 114.417969 L 238.53125 114.628906 L 238.421875 114.730469 L 238.308594 114.832031 L 238.074219 115.027344 L 237.957031 115.121094 L 237.835938 115.214844 L 237.59375 115.394531 L 237.34375 115.566406 L 237.214844 115.648438 L 236.957031 115.804688 L 236.824219 115.878906 L 236.691406 115.949219 L 236.554688 116.019531 L 236.421875 116.089844 L 236.285156 116.15625 L 236.144531 116.21875 L 236.007812 116.277344 L 235.726562 116.394531 L 235.585938 116.445312 L 235.296875 116.546875 L 234.863281 116.675781 L 234.714844 116.714844 L 234.570312 116.75 L 234.273438 116.8125 L 234.125 116.839844 L 233.972656 116.863281 L 233.824219 116.886719 L 233.671875 116.90625 L 233.523438 116.925781 L 233.371094 116.9375 L 233.222656 116.949219 L 233.070312 116.960938 L 232.917969 116.96875 L 232.765625 116.972656 L 232.617188 116.972656 Z M 240.589844 108.332031 L 240.589844 96.703125 L 241.253906 96.703125 L 241.253906 108.332031 Z M 240.589844 96.703125 L 240.589844 85.070312 L 241.253906 85.070312 L 241.253906 96.703125 Z M 240.589844 85.070312 L 240.589844 84.953125 L 240.59375 84.835938 L 240.597656 84.683594 L 240.609375 84.535156 L 240.617188 84.382812 L 240.632812 84.230469 L 240.648438 84.082031 L 240.667969 83.929688 L 240.6875 83.78125 L 240.710938 83.628906 L 240.765625 83.332031 L 240.800781 83.183594 L 240.832031 83.035156 L 240.871094 82.890625 L 240.910156 82.742188 L 240.996094 82.453125 L 241.042969 82.308594 L 241.09375 82.164062 L 241.144531 82.023438 L 241.199219 81.882812 L 241.316406 81.601562 L 241.378906 81.464844 L 241.511719 81.191406 L 241.582031 81.054688 L 241.652344 80.921875 L 241.726562 80.789062 L 241.800781 80.660156 L 241.878906 80.53125 L 242.042969 80.273438 L 242.128906 80.148438 L 242.21875 80.027344 L 242.304688 79.902344 L 242.398438 79.78125 L 242.585938 79.546875 L 242.6875 79.429688 L 242.785156 79.316406 L 242.886719 79.203125 L 243.097656 78.984375 L 243.203125 78.878906 L 243.316406 78.773438 L 243.425781 78.671875 L 243.539062 78.570312 L 243.652344 78.472656 L 243.769531 78.375 L 243.890625 78.28125 L 244.007812 78.1875 L 244.128906 78.097656 L 244.253906 78.007812 L 244.378906 77.921875 L 244.503906 77.839844 L 244.761719 77.675781 L 244.890625 77.601562 L 245.023438 77.523438 L 245.289062 77.382812 L 245.425781 77.3125 L 245.5625 77.25 L 245.699219 77.183594 L 245.980469 77.066406 L 246.261719 76.957031 L 246.402344 76.90625 L 246.691406 76.8125 L 246.835938 76.769531 L 246.984375 76.726562 L 247.128906 76.691406 L 247.425781 76.621094 L 247.574219 76.589844 L 247.722656 76.5625 L 247.871094 76.539062 L 248.023438 76.515625 L 248.171875 76.496094 L 248.324219 76.480469 L 248.472656 76.464844 L 248.777344 76.441406 L 248.925781 76.4375 L 249.230469 76.429688 L 249.230469 77.09375 L 249.15625 77.097656 L 249.078125 77.097656 L 248.933594 77.101562 L 248.644531 77.117188 L 248.5 77.128906 L 248.210938 77.160156 L 248.066406 77.179688 L 247.921875 77.203125 L 247.632812 77.257812 L 247.351562 77.320312 L 247.210938 77.355469 L 246.929688 77.433594 L 246.789062 77.476562 L 246.515625 77.570312 L 246.378906 77.625 L 246.242188 77.675781 L 246.109375 77.730469 L 245.972656 77.789062 L 245.84375 77.851562 L 245.710938 77.914062 L 245.453125 78.046875 L 245.324219 78.117188 L 245.074219 78.265625 L 244.949219 78.34375 L 244.828125 78.421875 L 244.585938 78.585938 L 244.46875 78.671875 L 244.355469 78.761719 L 244.238281 78.851562 L 244.125 78.941406 L 244.015625 79.035156 L 243.90625 79.132812 L 243.800781 79.230469 L 243.691406 79.332031 L 243.488281 79.535156 L 243.386719 79.644531 L 243.289062 79.75 L 243.191406 79.859375 L 243.097656 79.972656 L 243.007812 80.082031 L 242.917969 80.199219 L 242.828125 80.3125 L 242.742188 80.433594 L 242.660156 80.550781 L 242.578125 80.671875 L 242.5 80.792969 L 242.421875 80.917969 L 242.273438 81.167969 L 242.203125 81.296875 L 242.070312 81.554688 L 242.007812 81.6875 L 241.890625 81.953125 L 241.835938 82.085938 L 241.78125 82.222656 L 241.730469 82.359375 L 241.683594 82.496094 L 241.636719 82.636719 L 241.59375 82.773438 L 241.550781 82.914062 L 241.445312 83.335938 L 241.414062 83.480469 L 241.386719 83.621094 L 241.339844 83.910156 L 241.320312 84.054688 L 241.289062 84.34375 L 241.265625 84.632812 L 241.261719 84.78125 L 241.253906 85.070312 Z M 249.230469 76.429688 L 348.921875 76.429688 L 348.921875 77.09375 L 249.230469 77.09375 Z M 348.921875 76.429688 L 365.539062 76.429688 L 365.539062 77.09375 L 348.921875 77.09375 Z M 365.539062 76.429688 L 365.65625 76.429688 L 365.773438 76.433594 L 365.925781 76.4375 L 366.074219 76.449219 L 366.226562 76.457031 L 366.378906 76.472656 L 366.527344 76.488281 L 366.679688 76.507812 L 366.828125 76.527344 L 366.980469 76.550781 L 367.128906 76.578125 L 367.574219 76.671875 L 367.71875 76.710938 L 367.867188 76.75 L 368.15625 76.835938 L 368.300781 76.882812 L 368.445312 76.933594 L 368.585938 76.984375 L 368.726562 77.039062 L 369.007812 77.15625 L 369.144531 77.21875 L 369.417969 77.351562 L 369.554688 77.421875 L 369.6875 77.492188 L 369.820312 77.566406 L 369.949219 77.640625 L 370.078125 77.71875 L 370.335938 77.882812 L 370.460938 77.96875 L 370.582031 78.058594 L 370.707031 78.144531 L 370.828125 78.238281 L 370.945312 78.332031 L 371.179688 78.527344 L 371.292969 78.625 L 371.40625 78.726562 L 371.625 78.9375 L 371.835938 79.15625 L 371.9375 79.265625 L 372.039062 79.378906 L 372.136719 79.492188 L 372.234375 79.609375 L 372.328125 79.730469 L 372.421875 79.847656 L 372.511719 79.96875 L 372.601562 80.09375 L 372.6875 80.21875 L 372.769531 80.34375 L 372.933594 80.601562 L 373.007812 80.730469 L 373.085938 80.863281 L 373.226562 81.128906 L 373.296875 81.265625 L 373.359375 81.402344 L 373.425781 81.539062 L 373.542969 81.820312 L 373.652344 82.101562 L 373.703125 82.246094 L 373.75 82.386719 L 373.796875 82.53125 L 373.839844 82.675781 L 373.882812 82.824219 L 373.917969 82.96875 L 373.988281 83.265625 L 374.019531 83.414062 L 374.046875 83.5625 L 374.070312 83.710938 L 374.09375 83.863281 L 374.113281 84.011719 L 374.128906 84.164062 L 374.144531 84.3125 L 374.167969 84.617188 L 374.171875 84.769531 L 374.175781 84.917969 L 374.179688 85.070312 L 373.515625 85.070312 L 373.511719 84.996094 L 373.511719 84.917969 L 373.507812 84.773438 L 373.492188 84.484375 L 373.480469 84.339844 L 373.449219 84.050781 L 373.429688 83.90625 L 373.40625 83.761719 L 373.378906 83.617188 L 373.351562 83.476562 L 373.320312 83.332031 L 373.289062 83.191406 L 373.253906 83.050781 L 373.175781 82.769531 L 373.132812 82.628906 L 373.085938 82.492188 L 372.933594 82.082031 L 372.878906 81.949219 L 372.820312 81.816406 L 372.695312 81.550781 L 372.5625 81.292969 L 372.492188 81.164062 L 372.34375 80.914062 L 372.265625 80.789062 L 372.1875 80.667969 L 372.023438 80.425781 L 371.9375 80.308594 L 371.847656 80.195312 L 371.757812 80.078125 L 371.667969 79.96875 L 371.574219 79.855469 L 371.476562 79.746094 L 371.378906 79.640625 L 371.175781 79.429688 L 370.964844 79.226562 L 370.859375 79.128906 L 370.75 79.03125 L 370.636719 78.9375 L 370.527344 78.847656 L 370.410156 78.757812 L 370.296875 78.667969 L 370.175781 78.582031 L 370.058594 78.5 L 369.9375 78.417969 L 369.816406 78.339844 L 369.691406 78.261719 L 369.441406 78.113281 L 369.3125 78.046875 L 369.183594 77.976562 L 369.054688 77.910156 L 368.921875 77.847656 L 368.65625 77.730469 L 368.523438 77.675781 L 368.386719 77.621094 L 368.25 77.570312 L 368.113281 77.523438 L 367.972656 77.476562 L 367.835938 77.433594 L 367.554688 77.355469 L 367.273438 77.285156 L 367.128906 77.253906 L 366.988281 77.226562 L 366.699219 77.179688 L 366.554688 77.160156 L 366.265625 77.128906 L 365.976562 77.105469 L 365.828125 77.101562 L 365.539062 77.09375 Z M 374.179688 85.070312 L 374.179688 96.703125 L 373.515625 96.703125 L 373.515625 85.070312 Z M 374.179688 96.703125 L 374.179688 108.332031 L 373.515625 108.332031 L 373.515625 96.703125 Z M 374.179688 108.332031 L 374.179688 108.484375 L 374.183594 108.628906 L 374.199219 108.917969 L 374.210938 109.066406 L 374.226562 109.210938 L 374.265625 109.5 L 374.285156 109.640625 L 374.339844 109.929688 L 374.402344 110.210938 L 374.4375 110.355469 L 374.476562 110.496094 L 374.519531 110.632812 L 374.5625 110.773438 L 374.605469 110.910156 L 374.757812 111.320312 L 374.816406 111.457031 L 374.933594 111.722656 L 374.996094 111.851562 L 375.128906 112.109375 L 375.199219 112.238281 L 375.347656 112.488281 L 375.425781 112.613281 L 375.503906 112.734375 L 375.667969 112.976562 L 375.753906 113.09375 L 375.84375 113.210938 L 375.933594 113.324219 L 376.027344 113.4375 L 376.214844 113.65625 L 376.3125 113.765625 L 376.414062 113.871094 L 376.515625 113.972656 L 376.726562 114.175781 L 376.832031 114.273438 L 376.941406 114.371094 L 377.054688 114.464844 L 377.28125 114.644531 L 377.398438 114.734375 L 377.515625 114.820312 L 377.632812 114.902344 L 377.753906 114.984375 L 377.878906 115.0625 L 378 115.140625 L 378.125 115.214844 L 378.253906 115.289062 L 378.378906 115.359375 L 378.507812 115.425781 L 378.640625 115.492188 L 378.769531 115.554688 L 379.035156 115.671875 L 379.171875 115.730469 L 379.304688 115.78125 L 379.578125 115.882812 L 379.71875 115.925781 L 379.855469 115.96875 L 379.996094 116.011719 L 380.136719 116.046875 L 380.277344 116.085938 L 380.421875 116.117188 L 380.5625 116.148438 L 380.707031 116.175781 L 380.847656 116.199219 L 380.992188 116.222656 L 381.28125 116.261719 L 381.570312 116.285156 L 381.71875 116.296875 L 382.152344 116.308594 L 382.152344 116.972656 L 382.035156 116.972656 L 381.917969 116.96875 L 381.769531 116.964844 L 381.617188 116.957031 L 381.464844 116.945312 L 381.3125 116.929688 L 381.164062 116.914062 L 381.011719 116.898438 L 380.714844 116.851562 L 380.5625 116.824219 L 380.414062 116.796875 L 380.265625 116.765625 L 380.121094 116.730469 L 379.972656 116.691406 L 379.828125 116.652344 L 379.679688 116.609375 L 379.535156 116.566406 L 379.390625 116.519531 L 379.25 116.46875 L 379.105469 116.417969 L 378.964844 116.363281 L 378.683594 116.246094 L 378.546875 116.183594 L 378.273438 116.050781 L 378.140625 115.984375 L 378.003906 115.910156 L 377.875 115.835938 L 377.742188 115.761719 L 377.613281 115.683594 L 377.484375 115.601562 L 377.359375 115.519531 L 377.230469 115.433594 L 377.109375 115.347656 L 376.988281 115.257812 L 376.746094 115.070312 L 376.628906 114.976562 L 376.511719 114.878906 L 376.398438 114.777344 L 376.289062 114.675781 L 376.175781 114.570312 L 376.070312 114.464844 L 375.960938 114.359375 L 375.855469 114.25 L 375.652344 114.023438 L 375.554688 113.910156 L 375.457031 113.792969 L 375.363281 113.675781 L 375.269531 113.554688 L 375.179688 113.433594 L 375.089844 113.308594 L 375.003906 113.183594 L 374.921875 113.058594 L 374.839844 112.929688 L 374.683594 112.671875 L 374.535156 112.40625 L 374.464844 112.273438 L 374.332031 112 L 374.269531 111.863281 L 374.207031 111.722656 L 374.148438 111.585938 L 374.09375 111.445312 L 374.039062 111.300781 L 373.988281 111.160156 L 373.894531 110.871094 L 373.851562 110.726562 L 373.8125 110.578125 L 373.773438 110.433594 L 373.703125 110.136719 L 373.675781 109.988281 L 373.644531 109.839844 L 373.621094 109.691406 L 373.597656 109.539062 L 373.578125 109.390625 L 373.5625 109.238281 L 373.546875 109.089844 L 373.535156 108.9375 L 373.527344 108.785156 L 373.519531 108.636719 L 373.515625 108.484375 L 373.515625 108.332031 Z M 382.152344 116.308594 L 398.769531 116.308594 L 398.769531 116.972656 L 382.152344 116.972656 Z M 66.460938 132.921875 L 66.613281 132.921875 L 66.757812 132.917969 L 67.046875 132.902344 L 67.195312 132.890625 L 67.339844 132.875 L 67.628906 132.835938 L 67.769531 132.816406 L 68.058594 132.761719 L 68.199219 132.730469 L 68.34375 132.699219 L 68.484375 132.664062 L 68.625 132.625 L 68.761719 132.582031 L 68.902344 132.539062 L 69.039062 132.496094 L 69.179688 132.445312 L 69.3125 132.394531 L 69.449219 132.34375 L 69.585938 132.285156 L 69.851562 132.167969 L 69.980469 132.105469 L 70.113281 132.039062 L 70.242188 131.972656 L 70.367188 131.902344 L 70.496094 131.828125 L 70.621094 131.753906 L 70.863281 131.597656 L 71.105469 131.433594 L 71.222656 131.347656 L 71.339844 131.257812 L 71.453125 131.167969 L 71.566406 131.074219 L 71.785156 130.886719 L 71.894531 130.789062 L 72 130.6875 L 72.101562 130.585938 L 72.304688 130.375 L 72.402344 130.269531 L 72.5 130.160156 L 72.59375 130.046875 L 72.773438 129.820312 L 72.863281 129.703125 L 72.949219 129.585938 L 73.03125 129.46875 L 73.113281 129.347656 L 73.191406 129.222656 L 73.269531 129.101562 L 73.34375 128.976562 L 73.417969 128.847656 L 73.488281 128.722656 L 73.554688 128.59375 L 73.621094 128.460938 L 73.683594 128.332031 L 73.800781 128.066406 L 73.859375 127.929688 L 73.910156 127.796875 L 74.011719 127.523438 L 74.054688 127.382812 L 74.097656 127.246094 L 74.140625 127.105469 L 74.179688 126.964844 L 74.214844 126.824219 L 74.246094 126.679688 L 74.277344 126.539062 L 74.304688 126.394531 L 74.328125 126.253906 L 74.351562 126.109375 L 74.390625 125.820312 L 74.414062 125.53125 L 74.425781 125.382812 L 74.429688 125.238281 L 74.4375 125.09375 L 74.4375 124.949219 L 75.101562 124.949219 L 75.101562 125.066406 L 75.097656 125.183594 L 75.09375 125.332031 L 75.085938 125.484375 L 75.0625 125.789062 L 75.042969 125.9375 L 75.027344 126.089844 L 74.980469 126.386719 L 74.953125 126.539062 L 74.925781 126.6875 L 74.894531 126.835938 L 74.859375 126.980469 L 74.820312 127.128906 L 74.78125 127.273438 L 74.738281 127.421875 L 74.695312 127.566406 L 74.648438 127.710938 L 74.597656 127.851562 L 74.546875 127.996094 L 74.492188 128.136719 L 74.375 128.417969 L 74.25 128.691406 L 74.179688 128.828125 L 74.113281 128.960938 L 74.039062 129.097656 L 73.964844 129.226562 L 73.890625 129.359375 L 73.8125 129.488281 L 73.730469 129.617188 L 73.648438 129.742188 L 73.476562 129.992188 L 73.386719 130.113281 L 73.199219 130.355469 L 73.105469 130.472656 L 73.007812 130.589844 L 72.90625 130.703125 L 72.804688 130.8125 L 72.699219 130.925781 L 72.59375 131.03125 L 72.488281 131.140625 L 72.378906 131.246094 L 72.152344 131.449219 L 72.039062 131.546875 L 71.921875 131.644531 L 71.804688 131.738281 L 71.683594 131.832031 L 71.5625 131.921875 L 71.4375 132.011719 L 71.3125 132.097656 L 71.0625 132.261719 L 70.929688 132.339844 L 70.800781 132.417969 L 70.535156 132.566406 L 70.402344 132.636719 L 70.128906 132.769531 L 69.855469 132.894531 L 69.714844 132.953125 L 69.574219 133.007812 L 69.429688 133.0625 L 69.289062 133.113281 L 69 133.207031 L 68.855469 133.25 L 68.707031 133.289062 L 68.5625 133.328125 L 68.265625 133.398438 L 68.117188 133.425781 L 67.96875 133.457031 L 67.671875 133.503906 L 67.519531 133.523438 L 67.371094 133.539062 L 67.21875 133.554688 L 67.066406 133.566406 L 66.914062 133.574219 L 66.765625 133.582031 L 66.613281 133.585938 L 66.460938 133.585938 Z M 74.4375 124.949219 L 74.4375 105.007812 L 75.101562 105.007812 L 75.101562 124.949219 Z M 74.4375 105.007812 L 74.4375 85.070312 L 75.101562 85.070312 L 75.101562 105.007812 Z M 74.4375 85.070312 L 74.4375 84.953125 L 74.441406 84.835938 L 74.445312 84.683594 L 74.453125 84.535156 L 74.476562 84.230469 L 74.492188 84.082031 L 74.511719 83.929688 L 74.535156 83.78125 L 74.558594 83.628906 L 74.613281 83.332031 L 74.644531 83.183594 L 74.679688 83.035156 L 74.714844 82.890625 L 74.757812 82.742188 L 74.796875 82.597656 L 74.890625 82.308594 L 74.941406 82.164062 L 74.992188 82.023438 L 75.046875 81.882812 L 75.164062 81.601562 L 75.289062 81.328125 L 75.355469 81.191406 L 75.425781 81.054688 L 75.496094 80.921875 L 75.570312 80.789062 L 75.726562 80.53125 L 75.890625 80.273438 L 75.976562 80.148438 L 76.0625 80.027344 L 76.152344 79.902344 L 76.246094 79.78125 L 76.433594 79.546875 L 76.53125 79.429688 L 76.734375 79.203125 L 76.835938 79.09375 L 77.050781 78.878906 L 77.160156 78.773438 L 77.386719 78.570312 L 77.5 78.472656 L 77.617188 78.375 L 77.734375 78.28125 L 77.855469 78.1875 L 78.097656 78.007812 L 78.222656 77.921875 L 78.351562 77.839844 L 78.476562 77.757812 L 78.605469 77.675781 L 78.738281 77.601562 L 78.867188 77.523438 L 79 77.453125 L 79.273438 77.3125 L 79.410156 77.25 L 79.546875 77.183594 L 79.683594 77.125 L 79.824219 77.066406 L 79.964844 77.011719 L 80.109375 76.957031 L 80.25 76.90625 L 80.539062 76.8125 L 80.828125 76.726562 L 81.273438 76.621094 L 81.421875 76.589844 L 81.570312 76.5625 L 81.867188 76.515625 L 82.019531 76.496094 L 82.167969 76.480469 L 82.320312 76.464844 L 82.472656 76.453125 L 82.621094 76.441406 L 83.078125 76.429688 L 83.078125 77.09375 L 83 77.097656 L 82.925781 77.097656 L 82.78125 77.101562 L 82.636719 77.109375 L 82.488281 77.117188 L 82.34375 77.128906 L 82.054688 77.160156 L 81.910156 77.179688 L 81.765625 77.203125 L 81.625 77.230469 L 81.480469 77.257812 L 81.339844 77.289062 L 81.195312 77.320312 L 81.054688 77.355469 L 80.773438 77.433594 L 80.636719 77.476562 L 80.496094 77.523438 L 80.359375 77.570312 L 80.222656 77.625 L 80.089844 77.675781 L 79.953125 77.730469 L 79.820312 77.789062 L 79.6875 77.851562 L 79.558594 77.914062 L 79.425781 77.980469 L 79.296875 78.046875 L 79.171875 78.117188 L 79.042969 78.191406 L 78.917969 78.265625 L 78.796875 78.34375 L 78.671875 78.421875 L 78.554688 78.503906 L 78.433594 78.585938 L 78.316406 78.671875 L 78.199219 78.761719 L 77.972656 78.941406 L 77.863281 79.035156 L 77.644531 79.230469 L 77.539062 79.332031 L 77.4375 79.433594 L 77.332031 79.535156 L 77.234375 79.644531 L 77.136719 79.75 L 77.039062 79.859375 L 76.945312 79.972656 L 76.851562 80.082031 L 76.761719 80.199219 L 76.675781 80.3125 L 76.589844 80.433594 L 76.503906 80.550781 L 76.425781 80.671875 L 76.34375 80.792969 L 76.121094 81.167969 L 76.050781 81.296875 L 75.917969 81.554688 L 75.792969 81.820312 L 75.734375 81.953125 L 75.679688 82.085938 L 75.527344 82.496094 L 75.484375 82.636719 L 75.4375 82.773438 L 75.359375 83.054688 L 75.324219 83.195312 L 75.292969 83.335938 L 75.261719 83.480469 L 75.234375 83.621094 L 75.207031 83.765625 L 75.148438 84.199219 L 75.132812 84.34375 L 75.121094 84.488281 L 75.113281 84.632812 L 75.105469 84.78125 L 75.101562 84.925781 L 75.101562 85.070312 Z M 83.078125 76.429688 L 149.539062 76.429688 L 149.539062 77.09375 L 83.078125 77.09375 Z M 149.539062 76.429688 L 149.65625 76.429688 L 149.773438 76.433594 L 149.925781 76.4375 L 150.074219 76.449219 L 150.226562 76.457031 L 150.378906 76.472656 L 150.527344 76.488281 L 150.679688 76.507812 L 150.828125 76.527344 L 150.980469 76.550781 L 151.128906 76.578125 L 151.574219 76.671875 L 151.71875 76.710938 L 151.867188 76.75 L 152.15625 76.835938 L 152.300781 76.882812 L 152.445312 76.933594 L 152.585938 76.984375 L 152.726562 77.039062 L 153.007812 77.15625 L 153.144531 77.21875 L 153.417969 77.351562 L 153.554688 77.421875 L 153.6875 77.492188 L 153.820312 77.566406 L 153.949219 77.640625 L 154.078125 77.71875 L 154.335938 77.882812 L 154.460938 77.96875 L 154.582031 78.058594 L 154.707031 78.144531 L 154.828125 78.238281 L 154.945312 78.332031 L 155.179688 78.527344 L 155.292969 78.625 L 155.40625 78.726562 L 155.625 78.9375 L 155.835938 79.15625 L 155.9375 79.265625 L 156.039062 79.378906 L 156.136719 79.492188 L 156.234375 79.609375 L 156.328125 79.730469 L 156.421875 79.847656 L 156.511719 79.96875 L 156.601562 80.09375 L 156.6875 80.21875 L 156.769531 80.34375 L 156.933594 80.601562 L 157.007812 80.730469 L 157.085938 80.863281 L 157.226562 81.128906 L 157.296875 81.265625 L 157.359375 81.402344 L 157.425781 81.539062 L 157.542969 81.820312 L 157.652344 82.101562 L 157.703125 82.246094 L 157.75 82.386719 L 157.796875 82.53125 L 157.839844 82.675781 L 157.882812 82.824219 L 157.917969 82.96875 L 157.988281 83.265625 L 158.019531 83.414062 L 158.046875 83.5625 L 158.070312 83.710938 L 158.09375 83.863281 L 158.113281 84.011719 L 158.128906 84.164062 L 158.144531 84.3125 L 158.167969 84.617188 L 158.171875 84.769531 L 158.175781 84.917969 L 158.179688 85.070312 L 157.515625 85.070312 L 157.511719 84.996094 L 157.511719 84.917969 L 157.507812 84.773438 L 157.492188 84.484375 L 157.480469 84.339844 L 157.449219 84.050781 L 157.429688 83.90625 L 157.40625 83.761719 L 157.378906 83.617188 L 157.351562 83.476562 L 157.320312 83.332031 L 157.289062 83.191406 L 157.253906 83.050781 L 157.175781 82.769531 L 157.132812 82.628906 L 157.085938 82.492188 L 156.933594 82.082031 L 156.878906 81.949219 L 156.820312 81.816406 L 156.695312 81.550781 L 156.5625 81.292969 L 156.492188 81.164062 L 156.34375 80.914062 L 156.265625 80.789062 L 156.1875 80.667969 L 156.023438 80.425781 L 155.9375 80.308594 L 155.847656 80.195312 L 155.757812 80.078125 L 155.667969 79.96875 L 155.574219 79.855469 L 155.476562 79.746094 L 155.378906 79.640625 L 155.175781 79.429688 L 154.964844 79.226562 L 154.859375 79.128906 L 154.75 79.03125 L 154.636719 78.9375 L 154.527344 78.847656 L 154.410156 78.757812 L 154.296875 78.667969 L 154.175781 78.582031 L 154.058594 78.5 L 153.9375 78.417969 L 153.816406 78.339844 L 153.691406 78.261719 L 153.441406 78.113281 L 153.3125 78.046875 L 153.183594 77.976562 L 153.054688 77.910156 L 152.921875 77.847656 L 152.65625 77.730469 L 152.523438 77.675781 L 152.386719 77.621094 L 152.25 77.570312 L 152.113281 77.523438 L 151.972656 77.476562 L 151.835938 77.433594 L 151.554688 77.355469 L 151.273438 77.285156 L 151.128906 77.253906 L 150.988281 77.226562 L 150.699219 77.179688 L 150.554688 77.160156 L 150.265625 77.128906 L 149.976562 77.105469 L 149.828125 77.101562 L 149.539062 77.09375 Z M 158.179688 85.070312 L 158.179688 105.007812 L 157.515625 105.007812 L 157.515625 85.070312 Z M 158.179688 105.007812 L 158.179688 124.949219 L 157.515625 124.949219 L 157.515625 105.007812 Z M 158.179688 124.949219 L 158.179688 125.097656 L 158.183594 125.242188 L 158.191406 125.390625 L 158.199219 125.535156 L 158.210938 125.679688 L 158.226562 125.824219 L 158.285156 126.257812 L 158.3125 126.402344 L 158.339844 126.542969 L 158.371094 126.6875 L 158.402344 126.828125 L 158.4375 126.96875 L 158.476562 127.109375 L 158.519531 127.25 L 158.5625 127.386719 L 158.605469 127.527344 L 158.757812 127.9375 L 158.933594 128.335938 L 158.996094 128.46875 L 159.128906 128.726562 L 159.199219 128.855469 L 159.347656 129.105469 L 159.425781 129.230469 L 159.503906 129.351562 L 159.585938 129.472656 L 159.667969 129.589844 L 159.753906 129.707031 L 159.84375 129.824219 L 159.933594 129.9375 L 160.121094 130.164062 L 160.214844 130.273438 L 160.3125 130.378906 L 160.515625 130.589844 L 160.726562 130.792969 L 160.832031 130.890625 L 160.941406 130.984375 L 161.167969 131.171875 L 161.28125 131.261719 L 161.632812 131.519531 L 161.753906 131.601562 L 161.878906 131.679688 L 162 131.757812 L 162.125 131.832031 L 162.253906 131.902344 L 162.378906 131.972656 L 162.507812 132.042969 L 162.640625 132.105469 L 162.769531 132.167969 L 162.902344 132.230469 L 163.035156 132.289062 L 163.171875 132.34375 L 163.304688 132.398438 L 163.441406 132.449219 L 163.578125 132.496094 L 163.71875 132.542969 L 163.855469 132.585938 L 164.136719 132.664062 L 164.277344 132.699219 L 164.421875 132.734375 L 164.5625 132.761719 L 164.707031 132.789062 L 164.847656 132.816406 L 164.992188 132.839844 L 165.136719 132.859375 L 165.425781 132.890625 L 165.570312 132.902344 L 165.71875 132.910156 L 165.863281 132.917969 L 166.007812 132.921875 L 166.152344 132.921875 L 166.152344 133.585938 L 165.917969 133.585938 L 165.769531 133.578125 L 165.617188 133.570312 L 165.3125 133.546875 L 165.164062 133.53125 L 165.011719 133.511719 L 164.863281 133.492188 L 164.714844 133.464844 L 164.5625 133.441406 L 164.265625 133.378906 L 164.121094 133.34375 L 163.972656 133.308594 L 163.828125 133.269531 L 163.679688 133.226562 L 163.390625 133.132812 L 163.25 133.085938 L 163.105469 133.03125 L 162.824219 132.921875 L 162.683594 132.859375 L 162.546875 132.800781 L 162.273438 132.667969 L 162.140625 132.597656 L 162.003906 132.527344 L 161.875 132.453125 L 161.742188 132.375 L 161.484375 132.21875 L 161.359375 132.132812 L 161.230469 132.050781 L 160.867188 131.78125 L 160.746094 131.6875 L 160.511719 131.492188 L 160.398438 131.394531 L 160.289062 131.289062 L 160.175781 131.1875 L 159.960938 130.972656 L 159.855469 130.863281 L 159.753906 130.753906 L 159.652344 130.640625 L 159.457031 130.40625 L 159.363281 130.289062 L 159.269531 130.167969 L 159.089844 129.925781 L 159.003906 129.800781 L 158.921875 129.675781 L 158.839844 129.546875 L 158.683594 129.289062 L 158.535156 129.023438 L 158.464844 128.886719 L 158.398438 128.753906 L 158.332031 128.617188 L 158.269531 128.480469 L 158.207031 128.339844 L 158.148438 128.199219 L 158.039062 127.917969 L 157.988281 127.773438 L 157.894531 127.484375 L 157.851562 127.339844 L 157.8125 127.195312 L 157.773438 127.046875 L 157.738281 126.902344 L 157.703125 126.753906 L 157.675781 126.605469 L 157.644531 126.457031 L 157.621094 126.304688 L 157.597656 126.15625 L 157.578125 126.007812 L 157.546875 125.703125 L 157.535156 125.554688 L 157.519531 125.25 L 157.515625 125.097656 L 157.515625 124.949219 Z M 158.179688 124.949219 "/>
<path fill-rule="nonzero" fill="rgb(54.902%, 23.5294%, 100%)" fill-opacity="0.5" d="M 33.230469 50.179688 L 365.539062 50.179688 L 365.539062 83.410156 L 33.230469 83.410156 Z M 33.230469 50.179688 "/>
</svg>
