<?xml version="1.0" encoding="UTF-8"?>
<svg xmlns="http://www.w3.org/2000/svg" xmlns:xlink="http://www.w3.org/1999/xlink" width="432" height="144" viewBox="0 0 432 144">
<path fill-rule="nonzero" fill="rgb(84.3137%, 0%, 0%)" fill-opacity="0.5" d="M 66.460938 0 L 66.613281 0 L 66.761719 0.00390625 L 66.914062 0.0117188 L 67.0625 0.0195312 L 67.214844 0.03125 L 67.363281 0.046875 L 67.515625 0.0625 L 67.664062 0.0859375 L 67.8125 0.105469 L 68.257812 0.1875 L 68.40625 0.222656 L 68.550781 0.257812 L 68.699219 0.292969 L 69.132812 0.421875 L 69.273438 0.472656 L 69.417969 0.519531 L 69.699219 0.628906 L 69.835938 0.6875 L 69.976562 0.746094 L 70.113281 0.808594 L 70.25 0.875 L 70.382812 0.941406 L 70.519531 1.011719 L 70.648438 1.082031 L 70.78125 1.15625 L 71.039062 1.3125 L 71.167969 1.394531 L 71.292969 1.476562 L 71.417969 1.5625 L 71.539062 1.648438 L 71.660156 1.738281 L 71.78125 1.832031 L 72.015625 2.019531 L 72.128906 2.121094 L 72.242188 2.21875 L 72.355469 2.320312 L 72.464844 2.425781 L 72.675781 2.636719 L 72.78125 2.746094 L 72.882812 2.859375 L 72.980469 2.972656 L 73.082031 3.085938 L 73.269531 3.320312 L 73.363281 3.441406 L 73.453125 3.5625 L 73.539062 3.683594 L 73.625 3.808594 L 73.707031 3.933594 L 73.789062 4.0625 L 73.945312 4.320312 L 74.019531 4.453125 L 74.089844 4.582031 L 74.160156 4.71875 L 74.226562 4.851562 L 74.292969 4.988281 L 74.355469 5.125 L 74.414062 5.265625 L 74.472656 5.402344 L 74.582031 5.683594 L 74.628906 5.828125 L 74.679688 5.96875 L 74.808594 6.402344 L 74.84375 6.550781 L 74.878906 6.695312 L 74.914062 6.84375 L 74.996094 7.289062 L 75.015625 7.4375 L 75.039062 7.585938 L 75.054688 7.738281 L 75.070312 7.886719 L 75.082031 8.039062 L 75.089844 8.1875 L 75.097656 8.339844 L 75.101562 8.488281 L 75.101562 8.640625 L 74.4375 8.640625 L 74.4375 8.496094 L 74.433594 8.351562 L 74.425781 8.207031 L 74.417969 8.066406 L 74.40625 7.921875 L 74.375 7.632812 L 74.355469 7.492188 L 74.332031 7.351562 L 74.308594 7.207031 L 74.28125 7.066406 L 74.21875 6.785156 L 74.183594 6.644531 L 74.144531 6.507812 L 74.105469 6.367188 L 74.019531 6.09375 L 73.972656 5.957031 L 73.921875 5.820312 L 73.871094 5.6875 L 73.816406 5.554688 L 73.757812 5.421875 L 73.699219 5.292969 L 73.636719 5.160156 L 73.574219 5.03125 L 73.507812 4.902344 L 73.296875 4.527344 L 73.0625 4.164062 L 72.898438 3.929688 L 72.8125 3.8125 L 72.632812 3.585938 L 72.445312 3.367188 L 72.351562 3.261719 L 72.25 3.15625 L 72.152344 3.050781 L 72.050781 2.949219 L 71.945312 2.851562 L 71.839844 2.75 L 71.734375 2.65625 L 71.515625 2.46875 L 71.289062 2.289062 L 71.171875 2.203125 L 70.9375 2.039062 L 70.574219 1.804688 L 70.199219 1.59375 L 70.070312 1.527344 L 69.941406 1.464844 L 69.808594 1.402344 L 69.679688 1.34375 L 69.546875 1.285156 L 69.414062 1.230469 L 69.277344 1.179688 L 69.144531 1.128906 L 69.007812 1.082031 L 68.734375 0.996094 L 68.59375 0.957031 L 68.457031 0.917969 L 68.316406 0.882812 L 68.035156 0.820312 L 67.894531 0.792969 L 67.75 0.769531 L 67.609375 0.746094 L 67.46875 0.726562 L 67.179688 0.695312 L 67.035156 0.683594 L 66.894531 0.675781 L 66.75 0.667969 L 66.605469 0.664062 L 66.460938 0.664062 Z M 75.101562 8.640625 L 75.101562 28.578125 L 74.4375 28.578125 L 74.4375 8.640625 Z M 75.101562 28.578125 L 75.101562 48.515625 L 74.4375 48.515625 L 74.4375 28.578125 Z M 75.101562 48.515625 L 75.101562 48.660156 L 75.105469 48.804688 L 75.121094 49.09375 L 75.132812 49.234375 L 75.164062 49.523438 L 75.183594 49.664062 L 75.207031 49.808594 L 75.230469 49.949219 L 75.257812 50.089844 L 75.320312 50.371094 L 75.390625 50.652344 L 75.433594 50.789062 L 75.472656 50.925781 L 75.566406 51.199219 L 75.617188 51.335938 L 75.667969 51.46875 L 75.722656 51.601562 L 75.839844 51.867188 L 75.898438 51.996094 L 76.03125 52.253906 L 76.097656 52.378906 L 76.171875 52.503906 L 76.242188 52.628906 L 76.320312 52.75 L 76.394531 52.871094 L 76.476562 52.992188 L 76.640625 53.226562 L 76.726562 53.34375 L 76.90625 53.570312 L 77.09375 53.789062 L 77.1875 53.894531 L 77.285156 54 L 77.386719 54.105469 L 77.488281 54.207031 L 77.59375 54.308594 L 77.699219 54.40625 L 77.804688 54.5 L 78.023438 54.6875 L 78.25 54.867188 L 78.367188 54.953125 L 78.601562 55.117188 L 78.722656 55.199219 L 78.84375 55.273438 L 78.964844 55.351562 L 79.089844 55.421875 L 79.214844 55.496094 L 79.339844 55.5625 L 79.597656 55.695312 L 79.726562 55.753906 L 79.859375 55.816406 L 80.125 55.925781 L 80.257812 55.976562 L 80.394531 56.027344 L 80.667969 56.121094 L 80.804688 56.160156 L 80.941406 56.203125 L 81.222656 56.273438 L 81.503906 56.335938 L 81.644531 56.363281 L 81.785156 56.386719 L 81.929688 56.410156 L 82.070312 56.429688 L 82.359375 56.460938 L 82.5 56.472656 L 82.789062 56.488281 L 82.933594 56.492188 L 83.078125 56.492188 L 83.078125 57.15625 L 82.925781 57.15625 L 82.777344 57.152344 L 82.472656 57.136719 L 82.324219 57.125 L 82.171875 57.109375 L 82.023438 57.09375 L 81.875 57.074219 L 81.578125 57.027344 L 81.429688 57 L 81.28125 56.96875 L 81.132812 56.933594 L 80.988281 56.898438 L 80.839844 56.863281 L 80.695312 56.820312 L 80.550781 56.78125 L 80.40625 56.734375 L 80.265625 56.6875 L 80.121094 56.636719 L 79.839844 56.527344 L 79.699219 56.46875 L 79.5625 56.410156 L 79.425781 56.347656 L 79.289062 56.28125 L 79.15625 56.214844 L 79.019531 56.144531 L 78.886719 56.074219 L 78.757812 56 L 78.5 55.84375 L 78.371094 55.761719 L 78.246094 55.679688 L 78.121094 55.59375 L 78 55.507812 L 77.878906 55.417969 L 77.757812 55.324219 L 77.523438 55.136719 L 77.410156 55.039062 L 77.183594 54.835938 L 77.074219 54.730469 L 76.863281 54.519531 L 76.757812 54.410156 L 76.554688 54.183594 L 76.457031 54.070312 L 76.269531 53.835938 L 76.175781 53.714844 L 76.085938 53.59375 L 76 53.472656 L 75.914062 53.347656 L 75.832031 53.222656 L 75.75 53.09375 L 75.671875 52.96875 L 75.59375 52.835938 L 75.519531 52.707031 L 75.449219 52.574219 L 75.378906 52.4375 L 75.3125 52.304688 L 75.246094 52.167969 L 75.183594 52.03125 L 75.125 51.894531 L 75.066406 51.753906 L 74.957031 51.472656 L 74.90625 51.328125 L 74.859375 51.1875 L 74.8125 51.042969 L 74.773438 50.898438 L 74.730469 50.753906 L 74.695312 50.605469 L 74.660156 50.460938 L 74.625 50.3125 L 74.59375 50.164062 L 74.566406 50.015625 L 74.519531 49.71875 L 74.5 49.570312 L 74.484375 49.421875 L 74.46875 49.269531 L 74.457031 49.121094 L 74.449219 48.96875 L 74.441406 48.820312 L 74.4375 48.667969 L 74.4375 48.515625 Z M 83.078125 56.492188 L 315.691406 56.492188 L 315.691406 57.15625 L 83.078125 57.15625 Z M 315.691406 56.492188 L 315.835938 56.492188 L 315.980469 56.488281 L 316.269531 56.472656 L 316.410156 56.460938 L 316.699219 56.429688 L 316.839844 56.410156 L 316.984375 56.386719 L 317.125 56.363281 L 317.265625 56.335938 L 317.546875 56.273438 L 317.6875 56.238281 L 317.824219 56.203125 L 317.964844 56.160156 L 318.101562 56.121094 L 318.375 56.027344 L 318.511719 55.976562 L 318.644531 55.925781 L 318.910156 55.816406 L 319.042969 55.753906 L 319.171875 55.695312 L 319.429688 55.5625 L 319.554688 55.496094 L 319.679688 55.421875 L 319.804688 55.351562 L 319.925781 55.273438 L 320.046875 55.199219 L 320.167969 55.117188 L 320.402344 54.953125 L 320.519531 54.867188 L 320.746094 54.6875 L 320.964844 54.5 L 321.070312 54.40625 L 321.175781 54.308594 L 321.28125 54.207031 L 321.382812 54.105469 L 321.480469 54 L 321.582031 53.894531 L 321.675781 53.789062 L 321.863281 53.570312 L 322.042969 53.34375 L 322.128906 53.226562 L 322.292969 52.992188 L 322.375 52.871094 L 322.449219 52.75 L 322.527344 52.628906 L 322.597656 52.503906 L 322.671875 52.378906 L 322.738281 52.253906 L 322.804688 52.125 L 322.929688 51.867188 L 323.046875 51.601562 L 323.101562 51.46875 L 323.152344 51.335938 L 323.203125 51.199219 L 323.296875 50.925781 L 323.335938 50.789062 L 323.378906 50.652344 L 323.449219 50.371094 L 323.511719 50.089844 L 323.539062 49.949219 L 323.5625 49.808594 L 323.585938 49.664062 L 323.605469 49.523438 L 323.636719 49.234375 L 323.648438 49.09375 L 323.664062 48.804688 L 323.667969 48.660156 L 323.667969 48.515625 L 324.332031 48.515625 L 324.332031 48.667969 L 324.328125 48.820312 L 324.320312 48.96875 L 324.3125 49.121094 L 324.300781 49.269531 L 324.285156 49.421875 L 324.269531 49.570312 L 324.25 49.71875 L 324.226562 49.867188 L 324.144531 50.3125 L 324.109375 50.460938 L 324.074219 50.605469 L 324.039062 50.753906 L 323.910156 51.1875 L 323.863281 51.328125 L 323.8125 51.472656 L 323.703125 51.753906 L 323.644531 51.894531 L 323.585938 52.03125 L 323.523438 52.167969 L 323.457031 52.304688 L 323.390625 52.4375 L 323.320312 52.574219 L 323.25 52.707031 L 323.175781 52.835938 L 323.097656 52.96875 L 323.019531 53.09375 L 322.9375 53.222656 L 322.855469 53.347656 L 322.769531 53.472656 L 322.683594 53.59375 L 322.59375 53.714844 L 322.5 53.835938 L 322.3125 54.070312 L 322.214844 54.183594 L 322.011719 54.410156 L 321.90625 54.519531 L 321.695312 54.730469 L 321.585938 54.835938 L 321.359375 55.039062 L 321.246094 55.136719 L 321.011719 55.324219 L 320.890625 55.417969 L 320.769531 55.507812 L 320.648438 55.59375 L 320.523438 55.679688 L 320.398438 55.761719 L 320.269531 55.84375 L 320.011719 56 L 319.882812 56.074219 L 319.75 56.144531 L 319.613281 56.214844 L 319.480469 56.28125 L 319.34375 56.347656 L 319.207031 56.410156 L 319.066406 56.46875 L 318.929688 56.527344 L 318.648438 56.636719 L 318.503906 56.6875 L 318.363281 56.734375 L 318.21875 56.78125 L 318.074219 56.820312 L 317.929688 56.863281 L 317.78125 56.898438 L 317.636719 56.933594 L 317.488281 56.96875 L 317.339844 57 L 317.191406 57.027344 L 316.894531 57.074219 L 316.746094 57.09375 L 316.59375 57.109375 L 316.445312 57.125 L 316.296875 57.136719 L 315.992188 57.152344 L 315.84375 57.15625 L 315.691406 57.15625 Z M 323.667969 48.515625 L 323.667969 28.578125 L 324.332031 28.578125 L 324.332031 48.515625 Z M 323.667969 28.578125 L 323.667969 8.640625 L 324.332031 8.640625 L 324.332031 28.578125 Z M 323.667969 8.640625 L 323.667969 8.488281 L 323.671875 8.339844 L 323.679688 8.1875 L 323.6875 8.039062 L 323.699219 7.886719 L 323.714844 7.738281 L 323.730469 7.585938 L 323.75 7.4375 L 323.773438 7.289062 L 323.855469 6.84375 L 323.890625 6.695312 L 323.925781 6.550781 L 323.960938 6.402344 L 324.089844 5.96875 L 324.136719 5.828125 L 324.1875 5.683594 L 324.296875 5.402344 L 324.355469 5.265625 L 324.414062 5.125 L 324.476562 4.988281 L 324.542969 4.851562 L 324.609375 4.71875 L 324.679688 4.582031 L 324.75 4.453125 L 324.824219 4.320312 L 324.980469 4.0625 L 325.0625 3.933594 L 325.144531 3.808594 L 325.230469 3.683594 L 325.316406 3.5625 L 325.40625 3.441406 L 325.5 3.320312 L 325.6875 3.085938 L 325.785156 2.972656 L 325.988281 2.746094 L 326.09375 2.636719 L 326.304688 2.425781 L 326.414062 2.320312 L 326.527344 2.21875 L 326.640625 2.121094 L 326.753906 2.019531 L 326.988281 1.832031 L 327.109375 1.738281 L 327.230469 1.648438 L 327.351562 1.5625 L 327.476562 1.476562 L 327.601562 1.394531 L 327.730469 1.3125 L 327.988281 1.15625 L 328.117188 1.082031 L 328.25 1.011719 L 328.386719 0.941406 L 328.519531 0.875 L 328.65625 0.808594 L 328.792969 0.746094 L 328.933594 0.6875 L 329.070312 0.628906 L 329.351562 0.519531 L 329.496094 0.472656 L 329.636719 0.421875 L 330.070312 0.292969 L 330.21875 0.257812 L 330.363281 0.222656 L 330.511719 0.1875 L 330.957031 0.105469 L 331.105469 0.0859375 L 331.253906 0.0625 L 331.40625 0.046875 L 331.554688 0.03125 L 331.703125 0.0195312 L 332.007812 0.00390625 L 332.15625 0 L 332.308594 0 L 332.308594 0.664062 L 332.164062 0.664062 L 332.019531 0.667969 L 331.730469 0.683594 L 331.589844 0.695312 L 331.300781 0.726562 L 331.160156 0.746094 L 331.015625 0.769531 L 330.875 0.792969 L 330.734375 0.820312 L 330.453125 0.882812 L 330.3125 0.917969 L 330.175781 0.957031 L 330.035156 0.996094 L 329.761719 1.082031 L 329.625 1.128906 L 329.488281 1.179688 L 329.355469 1.230469 L 329.222656 1.285156 L 328.957031 1.402344 L 328.699219 1.527344 L 328.570312 1.59375 L 328.195312 1.804688 L 327.832031 2.039062 L 327.597656 2.203125 L 327.480469 2.289062 L 327.253906 2.46875 L 327.035156 2.65625 L 326.929688 2.75 L 326.824219 2.851562 L 326.71875 2.949219 L 326.617188 3.050781 L 326.519531 3.15625 L 326.417969 3.261719 L 326.324219 3.367188 L 326.136719 3.585938 L 325.957031 3.8125 L 325.871094 3.929688 L 325.707031 4.164062 L 325.625 4.285156 L 325.550781 4.40625 L 325.472656 4.527344 L 325.402344 4.652344 L 325.328125 4.777344 L 325.261719 4.902344 L 325.195312 5.03125 L 325.132812 5.160156 L 325.070312 5.292969 L 325.011719 5.421875 L 324.953125 5.554688 L 324.898438 5.6875 L 324.847656 5.820312 L 324.796875 5.957031 L 324.703125 6.230469 L 324.664062 6.367188 L 324.621094 6.507812 L 324.585938 6.644531 L 324.550781 6.785156 L 324.488281 7.066406 L 324.460938 7.207031 L 324.4375 7.351562 L 324.414062 7.492188 L 324.394531 7.632812 L 324.363281 7.921875 L 324.351562 8.066406 L 324.34375 8.207031 L 324.335938 8.351562 L 324.332031 8.496094 L 324.332031 8.640625 Z M 49.847656 16.617188 L 49.996094 16.617188 L 50.148438 16.621094 L 50.296875 16.628906 L 50.449219 16.636719 L 50.597656 16.648438 L 50.75 16.664062 L 50.898438 16.679688 L 51.046875 16.699219 L 51.199219 16.722656 L 51.347656 16.746094 L 51.496094 16.773438 L 51.640625 16.804688 L 51.789062 16.835938 L 51.9375 16.871094 L 52.226562 16.949219 L 52.371094 16.992188 L 52.660156 17.085938 L 52.941406 17.1875 L 53.082031 17.246094 L 53.222656 17.300781 L 53.632812 17.488281 L 53.769531 17.558594 L 53.902344 17.625 L 54.167969 17.773438 L 54.296875 17.847656 L 54.425781 17.929688 L 54.550781 18.007812 L 54.925781 18.265625 L 55.046875 18.355469 L 55.164062 18.445312 L 55.285156 18.539062 L 55.398438 18.636719 L 55.515625 18.734375 L 55.628906 18.835938 L 55.847656 19.039062 L 55.957031 19.144531 L 56.0625 19.253906 L 56.265625 19.472656 L 56.367188 19.585938 L 56.464844 19.703125 L 56.5625 19.816406 L 56.65625 19.9375 L 56.746094 20.054688 L 56.835938 20.175781 L 57.09375 20.550781 L 57.171875 20.675781 L 57.253906 20.804688 L 57.328125 20.933594 L 57.476562 21.199219 L 57.542969 21.332031 L 57.613281 21.46875 L 57.800781 21.878906 L 57.855469 22.019531 L 57.914062 22.160156 L 58.015625 22.441406 L 58.109375 22.730469 L 58.152344 22.875 L 58.230469 23.164062 L 58.265625 23.3125 L 58.296875 23.460938 L 58.328125 23.605469 L 58.355469 23.753906 L 58.378906 23.902344 L 58.402344 24.054688 L 58.421875 24.203125 L 58.4375 24.351562 L 58.453125 24.503906 L 58.464844 24.652344 L 58.472656 24.804688 L 58.480469 24.953125 L 58.484375 25.105469 L 58.484375 25.253906 L 57.820312 25.253906 L 57.820312 25.113281 L 57.816406 24.96875 L 57.800781 24.679688 L 57.789062 24.535156 L 57.773438 24.394531 L 57.757812 24.25 L 57.738281 24.105469 L 57.691406 23.824219 L 57.664062 23.683594 L 57.636719 23.539062 L 57.601562 23.402344 L 57.53125 23.121094 L 57.492188 22.984375 L 57.449219 22.84375 L 57.402344 22.707031 L 57.355469 22.574219 L 57.308594 22.4375 L 57.144531 22.039062 L 57.085938 21.90625 L 57.023438 21.777344 L 56.890625 21.519531 L 56.824219 21.394531 L 56.753906 21.269531 L 56.605469 21.019531 L 56.527344 20.898438 L 56.449219 20.78125 L 56.367188 20.660156 L 56.28125 20.542969 L 56.195312 20.429688 L 56.015625 20.203125 L 55.925781 20.09375 L 55.832031 19.984375 L 55.734375 19.875 L 55.636719 19.769531 L 55.332031 19.464844 L 55.226562 19.367188 L 55.117188 19.269531 L 55.007812 19.175781 L 54.898438 19.085938 L 54.671875 18.90625 L 54.558594 18.820312 L 54.441406 18.734375 L 54.320312 18.652344 L 54.203125 18.574219 L 54.082031 18.496094 L 53.832031 18.347656 L 53.707031 18.277344 L 53.582031 18.210938 L 53.324219 18.078125 L 53.195312 18.015625 L 53.0625 17.957031 L 52.664062 17.792969 L 52.527344 17.746094 L 52.394531 17.699219 L 52.253906 17.652344 L 52.117188 17.609375 L 51.980469 17.570312 L 51.699219 17.5 L 51.5625 17.464844 L 51.417969 17.4375 L 51.277344 17.410156 L 51.136719 17.386719 L 50.992188 17.363281 L 50.851562 17.34375 L 50.707031 17.328125 L 50.566406 17.3125 L 50.421875 17.300781 L 50.132812 17.285156 L 49.988281 17.28125 L 49.847656 17.28125 Z M 58.484375 25.253906 L 58.484375 40.210938 L 57.820312 40.210938 L 57.820312 25.253906 Z M 58.484375 40.210938 L 58.484375 55.164062 L 57.820312 55.164062 L 57.820312 40.210938 Z M 58.484375 55.164062 L 58.488281 55.308594 L 58.492188 55.449219 L 58.496094 55.59375 L 58.519531 55.882812 L 58.53125 56.023438 L 58.570312 56.3125 L 58.589844 56.453125 L 58.617188 56.59375 L 58.644531 56.738281 L 58.671875 56.878906 L 58.703125 57.019531 L 58.738281 57.15625 L 58.777344 57.296875 L 58.816406 57.433594 L 58.859375 57.574219 L 58.902344 57.710938 L 58.949219 57.84375 L 59 57.980469 L 59.050781 58.113281 L 59.105469 58.25 L 59.164062 58.378906 L 59.222656 58.511719 L 59.347656 58.769531 L 59.414062 58.898438 L 59.484375 59.027344 L 59.554688 59.152344 L 59.628906 59.273438 L 59.703125 59.398438 L 59.859375 59.640625 L 59.941406 59.757812 L 60.027344 59.875 L 60.199219 60.101562 L 60.289062 60.214844 L 60.382812 60.328125 L 60.476562 60.433594 L 60.574219 60.542969 L 60.671875 60.648438 L 60.769531 60.75 L 60.875 60.851562 L 60.976562 60.953125 L 61.082031 61.050781 L 61.191406 61.148438 L 61.296875 61.242188 L 61.410156 61.332031 L 61.519531 61.425781 L 61.636719 61.511719 L 61.75 61.597656 L 61.867188 61.683594 L 61.984375 61.765625 L 62.226562 61.921875 L 62.351562 61.996094 L 62.472656 62.070312 L 62.597656 62.140625 L 62.726562 62.210938 L 62.855469 62.277344 L 63.113281 62.402344 L 63.242188 62.460938 L 63.507812 62.570312 L 63.644531 62.625 L 63.777344 62.671875 L 63.914062 62.722656 L 64.050781 62.765625 L 64.191406 62.808594 L 64.328125 62.847656 L 64.46875 62.886719 L 64.605469 62.917969 L 64.746094 62.953125 L 64.886719 62.980469 L 65.03125 63.007812 L 65.171875 63.035156 L 65.3125 63.054688 L 65.457031 63.074219 L 65.597656 63.089844 L 65.742188 63.105469 L 65.886719 63.117188 L 66.03125 63.125 L 66.171875 63.132812 L 66.316406 63.136719 L 66.460938 63.136719 L 66.460938 63.804688 L 66.3125 63.800781 L 66.007812 63.792969 L 65.859375 63.78125 L 65.707031 63.769531 L 65.410156 63.738281 L 65.257812 63.71875 L 64.960938 63.671875 L 64.8125 63.644531 L 64.664062 63.613281 L 64.519531 63.582031 L 64.371094 63.546875 L 64.226562 63.507812 L 64.078125 63.46875 L 63.933594 63.425781 L 63.792969 63.378906 L 63.648438 63.332031 L 63.367188 63.230469 L 63.226562 63.175781 L 63.085938 63.117188 L 62.949219 63.054688 L 62.808594 62.992188 L 62.675781 62.929688 L 62.539062 62.863281 L 62.40625 62.792969 L 62.140625 62.644531 L 62.011719 62.570312 L 61.882812 62.488281 L 61.753906 62.410156 L 61.628906 62.324219 L 61.503906 62.242188 L 61.140625 61.972656 L 61.023438 61.878906 L 60.90625 61.78125 L 60.792969 61.683594 L 60.679688 61.582031 L 60.460938 61.378906 L 60.351562 61.273438 L 60.246094 61.164062 L 60.144531 61.054688 L 60.039062 60.945312 L 59.941406 60.832031 L 59.84375 60.714844 L 59.746094 60.601562 L 59.652344 60.480469 L 59.5625 60.363281 L 59.472656 60.242188 L 59.382812 60.117188 L 59.296875 59.996094 L 59.214844 59.867188 L 59.132812 59.742188 L 59.054688 59.613281 L 58.980469 59.484375 L 58.832031 59.21875 L 58.761719 59.085938 L 58.695312 58.949219 L 58.632812 58.816406 L 58.570312 58.675781 L 58.507812 58.539062 L 58.449219 58.398438 L 58.394531 58.257812 L 58.292969 57.976562 L 58.199219 57.6875 L 58.15625 57.542969 L 58.078125 57.253906 L 58.042969 57.105469 L 58.011719 56.960938 L 57.980469 56.8125 L 57.953125 56.664062 L 57.90625 56.367188 L 57.886719 56.214844 L 57.867188 56.066406 L 57.855469 55.917969 L 57.84375 55.765625 L 57.832031 55.617188 L 57.824219 55.3125 L 57.820312 55.164062 Z M 66.460938 63.136719 L 348.921875 63.136719 L 348.921875 63.804688 L 66.460938 63.804688 Z M 348.921875 63.136719 L 365.539062 63.136719 L 365.539062 63.804688 L 348.921875 63.804688 Z M 365.539062 63.136719 L 365.683594 63.136719 L 365.828125 63.132812 L 365.96875 63.125 L 366.113281 63.117188 L 366.257812 63.105469 L 366.402344 63.089844 L 366.542969 63.074219 L 366.6875 63.054688 L 366.828125 63.035156 L 366.96875 63.007812 L 367.113281 62.980469 L 367.253906 62.953125 L 367.394531 62.917969 L 367.53125 62.886719 L 367.671875 62.847656 L 367.808594 62.808594 L 367.949219 62.765625 L 368.085938 62.722656 L 368.222656 62.671875 L 368.355469 62.625 L 368.492188 62.570312 L 368.757812 62.460938 L 368.886719 62.402344 L 369.144531 62.277344 L 369.273438 62.210938 L 369.402344 62.140625 L 369.527344 62.070312 L 369.648438 61.996094 L 369.773438 61.921875 L 370.015625 61.765625 L 370.132812 61.683594 L 370.25 61.597656 L 370.363281 61.511719 L 370.480469 61.425781 L 370.589844 61.332031 L 370.703125 61.242188 L 370.808594 61.148438 L 370.917969 61.050781 L 371.023438 60.953125 L 371.125 60.851562 L 371.230469 60.75 L 371.328125 60.648438 L 371.425781 60.542969 L 371.523438 60.433594 L 371.617188 60.328125 L 371.710938 60.214844 L 371.800781 60.101562 L 371.972656 59.875 L 372.058594 59.757812 L 372.140625 59.640625 L 372.296875 59.398438 L 372.371094 59.273438 L 372.445312 59.152344 L 372.515625 59.027344 L 372.585938 58.898438 L 372.652344 58.769531 L 372.777344 58.511719 L 372.835938 58.378906 L 372.894531 58.25 L 372.949219 58.113281 L 373 57.980469 L 373.050781 57.84375 L 373.097656 57.710938 L 373.140625 57.574219 L 373.183594 57.433594 L 373.222656 57.296875 L 373.261719 57.15625 L 373.296875 57.019531 L 373.328125 56.878906 L 373.355469 56.738281 L 373.382812 56.59375 L 373.410156 56.453125 L 373.429688 56.3125 L 373.46875 56.023438 L 373.480469 55.882812 L 373.503906 55.59375 L 373.507812 55.449219 L 373.511719 55.308594 L 373.515625 55.164062 L 374.179688 55.164062 L 374.175781 55.3125 L 374.167969 55.617188 L 374.15625 55.765625 L 374.144531 55.917969 L 374.132812 56.066406 L 374.113281 56.214844 L 374.09375 56.367188 L 374.046875 56.664062 L 374.019531 56.8125 L 373.988281 56.960938 L 373.957031 57.105469 L 373.921875 57.253906 L 373.84375 57.542969 L 373.800781 57.6875 L 373.707031 57.976562 L 373.605469 58.257812 L 373.550781 58.398438 L 373.492188 58.539062 L 373.429688 58.675781 L 373.367188 58.816406 L 373.304688 58.949219 L 373.238281 59.085938 L 373.167969 59.21875 L 373.019531 59.484375 L 372.945312 59.613281 L 372.867188 59.742188 L 372.785156 59.867188 L 372.703125 59.996094 L 372.617188 60.117188 L 372.527344 60.242188 L 372.4375 60.363281 L 372.347656 60.480469 L 372.253906 60.601562 L 372.15625 60.714844 L 372.058594 60.832031 L 371.960938 60.945312 L 371.855469 61.054688 L 371.753906 61.164062 L 371.648438 61.273438 L 371.539062 61.378906 L 371.320312 61.582031 L 371.207031 61.683594 L 371.09375 61.78125 L 370.976562 61.878906 L 370.859375 61.972656 L 370.496094 62.242188 L 370.371094 62.324219 L 370.246094 62.410156 L 370.117188 62.488281 L 369.988281 62.570312 L 369.859375 62.644531 L 369.59375 62.792969 L 369.460938 62.863281 L 369.324219 62.929688 L 369.191406 62.992188 L 369.050781 63.054688 L 368.914062 63.117188 L 368.773438 63.175781 L 368.632812 63.230469 L 368.351562 63.332031 L 368.207031 63.378906 L 368.066406 63.425781 L 367.921875 63.46875 L 367.773438 63.507812 L 367.628906 63.546875 L 367.480469 63.582031 L 367.335938 63.613281 L 367.1875 63.644531 L 367.039062 63.671875 L 366.742188 63.71875 L 366.589844 63.738281 L 366.292969 63.769531 L 366.140625 63.78125 L 365.992188 63.792969 L 365.6875 63.800781 L 365.539062 63.804688 Z M 373.515625 55.164062 L 373.515625 40.210938 L 374.179688 40.210938 L 374.179688 55.164062 Z M 373.515625 40.210938 L 373.515625 25.253906 L 374.179688 25.253906 L 374.179688 40.210938 Z M 373.515625 25.253906 L 373.515625 25.105469 L 373.519531 24.953125 L 373.527344 24.804688 L 373.535156 24.652344 L 373.546875 24.503906 L 373.5625 24.351562 L 373.578125 24.203125 L 373.597656 24.054688 L 373.621094 23.902344 L 373.644531 23.753906 L 373.671875 23.605469 L 373.703125 23.460938 L 373.734375 23.3125 L 373.769531 23.164062 L 373.847656 22.875 L 373.890625 22.730469 L 373.984375 22.441406 L 374.085938 22.160156 L 374.144531 22.019531 L 374.199219 21.878906 L 374.386719 21.46875 L 374.457031 21.332031 L 374.523438 21.199219 L 374.671875 20.933594 L 374.746094 20.804688 L 374.828125 20.675781 L 374.90625 20.550781 L 375.164062 20.175781 L 375.253906 20.054688 L 375.34375 19.9375 L 375.4375 19.816406 L 375.535156 19.703125 L 375.632812 19.585938 L 375.734375 19.472656 L 375.9375 19.253906 L 376.042969 19.144531 L 376.152344 19.039062 L 376.371094 18.835938 L 376.484375 18.734375 L 376.601562 18.636719 L 376.714844 18.539062 L 376.835938 18.445312 L 376.953125 18.355469 L 377.074219 18.265625 L 377.449219 18.007812 L 377.574219 17.929688 L 377.703125 17.847656 L 377.832031 17.773438 L 378.097656 17.625 L 378.230469 17.558594 L 378.367188 17.488281 L 378.777344 17.300781 L 378.917969 17.246094 L 379.058594 17.1875 L 379.339844 17.085938 L 379.628906 16.992188 L 379.773438 16.949219 L 380.0625 16.871094 L 380.210938 16.835938 L 380.359375 16.804688 L 380.503906 16.773438 L 380.652344 16.746094 L 380.800781 16.722656 L 380.953125 16.699219 L 381.101562 16.679688 L 381.25 16.664062 L 381.402344 16.648438 L 381.550781 16.636719 L 381.703125 16.628906 L 381.851562 16.621094 L 382.003906 16.617188 L 382.152344 16.617188 L 382.152344 17.28125 L 382.011719 17.28125 L 381.867188 17.285156 L 381.578125 17.300781 L 381.433594 17.3125 L 381.292969 17.328125 L 381.148438 17.34375 L 381.007812 17.363281 L 380.863281 17.386719 L 380.722656 17.410156 L 380.582031 17.4375 L 380.4375 17.464844 L 380.300781 17.5 L 380.019531 17.570312 L 379.882812 17.609375 L 379.746094 17.652344 L 379.605469 17.699219 L 379.472656 17.746094 L 379.335938 17.792969 L 378.9375 17.957031 L 378.804688 18.015625 L 378.675781 18.078125 L 378.417969 18.210938 L 378.292969 18.277344 L 378.167969 18.347656 L 377.917969 18.496094 L 377.796875 18.574219 L 377.679688 18.652344 L 377.558594 18.734375 L 377.441406 18.820312 L 377.328125 18.90625 L 377.101562 19.085938 L 376.992188 19.175781 L 376.882812 19.269531 L 376.773438 19.367188 L 376.667969 19.464844 L 376.363281 19.769531 L 376.265625 19.875 L 376.167969 19.984375 L 376.074219 20.09375 L 375.984375 20.203125 L 375.804688 20.429688 L 375.71875 20.542969 L 375.632812 20.660156 L 375.550781 20.78125 L 375.472656 20.898438 L 375.394531 21.019531 L 375.246094 21.269531 L 375.175781 21.394531 L 375.109375 21.519531 L 374.976562 21.777344 L 374.914062 21.90625 L 374.855469 22.039062 L 374.691406 22.4375 L 374.644531 22.574219 L 374.597656 22.707031 L 374.550781 22.84375 L 374.507812 22.984375 L 374.46875 23.121094 L 374.398438 23.402344 L 374.363281 23.539062 L 374.335938 23.683594 L 374.308594 23.824219 L 374.261719 24.105469 L 374.242188 24.25 L 374.226562 24.394531 L 374.210938 24.535156 L 374.199219 24.679688 L 374.183594 24.96875 L 374.179688 25.113281 L 374.179688 25.253906 Z M 382.152344 16.617188 L 398.769531 16.617188 L 398.769531 17.28125 L 382.152344 17.28125 Z M 0 99.691406 L 16.617188 99.691406 L 16.617188 100.355469 L 0 100.355469 Z M 16.617188 99.691406 L 16.757812 99.691406 L 16.902344 99.6875 L 17.191406 99.671875 L 17.335938 99.660156 L 17.476562 99.644531 L 17.621094 99.628906 L 17.761719 99.609375 L 17.90625 99.585938 L 18.046875 99.5625 L 18.1875 99.535156 L 18.46875 99.472656 L 18.75 99.402344 L 18.886719 99.363281 L 19.023438 99.320312 L 19.433594 99.179688 L 19.832031 99.015625 L 19.964844 98.957031 L 20.09375 98.894531 L 20.351562 98.761719 L 20.476562 98.695312 L 20.601562 98.625 L 20.851562 98.476562 L 20.972656 98.398438 L 21.089844 98.316406 L 21.210938 98.234375 L 21.328125 98.152344 L 21.441406 98.066406 L 21.667969 97.886719 L 21.777344 97.796875 L 21.886719 97.703125 L 21.996094 97.605469 L 22.101562 97.507812 L 22.40625 97.203125 L 22.503906 97.097656 L 22.601562 96.988281 L 22.695312 96.878906 L 22.785156 96.769531 L 22.964844 96.542969 L 23.050781 96.429688 L 23.132812 96.3125 L 23.214844 96.191406 L 23.296875 96.074219 L 23.375 95.953125 L 23.523438 95.703125 L 23.59375 95.578125 L 23.660156 95.453125 L 23.792969 95.195312 L 23.855469 95.066406 L 23.914062 94.933594 L 24.078125 94.535156 L 24.21875 94.125 L 24.261719 93.988281 L 24.300781 93.851562 L 24.40625 93.429688 L 24.460938 93.148438 L 24.484375 93.007812 L 24.507812 92.863281 L 24.527344 92.722656 L 24.542969 92.578125 L 24.558594 92.4375 L 24.570312 92.292969 L 24.585938 92.003906 L 24.589844 91.859375 L 24.589844 91.71875 L 25.253906 91.71875 L 25.253906 91.867188 L 25.25 92.019531 L 25.242188 92.167969 L 25.234375 92.320312 L 25.222656 92.46875 L 25.207031 92.621094 L 25.191406 92.769531 L 25.171875 92.917969 L 25.148438 93.070312 L 25.125 93.21875 L 25.097656 93.367188 L 25.066406 93.511719 L 25.035156 93.660156 L 25 93.808594 L 24.921875 94.097656 L 24.878906 94.242188 L 24.785156 94.53125 L 24.734375 94.671875 L 24.570312 95.09375 L 24.382812 95.503906 L 24.3125 95.640625 L 24.171875 95.90625 L 24.097656 96.035156 L 24.019531 96.167969 L 23.941406 96.296875 L 23.863281 96.421875 L 23.605469 96.796875 L 23.515625 96.917969 L 23.234375 97.269531 L 23.136719 97.386719 L 23.035156 97.5 L 22.832031 97.71875 L 22.726562 97.828125 L 22.617188 97.933594 L 22.398438 98.136719 L 22.285156 98.238281 L 22.167969 98.335938 L 21.816406 98.617188 L 21.695312 98.707031 L 21.320312 98.964844 L 21.195312 99.042969 L 21.066406 99.121094 L 20.933594 99.199219 L 20.804688 99.273438 L 20.539062 99.414062 L 20.402344 99.484375 L 19.992188 99.671875 L 19.570312 99.835938 L 19.429688 99.886719 L 19.140625 99.980469 L 18.996094 100.023438 L 18.707031 100.101562 L 18.558594 100.136719 L 18.410156 100.167969 L 18.265625 100.199219 L 18.117188 100.226562 L 17.96875 100.25 L 17.816406 100.273438 L 17.667969 100.292969 L 17.519531 100.308594 L 17.367188 100.324219 L 17.21875 100.335938 L 17.066406 100.34375 L 16.917969 100.351562 L 16.765625 100.355469 L 16.617188 100.355469 Z M 24.589844 91.71875 L 24.589844 85.070312 L 25.253906 85.070312 L 25.253906 91.71875 Z M 24.589844 85.070312 L 24.589844 78.425781 L 25.253906 78.425781 L 25.253906 85.070312 Z M 24.589844 78.425781 L 24.59375 78.273438 L 24.597656 78.125 L 24.601562 77.972656 L 24.613281 77.820312 L 24.636719 77.523438 L 24.65625 77.371094 L 24.695312 77.074219 L 24.75 76.777344 L 24.8125 76.480469 L 24.847656 76.335938 L 24.886719 76.1875 L 24.925781 76.042969 L 25.011719 75.753906 L 25.0625 75.613281 L 25.113281 75.46875 L 25.164062 75.328125 L 25.21875 75.1875 L 25.277344 75.046875 L 25.335938 74.910156 L 25.398438 74.773438 L 25.464844 74.636719 L 25.53125 74.503906 L 25.601562 74.367188 L 25.675781 74.234375 L 25.824219 73.976562 L 25.902344 73.847656 L 25.984375 73.71875 L 26.066406 73.59375 L 26.152344 73.46875 L 26.421875 73.105469 L 26.515625 72.988281 L 26.613281 72.871094 L 26.808594 72.644531 L 26.910156 72.53125 L 27.015625 72.421875 L 27.121094 72.316406 L 27.339844 72.105469 L 27.449219 72.003906 L 27.5625 71.902344 L 27.675781 71.804688 L 27.910156 71.617188 L 28.03125 71.523438 L 28.152344 71.433594 L 28.273438 71.347656 L 28.398438 71.261719 L 28.523438 71.179688 L 28.652344 71.097656 L 28.910156 70.941406 L 29.042969 70.867188 L 29.308594 70.726562 L 29.441406 70.660156 L 29.578125 70.59375 L 29.714844 70.53125 L 29.996094 70.414062 L 30.132812 70.359375 L 30.277344 70.304688 L 30.417969 70.253906 L 30.5625 70.207031 L 30.703125 70.164062 L 30.847656 70.121094 L 30.996094 70.078125 L 31.140625 70.042969 L 31.289062 70.007812 L 31.433594 69.972656 L 31.582031 69.941406 L 31.730469 69.914062 L 32.027344 69.867188 L 32.179688 69.847656 L 32.476562 69.816406 L 32.628906 69.804688 L 32.777344 69.796875 L 32.929688 69.789062 L 33.078125 69.785156 L 33.230469 69.785156 L 33.230469 70.449219 L 33.085938 70.449219 L 32.941406 70.453125 L 32.800781 70.460938 L 32.65625 70.46875 L 32.511719 70.480469 L 32.367188 70.496094 L 32.226562 70.511719 L 32.082031 70.53125 L 31.941406 70.554688 L 31.796875 70.578125 L 31.65625 70.605469 L 31.375 70.667969 L 31.234375 70.703125 L 31.097656 70.738281 L 30.957031 70.78125 L 30.820312 70.820312 L 30.546875 70.914062 L 30.414062 70.964844 L 30.277344 71.015625 L 30.144531 71.070312 L 30.011719 71.128906 L 29.882812 71.1875 L 29.75 71.246094 L 29.621094 71.3125 L 29.496094 71.378906 L 29.367188 71.445312 L 29.242188 71.519531 L 29.117188 71.589844 L 28.996094 71.667969 L 28.875 71.742188 L 28.753906 71.824219 L 28.519531 71.988281 L 28.402344 72.074219 L 28.289062 72.164062 L 28.179688 72.253906 L 28.066406 72.347656 L 27.957031 72.441406 L 27.851562 72.535156 L 27.746094 72.632812 L 27.640625 72.734375 L 27.539062 72.835938 L 27.246094 73.152344 L 27.058594 73.371094 L 26.96875 73.484375 L 26.882812 73.597656 L 26.710938 73.832031 L 26.628906 73.949219 L 26.472656 74.191406 L 26.398438 74.3125 L 26.324219 74.4375 L 26.183594 74.6875 L 26.117188 74.816406 L 25.992188 75.074219 L 25.875 75.339844 L 25.820312 75.472656 L 25.769531 75.605469 L 25.71875 75.742188 L 25.671875 75.878906 L 25.585938 76.152344 L 25.546875 76.289062 L 25.507812 76.429688 L 25.472656 76.570312 L 25.441406 76.710938 L 25.359375 77.132812 L 25.339844 77.277344 L 25.320312 77.417969 L 25.300781 77.5625 L 25.289062 77.707031 L 25.277344 77.847656 L 25.265625 77.992188 L 25.253906 78.425781 Z M 33.230469 69.785156 L 49.847656 69.785156 L 49.847656 70.449219 L 33.230469 70.449219 Z M 49.847656 69.785156 L 348.921875 69.785156 L 348.921875 70.449219 L 49.847656 70.449219 Z M 348.921875 69.785156 L 382.152344 69.785156 L 382.152344 70.449219 L 348.921875 70.449219 Z M 382.152344 69.785156 L 382.296875 69.785156 L 382.441406 69.78125 L 382.730469 69.765625 L 382.871094 69.753906 L 383.160156 69.722656 L 383.300781 69.703125 L 383.445312 69.679688 L 383.585938 69.65625 L 383.726562 69.628906 L 384.007812 69.566406 L 384.148438 69.53125 L 384.289062 69.492188 L 384.425781 69.453125 L 384.699219 69.367188 L 384.835938 69.320312 L 384.972656 69.269531 L 385.105469 69.21875 L 385.238281 69.164062 L 385.503906 69.046875 L 385.761719 68.921875 L 385.890625 68.855469 L 386.265625 68.644531 L 386.628906 68.410156 L 386.863281 68.246094 L 386.980469 68.160156 L 387.207031 67.980469 L 387.425781 67.792969 L 387.53125 67.699219 L 387.636719 67.597656 L 387.742188 67.5 L 387.84375 67.398438 L 387.945312 67.292969 L 388.042969 67.1875 L 388.136719 67.082031 L 388.324219 66.863281 L 388.503906 66.636719 L 388.589844 66.519531 L 388.753906 66.285156 L 388.835938 66.164062 L 388.914062 66.042969 L 388.988281 65.921875 L 389.0625 65.796875 L 389.132812 65.671875 L 389.199219 65.546875 L 389.332031 65.289062 L 389.390625 65.15625 L 389.453125 65.027344 L 389.5625 64.761719 L 389.613281 64.628906 L 389.664062 64.492188 L 389.757812 64.21875 L 389.796875 64.082031 L 389.839844 63.941406 L 389.875 63.804688 L 389.910156 63.664062 L 389.972656 63.382812 L 390 63.242188 L 390.023438 63.097656 L 390.046875 62.957031 L 390.066406 62.816406 L 390.097656 62.527344 L 390.109375 62.382812 L 390.117188 62.242188 L 390.125 62.097656 L 390.128906 61.953125 L 390.128906 61.808594 L 390.792969 61.808594 L 390.792969 61.960938 L 390.789062 62.109375 L 390.78125 62.261719 L 390.773438 62.410156 L 390.761719 62.5625 L 390.746094 62.710938 L 390.730469 62.863281 L 390.710938 63.011719 L 390.664062 63.308594 L 390.636719 63.457031 L 390.574219 63.753906 L 390.539062 63.898438 L 390.5 64.046875 L 390.460938 64.191406 L 390.417969 64.335938 L 390.371094 64.480469 L 390.324219 64.621094 L 390.273438 64.765625 L 390.164062 65.046875 L 390.105469 65.183594 L 390.046875 65.324219 L 389.984375 65.460938 L 389.917969 65.597656 L 389.851562 65.730469 L 389.78125 65.867188 L 389.710938 65.996094 L 389.636719 66.128906 L 389.480469 66.386719 L 389.398438 66.515625 L 389.316406 66.640625 L 389.230469 66.765625 L 389.144531 66.886719 L 389.054688 67.007812 L 388.960938 67.128906 L 388.773438 67.363281 L 388.675781 67.476562 L 388.472656 67.703125 L 388.367188 67.8125 L 388.15625 68.023438 L 388.046875 68.128906 L 387.933594 68.230469 L 387.820312 68.328125 L 387.707031 68.429688 L 387.355469 68.710938 L 387.230469 68.800781 L 387.109375 68.886719 L 386.984375 68.972656 L 386.859375 69.054688 L 386.730469 69.136719 L 386.605469 69.214844 L 386.472656 69.292969 L 386.34375 69.367188 L 386.078125 69.507812 L 385.804688 69.640625 L 385.667969 69.703125 L 385.53125 69.761719 L 385.390625 69.820312 L 385.109375 69.929688 L 384.964844 69.976562 L 384.824219 70.027344 L 384.390625 70.15625 L 384.242188 70.191406 L 384.097656 70.226562 L 383.949219 70.261719 L 383.503906 70.34375 L 383.355469 70.363281 L 383.207031 70.386719 L 383.058594 70.402344 L 382.90625 70.417969 L 382.757812 70.429688 L 382.605469 70.4375 L 382.457031 70.445312 L 382.304688 70.449219 L 382.152344 70.449219 Z M 390.128906 61.808594 L 390.128906 60.148438 L 390.792969 60.148438 L 390.792969 61.808594 Z M 390.128906 60.148438 L 390.128906 58.484375 L 390.792969 58.484375 L 390.792969 60.148438 Z M 390.128906 58.484375 L 390.128906 58.335938 L 390.132812 58.183594 L 390.140625 58.035156 L 390.148438 57.882812 L 390.160156 57.734375 L 390.175781 57.582031 L 390.214844 57.285156 L 390.234375 57.132812 L 390.289062 56.835938 L 390.316406 56.691406 L 390.386719 56.394531 L 390.421875 56.25 L 390.550781 55.816406 L 390.601562 55.671875 L 390.648438 55.53125 L 390.757812 55.25 L 390.816406 55.109375 L 390.875 54.972656 L 390.9375 54.835938 L 391.070312 54.5625 L 391.210938 54.296875 L 391.285156 54.167969 L 391.363281 54.035156 L 391.441406 53.90625 L 391.605469 53.65625 L 391.691406 53.53125 L 391.78125 53.40625 L 391.867188 53.285156 L 391.960938 53.167969 L 392.054688 53.046875 L 392.152344 52.933594 L 392.25 52.816406 L 392.347656 52.703125 L 392.449219 52.59375 L 392.660156 52.375 L 392.765625 52.269531 L 392.875 52.167969 L 393.101562 51.964844 L 393.214844 51.867188 L 393.449219 51.679688 L 393.570312 51.585938 L 393.691406 51.496094 L 393.8125 51.410156 L 394.0625 51.238281 L 394.449219 51.003906 L 394.582031 50.929688 L 394.980469 50.71875 L 395.253906 50.59375 L 395.394531 50.53125 L 395.53125 50.476562 L 395.8125 50.367188 L 395.957031 50.316406 L 396.097656 50.269531 L 396.242188 50.222656 L 396.386719 50.179688 L 396.53125 50.140625 L 396.679688 50.101562 L 396.824219 50.066406 L 397.121094 50.003906 L 397.269531 49.976562 L 397.566406 49.929688 L 397.714844 49.910156 L 397.867188 49.894531 L 398.015625 49.878906 L 398.167969 49.867188 L 398.316406 49.859375 L 398.46875 49.851562 L 398.617188 49.847656 L 398.769531 49.847656 L 398.769531 50.511719 L 398.625 50.511719 L 398.480469 50.515625 L 398.335938 50.523438 L 398.195312 50.53125 L 398.050781 50.542969 L 397.90625 50.558594 L 397.765625 50.574219 L 397.621094 50.59375 L 397.480469 50.617188 L 397.335938 50.640625 L 397.054688 50.695312 L 396.773438 50.765625 L 396.636719 50.800781 L 396.496094 50.839844 L 396.359375 50.882812 L 396.085938 50.976562 L 395.953125 51.023438 L 395.816406 51.078125 L 395.550781 51.1875 L 395.421875 51.246094 L 395.289062 51.308594 L 395.160156 51.375 L 395.035156 51.441406 L 394.90625 51.507812 L 394.78125 51.578125 L 394.65625 51.652344 L 394.535156 51.726562 L 394.414062 51.804688 L 394.292969 51.886719 L 394.058594 52.050781 L 393.941406 52.136719 L 393.714844 52.316406 L 393.605469 52.40625 L 393.496094 52.5 L 393.285156 52.695312 L 393.179688 52.796875 L 393.078125 52.898438 L 392.980469 53 L 392.882812 53.105469 L 392.785156 53.214844 L 392.597656 53.433594 L 392.507812 53.546875 L 392.421875 53.660156 L 392.332031 53.773438 L 392.25 53.890625 L 392.167969 54.011719 L 392.089844 54.128906 L 392.011719 54.25 L 391.933594 54.375 L 391.722656 54.75 L 391.65625 54.878906 L 391.53125 55.136719 L 391.414062 55.402344 L 391.359375 55.535156 L 391.308594 55.667969 L 391.257812 55.804688 L 391.210938 55.941406 L 391.125 56.214844 L 391.085938 56.351562 L 391.046875 56.492188 L 391.011719 56.632812 L 390.949219 56.914062 L 390.921875 57.054688 L 390.898438 57.195312 L 390.875 57.339844 L 390.859375 57.480469 L 390.839844 57.625 L 390.828125 57.765625 L 390.804688 58.054688 L 390.796875 58.34375 L 390.792969 58.484375 Z M 398.769531 49.847656 L 432 49.847656 L 432 50.511719 L 398.769531 50.511719 Z M 232.617188 116.308594 L 232.757812 116.304688 L 233.046875 116.296875 L 233.335938 116.273438 L 233.476562 116.261719 L 233.621094 116.242188 L 233.761719 116.226562 L 233.90625 116.203125 L 234.046875 116.179688 L 234.1875 116.152344 L 234.46875 116.089844 L 234.609375 116.054688 L 234.75 116.015625 L 234.886719 115.976562 L 235.160156 115.890625 L 235.296875 115.84375 L 235.433594 115.792969 L 235.566406 115.742188 L 235.699219 115.6875 L 235.964844 115.570312 L 236.222656 115.445312 L 236.351562 115.378906 L 236.726562 115.167969 L 236.851562 115.089844 L 236.972656 115.011719 L 237.089844 114.933594 L 237.210938 114.851562 L 237.328125 114.765625 L 237.554688 114.59375 L 237.667969 114.503906 L 237.886719 114.316406 L 237.996094 114.21875 L 238.101562 114.121094 L 238.203125 114.023438 L 238.304688 113.921875 L 238.40625 113.816406 L 238.601562 113.605469 L 238.695312 113.496094 L 238.785156 113.386719 L 238.964844 113.160156 L 239.050781 113.042969 L 239.214844 112.808594 L 239.296875 112.6875 L 239.375 112.566406 L 239.449219 112.445312 L 239.523438 112.320312 L 239.59375 112.195312 L 239.660156 112.066406 L 239.726562 111.941406 L 239.792969 111.8125 L 239.855469 111.679688 L 239.914062 111.550781 L 240.023438 111.285156 L 240.078125 111.148438 L 240.125 111.015625 L 240.21875 110.742188 L 240.261719 110.605469 L 240.300781 110.464844 L 240.335938 110.328125 L 240.40625 110.046875 L 240.460938 109.765625 L 240.484375 109.621094 L 240.507812 109.480469 L 240.527344 109.335938 L 240.542969 109.195312 L 240.558594 109.050781 L 240.570312 108.90625 L 240.578125 108.765625 L 240.585938 108.621094 L 240.589844 108.476562 L 240.589844 108.332031 L 241.253906 108.332031 L 241.253906 108.484375 L 241.25 108.632812 L 241.242188 108.785156 L 241.234375 108.933594 L 241.222656 109.085938 L 241.207031 109.234375 L 241.191406 109.386719 L 241.171875 109.535156 L 241.125 109.832031 L 241.097656 109.980469 L 241.035156 110.277344 L 241 110.421875 L 240.960938 110.570312 L 240.921875 110.714844 L 240.878906 110.859375 L 240.832031 111.003906 L 240.785156 111.144531 L 240.734375 111.289062 L 240.625 111.570312 L 240.570312 111.707031 L 240.507812 111.847656 L 240.382812 112.121094 L 240.171875 112.519531 L 240.097656 112.652344 L 239.863281 113.039062 L 239.691406 113.289062 L 239.605469 113.410156 L 239.515625 113.53125 L 239.421875 113.652344 L 239.234375 113.886719 L 239.136719 114 L 238.933594 114.226562 L 238.832031 114.335938 L 238.726562 114.441406 L 238.507812 114.652344 L 238.398438 114.753906 L 238.285156 114.851562 L 238.050781 115.046875 L 237.816406 115.234375 L 237.695312 115.320312 L 237.570312 115.410156 L 237.445312 115.496094 L 237.195312 115.660156 L 237.066406 115.738281 L 236.933594 115.816406 L 236.804688 115.890625 L 236.539062 116.03125 L 236.265625 116.164062 L 236.128906 116.226562 L 235.992188 116.285156 L 235.851562 116.34375 L 235.570312 116.453125 L 235.429688 116.5 L 235.285156 116.550781 L 234.851562 116.679688 L 234.707031 116.714844 L 234.410156 116.785156 L 234.265625 116.8125 L 233.96875 116.867188 L 233.816406 116.886719 L 233.519531 116.925781 L 233.367188 116.9375 L 233.21875 116.953125 L 233.066406 116.960938 L 232.917969 116.96875 L 232.765625 116.972656 L 232.617188 116.972656 Z M 240.589844 108.332031 L 240.589844 96.703125 L 241.253906 96.703125 L 241.253906 108.332031 Z M 240.589844 96.703125 L 240.589844 85.070312 L 241.253906 85.070312 L 241.253906 96.703125 Z M 240.589844 85.070312 L 240.59375 84.921875 L 240.601562 84.617188 L 240.613281 84.46875 L 240.625 84.316406 L 240.636719 84.167969 L 240.65625 84.019531 L 240.675781 83.867188 L 240.695312 83.71875 L 240.75 83.421875 L 240.78125 83.273438 L 240.8125 83.128906 L 240.847656 82.980469 L 240.886719 82.835938 L 240.925781 82.6875 L 240.96875 82.542969 L 241.011719 82.402344 L 241.0625 82.257812 L 241.113281 82.117188 L 241.164062 81.972656 L 241.21875 81.835938 L 241.335938 81.554688 L 241.398438 81.417969 L 241.464844 81.285156 L 241.53125 81.148438 L 241.601562 81.015625 L 241.75 80.75 L 241.824219 80.621094 L 241.902344 80.492188 L 241.984375 80.363281 L 242.066406 80.238281 L 242.152344 80.113281 L 242.421875 79.75 L 242.515625 79.632812 L 242.613281 79.515625 L 242.808594 79.289062 L 242.910156 79.179688 L 243.121094 78.960938 L 243.339844 78.75 L 243.449219 78.648438 L 243.675781 78.453125 L 243.792969 78.355469 L 243.910156 78.261719 L 244.273438 77.992188 L 244.398438 77.90625 L 244.523438 77.824219 L 244.652344 77.742188 L 244.78125 77.664062 L 244.910156 77.589844 L 245.175781 77.441406 L 245.308594 77.371094 L 245.441406 77.304688 L 245.714844 77.179688 L 245.855469 77.117188 L 245.996094 77.058594 L 246.132812 77.003906 L 246.277344 76.953125 L 246.417969 76.902344 L 246.5625 76.855469 L 246.703125 76.808594 L 246.847656 76.765625 L 246.996094 76.726562 L 247.140625 76.6875 L 247.289062 76.652344 L 247.433594 76.621094 L 247.582031 76.589844 L 247.730469 76.5625 L 248.027344 76.515625 L 248.179688 76.496094 L 248.328125 76.476562 L 248.476562 76.464844 L 248.628906 76.453125 L 248.777344 76.441406 L 248.929688 76.4375 L 249.078125 76.433594 L 249.230469 76.429688 L 249.230469 77.09375 L 248.941406 77.101562 L 248.800781 77.105469 L 248.367188 77.140625 L 248.226562 77.160156 L 248.082031 77.179688 L 247.941406 77.199219 L 247.796875 77.226562 L 247.515625 77.28125 L 247.375 77.3125 L 247.234375 77.347656 L 247.097656 77.386719 L 246.957031 77.425781 L 246.683594 77.511719 L 246.546875 77.558594 L 246.414062 77.609375 L 246.277344 77.660156 L 246.144531 77.714844 L 246.011719 77.773438 L 245.882812 77.832031 L 245.75 77.894531 L 245.621094 77.957031 L 245.496094 78.023438 L 245.367188 78.09375 L 245.242188 78.164062 L 245.117188 78.238281 L 244.996094 78.3125 L 244.753906 78.46875 L 244.636719 78.550781 L 244.402344 78.722656 L 244.289062 78.808594 L 244.179688 78.898438 L 244.066406 78.992188 L 243.957031 79.085938 L 243.640625 79.378906 L 243.539062 79.484375 L 243.441406 79.585938 L 243.246094 79.796875 L 243.152344 79.90625 L 243.058594 80.019531 L 242.96875 80.128906 L 242.882812 80.246094 L 242.796875 80.359375 L 242.710938 80.476562 L 242.628906 80.59375 L 242.472656 80.835938 L 242.398438 80.960938 L 242.324219 81.082031 L 242.253906 81.207031 L 242.183594 81.335938 L 242.117188 81.460938 L 242.054688 81.59375 L 241.992188 81.722656 L 241.933594 81.851562 L 241.875 81.984375 L 241.820312 82.117188 L 241.769531 82.253906 L 241.71875 82.386719 L 241.671875 82.523438 L 241.585938 82.796875 L 241.507812 83.078125 L 241.472656 83.214844 L 241.441406 83.355469 L 241.386719 83.636719 L 241.359375 83.78125 L 241.339844 83.921875 L 241.320312 84.066406 L 241.300781 84.207031 L 241.265625 84.640625 L 241.261719 84.78125 L 241.253906 85.070312 Z M 249.230469 76.429688 L 348.921875 76.429688 L 348.921875 77.09375 L 249.230469 77.09375 Z M 348.921875 76.429688 L 365.539062 76.429688 L 365.539062 77.09375 L 348.921875 77.09375 Z M 365.539062 76.429688 L 365.6875 76.433594 L 365.992188 76.441406 L 366.140625 76.453125 L 366.292969 76.464844 L 366.441406 76.476562 L 366.589844 76.496094 L 366.742188 76.515625 L 367.039062 76.5625 L 367.1875 76.589844 L 367.335938 76.621094 L 367.480469 76.652344 L 367.628906 76.6875 L 367.773438 76.726562 L 367.921875 76.765625 L 368.066406 76.808594 L 368.207031 76.855469 L 368.351562 76.902344 L 368.632812 77.003906 L 368.773438 77.058594 L 368.914062 77.117188 L 369.050781 77.179688 L 369.191406 77.242188 L 369.324219 77.304688 L 369.460938 77.371094 L 369.59375 77.441406 L 369.859375 77.589844 L 369.988281 77.664062 L 370.117188 77.742188 L 370.246094 77.824219 L 370.371094 77.90625 L 370.496094 77.992188 L 370.859375 78.261719 L 370.976562 78.355469 L 371.09375 78.453125 L 371.320312 78.648438 L 371.429688 78.75 L 371.648438 78.960938 L 371.753906 79.070312 L 371.855469 79.179688 L 371.960938 79.289062 L 372.15625 79.515625 L 372.253906 79.632812 L 372.347656 79.75 L 372.617188 80.113281 L 372.703125 80.238281 L 372.785156 80.363281 L 372.867188 80.492188 L 372.945312 80.621094 L 373.019531 80.75 L 373.167969 81.015625 L 373.238281 81.148438 L 373.304688 81.285156 L 373.367188 81.417969 L 373.429688 81.554688 L 373.492188 81.695312 L 373.550781 81.835938 L 373.605469 81.972656 L 373.65625 82.117188 L 373.707031 82.257812 L 373.753906 82.402344 L 373.800781 82.542969 L 373.84375 82.6875 L 373.882812 82.835938 L 373.921875 82.980469 L 373.957031 83.128906 L 373.988281 83.273438 L 374.019531 83.421875 L 374.046875 83.570312 L 374.09375 83.867188 L 374.113281 84.019531 L 374.132812 84.167969 L 374.144531 84.316406 L 374.15625 84.46875 L 374.167969 84.617188 L 374.175781 84.921875 L 374.179688 85.070312 L 373.515625 85.070312 L 373.507812 84.78125 L 373.503906 84.640625 L 373.46875 84.207031 L 373.449219 84.066406 L 373.429688 83.921875 L 373.410156 83.78125 L 373.382812 83.636719 L 373.328125 83.355469 L 373.296875 83.214844 L 373.261719 83.078125 L 373.183594 82.796875 L 373.097656 82.523438 L 373.050781 82.386719 L 373 82.253906 L 372.949219 82.117188 L 372.894531 81.984375 L 372.835938 81.851562 L 372.777344 81.722656 L 372.714844 81.59375 L 372.652344 81.460938 L 372.585938 81.335938 L 372.515625 81.207031 L 372.445312 81.082031 L 372.371094 80.960938 L 372.296875 80.835938 L 372.140625 80.59375 L 372.058594 80.476562 L 371.972656 80.359375 L 371.886719 80.246094 L 371.800781 80.128906 L 371.710938 80.019531 L 371.617188 79.90625 L 371.523438 79.796875 L 371.328125 79.585938 L 371.230469 79.484375 L 371.125 79.378906 L 371.023438 79.28125 L 370.917969 79.183594 L 370.808594 79.085938 L 370.703125 78.992188 L 370.589844 78.898438 L 370.480469 78.808594 L 370.363281 78.722656 L 370.25 78.636719 L 370.132812 78.550781 L 370.015625 78.46875 L 369.773438 78.3125 L 369.648438 78.238281 L 369.527344 78.164062 L 369.402344 78.09375 L 369.273438 78.023438 L 369.144531 77.957031 L 368.886719 77.832031 L 368.757812 77.773438 L 368.625 77.714844 L 368.492188 77.660156 L 368.355469 77.609375 L 368.222656 77.558594 L 368.085938 77.511719 L 367.949219 77.46875 L 367.808594 77.425781 L 367.671875 77.386719 L 367.53125 77.347656 L 367.394531 77.3125 L 367.253906 77.28125 L 367.113281 77.253906 L 366.96875 77.226562 L 366.828125 77.199219 L 366.6875 77.179688 L 366.542969 77.160156 L 366.402344 77.140625 L 365.96875 77.105469 L 365.828125 77.101562 L 365.539062 77.09375 Z M 374.179688 85.070312 L 374.179688 96.703125 L 373.515625 96.703125 L 373.515625 85.070312 Z M 374.179688 96.703125 L 374.179688 108.332031 L 373.515625 108.332031 L 373.515625 96.703125 Z M 374.179688 108.332031 L 374.179688 108.476562 L 374.183594 108.621094 L 374.191406 108.765625 L 374.199219 108.90625 L 374.210938 109.050781 L 374.226562 109.195312 L 374.242188 109.335938 L 374.261719 109.480469 L 374.285156 109.621094 L 374.308594 109.765625 L 374.363281 110.046875 L 374.433594 110.328125 L 374.46875 110.464844 L 374.507812 110.605469 L 374.550781 110.742188 L 374.644531 111.015625 L 374.691406 111.148438 L 374.746094 111.285156 L 374.855469 111.550781 L 374.914062 111.679688 L 374.976562 111.8125 L 375.042969 111.941406 L 375.109375 112.066406 L 375.175781 112.195312 L 375.246094 112.320312 L 375.320312 112.445312 L 375.394531 112.566406 L 375.550781 112.808594 L 375.632812 112.925781 L 375.804688 113.160156 L 375.984375 113.386719 L 376.074219 113.496094 L 376.167969 113.605469 L 376.363281 113.816406 L 376.464844 113.921875 L 376.566406 114.023438 L 376.667969 114.121094 L 376.773438 114.21875 L 376.882812 114.316406 L 377.101562 114.503906 L 377.214844 114.59375 L 377.441406 114.765625 L 377.558594 114.851562 L 377.679688 114.933594 L 377.796875 115.011719 L 377.917969 115.089844 L 378.042969 115.167969 L 378.417969 115.378906 L 378.546875 115.445312 L 378.804688 115.570312 L 379.070312 115.6875 L 379.203125 115.742188 L 379.335938 115.792969 L 379.472656 115.84375 L 379.605469 115.890625 L 379.746094 115.933594 L 379.882812 115.976562 L 380.019531 116.015625 L 380.160156 116.054688 L 380.300781 116.089844 L 380.4375 116.121094 L 380.582031 116.152344 L 380.722656 116.179688 L 380.863281 116.203125 L 381.007812 116.226562 L 381.148438 116.242188 L 381.292969 116.261719 L 381.433594 116.273438 L 381.722656 116.296875 L 382.011719 116.304688 L 382.152344 116.308594 L 382.152344 116.972656 L 382.003906 116.972656 L 381.851562 116.96875 L 381.703125 116.960938 L 381.550781 116.953125 L 381.402344 116.9375 L 381.25 116.925781 L 380.953125 116.886719 L 380.800781 116.867188 L 380.503906 116.8125 L 380.359375 116.785156 L 380.0625 116.714844 L 379.917969 116.679688 L 379.484375 116.550781 L 379.339844 116.5 L 379.199219 116.453125 L 378.917969 116.34375 L 378.777344 116.285156 L 378.640625 116.226562 L 378.503906 116.164062 L 378.230469 116.03125 L 377.964844 115.890625 L 377.832031 115.816406 L 377.574219 115.660156 L 377.324219 115.496094 L 377.199219 115.410156 L 377.074219 115.320312 L 376.953125 115.234375 L 376.835938 115.140625 L 376.714844 115.046875 L 376.601562 114.949219 L 376.484375 114.851562 L 376.371094 114.753906 L 376.261719 114.652344 L 376.042969 114.441406 L 375.9375 114.335938 L 375.835938 114.226562 L 375.632812 114 L 375.535156 113.886719 L 375.4375 113.769531 L 375.34375 113.652344 L 375.164062 113.410156 L 375.078125 113.289062 L 374.90625 113.039062 L 374.828125 112.910156 L 374.746094 112.78125 L 374.671875 112.652344 L 374.523438 112.386719 L 374.457031 112.253906 L 374.386719 112.121094 L 374.261719 111.847656 L 374.199219 111.707031 L 374.144531 111.570312 L 374.085938 111.429688 L 374.035156 111.289062 L 373.984375 111.144531 L 373.9375 111.003906 L 373.890625 110.859375 L 373.847656 110.714844 L 373.808594 110.570312 L 373.769531 110.421875 L 373.734375 110.277344 L 373.671875 109.980469 L 373.644531 109.832031 L 373.597656 109.535156 L 373.578125 109.386719 L 373.5625 109.234375 L 373.546875 109.085938 L 373.535156 108.933594 L 373.527344 108.785156 L 373.519531 108.632812 L 373.515625 108.484375 L 373.515625 108.332031 Z M 382.152344 116.308594 L 398.769531 116.308594 L 398.769531 116.972656 L 382.152344 116.972656 Z M 66.460938 132.921875 L 66.605469 132.921875 L 66.75 132.917969 L 66.894531 132.910156 L 67.035156 132.902344 L 67.179688 132.890625 L 67.46875 132.859375 L 67.609375 132.839844 L 67.75 132.816406 L 67.894531 132.792969 L 68.175781 132.738281 L 68.457031 132.667969 L 68.59375 132.632812 L 68.734375 132.59375 L 68.871094 132.550781 L 69.144531 132.457031 L 69.277344 132.410156 L 69.414062 132.355469 L 69.679688 132.246094 L 69.808594 132.1875 L 69.941406 132.125 L 70.199219 131.992188 L 70.324219 131.925781 L 70.449219 131.855469 L 70.574219 131.78125 L 70.695312 131.707031 L 70.9375 131.550781 L 71.054688 131.46875 L 71.289062 131.296875 L 71.515625 131.117188 L 71.625 131.027344 L 71.734375 130.933594 L 71.945312 130.738281 L 72.050781 130.636719 L 72.152344 130.535156 L 72.25 130.433594 L 72.351562 130.328125 L 72.632812 130 L 72.8125 129.773438 L 72.898438 129.660156 L 72.980469 129.542969 L 73.0625 129.421875 L 73.140625 129.304688 L 73.21875 129.183594 L 73.296875 129.058594 L 73.507812 128.683594 L 73.574219 128.554688 L 73.699219 128.296875 L 73.816406 128.03125 L 73.871094 127.898438 L 73.921875 127.765625 L 73.972656 127.628906 L 74.019531 127.496094 L 74.0625 127.355469 L 74.105469 127.21875 L 74.144531 127.082031 L 74.183594 126.941406 L 74.21875 126.800781 L 74.25 126.664062 L 74.28125 126.519531 L 74.308594 126.378906 L 74.332031 126.238281 L 74.355469 126.09375 L 74.375 125.953125 L 74.390625 125.808594 L 74.40625 125.667969 L 74.417969 125.523438 L 74.433594 125.234375 L 74.4375 125.089844 L 74.4375 124.949219 L 75.101562 124.949219 L 75.101562 125.097656 L 75.097656 125.25 L 75.089844 125.398438 L 75.082031 125.550781 L 75.070312 125.699219 L 75.054688 125.851562 L 75.039062 126 L 75.015625 126.148438 L 74.996094 126.300781 L 74.941406 126.597656 L 74.914062 126.742188 L 74.84375 127.039062 L 74.808594 127.183594 L 74.679688 127.617188 L 74.628906 127.761719 L 74.582031 127.902344 L 74.472656 128.183594 L 74.414062 128.324219 L 74.355469 128.460938 L 74.292969 128.597656 L 74.160156 128.871094 L 74.019531 129.136719 L 73.945312 129.269531 L 73.789062 129.527344 L 73.625 129.777344 L 73.453125 130.027344 L 73.363281 130.148438 L 73.269531 130.265625 L 73.175781 130.386719 L 73.082031 130.5 L 72.980469 130.617188 L 72.882812 130.730469 L 72.78125 130.839844 L 72.570312 131.058594 L 72.464844 131.164062 L 72.355469 131.265625 L 72.128906 131.46875 L 72.015625 131.566406 L 71.898438 131.664062 L 71.78125 131.757812 L 71.539062 131.9375 L 71.417969 132.023438 L 71.167969 132.195312 L 71.039062 132.273438 L 70.910156 132.355469 L 70.78125 132.429688 L 70.648438 132.503906 L 70.519531 132.578125 L 70.382812 132.644531 L 70.25 132.714844 L 69.976562 132.839844 L 69.835938 132.902344 L 69.699219 132.957031 L 69.558594 133.015625 L 69.417969 133.066406 L 69.273438 133.117188 L 69.132812 133.164062 L 68.988281 133.210938 L 68.84375 133.253906 L 68.699219 133.292969 L 68.550781 133.332031 L 68.40625 133.367188 L 68.109375 133.429688 L 67.960938 133.457031 L 67.664062 133.503906 L 67.515625 133.523438 L 67.363281 133.539062 L 67.214844 133.554688 L 67.0625 133.566406 L 66.914062 133.574219 L 66.761719 133.582031 L 66.613281 133.585938 L 66.460938 133.585938 Z M 74.4375 124.949219 L 74.4375 105.007812 L 75.101562 105.007812 L 75.101562 124.949219 Z M 74.4375 105.007812 L 74.4375 85.070312 L 75.101562 85.070312 L 75.101562 105.007812 Z M 74.4375 85.070312 L 74.4375 84.921875 L 74.441406 84.769531 L 74.449219 84.617188 L 74.457031 84.46875 L 74.46875 84.316406 L 74.5 84.019531 L 74.519531 83.867188 L 74.566406 83.570312 L 74.59375 83.421875 L 74.625 83.273438 L 74.660156 83.128906 L 74.695312 82.980469 L 74.730469 82.835938 L 74.773438 82.6875 L 74.8125 82.542969 L 74.859375 82.402344 L 74.90625 82.257812 L 74.957031 82.117188 L 75.011719 81.972656 L 75.066406 81.835938 L 75.183594 81.554688 L 75.246094 81.417969 L 75.3125 81.285156 L 75.378906 81.148438 L 75.519531 80.882812 L 75.59375 80.75 L 75.75 80.492188 L 75.832031 80.363281 L 75.914062 80.238281 L 76 80.113281 L 76.085938 79.992188 L 76.175781 79.871094 L 76.269531 79.75 L 76.457031 79.515625 L 76.554688 79.402344 L 76.65625 79.289062 L 76.757812 79.179688 L 76.96875 78.960938 L 77.074219 78.855469 L 77.183594 78.75 L 77.296875 78.648438 L 77.523438 78.453125 L 77.640625 78.355469 L 77.757812 78.261719 L 78.121094 77.992188 L 78.246094 77.90625 L 78.371094 77.824219 L 78.5 77.742188 L 78.628906 77.664062 L 78.886719 77.515625 L 79.019531 77.441406 L 79.15625 77.371094 L 79.289062 77.304688 L 79.699219 77.117188 L 79.839844 77.058594 L 79.980469 77.003906 L 80.121094 76.953125 L 80.265625 76.902344 L 80.40625 76.855469 L 80.550781 76.808594 L 80.695312 76.765625 L 80.839844 76.726562 L 80.988281 76.6875 L 81.132812 76.652344 L 81.429688 76.589844 L 81.578125 76.5625 L 81.875 76.515625 L 82.171875 76.476562 L 82.324219 76.464844 L 82.472656 76.453125 L 82.625 76.441406 L 82.777344 76.4375 L 82.925781 76.433594 L 83.078125 76.429688 L 83.078125 77.09375 L 82.644531 77.105469 L 82.5 77.117188 L 82.359375 77.128906 L 82.214844 77.140625 L 82.070312 77.160156 L 81.929688 77.179688 L 81.785156 77.199219 L 81.363281 77.28125 L 81.222656 77.3125 L 81.082031 77.347656 L 80.941406 77.386719 L 80.804688 77.425781 L 80.53125 77.511719 L 80.394531 77.558594 L 80.257812 77.609375 L 80.125 77.660156 L 79.992188 77.714844 L 79.726562 77.832031 L 79.46875 77.957031 L 79.339844 78.023438 L 79.089844 78.164062 L 78.964844 78.238281 L 78.84375 78.3125 L 78.601562 78.46875 L 78.484375 78.550781 L 78.25 78.722656 L 78.136719 78.808594 L 78.023438 78.898438 L 77.804688 79.085938 L 77.488281 79.378906 L 77.386719 79.484375 L 77.285156 79.585938 L 77.1875 79.691406 L 77.09375 79.796875 L 77 79.90625 L 76.90625 80.019531 L 76.816406 80.128906 L 76.726562 80.246094 L 76.640625 80.359375 L 76.476562 80.59375 L 76.394531 80.714844 L 76.320312 80.835938 L 76.242188 80.960938 L 76.171875 81.082031 L 76.097656 81.207031 L 76.03125 81.335938 L 75.964844 81.460938 L 75.898438 81.59375 L 75.78125 81.851562 L 75.722656 81.984375 L 75.667969 82.117188 L 75.617188 82.253906 L 75.566406 82.386719 L 75.472656 82.660156 L 75.433594 82.796875 L 75.390625 82.9375 L 75.355469 83.078125 L 75.320312 83.214844 L 75.257812 83.496094 L 75.230469 83.636719 L 75.207031 83.78125 L 75.183594 83.921875 L 75.164062 84.066406 L 75.148438 84.207031 L 75.132812 84.351562 L 75.121094 84.496094 L 75.113281 84.640625 L 75.105469 84.78125 L 75.101562 84.925781 L 75.101562 85.070312 Z M 83.078125 76.429688 L 149.539062 76.429688 L 149.539062 77.09375 L 83.078125 77.09375 Z M 149.539062 76.429688 L 149.6875 76.433594 L 149.992188 76.441406 L 150.140625 76.453125 L 150.292969 76.464844 L 150.441406 76.476562 L 150.589844 76.496094 L 150.742188 76.515625 L 151.039062 76.5625 L 151.1875 76.589844 L 151.335938 76.621094 L 151.480469 76.652344 L 151.628906 76.6875 L 151.773438 76.726562 L 151.921875 76.765625 L 152.066406 76.808594 L 152.207031 76.855469 L 152.351562 76.902344 L 152.632812 77.003906 L 152.773438 77.058594 L 152.914062 77.117188 L 153.050781 77.179688 L 153.191406 77.242188 L 153.324219 77.304688 L 153.460938 77.371094 L 153.59375 77.441406 L 153.859375 77.589844 L 153.988281 77.664062 L 154.117188 77.742188 L 154.246094 77.824219 L 154.371094 77.90625 L 154.496094 77.992188 L 154.859375 78.261719 L 154.976562 78.355469 L 155.09375 78.453125 L 155.320312 78.648438 L 155.429688 78.75 L 155.648438 78.960938 L 155.753906 79.070312 L 155.855469 79.179688 L 155.960938 79.289062 L 156.15625 79.515625 L 156.253906 79.632812 L 156.347656 79.75 L 156.617188 80.113281 L 156.703125 80.238281 L 156.785156 80.363281 L 156.867188 80.492188 L 156.945312 80.621094 L 157.019531 80.75 L 157.167969 81.015625 L 157.238281 81.148438 L 157.304688 81.285156 L 157.367188 81.417969 L 157.429688 81.554688 L 157.492188 81.695312 L 157.550781 81.835938 L 157.605469 81.972656 L 157.65625 82.117188 L 157.707031 82.257812 L 157.753906 82.402344 L 157.800781 82.542969 L 157.84375 82.6875 L 157.882812 82.835938 L 157.921875 82.980469 L 157.957031 83.128906 L 157.988281 83.273438 L 158.019531 83.421875 L 158.046875 83.570312 L 158.09375 83.867188 L 158.113281 84.019531 L 158.132812 84.167969 L 158.144531 84.316406 L 158.15625 84.46875 L 158.167969 84.617188 L 158.175781 84.921875 L 158.179688 85.070312 L 157.515625 85.070312 L 157.507812 84.78125 L 157.503906 84.640625 L 157.46875 84.207031 L 157.449219 84.066406 L 157.429688 83.921875 L 157.410156 83.78125 L 157.382812 83.636719 L 157.328125 83.355469 L 157.296875 83.214844 L 157.261719 83.078125 L 157.183594 82.796875 L 157.097656 82.523438 L 157.050781 82.386719 L 157 82.253906 L 156.949219 82.117188 L 156.894531 81.984375 L 156.835938 81.851562 L 156.777344 81.722656 L 156.714844 81.59375 L 156.652344 81.460938 L 156.585938 81.335938 L 156.515625 81.207031 L 156.445312 81.082031 L 156.371094 80.960938 L 156.296875 80.835938 L 156.140625 80.59375 L 156.058594 80.476562 L 155.972656 80.359375 L 155.886719 80.246094 L 155.800781 80.128906 L 155.710938 80.019531 L 155.617188 79.90625 L 155.523438 79.796875 L 155.328125 79.585938 L 155.230469 79.484375 L 155.125 79.378906 L 155.023438 79.28125 L 154.917969 79.183594 L 154.808594 79.085938 L 154.703125 78.992188 L 154.589844 78.898438 L 154.480469 78.808594 L 154.363281 78.722656 L 154.25 78.636719 L 154.132812 78.550781 L 154.015625 78.46875 L 153.773438 78.3125 L 153.648438 78.238281 L 153.527344 78.164062 L 153.402344 78.09375 L 153.273438 78.023438 L 153.144531 77.957031 L 152.886719 77.832031 L 152.757812 77.773438 L 152.625 77.714844 L 152.492188 77.660156 L 152.355469 77.609375 L 152.222656 77.558594 L 152.085938 77.511719 L 151.949219 77.46875 L 151.808594 77.425781 L 151.671875 77.386719 L 151.53125 77.347656 L 151.394531 77.3125 L 151.253906 77.28125 L 151.113281 77.253906 L 150.96875 77.226562 L 150.828125 77.199219 L 150.6875 77.179688 L 150.542969 77.160156 L 150.402344 77.140625 L 149.96875 77.105469 L 149.828125 77.101562 L 149.539062 77.09375 Z M 158.179688 85.070312 L 158.179688 105.007812 L 157.515625 105.007812 L 157.515625 85.070312 Z M 158.179688 105.007812 L 158.179688 124.949219 L 157.515625 124.949219 L 157.515625 105.007812 Z M 158.179688 124.949219 L 158.179688 125.089844 L 158.183594 125.234375 L 158.199219 125.523438 L 158.210938 125.667969 L 158.226562 125.808594 L 158.242188 125.953125 L 158.261719 126.09375 L 158.285156 126.238281 L 158.308594 126.378906 L 158.335938 126.519531 L 158.363281 126.664062 L 158.398438 126.800781 L 158.46875 127.082031 L 158.507812 127.21875 L 158.550781 127.355469 L 158.597656 127.496094 L 158.644531 127.628906 L 158.691406 127.765625 L 158.855469 128.164062 L 158.914062 128.296875 L 158.976562 128.425781 L 159.109375 128.683594 L 159.175781 128.808594 L 159.246094 128.933594 L 159.394531 129.183594 L 159.472656 129.304688 L 159.550781 129.421875 L 159.632812 129.542969 L 159.71875 129.660156 L 159.804688 129.773438 L 159.984375 130 L 160.074219 130.109375 L 160.167969 130.21875 L 160.265625 130.328125 L 160.363281 130.433594 L 160.667969 130.738281 L 160.773438 130.835938 L 160.882812 130.933594 L 160.992188 131.027344 L 161.101562 131.117188 L 161.328125 131.296875 L 161.441406 131.382812 L 161.558594 131.46875 L 161.679688 131.550781 L 161.796875 131.628906 L 161.917969 131.707031 L 162.167969 131.855469 L 162.292969 131.925781 L 162.417969 131.992188 L 162.675781 132.125 L 162.804688 132.1875 L 162.9375 132.246094 L 163.335938 132.410156 L 163.472656 132.457031 L 163.605469 132.503906 L 163.746094 132.550781 L 163.882812 132.59375 L 164.019531 132.632812 L 164.300781 132.703125 L 164.4375 132.738281 L 164.582031 132.765625 L 164.722656 132.792969 L 164.863281 132.816406 L 165.007812 132.839844 L 165.148438 132.859375 L 165.292969 132.875 L 165.433594 132.890625 L 165.578125 132.902344 L 165.867188 132.917969 L 166.011719 132.921875 L 166.152344 132.921875 L 166.152344 133.585938 L 166.003906 133.585938 L 165.851562 133.582031 L 165.703125 133.574219 L 165.550781 133.566406 L 165.402344 133.554688 L 165.25 133.539062 L 165.101562 133.523438 L 164.953125 133.503906 L 164.800781 133.480469 L 164.652344 133.457031 L 164.503906 133.429688 L 164.359375 133.398438 L 164.210938 133.367188 L 164.0625 133.332031 L 163.773438 133.253906 L 163.628906 133.210938 L 163.339844 133.117188 L 163.058594 133.015625 L 162.917969 132.957031 L 162.777344 132.902344 L 162.367188 132.714844 L 162.230469 132.644531 L 162.097656 132.578125 L 161.832031 132.429688 L 161.703125 132.355469 L 161.574219 132.273438 L 161.449219 132.195312 L 161.074219 131.9375 L 160.953125 131.847656 L 160.835938 131.757812 L 160.714844 131.664062 L 160.601562 131.566406 L 160.484375 131.46875 L 160.371094 131.367188 L 160.152344 131.164062 L 160.042969 131.058594 L 159.9375 130.949219 L 159.734375 130.730469 L 159.632812 130.617188 L 159.535156 130.5 L 159.4375 130.386719 L 159.34375 130.265625 L 159.253906 130.148438 L 159.164062 130.027344 L 158.90625 129.652344 L 158.828125 129.527344 L 158.746094 129.398438 L 158.671875 129.269531 L 158.523438 129.003906 L 158.457031 128.871094 L 158.386719 128.734375 L 158.199219 128.324219 L 158.144531 128.183594 L 158.085938 128.042969 L 157.984375 127.761719 L 157.890625 127.472656 L 157.847656 127.328125 L 157.769531 127.039062 L 157.734375 126.890625 L 157.703125 126.742188 L 157.671875 126.597656 L 157.644531 126.449219 L 157.621094 126.300781 L 157.597656 126.148438 L 157.578125 126 L 157.5625 125.851562 L 157.546875 125.699219 L 157.535156 125.550781 L 157.527344 125.398438 L 157.519531 125.25 L 157.515625 125.097656 L 157.515625 124.949219 Z M 158.179688 124.949219 "/>
<path fill-rule="nonzero" fill="rgb(54.902%, 23.5294%, 100%)" fill-opacity="0.5" d="M 33.230469 50.179688 L 365.539062 50.179688 L 365.539062 83.410156 L 33.230469 83.410156 Z M 33.230469 50.179688 "/>
</svg>
