<?xml version="1.0" encoding="UTF-8"?>
<svg xmlns="http://www.w3.org/2000/svg" xmlns:xlink="http://www.w3.org/1999/xlink" width="288" height="125" viewBox="0 0 288 125">
<path fill-rule="nonzero" fill="rgb(84.3137%, 0%, 0%)" fill-opacity="0.5" d="M 223.199219 13.871094 L 237.601562 13.871094 L 237.601562 14.160156 L 223.199219 14.160156 Z M 223.199219 14.640625 L 237.601562 14.640625 L 237.601562 14.929688 L 223.199219 14.929688 Z M 237.601562 14.640625 L 237.699219 14.640625 L 237.722656 14.644531 L 237.746094 14.644531 L 237.773438 14.648438 L 237.796875 14.648438 L 237.820312 14.652344 L 237.84375 14.652344 L 237.871094 14.65625 L 237.941406 14.667969 L 237.96875 14.671875 L 238.039062 14.683594 L 238.0625 14.691406 L 238.085938 14.695312 L 238.113281 14.703125 L 238.136719 14.707031 L 238.160156 14.714844 L 238.183594 14.71875 L 238.371094 14.78125 L 238.390625 14.789062 L 238.414062 14.800781 L 238.4375 14.808594 L 238.460938 14.820312 L 238.484375 14.828125 L 238.503906 14.839844 L 238.527344 14.847656 L 238.550781 14.859375 L 238.570312 14.871094 L 238.617188 14.894531 L 238.636719 14.90625 L 238.660156 14.917969 L 238.679688 14.929688 L 238.703125 14.941406 L 238.722656 14.953125 L 238.742188 14.96875 L 238.765625 14.980469 L 238.785156 14.992188 L 238.804688 15.007812 L 238.824219 15.019531 L 238.84375 15.035156 L 238.867188 15.050781 L 238.886719 15.0625 L 238.964844 15.125 L 238.980469 15.140625 L 239.039062 15.1875 L 239.074219 15.222656 L 239.09375 15.238281 L 239.144531 15.289062 L 239.160156 15.308594 L 239.179688 15.324219 L 239.210938 15.363281 L 239.226562 15.378906 L 239.242188 15.398438 L 239.261719 15.417969 L 239.277344 15.4375 L 239.289062 15.457031 L 239.351562 15.535156 L 239.363281 15.554688 L 239.378906 15.574219 L 239.390625 15.59375 L 239.40625 15.617188 L 239.417969 15.636719 L 239.433594 15.65625 L 239.445312 15.675781 L 239.457031 15.699219 L 239.46875 15.71875 L 239.484375 15.742188 L 239.496094 15.761719 L 239.507812 15.785156 L 239.519531 15.804688 L 239.527344 15.828125 L 239.539062 15.851562 L 239.550781 15.871094 L 239.5625 15.894531 L 239.570312 15.917969 L 239.582031 15.941406 L 239.589844 15.960938 L 239.601562 15.984375 L 239.625 16.054688 L 239.636719 16.078125 L 239.667969 16.171875 L 239.671875 16.195312 L 239.6875 16.242188 L 239.691406 16.265625 L 239.699219 16.289062 L 239.703125 16.3125 L 239.710938 16.335938 L 239.71875 16.382812 L 239.722656 16.410156 L 239.730469 16.433594 L 239.738281 16.480469 L 239.738281 16.507812 L 239.75 16.578125 L 239.75 16.605469 L 239.753906 16.628906 L 239.753906 16.652344 L 239.757812 16.675781 L 239.757812 16.75 L 239.761719 16.777344 L 239.761719 16.800781 L 239.472656 16.800781 L 239.472656 16.734375 L 239.46875 16.714844 L 239.46875 16.671875 L 239.464844 16.652344 L 239.464844 16.628906 L 239.460938 16.609375 L 239.460938 16.585938 L 239.453125 16.546875 L 239.453125 16.523438 L 239.449219 16.503906 L 239.445312 16.480469 L 239.4375 16.441406 L 239.433594 16.417969 L 239.429688 16.398438 L 239.421875 16.378906 L 239.417969 16.355469 L 239.410156 16.316406 L 239.402344 16.296875 L 239.398438 16.273438 L 239.382812 16.234375 L 239.378906 16.214844 L 239.371094 16.191406 L 239.300781 16.015625 L 239.289062 15.996094 L 239.273438 15.957031 L 239.261719 15.9375 L 239.253906 15.917969 L 239.242188 15.902344 L 239.230469 15.882812 L 239.222656 15.863281 L 239.210938 15.84375 L 239.199219 15.828125 L 239.1875 15.808594 L 239.175781 15.792969 L 239.152344 15.753906 L 239.140625 15.738281 L 239.128906 15.71875 L 239.105469 15.6875 L 239.089844 15.667969 L 239.066406 15.636719 L 239.050781 15.617188 L 239.039062 15.601562 L 239.023438 15.585938 L 239.011719 15.570312 L 238.996094 15.554688 L 238.984375 15.539062 L 238.921875 15.476562 L 238.910156 15.460938 L 238.894531 15.445312 L 238.878906 15.433594 L 238.847656 15.402344 L 238.832031 15.390625 L 238.8125 15.375 L 238.796875 15.363281 L 238.78125 15.347656 L 238.765625 15.335938 L 238.746094 15.320312 L 238.714844 15.296875 L 238.695312 15.28125 L 238.679688 15.269531 L 238.660156 15.257812 L 238.644531 15.246094 L 238.625 15.234375 L 238.609375 15.222656 L 238.589844 15.210938 L 238.574219 15.199219 L 238.554688 15.191406 L 238.515625 15.167969 L 238.5 15.15625 L 238.480469 15.148438 L 238.460938 15.136719 L 238.441406 15.128906 L 238.421875 15.117188 L 238.382812 15.101562 L 238.367188 15.089844 L 238.328125 15.074219 L 238.304688 15.066406 L 238.207031 15.027344 L 238.1875 15.023438 L 238.167969 15.015625 L 238.144531 15.007812 L 238.125 15.003906 L 238.105469 14.996094 L 238.085938 14.992188 L 238.0625 14.988281 L 238.042969 14.980469 L 238.023438 14.976562 L 238 14.972656 L 237.960938 14.964844 L 237.9375 14.957031 L 237.917969 14.957031 L 237.898438 14.953125 L 237.875 14.949219 L 237.855469 14.945312 L 237.832031 14.941406 L 237.8125 14.941406 L 237.792969 14.9375 L 237.769531 14.9375 L 237.75 14.933594 L 237.726562 14.933594 L 237.707031 14.929688 L 237.601562 14.929688 Z M 237.601562 13.871094 L 237.667969 13.871094 L 237.699219 13.875 L 237.765625 13.875 L 237.800781 13.878906 L 237.832031 13.882812 L 237.867188 13.882812 L 237.898438 13.886719 L 237.933594 13.890625 L 237.964844 13.894531 L 238 13.898438 L 238.03125 13.902344 L 238.066406 13.910156 L 238.097656 13.914062 L 238.128906 13.921875 L 238.164062 13.925781 L 238.226562 13.941406 L 238.261719 13.949219 L 238.324219 13.964844 L 238.359375 13.972656 L 238.421875 13.988281 L 238.453125 14 L 238.484375 14.007812 L 238.515625 14.019531 L 238.550781 14.03125 L 238.582031 14.042969 L 238.613281 14.050781 L 238.675781 14.074219 L 238.707031 14.089844 L 238.734375 14.101562 L 238.765625 14.113281 L 238.796875 14.128906 L 238.828125 14.140625 L 238.859375 14.15625 L 238.886719 14.171875 L 238.917969 14.183594 L 238.945312 14.199219 L 239.007812 14.230469 L 239.035156 14.246094 L 239.0625 14.265625 L 239.09375 14.28125 L 239.121094 14.296875 L 239.148438 14.316406 L 239.179688 14.332031 L 239.261719 14.390625 L 239.289062 14.40625 L 239.34375 14.445312 L 239.371094 14.46875 L 239.394531 14.488281 L 239.449219 14.527344 L 239.472656 14.550781 L 239.5 14.570312 L 239.523438 14.59375 L 239.550781 14.613281 L 239.621094 14.683594 L 239.648438 14.707031 L 239.71875 14.777344 L 239.738281 14.800781 L 239.761719 14.824219 L 239.785156 14.851562 L 239.808594 14.875 L 239.828125 14.902344 L 239.851562 14.925781 L 239.871094 14.953125 L 239.890625 14.976562 L 239.914062 15.003906 L 240.03125 15.167969 L 240.046875 15.195312 L 240.085938 15.25 L 240.101562 15.277344 L 240.117188 15.308594 L 240.136719 15.335938 L 240.152344 15.363281 L 240.167969 15.394531 L 240.183594 15.421875 L 240.214844 15.484375 L 240.230469 15.511719 L 240.246094 15.542969 L 240.257812 15.574219 L 240.273438 15.601562 L 240.296875 15.664062 L 240.3125 15.695312 L 240.371094 15.851562 L 240.378906 15.882812 L 240.402344 15.945312 L 240.410156 15.976562 L 240.417969 16.011719 L 240.429688 16.042969 L 240.445312 16.105469 L 240.453125 16.140625 L 240.460938 16.171875 L 240.464844 16.203125 L 240.472656 16.238281 L 240.480469 16.269531 L 240.484375 16.300781 L 240.492188 16.335938 L 240.496094 16.367188 L 240.5 16.402344 L 240.503906 16.433594 L 240.507812 16.46875 L 240.511719 16.5 L 240.515625 16.535156 L 240.519531 16.566406 L 240.519531 16.601562 L 240.523438 16.632812 L 240.523438 16.667969 L 240.527344 16.699219 L 240.527344 16.800781 L 240.238281 16.800781 L 240.238281 16.679688 L 240.234375 16.648438 L 240.234375 16.621094 L 240.230469 16.589844 L 240.230469 16.558594 L 240.226562 16.53125 L 240.21875 16.46875 L 240.214844 16.441406 L 240.210938 16.410156 L 240.207031 16.382812 L 240.203125 16.351562 L 240.195312 16.320312 L 240.191406 16.292969 L 240.183594 16.261719 L 240.179688 16.234375 L 240.171875 16.203125 L 240.164062 16.175781 L 240.15625 16.144531 L 240.148438 16.117188 L 240.140625 16.085938 L 240.125 16.03125 L 240.117188 16 L 240.105469 15.972656 L 240.097656 15.945312 L 240.085938 15.914062 L 240.078125 15.886719 L 240.042969 15.804688 L 240.035156 15.777344 L 240.019531 15.75 L 239.972656 15.640625 L 239.957031 15.613281 L 239.945312 15.585938 L 239.914062 15.53125 L 239.902344 15.507812 L 239.871094 15.453125 L 239.855469 15.429688 L 239.839844 15.402344 L 239.824219 15.378906 L 239.808594 15.351562 L 239.789062 15.328125 L 239.773438 15.300781 L 239.757812 15.277344 L 239.738281 15.253906 L 239.722656 15.230469 L 239.703125 15.203125 L 239.683594 15.179688 L 239.667969 15.15625 L 239.609375 15.085938 L 239.589844 15.066406 L 239.550781 15.019531 L 239.507812 14.976562 L 239.488281 14.953125 L 239.464844 14.933594 L 239.402344 14.871094 L 239.378906 14.851562 L 239.359375 14.828125 L 239.289062 14.769531 L 239.265625 14.753906 L 239.195312 14.695312 L 239.171875 14.679688 L 239.148438 14.660156 L 239.121094 14.644531 L 239.097656 14.625 L 239.074219 14.609375 L 239.046875 14.59375 L 239.023438 14.574219 L 238.996094 14.558594 L 238.972656 14.542969 L 238.945312 14.527344 L 238.921875 14.515625 L 238.839844 14.46875 L 238.816406 14.457031 L 238.789062 14.441406 L 238.761719 14.429688 L 238.734375 14.414062 L 238.570312 14.34375 L 238.539062 14.332031 L 238.511719 14.324219 L 238.457031 14.300781 L 238.425781 14.292969 L 238.398438 14.285156 L 238.371094 14.273438 L 238.339844 14.265625 L 238.285156 14.25 L 238.253906 14.242188 L 238.226562 14.234375 L 238.195312 14.226562 L 238.167969 14.222656 L 238.136719 14.214844 L 238.109375 14.210938 L 238.078125 14.203125 L 238.046875 14.199219 L 238.019531 14.195312 L 237.988281 14.1875 L 237.960938 14.183594 L 237.898438 14.175781 L 237.871094 14.175781 L 237.808594 14.167969 L 237.78125 14.167969 L 237.75 14.164062 L 237.71875 14.164062 L 237.691406 14.160156 L 237.601562 14.160156 Z M 240.527344 16.800781 L 240.527344 62.398438 L 240.238281 62.398438 L 240.238281 16.800781 Z M 239.761719 16.800781 L 239.761719 62.398438 L 239.472656 62.398438 L 239.472656 16.800781 Z M 240.527344 62.398438 L 240.527344 108 L 240.238281 108 L 240.238281 62.398438 Z M 239.761719 62.398438 L 239.761719 108 L 239.472656 108 L 239.472656 62.398438 Z M 239.761719 108 L 239.761719 108.121094 L 239.765625 108.148438 L 239.765625 108.179688 L 239.769531 108.210938 L 239.769531 108.238281 L 239.777344 108.300781 L 239.78125 108.328125 L 239.789062 108.390625 L 239.792969 108.417969 L 239.796875 108.449219 L 239.804688 108.476562 L 239.808594 108.507812 L 239.816406 108.539062 L 239.820312 108.566406 L 239.828125 108.597656 L 239.84375 108.652344 L 239.851562 108.683594 L 239.859375 108.710938 L 239.867188 108.742188 L 239.882812 108.796875 L 239.894531 108.828125 L 239.902344 108.855469 L 239.914062 108.882812 L 239.921875 108.914062 L 239.957031 108.996094 L 239.964844 109.023438 L 239.980469 109.050781 L 240.027344 109.160156 L 240.042969 109.1875 L 240.054688 109.214844 L 240.085938 109.269531 L 240.097656 109.292969 L 240.128906 109.347656 L 240.144531 109.371094 L 240.160156 109.398438 L 240.175781 109.421875 L 240.191406 109.449219 L 240.210938 109.472656 L 240.226562 109.496094 L 240.242188 109.523438 L 240.261719 109.546875 L 240.277344 109.570312 L 240.316406 109.617188 L 240.332031 109.644531 L 240.351562 109.667969 L 240.371094 109.6875 L 240.449219 109.78125 L 240.597656 109.929688 L 240.621094 109.949219 L 240.640625 109.96875 L 240.804688 110.105469 L 240.828125 110.121094 L 240.851562 110.140625 L 240.878906 110.15625 L 240.902344 110.175781 L 240.925781 110.191406 L 240.953125 110.207031 L 240.976562 110.222656 L 241.003906 110.238281 L 241.027344 110.253906 L 241.054688 110.269531 L 241.078125 110.285156 L 241.132812 110.316406 L 241.160156 110.328125 L 241.183594 110.34375 L 241.210938 110.359375 L 241.265625 110.382812 L 241.292969 110.398438 L 241.429688 110.457031 L 241.460938 110.46875 L 241.488281 110.476562 L 241.515625 110.488281 L 241.542969 110.496094 L 241.574219 110.507812 L 241.628906 110.523438 L 241.660156 110.535156 L 241.714844 110.550781 L 241.746094 110.558594 L 241.773438 110.566406 L 241.804688 110.570312 L 241.832031 110.578125 L 241.863281 110.585938 L 241.890625 110.589844 L 241.921875 110.597656 L 241.953125 110.601562 L 241.980469 110.605469 L 242.011719 110.609375 L 242.039062 110.617188 L 242.070312 110.621094 L 242.101562 110.621094 L 242.128906 110.625 L 242.191406 110.632812 L 242.21875 110.632812 L 242.25 110.636719 L 242.308594 110.636719 L 242.339844 110.640625 L 242.398438 110.640625 L 242.398438 110.929688 L 242.367188 110.929688 L 242.332031 110.925781 L 242.265625 110.925781 L 242.234375 110.921875 L 242.199219 110.921875 L 242.167969 110.917969 L 242.132812 110.914062 L 242.101562 110.914062 L 242.066406 110.910156 L 242.035156 110.90625 L 242 110.902344 L 241.96875 110.894531 L 241.933594 110.890625 L 241.902344 110.886719 L 241.871094 110.878906 L 241.835938 110.875 L 241.773438 110.859375 L 241.738281 110.851562 L 241.675781 110.835938 L 241.640625 110.828125 L 241.609375 110.820312 L 241.578125 110.808594 L 241.546875 110.800781 L 241.515625 110.789062 L 241.484375 110.78125 L 241.449219 110.769531 L 241.292969 110.710938 L 241.265625 110.699219 L 241.234375 110.6875 L 241.203125 110.671875 L 241.171875 110.660156 L 241.140625 110.644531 L 241.113281 110.628906 L 241.082031 110.613281 L 241.054688 110.601562 L 240.992188 110.570312 L 240.964844 110.550781 L 240.9375 110.535156 L 240.90625 110.519531 L 240.878906 110.5 L 240.851562 110.484375 L 240.820312 110.464844 L 240.792969 110.449219 L 240.628906 110.332031 L 240.605469 110.3125 L 240.578125 110.292969 L 240.550781 110.269531 L 240.527344 110.25 L 240.5 110.230469 L 240.476562 110.207031 L 240.449219 110.183594 L 240.425781 110.164062 L 240.378906 110.117188 L 240.351562 110.09375 L 240.28125 110.023438 L 240.261719 110 L 240.238281 109.972656 L 240.191406 109.925781 L 240.171875 109.898438 L 240.148438 109.875 L 240.109375 109.820312 L 240.085938 109.796875 L 239.96875 109.632812 L 239.953125 109.605469 L 239.914062 109.550781 L 239.898438 109.519531 L 239.882812 109.492188 L 239.863281 109.464844 L 239.847656 109.433594 L 239.832031 109.40625 L 239.816406 109.375 L 239.800781 109.347656 L 239.785156 109.316406 L 239.769531 109.289062 L 239.753906 109.257812 L 239.742188 109.226562 L 239.726562 109.195312 L 239.714844 109.167969 L 239.703125 109.136719 L 239.6875 109.105469 L 239.628906 108.949219 L 239.621094 108.917969 L 239.597656 108.855469 L 239.589844 108.820312 L 239.582031 108.789062 L 239.570312 108.757812 L 239.5625 108.726562 L 239.554688 108.691406 L 239.539062 108.628906 L 239.535156 108.597656 L 239.527344 108.5625 L 239.519531 108.53125 L 239.515625 108.496094 L 239.507812 108.464844 L 239.503906 108.433594 L 239.5 108.398438 L 239.496094 108.367188 L 239.492188 108.332031 L 239.488281 108.300781 L 239.484375 108.265625 L 239.480469 108.234375 L 239.480469 108.199219 L 239.476562 108.167969 L 239.476562 108.132812 L 239.472656 108.101562 L 239.472656 108 Z M 240.527344 108 L 240.527344 108.0625 L 240.53125 108.085938 L 240.53125 108.128906 L 240.535156 108.148438 L 240.535156 108.171875 L 240.539062 108.191406 L 240.539062 108.210938 L 240.542969 108.234375 L 240.546875 108.253906 L 240.546875 108.277344 L 240.554688 108.316406 L 240.558594 108.339844 L 240.5625 108.359375 L 240.566406 108.382812 L 240.570312 108.402344 L 240.578125 108.421875 L 240.582031 108.441406 L 240.585938 108.464844 L 240.589844 108.484375 L 240.597656 108.503906 L 240.601562 108.527344 L 240.617188 108.566406 L 240.621094 108.585938 L 240.636719 108.625 L 240.644531 108.648438 L 240.699219 108.785156 L 240.710938 108.804688 L 240.726562 108.84375 L 240.738281 108.859375 L 240.746094 108.878906 L 240.769531 108.917969 L 240.777344 108.9375 L 240.789062 108.953125 L 240.8125 108.992188 L 240.824219 109.007812 L 240.835938 109.027344 L 240.847656 109.042969 L 240.859375 109.0625 L 240.871094 109.078125 L 240.882812 109.097656 L 240.894531 109.113281 L 240.910156 109.132812 L 240.933594 109.164062 L 240.949219 109.179688 L 240.960938 109.199219 L 240.976562 109.214844 L 240.988281 109.230469 L 241.003906 109.246094 L 241.015625 109.261719 L 241.078125 109.324219 L 241.089844 109.339844 L 241.105469 109.351562 L 241.152344 109.398438 L 241.167969 109.410156 L 241.1875 109.425781 L 241.203125 109.4375 L 241.21875 109.453125 L 241.234375 109.464844 L 241.253906 109.480469 L 241.285156 109.503906 L 241.304688 109.515625 L 241.320312 109.53125 L 241.339844 109.542969 L 241.355469 109.554688 L 241.375 109.566406 L 241.390625 109.578125 L 241.410156 109.589844 L 241.425781 109.597656 L 241.484375 109.632812 L 241.5 109.640625 L 241.539062 109.664062 L 241.578125 109.679688 L 241.597656 109.691406 L 241.617188 109.699219 L 241.632812 109.707031 L 241.652344 109.71875 L 241.671875 109.726562 L 241.695312 109.734375 L 241.773438 109.765625 L 241.792969 109.769531 L 241.832031 109.785156 L 241.855469 109.789062 L 241.875 109.796875 L 241.894531 109.800781 L 241.914062 109.808594 L 241.9375 109.8125 L 241.957031 109.820312 L 241.976562 109.824219 L 242 109.828125 L 242.039062 109.835938 L 242.0625 109.839844 L 242.101562 109.847656 L 242.125 109.851562 L 242.144531 109.855469 L 242.167969 109.855469 L 242.207031 109.863281 L 242.230469 109.863281 L 242.25 109.867188 L 242.292969 109.867188 L 242.316406 109.871094 L 242.398438 109.871094 L 242.398438 110.160156 L 242.328125 110.160156 L 242.300781 110.15625 L 242.253906 110.15625 L 242.226562 110.152344 L 242.203125 110.152344 L 242.15625 110.144531 L 242.128906 110.144531 L 242.058594 110.132812 L 242.03125 110.128906 L 241.984375 110.121094 L 241.960938 110.113281 L 241.914062 110.105469 L 241.886719 110.097656 L 241.863281 110.09375 L 241.816406 110.078125 L 241.792969 110.074219 L 241.628906 110.019531 L 241.609375 110.007812 L 241.5625 109.992188 L 241.539062 109.980469 L 241.515625 109.972656 L 241.496094 109.960938 L 241.472656 109.949219 L 241.449219 109.941406 L 241.429688 109.929688 L 241.382812 109.90625 L 241.363281 109.894531 L 241.339844 109.882812 L 241.320312 109.871094 L 241.296875 109.859375 L 241.277344 109.84375 L 241.257812 109.832031 L 241.234375 109.820312 L 241.214844 109.804688 L 241.195312 109.792969 L 241.175781 109.777344 L 241.15625 109.765625 L 241.132812 109.75 L 241.113281 109.734375 L 241.09375 109.722656 L 241.035156 109.675781 L 241.019531 109.660156 L 240.960938 109.613281 L 240.945312 109.59375 L 240.90625 109.5625 L 240.890625 109.542969 L 240.871094 109.527344 L 240.855469 109.511719 L 240.839844 109.492188 L 240.804688 109.457031 L 240.773438 109.417969 L 240.738281 109.382812 L 240.722656 109.363281 L 240.710938 109.34375 L 240.648438 109.265625 L 240.636719 109.246094 L 240.621094 109.226562 L 240.609375 109.207031 L 240.59375 109.183594 L 240.582031 109.164062 L 240.566406 109.144531 L 240.554688 109.121094 L 240.542969 109.101562 L 240.53125 109.078125 L 240.515625 109.058594 L 240.503906 109.039062 L 240.480469 108.992188 L 240.472656 108.972656 L 240.449219 108.925781 L 240.4375 108.90625 L 240.429688 108.882812 L 240.417969 108.859375 L 240.410156 108.839844 L 240.398438 108.816406 L 240.375 108.746094 L 240.363281 108.722656 L 240.332031 108.628906 L 240.328125 108.605469 L 240.3125 108.558594 L 240.308594 108.535156 L 240.300781 108.511719 L 240.296875 108.488281 L 240.289062 108.464844 L 240.285156 108.441406 L 240.28125 108.414062 L 240.277344 108.390625 L 240.269531 108.367188 L 240.261719 108.320312 L 240.261719 108.292969 L 240.25 108.222656 L 240.25 108.195312 L 240.246094 108.171875 L 240.246094 108.148438 L 240.242188 108.121094 L 240.242188 108.050781 L 240.238281 108.023438 L 240.238281 108 Z M 242.398438 109.871094 L 256.800781 109.871094 L 256.800781 110.160156 L 242.398438 110.160156 Z M 242.398438 110.640625 L 256.800781 110.640625 L 256.800781 110.929688 L 242.398438 110.929688 Z M 287.761719 96 L 287.789062 96 L 287.796875 96.003906 L 287.808594 96.003906 L 287.816406 96.007812 L 287.824219 96.007812 L 287.835938 96.011719 L 287.867188 96.027344 L 287.878906 96.03125 L 287.894531 96.039062 L 287.902344 96.046875 L 287.910156 96.050781 L 287.914062 96.058594 L 287.921875 96.0625 L 287.9375 96.078125 L 287.941406 96.085938 L 287.949219 96.089844 L 287.953125 96.097656 L 287.960938 96.105469 L 287.96875 96.121094 L 287.972656 96.132812 L 287.988281 96.164062 L 287.992188 96.175781 L 287.992188 96.183594 L 287.996094 96.191406 L 287.996094 96.203125 L 288 96.210938 L 288 124.589844 L 287.996094 124.597656 L 287.996094 124.605469 L 287.992188 124.617188 L 287.992188 124.625 L 287.988281 124.632812 L 287.984375 124.644531 L 287.960938 124.691406 L 287.953125 124.699219 L 287.949219 124.707031 L 287.941406 124.714844 L 287.9375 124.722656 L 287.929688 124.730469 L 287.921875 124.734375 L 287.914062 124.742188 L 287.910156 124.75 L 287.894531 124.757812 L 287.886719 124.765625 L 287.878906 124.769531 L 287.867188 124.773438 L 287.835938 124.789062 L 287.824219 124.789062 L 287.808594 124.796875 L 287.789062 124.796875 L 287.777344 124.800781 L 280.558594 124.800781 L 280.558594 117.601562 L 280.570312 117.601562 L 280.578125 117.597656 L 280.597656 117.597656 L 280.605469 117.59375 L 280.617188 117.59375 L 280.625 117.589844 L 280.632812 117.589844 L 280.644531 117.585938 L 280.683594 117.566406 L 280.691406 117.558594 L 280.699219 117.554688 L 280.707031 117.546875 L 280.714844 117.542969 L 280.722656 117.535156 L 280.730469 117.53125 L 280.734375 117.523438 L 280.75 117.507812 L 280.757812 117.492188 L 280.765625 117.484375 L 280.78125 117.453125 L 280.785156 117.441406 L 280.789062 117.433594 L 280.789062 117.425781 L 280.792969 117.417969 L 280.796875 117.40625 L 280.796875 117.386719 L 280.800781 117.378906 L 280.800781 103.421875 L 280.796875 103.410156 L 280.796875 103.394531 L 280.792969 103.382812 L 280.789062 103.375 L 280.789062 103.367188 L 280.785156 103.355469 L 280.765625 103.316406 L 280.757812 103.308594 L 280.75 103.292969 L 280.734375 103.277344 L 280.730469 103.269531 L 280.722656 103.265625 L 280.707031 103.25 L 280.691406 103.242188 L 280.683594 103.234375 L 280.644531 103.214844 L 280.632812 103.210938 L 280.625 103.210938 L 280.617188 103.207031 L 280.605469 103.203125 L 280.589844 103.203125 L 280.578125 103.199219 L 280.558594 103.199219 L 280.558594 96 Z M 280.558594 124.800781 L 268.800781 124.800781 L 268.800781 117.601562 L 280.558594 117.601562 Z M 280.558594 103.199219 L 268.800781 103.199219 L 268.800781 96 L 280.558594 96 Z M 268.800781 124.800781 L 256.800781 110.929688 L 256.800781 110.640625 L 268.800781 117.601562 Z M 268.800781 103.199219 L 256.800781 110.160156 L 256.800781 109.871094 L 268.800781 96 Z M 0.238281 28.800781 L 0.222656 28.800781 L 0.210938 28.796875 L 0.191406 28.796875 L 0.175781 28.789062 L 0.164062 28.789062 L 0.132812 28.773438 L 0.121094 28.769531 L 0.113281 28.765625 L 0.105469 28.757812 L 0.0898438 28.75 L 0.0859375 28.742188 L 0.078125 28.734375 L 0.0703125 28.730469 L 0.0625 28.722656 L 0.0585938 28.714844 L 0.0507812 28.707031 L 0.046875 28.699219 L 0.0390625 28.691406 L 0.015625 28.644531 L 0.0117188 28.632812 L 0.0078125 28.625 L 0.0078125 28.617188 L 0.00390625 28.605469 L 0.00390625 28.597656 L 0 28.589844 L 0 0.210938 L 0.00390625 0.203125 L 0.00390625 0.191406 L 0.0078125 0.183594 L 0.0078125 0.175781 L 0.0117188 0.164062 L 0.0273438 0.132812 L 0.03125 0.121094 L 0.0390625 0.105469 L 0.046875 0.0976562 L 0.0507812 0.0898438 L 0.0585938 0.0859375 L 0.0625 0.078125 L 0.078125 0.0625 L 0.0859375 0.0585938 L 0.0898438 0.0507812 L 0.0976562 0.046875 L 0.105469 0.0390625 L 0.121094 0.03125 L 0.132812 0.0273438 L 0.164062 0.0117188 L 0.175781 0.0078125 L 0.183594 0.0078125 L 0.191406 0.00390625 L 0.203125 0.00390625 L 0.210938 0 L 7.441406 0 L 7.441406 7.199219 L 7.421875 7.199219 L 7.410156 7.203125 L 7.394531 7.203125 L 7.382812 7.207031 L 7.375 7.210938 L 7.367188 7.210938 L 7.355469 7.214844 L 7.316406 7.234375 L 7.308594 7.242188 L 7.292969 7.25 L 7.277344 7.265625 L 7.269531 7.269531 L 7.265625 7.277344 L 7.25 7.292969 L 7.242188 7.308594 L 7.234375 7.316406 L 7.214844 7.355469 L 7.210938 7.367188 L 7.210938 7.375 L 7.207031 7.382812 L 7.203125 7.394531 L 7.203125 7.410156 L 7.199219 7.421875 L 7.199219 21.378906 L 7.203125 21.386719 L 7.203125 21.40625 L 7.207031 21.417969 L 7.210938 21.425781 L 7.210938 21.433594 L 7.214844 21.441406 L 7.21875 21.453125 L 7.234375 21.484375 L 7.242188 21.492188 L 7.25 21.507812 L 7.265625 21.523438 L 7.269531 21.53125 L 7.277344 21.535156 L 7.285156 21.542969 L 7.292969 21.546875 L 7.300781 21.554688 L 7.308594 21.558594 L 7.316406 21.566406 L 7.355469 21.585938 L 7.367188 21.589844 L 7.375 21.589844 L 7.382812 21.59375 L 7.394531 21.59375 L 7.402344 21.597656 L 7.421875 21.597656 L 7.429688 21.601562 L 7.441406 21.601562 L 7.441406 28.800781 Z M 7.441406 0 L 19.199219 0 L 19.199219 7.199219 L 7.441406 7.199219 Z M 7.441406 21.601562 L 19.199219 21.601562 L 19.199219 28.800781 L 7.441406 28.800781 Z M 19.199219 0 L 31.199219 13.871094 L 31.199219 14.160156 L 19.199219 7.199219 Z M 19.199219 21.601562 L 31.199219 14.640625 L 31.199219 14.929688 L 19.199219 28.800781 Z M 31.199219 13.871094 L 223.199219 13.871094 L 223.199219 14.160156 L 31.199219 14.160156 Z M 31.199219 14.640625 L 223.199219 14.640625 L 223.199219 14.929688 L 31.199219 14.929688 Z M 127.199219 15.3125 L 127.199219 15.296875 L 127.203125 15.289062 L 127.203125 15.277344 L 127.207031 15.269531 L 127.207031 15.261719 L 127.210938 15.253906 L 127.214844 15.25 L 127.222656 15.234375 L 127.226562 15.230469 L 127.230469 15.222656 L 127.234375 15.21875 L 127.238281 15.210938 L 127.246094 15.207031 L 127.253906 15.199219 L 127.269531 15.191406 L 127.273438 15.1875 L 127.289062 15.179688 L 127.292969 15.175781 L 127.300781 15.175781 L 127.308594 15.171875 L 127.316406 15.171875 L 127.320312 15.167969 L 127.34375 15.167969 L 127.34375 15.457031 L 127.328125 15.457031 L 127.320312 15.453125 L 127.308594 15.453125 L 127.292969 15.445312 L 127.289062 15.445312 L 127.273438 15.4375 L 127.269531 15.433594 L 127.253906 15.425781 L 127.234375 15.40625 L 127.230469 15.398438 L 127.226562 15.394531 L 127.222656 15.386719 L 127.21875 15.382812 L 127.210938 15.367188 L 127.207031 15.363281 L 127.207031 15.355469 L 127.203125 15.347656 L 127.203125 15.332031 L 127.199219 15.328125 Z M 127.199219 16.078125 L 127.199219 16.066406 L 127.203125 16.058594 L 127.203125 16.042969 L 127.207031 16.035156 L 127.207031 16.03125 L 127.214844 16.015625 L 127.21875 16.011719 L 127.226562 15.996094 L 127.230469 15.992188 L 127.234375 15.984375 L 127.238281 15.980469 L 127.246094 15.976562 L 127.25 15.972656 L 127.253906 15.964844 L 127.269531 15.957031 L 127.273438 15.953125 L 127.28125 15.949219 L 127.289062 15.949219 L 127.292969 15.945312 L 127.300781 15.941406 L 127.308594 15.941406 L 127.316406 15.9375 L 127.34375 15.9375 L 127.34375 16.222656 L 127.316406 16.222656 L 127.308594 16.21875 L 127.300781 16.21875 L 127.292969 16.214844 L 127.289062 16.210938 L 127.28125 16.210938 L 127.273438 16.207031 L 127.269531 16.203125 L 127.253906 16.195312 L 127.25 16.1875 L 127.246094 16.183594 L 127.238281 16.179688 L 127.234375 16.171875 L 127.226562 16.164062 L 127.21875 16.148438 L 127.214844 16.144531 L 127.207031 16.128906 L 127.207031 16.125 L 127.203125 16.117188 L 127.203125 16.101562 L 127.199219 16.09375 Z M 127.34375 15.167969 L 136.800781 15.167969 L 136.800781 15.457031 L 127.34375 15.457031 Z M 127.34375 15.9375 L 136.800781 15.9375 L 136.800781 16.222656 L 127.34375 16.222656 Z M 136.800781 15.9375 L 136.898438 15.9375 L 136.921875 15.941406 L 136.972656 15.941406 L 137.019531 15.949219 L 137.046875 15.949219 L 137.117188 15.960938 L 137.144531 15.964844 L 137.261719 15.984375 L 137.289062 15.992188 L 137.3125 15.996094 L 137.335938 16.003906 L 137.359375 16.007812 L 137.453125 16.039062 L 137.476562 16.042969 L 137.5 16.050781 L 137.523438 16.0625 L 137.59375 16.085938 L 137.613281 16.097656 L 137.660156 16.113281 L 137.707031 16.136719 L 137.726562 16.144531 L 137.773438 16.167969 L 137.792969 16.179688 L 137.816406 16.191406 L 137.835938 16.203125 L 137.859375 16.214844 L 137.878906 16.226562 L 137.902344 16.238281 L 137.941406 16.261719 L 137.964844 16.277344 L 137.984375 16.289062 L 138.003906 16.304688 L 138.027344 16.316406 L 138.046875 16.332031 L 138.066406 16.34375 L 138.183594 16.4375 L 138.199219 16.453125 L 138.257812 16.5 L 138.378906 16.621094 L 138.394531 16.640625 L 138.429688 16.675781 L 138.492188 16.753906 L 138.507812 16.769531 L 138.519531 16.789062 L 138.535156 16.808594 L 138.550781 16.832031 L 138.566406 16.851562 L 138.578125 16.871094 L 138.59375 16.890625 L 138.605469 16.910156 L 138.621094 16.933594 L 138.644531 16.972656 L 138.65625 16.996094 L 138.671875 17.015625 L 138.683594 17.039062 L 138.695312 17.058594 L 138.707031 17.082031 L 138.71875 17.101562 L 138.730469 17.125 L 138.738281 17.144531 L 138.761719 17.191406 L 138.769531 17.214844 L 138.78125 17.234375 L 138.789062 17.257812 L 138.800781 17.28125 L 138.816406 17.328125 L 138.828125 17.347656 L 138.875 17.488281 L 138.878906 17.511719 L 138.886719 17.535156 L 138.894531 17.5625 L 138.902344 17.609375 L 138.910156 17.632812 L 138.917969 17.679688 L 138.925781 17.703125 L 138.929688 17.730469 L 138.941406 17.800781 L 138.941406 17.828125 L 138.949219 17.875 L 138.949219 17.898438 L 138.953125 17.925781 L 138.953125 17.949219 L 138.957031 17.972656 L 138.957031 18.023438 L 138.960938 18.046875 L 138.960938 18.097656 L 138.671875 18.097656 L 138.671875 18.011719 L 138.667969 17.988281 L 138.667969 17.945312 L 138.664062 17.925781 L 138.664062 17.90625 L 138.660156 17.882812 L 138.65625 17.863281 L 138.65625 17.839844 L 138.648438 17.800781 L 138.644531 17.777344 L 138.640625 17.757812 L 138.636719 17.734375 L 138.628906 17.695312 L 138.625 17.671875 L 138.617188 17.652344 L 138.609375 17.613281 L 138.601562 17.589844 L 138.597656 17.570312 L 138.589844 17.550781 L 138.585938 17.53125 L 138.578125 17.507812 L 138.5625 17.46875 L 138.558594 17.449219 L 138.527344 17.371094 L 138.515625 17.351562 L 138.492188 17.292969 L 138.480469 17.273438 L 138.472656 17.253906 L 138.460938 17.234375 L 138.453125 17.214844 L 138.441406 17.195312 L 138.433594 17.179688 L 138.410156 17.140625 L 138.398438 17.125 L 138.375 17.085938 L 138.367188 17.070312 L 138.355469 17.050781 L 138.339844 17.035156 L 138.328125 17.015625 L 138.316406 17 L 138.304688 16.980469 L 138.292969 16.964844 L 138.277344 16.949219 L 138.265625 16.929688 L 138.253906 16.914062 L 138.238281 16.898438 L 138.226562 16.882812 L 138.195312 16.851562 L 138.183594 16.832031 L 138.167969 16.816406 L 138.152344 16.804688 L 138.140625 16.789062 L 138.078125 16.726562 L 138.0625 16.714844 L 138.03125 16.683594 L 138.015625 16.671875 L 137.996094 16.65625 L 137.980469 16.644531 L 137.964844 16.628906 L 137.949219 16.617188 L 137.929688 16.605469 L 137.914062 16.589844 L 137.898438 16.578125 L 137.878906 16.566406 L 137.863281 16.554688 L 137.84375 16.542969 L 137.828125 16.53125 L 137.789062 16.507812 L 137.773438 16.496094 L 137.753906 16.484375 L 137.734375 16.476562 L 137.71875 16.464844 L 137.699219 16.453125 L 137.679688 16.445312 L 137.660156 16.433594 L 137.640625 16.425781 L 137.625 16.414062 L 137.605469 16.40625 L 137.585938 16.394531 L 137.46875 16.347656 L 137.445312 16.339844 L 137.386719 16.316406 L 137.367188 16.3125 L 137.347656 16.304688 L 137.324219 16.300781 L 137.304688 16.292969 L 137.285156 16.289062 L 137.265625 16.28125 L 137.242188 16.277344 L 137.203125 16.269531 L 137.179688 16.261719 L 137.140625 16.253906 L 137.117188 16.25 L 137.097656 16.246094 L 137.074219 16.246094 L 137.035156 16.238281 L 137.011719 16.234375 L 136.992188 16.234375 L 136.96875 16.230469 L 136.949219 16.230469 L 136.929688 16.226562 L 136.863281 16.226562 L 136.84375 16.222656 L 136.800781 16.222656 Z M 136.800781 15.167969 L 136.898438 15.167969 L 136.933594 15.171875 L 136.964844 15.171875 L 137 15.175781 L 137.03125 15.175781 L 137.066406 15.179688 L 137.097656 15.183594 L 137.132812 15.1875 L 137.164062 15.191406 L 137.199219 15.195312 L 137.230469 15.199219 L 137.265625 15.207031 L 137.296875 15.210938 L 137.332031 15.214844 L 137.394531 15.230469 L 137.429688 15.234375 L 137.492188 15.25 L 137.527344 15.257812 L 137.558594 15.269531 L 137.621094 15.285156 L 137.652344 15.296875 L 137.6875 15.304688 L 137.71875 15.316406 L 137.75 15.324219 L 137.90625 15.382812 L 137.9375 15.398438 L 137.964844 15.410156 L 137.996094 15.425781 L 138.027344 15.4375 L 138.058594 15.453125 L 138.085938 15.464844 L 138.148438 15.496094 L 138.175781 15.511719 L 138.207031 15.527344 L 138.234375 15.542969 L 138.265625 15.558594 L 138.292969 15.578125 L 138.320312 15.59375 L 138.351562 15.613281 L 138.378906 15.628906 L 138.433594 15.667969 L 138.460938 15.683594 L 138.570312 15.761719 L 138.59375 15.785156 L 138.648438 15.824219 L 138.671875 15.847656 L 138.699219 15.867188 L 138.722656 15.890625 L 138.75 15.910156 L 138.796875 15.957031 L 138.824219 15.980469 L 138.941406 16.097656 L 138.960938 16.121094 L 138.984375 16.148438 L 139.007812 16.171875 L 139.027344 16.195312 L 139.050781 16.222656 L 139.070312 16.25 L 139.09375 16.273438 L 139.132812 16.328125 L 139.152344 16.351562 L 139.25 16.488281 L 139.265625 16.519531 L 139.285156 16.546875 L 139.300781 16.574219 L 139.320312 16.601562 L 139.335938 16.632812 L 139.351562 16.660156 L 139.367188 16.691406 L 139.382812 16.71875 L 139.398438 16.75 L 139.414062 16.777344 L 139.445312 16.839844 L 139.457031 16.867188 L 139.472656 16.898438 L 139.484375 16.929688 L 139.5 16.960938 L 139.582031 17.179688 L 139.589844 17.210938 L 139.601562 17.242188 L 139.609375 17.273438 L 139.621094 17.304688 L 139.628906 17.339844 L 139.652344 17.433594 L 139.660156 17.46875 L 139.667969 17.5 L 139.671875 17.53125 L 139.679688 17.566406 L 139.683594 17.597656 L 139.691406 17.632812 L 139.695312 17.664062 L 139.699219 17.699219 L 139.707031 17.730469 L 139.710938 17.761719 L 139.710938 17.796875 L 139.714844 17.828125 L 139.71875 17.863281 L 139.722656 17.894531 L 139.722656 17.929688 L 139.726562 17.960938 L 139.726562 18.097656 L 139.441406 18.097656 L 139.441406 18.066406 L 139.4375 18.035156 L 139.4375 17.945312 L 139.433594 17.914062 L 139.429688 17.886719 L 139.429688 17.855469 L 139.425781 17.824219 L 139.421875 17.796875 L 139.417969 17.765625 L 139.414062 17.738281 L 139.40625 17.675781 L 139.402344 17.648438 L 139.394531 17.617188 L 139.390625 17.589844 L 139.386719 17.558594 L 139.378906 17.53125 L 139.371094 17.5 L 139.363281 17.472656 L 139.359375 17.441406 L 139.351562 17.414062 L 139.34375 17.382812 L 139.332031 17.355469 L 139.324219 17.324219 L 139.308594 17.269531 L 139.296875 17.242188 L 139.289062 17.210938 L 139.265625 17.15625 L 139.257812 17.128906 L 139.246094 17.101562 L 139.234375 17.070312 L 139.210938 17.015625 L 139.195312 16.988281 L 139.171875 16.933594 L 139.15625 16.90625 L 139.144531 16.882812 L 139.128906 16.855469 L 139.117188 16.828125 L 139.101562 16.800781 L 139.085938 16.777344 L 139.054688 16.722656 L 139.039062 16.699219 L 139.023438 16.671875 L 138.992188 16.625 L 138.972656 16.597656 L 138.957031 16.574219 L 138.9375 16.550781 L 138.921875 16.523438 L 138.902344 16.5 L 138.886719 16.476562 L 138.789062 16.359375 L 138.769531 16.339844 L 138.730469 16.292969 L 138.707031 16.273438 L 138.6875 16.25 L 138.625 16.1875 L 138.601562 16.167969 L 138.558594 16.125 L 138.441406 16.027344 L 138.417969 16.011719 L 138.371094 15.972656 L 138.347656 15.957031 L 138.324219 15.9375 L 138.296875 15.921875 L 138.273438 15.90625 L 138.246094 15.886719 L 138.199219 15.855469 L 138.144531 15.824219 L 138.121094 15.808594 L 138.09375 15.792969 L 138.066406 15.78125 L 138.042969 15.765625 L 138.015625 15.753906 L 137.988281 15.738281 L 137.960938 15.726562 L 137.933594 15.710938 L 137.742188 15.628906 L 137.710938 15.617188 L 137.683594 15.609375 L 137.65625 15.597656 L 137.628906 15.589844 L 137.597656 15.578125 L 137.542969 15.5625 L 137.511719 15.554688 L 137.484375 15.546875 L 137.453125 15.539062 L 137.425781 15.53125 L 137.394531 15.523438 L 137.367188 15.515625 L 137.335938 15.511719 L 137.308594 15.503906 L 137.277344 15.5 L 137.25 15.496094 L 137.21875 15.488281 L 137.1875 15.484375 L 137.160156 15.480469 L 137.128906 15.476562 L 137.101562 15.472656 L 137.070312 15.46875 L 137.039062 15.46875 L 137.011719 15.464844 L 136.980469 15.460938 L 136.949219 15.460938 L 136.921875 15.457031 L 136.800781 15.457031 Z M 139.726562 18.097656 L 139.726562 32.496094 L 139.441406 32.496094 L 139.441406 18.097656 Z M 138.960938 18.097656 L 138.960938 32.496094 L 138.671875 32.496094 L 138.671875 18.097656 Z M 138.960938 32.496094 L 138.960938 32.546875 L 138.957031 32.570312 L 138.957031 32.617188 L 138.953125 32.644531 L 138.953125 32.667969 L 138.949219 32.691406 L 138.949219 32.71875 L 138.941406 32.765625 L 138.941406 32.789062 L 138.9375 32.816406 L 138.925781 32.886719 L 138.917969 32.910156 L 138.914062 32.933594 L 138.910156 32.960938 L 138.902344 32.984375 L 138.894531 33.03125 L 138.878906 33.078125 L 138.875 33.101562 L 138.828125 33.242188 L 138.816406 33.265625 L 138.800781 33.3125 L 138.789062 33.332031 L 138.78125 33.355469 L 138.769531 33.378906 L 138.761719 33.402344 L 138.75 33.421875 L 138.738281 33.445312 L 138.730469 33.46875 L 138.71875 33.488281 L 138.707031 33.511719 L 138.695312 33.53125 L 138.683594 33.554688 L 138.671875 33.574219 L 138.65625 33.597656 L 138.644531 33.617188 L 138.632812 33.640625 L 138.621094 33.660156 L 138.605469 33.679688 L 138.59375 33.699219 L 138.578125 33.722656 L 138.566406 33.742188 L 138.519531 33.800781 L 138.507812 33.820312 L 138.445312 33.898438 L 138.410156 33.933594 L 138.394531 33.953125 L 138.378906 33.96875 L 138.363281 33.988281 L 138.328125 34.023438 L 138.308594 34.039062 L 138.292969 34.058594 L 138.273438 34.074219 L 138.238281 34.109375 L 138.199219 34.140625 L 138.183594 34.15625 L 138.105469 34.21875 L 138.085938 34.230469 L 138.046875 34.261719 L 138.027344 34.273438 L 138.003906 34.289062 L 137.984375 34.300781 L 137.964844 34.316406 L 137.941406 34.328125 L 137.921875 34.339844 L 137.902344 34.355469 L 137.878906 34.367188 L 137.859375 34.378906 L 137.835938 34.390625 L 137.816406 34.402344 L 137.792969 34.414062 L 137.773438 34.425781 L 137.75 34.4375 L 137.726562 34.445312 L 137.707031 34.457031 L 137.683594 34.46875 L 137.660156 34.476562 L 137.636719 34.488281 L 137.613281 34.496094 L 137.59375 34.503906 L 137.570312 34.515625 L 137.40625 34.570312 L 137.382812 34.574219 L 137.335938 34.589844 L 137.3125 34.59375 L 137.289062 34.601562 L 137.261719 34.605469 L 137.238281 34.609375 L 137.214844 34.617188 L 137.144531 34.628906 L 137.117188 34.632812 L 137.070312 34.640625 L 137.046875 34.640625 L 137.019531 34.644531 L 136.996094 34.648438 L 136.972656 34.648438 L 136.949219 34.652344 L 136.898438 34.652344 L 136.875 34.65625 L 136.800781 34.65625 L 136.800781 34.367188 L 136.886719 34.367188 L 136.90625 34.363281 L 136.949219 34.363281 L 136.96875 34.359375 L 136.992188 34.359375 L 137.011719 34.355469 L 137.035156 34.351562 L 137.054688 34.351562 L 137.074219 34.347656 L 137.097656 34.34375 L 137.117188 34.339844 L 137.140625 34.335938 L 137.179688 34.328125 L 137.203125 34.324219 L 137.242188 34.316406 L 137.265625 34.308594 L 137.285156 34.304688 L 137.304688 34.296875 L 137.324219 34.292969 L 137.347656 34.285156 L 137.367188 34.28125 L 137.40625 34.265625 L 137.425781 34.261719 L 137.445312 34.253906 L 137.46875 34.246094 L 137.546875 34.214844 L 137.566406 34.203125 L 137.605469 34.1875 L 137.625 34.175781 L 137.640625 34.167969 L 137.660156 34.15625 L 137.679688 34.148438 L 137.699219 34.136719 L 137.71875 34.128906 L 137.734375 34.117188 L 137.773438 34.09375 L 137.789062 34.085938 L 137.828125 34.0625 L 137.84375 34.050781 L 137.863281 34.039062 L 137.878906 34.023438 L 137.898438 34.011719 L 137.929688 33.988281 L 137.949219 33.976562 L 137.964844 33.960938 L 137.980469 33.949219 L 137.996094 33.933594 L 138.015625 33.921875 L 138.03125 33.90625 L 138.046875 33.894531 L 138.09375 33.847656 L 138.109375 33.835938 L 138.140625 33.804688 L 138.152344 33.789062 L 138.183594 33.757812 L 138.195312 33.742188 L 138.226562 33.710938 L 138.238281 33.695312 L 138.253906 33.675781 L 138.277344 33.644531 L 138.292969 33.628906 L 138.304688 33.609375 L 138.316406 33.59375 L 138.328125 33.574219 L 138.339844 33.558594 L 138.355469 33.539062 L 138.367188 33.523438 L 138.375 33.503906 L 138.386719 33.488281 L 138.410156 33.449219 L 138.421875 33.433594 L 138.433594 33.414062 L 138.441406 33.394531 L 138.453125 33.375 L 138.460938 33.355469 L 138.472656 33.339844 L 138.480469 33.320312 L 138.492188 33.300781 L 138.515625 33.242188 L 138.527344 33.222656 L 138.558594 33.144531 L 138.5625 33.121094 L 138.585938 33.0625 L 138.589844 33.042969 L 138.597656 33.023438 L 138.601562 33 L 138.609375 32.980469 L 138.613281 32.960938 L 138.617188 32.9375 L 138.625 32.917969 L 138.628906 32.898438 L 138.632812 32.875 L 138.640625 32.835938 L 138.644531 32.8125 L 138.652344 32.773438 L 138.65625 32.75 L 138.65625 32.730469 L 138.660156 32.707031 L 138.664062 32.6875 L 138.664062 32.667969 L 138.667969 32.644531 L 138.667969 32.601562 L 138.671875 32.582031 L 138.671875 32.496094 Z M 139.726562 32.496094 L 139.726562 32.628906 L 139.722656 32.664062 L 139.722656 32.695312 L 139.71875 32.730469 L 139.714844 32.761719 L 139.710938 32.796875 L 139.710938 32.828125 L 139.707031 32.863281 L 139.699219 32.894531 L 139.695312 32.925781 L 139.691406 32.960938 L 139.683594 32.992188 L 139.679688 33.027344 L 139.671875 33.058594 L 139.667969 33.089844 L 139.660156 33.125 L 139.644531 33.1875 L 139.636719 33.222656 L 139.621094 33.285156 L 139.609375 33.316406 L 139.601562 33.351562 L 139.589844 33.382812 L 139.582031 33.414062 L 139.5 33.632812 L 139.484375 33.664062 L 139.472656 33.691406 L 139.457031 33.722656 L 139.445312 33.753906 L 139.429688 33.785156 L 139.414062 33.8125 L 139.398438 33.84375 L 139.382812 33.871094 L 139.367188 33.902344 L 139.351562 33.929688 L 139.335938 33.960938 L 139.320312 33.988281 L 139.300781 34.015625 L 139.285156 34.046875 L 139.265625 34.074219 L 139.25 34.101562 L 139.113281 34.292969 L 139.09375 34.316406 L 139.070312 34.34375 L 139.050781 34.371094 L 139.027344 34.394531 L 139.007812 34.421875 L 138.960938 34.46875 L 138.941406 34.496094 L 138.824219 34.613281 L 138.796875 34.636719 L 138.773438 34.660156 L 138.75 34.679688 L 138.722656 34.703125 L 138.699219 34.726562 L 138.671875 34.746094 L 138.648438 34.765625 L 138.621094 34.789062 L 138.59375 34.808594 L 138.570312 34.828125 L 138.40625 34.945312 L 138.378906 34.960938 L 138.351562 34.980469 L 138.320312 34.996094 L 138.292969 35.015625 L 138.265625 35.03125 L 138.234375 35.046875 L 138.207031 35.0625 L 138.175781 35.082031 L 138.148438 35.097656 L 138.117188 35.109375 L 138.085938 35.125 L 138.058594 35.140625 L 138.027344 35.15625 L 137.964844 35.179688 L 137.9375 35.195312 L 137.71875 35.277344 L 137.6875 35.285156 L 137.652344 35.296875 L 137.621094 35.304688 L 137.589844 35.316406 L 137.527344 35.332031 L 137.492188 35.339844 L 137.429688 35.355469 L 137.394531 35.363281 L 137.363281 35.371094 L 137.332031 35.375 L 137.296875 35.382812 L 137.265625 35.386719 L 137.230469 35.390625 L 137.199219 35.398438 L 137.164062 35.402344 L 137.132812 35.40625 L 137.097656 35.410156 L 137.066406 35.410156 L 137.03125 35.414062 L 137 35.417969 L 136.964844 35.417969 L 136.933594 35.421875 L 136.832031 35.421875 L 136.800781 35.425781 L 136.800781 35.136719 L 136.859375 35.136719 L 136.890625 35.132812 L 136.949219 35.132812 L 136.980469 35.128906 L 137.011719 35.128906 L 137.039062 35.125 L 137.101562 35.117188 L 137.128906 35.117188 L 137.160156 35.113281 L 137.1875 35.105469 L 137.25 35.097656 L 137.277344 35.09375 L 137.308594 35.085938 L 137.335938 35.082031 L 137.367188 35.074219 L 137.394531 35.066406 L 137.425781 35.0625 L 137.453125 35.054688 L 137.484375 35.046875 L 137.511719 35.039062 L 137.542969 35.03125 L 137.570312 35.019531 L 137.597656 35.011719 L 137.628906 35.003906 L 137.65625 34.992188 L 137.683594 34.984375 L 137.710938 34.972656 L 137.742188 34.960938 L 137.769531 34.953125 L 137.90625 34.894531 L 137.933594 34.878906 L 137.988281 34.855469 L 138.042969 34.824219 L 138.066406 34.8125 L 138.121094 34.78125 L 138.144531 34.765625 L 138.199219 34.734375 L 138.246094 34.703125 L 138.273438 34.6875 L 138.296875 34.671875 L 138.324219 34.652344 L 138.347656 34.636719 L 138.394531 34.597656 L 138.417969 34.582031 L 138.558594 34.464844 L 138.578125 34.445312 L 138.625 34.40625 L 138.644531 34.382812 L 138.667969 34.363281 L 138.6875 34.339844 L 138.75 34.277344 L 138.886719 34.113281 L 138.902344 34.089844 L 138.921875 34.066406 L 138.9375 34.042969 L 138.957031 34.019531 L 138.972656 33.992188 L 138.992188 33.96875 L 139.007812 33.945312 L 139.023438 33.917969 L 139.039062 33.894531 L 139.054688 33.867188 L 139.070312 33.84375 L 139.117188 33.761719 L 139.128906 33.738281 L 139.144531 33.710938 L 139.15625 33.683594 L 139.171875 33.65625 L 139.195312 33.601562 L 139.210938 33.574219 L 139.257812 33.464844 L 139.265625 33.4375 L 139.277344 33.410156 L 139.289062 33.378906 L 139.296875 33.351562 L 139.308594 33.324219 L 139.316406 33.292969 L 139.332031 33.238281 L 139.34375 33.207031 L 139.351562 33.179688 L 139.359375 33.148438 L 139.363281 33.121094 L 139.371094 33.09375 L 139.386719 33.03125 L 139.390625 33.003906 L 139.394531 32.972656 L 139.402344 32.945312 L 139.40625 32.914062 L 139.410156 32.886719 L 139.417969 32.824219 L 139.421875 32.796875 L 139.429688 32.734375 L 139.429688 32.707031 L 139.4375 32.644531 L 139.4375 32.554688 L 139.441406 32.527344 L 139.441406 32.496094 Z M 136.800781 35.425781 L 112.800781 35.425781 L 112.800781 35.136719 L 136.800781 35.136719 Z M 136.800781 34.65625 L 112.800781 34.65625 L 112.800781 34.367188 L 136.800781 34.367188 Z M 112.800781 34.65625 L 112.710938 34.65625 L 112.679688 34.660156 L 112.648438 34.660156 L 112.621094 34.664062 L 112.589844 34.664062 L 112.527344 34.671875 L 112.5 34.671875 L 112.4375 34.679688 L 112.410156 34.683594 L 112.378906 34.691406 L 112.351562 34.695312 L 112.320312 34.699219 L 112.289062 34.707031 L 112.261719 34.710938 L 112.230469 34.71875 L 112.203125 34.722656 L 112.171875 34.730469 L 112.144531 34.738281 L 112.113281 34.746094 L 112.085938 34.753906 L 112.054688 34.761719 L 112.027344 34.773438 L 112 34.78125 L 111.96875 34.789062 L 111.941406 34.800781 L 111.914062 34.808594 L 111.882812 34.820312 L 111.855469 34.832031 L 111.828125 34.839844 L 111.71875 34.886719 L 111.691406 34.902344 L 111.636719 34.925781 L 111.609375 34.941406 L 111.582031 34.953125 L 111.527344 34.984375 L 111.5 34.996094 L 111.476562 35.011719 L 111.421875 35.042969 L 111.398438 35.058594 L 111.371094 35.074219 L 111.347656 35.089844 L 111.324219 35.109375 L 111.296875 35.125 L 111.273438 35.144531 L 111.25 35.160156 L 111.222656 35.179688 L 111.199219 35.195312 L 111.105469 35.273438 L 111.082031 35.289062 L 111.039062 35.332031 L 110.992188 35.371094 L 110.863281 35.5 L 110.84375 35.523438 L 110.824219 35.542969 L 110.726562 35.660156 L 110.710938 35.683594 L 110.671875 35.730469 L 110.65625 35.757812 L 110.636719 35.78125 L 110.621094 35.804688 L 110.605469 35.832031 L 110.585938 35.855469 L 110.570312 35.882812 L 110.554688 35.90625 L 110.539062 35.933594 L 110.523438 35.957031 L 110.492188 36.011719 L 110.480469 36.039062 L 110.464844 36.0625 L 110.453125 36.089844 L 110.4375 36.117188 L 110.425781 36.144531 L 110.410156 36.171875 L 110.351562 36.308594 L 110.339844 36.339844 L 110.328125 36.367188 L 110.320312 36.394531 L 110.308594 36.421875 L 110.296875 36.453125 L 110.28125 36.507812 L 110.269531 36.539062 L 110.261719 36.566406 L 110.253906 36.597656 L 110.238281 36.652344 L 110.230469 36.683594 L 110.226562 36.710938 L 110.210938 36.773438 L 110.207031 36.800781 L 110.203125 36.832031 L 110.195312 36.859375 L 110.1875 36.921875 L 110.183594 36.949219 L 110.175781 37.011719 L 110.171875 37.039062 L 110.167969 37.070312 L 110.167969 37.101562 L 110.164062 37.128906 L 110.164062 37.191406 L 110.160156 37.21875 L 110.160156 37.371094 L 110.164062 37.402344 L 110.164062 37.460938 L 110.167969 37.492188 L 110.167969 37.523438 L 110.171875 37.550781 L 110.179688 37.613281 L 110.183594 37.640625 L 110.191406 37.703125 L 110.195312 37.730469 L 110.203125 37.761719 L 110.207031 37.789062 L 110.210938 37.820312 L 110.21875 37.851562 L 110.226562 37.878906 L 110.230469 37.910156 L 110.238281 37.9375 L 110.246094 37.96875 L 110.261719 38.023438 L 110.269531 38.054688 L 110.28125 38.082031 L 110.289062 38.113281 L 110.296875 38.140625 L 110.308594 38.167969 L 110.320312 38.199219 L 110.328125 38.226562 L 110.386719 38.363281 L 110.398438 38.394531 L 110.410156 38.421875 L 110.425781 38.449219 L 110.4375 38.472656 L 110.453125 38.5 L 110.464844 38.527344 L 110.480469 38.554688 L 110.492188 38.582031 L 110.507812 38.605469 L 110.539062 38.660156 L 110.554688 38.683594 L 110.570312 38.710938 L 110.585938 38.734375 L 110.605469 38.761719 L 110.621094 38.785156 L 110.636719 38.8125 L 110.65625 38.835938 L 110.671875 38.859375 L 110.710938 38.90625 L 110.726562 38.933594 L 110.765625 38.980469 L 110.785156 39 L 110.863281 39.09375 L 110.886719 39.113281 L 110.90625 39.136719 L 110.929688 39.15625 L 110.949219 39.179688 L 110.972656 39.199219 L 111.015625 39.242188 L 111.039062 39.261719 L 111.058594 39.28125 L 111.175781 39.378906 L 111.199219 39.394531 L 111.222656 39.414062 L 111.25 39.433594 L 111.296875 39.464844 L 111.324219 39.484375 L 111.371094 39.515625 L 111.398438 39.53125 L 111.421875 39.550781 L 111.449219 39.566406 L 111.476562 39.578125 L 111.5 39.59375 L 111.554688 39.625 L 111.582031 39.636719 L 111.609375 39.652344 L 111.636719 39.664062 L 111.664062 39.679688 L 111.882812 39.773438 L 111.914062 39.78125 L 111.941406 39.792969 L 111.96875 39.800781 L 112 39.8125 L 112.054688 39.828125 L 112.085938 39.835938 L 112.113281 39.84375 L 112.144531 39.851562 L 112.171875 39.859375 L 112.203125 39.867188 L 112.230469 39.875 L 112.261719 39.878906 L 112.289062 39.886719 L 112.320312 39.890625 L 112.351562 39.898438 L 112.378906 39.902344 L 112.410156 39.90625 L 112.4375 39.910156 L 112.5 39.917969 L 112.527344 39.921875 L 112.558594 39.925781 L 112.589844 39.925781 L 112.621094 39.929688 L 112.648438 39.933594 L 112.738281 39.933594 L 112.769531 39.9375 L 112.800781 39.9375 L 112.800781 40.222656 L 112.667969 40.222656 L 112.632812 40.21875 L 112.597656 40.21875 L 112.566406 40.214844 L 112.53125 40.210938 L 112.5 40.207031 L 112.464844 40.203125 L 112.433594 40.199219 L 112.398438 40.195312 L 112.367188 40.191406 L 112.332031 40.1875 L 112.300781 40.179688 L 112.269531 40.175781 L 112.234375 40.167969 L 112.203125 40.164062 L 112.167969 40.15625 L 112.105469 40.140625 L 112.070312 40.132812 L 112.039062 40.125 L 112.007812 40.113281 L 111.976562 40.105469 L 111.941406 40.097656 L 111.878906 40.074219 L 111.847656 40.066406 L 111.691406 40.007812 L 111.660156 39.992188 L 111.628906 39.980469 L 111.597656 39.964844 L 111.570312 39.953125 L 111.507812 39.921875 L 111.476562 39.910156 L 111.449219 39.894531 L 111.417969 39.878906 L 111.390625 39.863281 L 111.359375 39.84375 L 111.332031 39.828125 L 111.300781 39.8125 L 111.273438 39.792969 L 111.246094 39.777344 L 111.21875 39.757812 L 111.1875 39.742188 L 111.023438 39.625 L 111 39.605469 L 110.972656 39.582031 L 110.945312 39.5625 L 110.921875 39.542969 L 110.894531 39.519531 L 110.871094 39.496094 L 110.84375 39.476562 L 110.796875 39.429688 L 110.769531 39.40625 L 110.652344 39.289062 L 110.632812 39.261719 L 110.585938 39.214844 L 110.566406 39.1875 L 110.542969 39.164062 L 110.523438 39.136719 L 110.5 39.109375 L 110.480469 39.082031 L 110.460938 39.058594 L 110.363281 38.921875 L 110.347656 38.894531 L 110.328125 38.863281 L 110.308594 38.835938 L 110.292969 38.808594 L 110.277344 38.777344 L 110.257812 38.75 L 110.242188 38.722656 L 110.226562 38.691406 L 110.210938 38.664062 L 110.179688 38.601562 L 110.164062 38.574219 L 110.152344 38.542969 L 110.121094 38.480469 L 110.109375 38.449219 L 110.097656 38.421875 L 110.082031 38.390625 L 110.035156 38.265625 L 110.027344 38.234375 L 110.015625 38.199219 L 110.003906 38.167969 L 109.996094 38.136719 L 109.984375 38.105469 L 109.976562 38.074219 L 109.96875 38.039062 L 109.953125 37.976562 L 109.945312 37.941406 L 109.929688 37.878906 L 109.925781 37.84375 L 109.917969 37.8125 L 109.910156 37.777344 L 109.90625 37.746094 L 109.902344 37.710938 L 109.898438 37.679688 L 109.894531 37.644531 L 109.890625 37.613281 L 109.886719 37.578125 L 109.882812 37.546875 L 109.878906 37.511719 L 109.878906 37.480469 L 109.875 37.445312 L 109.875 37.378906 L 109.871094 37.347656 L 109.871094 37.246094 L 109.875 37.210938 L 109.875 37.144531 L 109.878906 37.113281 L 109.878906 37.078125 L 109.882812 37.046875 L 109.886719 37.011719 L 109.890625 36.980469 L 109.894531 36.945312 L 109.898438 36.914062 L 109.902344 36.878906 L 109.90625 36.847656 L 109.910156 36.8125 L 109.917969 36.78125 L 109.925781 36.746094 L 109.929688 36.714844 L 109.9375 36.683594 L 109.945312 36.648438 L 109.960938 36.585938 L 109.96875 36.550781 L 109.984375 36.488281 L 109.996094 36.453125 L 110.003906 36.421875 L 110.027344 36.359375 L 110.035156 36.328125 L 110.082031 36.203125 L 110.097656 36.171875 L 110.121094 36.109375 L 110.136719 36.078125 L 110.152344 36.050781 L 110.164062 36.019531 L 110.179688 35.988281 L 110.195312 35.960938 L 110.226562 35.898438 L 110.242188 35.871094 L 110.257812 35.839844 L 110.277344 35.8125 L 110.292969 35.785156 L 110.308594 35.753906 L 110.347656 35.699219 L 110.363281 35.671875 L 110.5 35.480469 L 110.523438 35.457031 L 110.542969 35.429688 L 110.566406 35.402344 L 110.585938 35.378906 L 110.609375 35.351562 L 110.632812 35.328125 L 110.652344 35.304688 L 110.675781 35.28125 L 110.699219 35.253906 L 110.769531 35.183594 L 110.796875 35.160156 L 110.820312 35.140625 L 110.84375 35.117188 L 110.871094 35.09375 L 110.894531 35.070312 L 110.921875 35.050781 L 110.945312 35.03125 L 110.972656 35.007812 L 111 34.988281 L 111.023438 34.96875 L 111.050781 34.945312 L 111.132812 34.886719 L 111.160156 34.871094 L 111.1875 34.851562 L 111.21875 34.832031 L 111.246094 34.816406 L 111.273438 34.796875 L 111.300781 34.78125 L 111.332031 34.761719 L 111.359375 34.746094 L 111.390625 34.730469 L 111.417969 34.714844 L 111.449219 34.699219 L 111.476562 34.683594 L 111.539062 34.652344 L 111.570312 34.640625 L 111.597656 34.625 L 111.628906 34.613281 L 111.660156 34.597656 L 111.878906 34.515625 L 111.910156 34.507812 L 111.941406 34.496094 L 111.976562 34.488281 L 112.007812 34.476562 L 112.070312 34.460938 L 112.105469 34.453125 L 112.167969 34.4375 L 112.203125 34.429688 L 112.234375 34.421875 L 112.269531 34.417969 L 112.300781 34.410156 L 112.332031 34.40625 L 112.367188 34.398438 L 112.398438 34.394531 L 112.433594 34.390625 L 112.464844 34.386719 L 112.5 34.382812 L 112.53125 34.378906 L 112.566406 34.378906 L 112.597656 34.375 L 112.632812 34.371094 L 112.699219 34.371094 L 112.734375 34.367188 L 112.800781 34.367188 Z M 112.800781 35.425781 L 112.691406 35.425781 L 112.671875 35.429688 L 112.652344 35.429688 L 112.628906 35.433594 L 112.609375 35.433594 L 112.585938 35.4375 L 112.566406 35.4375 L 112.542969 35.441406 L 112.523438 35.445312 L 112.5 35.449219 L 112.460938 35.457031 L 112.4375 35.460938 L 112.398438 35.46875 L 112.375 35.472656 L 112.355469 35.476562 L 112.335938 35.484375 L 112.3125 35.488281 L 112.292969 35.492188 L 112.253906 35.507812 L 112.230469 35.511719 L 112.191406 35.527344 L 112.171875 35.53125 L 112.152344 35.539062 L 112.128906 35.546875 L 112.070312 35.570312 L 112.050781 35.582031 L 111.992188 35.605469 L 111.972656 35.617188 L 111.953125 35.625 L 111.9375 35.636719 L 111.917969 35.644531 L 111.898438 35.65625 L 111.878906 35.664062 L 111.859375 35.675781 L 111.84375 35.6875 L 111.804688 35.710938 L 111.789062 35.722656 L 111.769531 35.734375 L 111.753906 35.746094 L 111.734375 35.757812 L 111.71875 35.769531 L 111.699219 35.78125 L 111.683594 35.792969 L 111.664062 35.808594 L 111.632812 35.832031 L 111.613281 35.847656 L 111.597656 35.859375 L 111.582031 35.875 L 111.566406 35.886719 L 111.535156 35.917969 L 111.519531 35.929688 L 111.441406 36.007812 L 111.429688 36.023438 L 111.398438 36.054688 L 111.386719 36.070312 L 111.371094 36.085938 L 111.359375 36.101562 L 111.34375 36.121094 L 111.332031 36.136719 L 111.316406 36.152344 L 111.304688 36.167969 L 111.292969 36.1875 L 111.277344 36.203125 L 111.265625 36.222656 L 111.253906 36.238281 L 111.242188 36.257812 L 111.230469 36.273438 L 111.207031 36.3125 L 111.195312 36.328125 L 111.1875 36.347656 L 111.164062 36.386719 L 111.15625 36.402344 L 111.132812 36.441406 L 111.117188 36.480469 L 111.105469 36.5 L 111.089844 36.539062 L 111.078125 36.558594 L 111.039062 36.65625 L 111.035156 36.675781 L 111.027344 36.695312 L 111.019531 36.71875 L 111.011719 36.738281 L 111.007812 36.757812 L 111 36.777344 L 110.996094 36.800781 L 110.988281 36.820312 L 110.984375 36.839844 L 110.980469 36.863281 L 110.972656 36.882812 L 110.96875 36.902344 L 110.964844 36.925781 L 110.957031 36.964844 L 110.953125 36.988281 L 110.949219 37.007812 L 110.945312 37.03125 L 110.945312 37.050781 L 110.941406 37.070312 L 110.9375 37.09375 L 110.9375 37.113281 L 110.933594 37.136719 L 110.933594 37.179688 L 110.929688 37.199219 L 110.929688 37.390625 L 110.933594 37.414062 L 110.933594 37.457031 L 110.9375 37.476562 L 110.9375 37.5 L 110.941406 37.519531 L 110.945312 37.542969 L 110.945312 37.5625 L 110.949219 37.582031 L 110.953125 37.605469 L 110.957031 37.625 L 110.960938 37.648438 L 110.96875 37.6875 L 110.972656 37.710938 L 110.980469 37.730469 L 110.984375 37.75 L 110.988281 37.773438 L 110.996094 37.792969 L 111 37.8125 L 111.007812 37.832031 L 111.011719 37.855469 L 111.035156 37.914062 L 111.039062 37.933594 L 111.046875 37.957031 L 111.078125 38.035156 L 111.089844 38.054688 L 111.105469 38.09375 L 111.117188 38.113281 L 111.132812 38.152344 L 111.144531 38.167969 L 111.15625 38.1875 L 111.164062 38.207031 L 111.1875 38.246094 L 111.195312 38.261719 L 111.21875 38.300781 L 111.230469 38.316406 L 111.242188 38.335938 L 111.253906 38.351562 L 111.265625 38.371094 L 111.277344 38.386719 L 111.292969 38.40625 L 111.316406 38.4375 L 111.332031 38.457031 L 111.34375 38.472656 L 111.359375 38.488281 L 111.371094 38.503906 L 111.386719 38.523438 L 111.398438 38.539062 L 111.429688 38.570312 L 111.441406 38.585938 L 111.488281 38.632812 L 111.503906 38.644531 L 111.550781 38.691406 L 111.566406 38.703125 L 111.582031 38.71875 L 111.597656 38.730469 L 111.613281 38.746094 L 111.632812 38.757812 L 111.648438 38.773438 L 111.664062 38.785156 L 111.683594 38.796875 L 111.699219 38.808594 L 111.71875 38.824219 L 111.734375 38.835938 L 111.753906 38.847656 L 111.769531 38.859375 L 111.789062 38.871094 L 111.804688 38.882812 L 111.84375 38.90625 L 111.859375 38.914062 L 111.898438 38.9375 L 111.917969 38.945312 L 111.9375 38.957031 L 111.953125 38.964844 L 111.972656 38.976562 L 111.992188 38.984375 L 112.011719 38.996094 L 112.128906 39.042969 L 112.152344 39.050781 L 112.210938 39.074219 L 112.230469 39.078125 L 112.253906 39.085938 L 112.273438 39.09375 L 112.292969 39.097656 L 112.3125 39.105469 L 112.335938 39.109375 L 112.355469 39.113281 L 112.375 39.121094 L 112.398438 39.125 L 112.4375 39.132812 L 112.460938 39.136719 L 112.5 39.144531 L 112.523438 39.148438 L 112.542969 39.152344 L 112.566406 39.152344 L 112.585938 39.15625 L 112.609375 39.15625 L 112.628906 39.160156 L 112.652344 39.160156 L 112.671875 39.164062 L 112.691406 39.164062 L 112.714844 39.167969 L 112.800781 39.167969 L 112.800781 39.457031 L 112.75 39.457031 L 112.726562 39.453125 L 112.675781 39.453125 L 112.652344 39.449219 L 112.628906 39.449219 L 112.601562 39.445312 L 112.578125 39.445312 L 112.554688 39.441406 L 112.527344 39.4375 L 112.503906 39.4375 L 112.433594 39.425781 L 112.40625 39.421875 L 112.382812 39.414062 L 112.335938 39.40625 L 112.3125 39.398438 L 112.285156 39.394531 L 112.261719 39.386719 L 112.238281 39.382812 L 112.191406 39.367188 L 112.167969 39.363281 L 112.074219 39.332031 L 112.050781 39.320312 L 111.980469 39.296875 L 111.960938 39.285156 L 111.9375 39.277344 L 111.890625 39.253906 L 111.871094 39.246094 L 111.824219 39.222656 L 111.804688 39.210938 L 111.757812 39.1875 L 111.738281 39.175781 L 111.714844 39.164062 L 111.675781 39.140625 L 111.652344 39.125 L 111.613281 39.101562 L 111.589844 39.085938 L 111.570312 39.070312 L 111.550781 39.058594 L 111.511719 39.027344 L 111.492188 39.015625 L 111.375 38.921875 L 111.359375 38.902344 L 111.320312 38.871094 L 111.234375 38.785156 L 111.21875 38.765625 L 111.183594 38.730469 L 111.058594 38.574219 L 111.046875 38.554688 L 111.015625 38.515625 L 111.003906 38.496094 L 110.988281 38.472656 L 110.964844 38.433594 L 110.949219 38.410156 L 110.9375 38.390625 L 110.925781 38.367188 L 110.914062 38.347656 L 110.902344 38.324219 L 110.890625 38.304688 L 110.878906 38.28125 L 110.867188 38.261719 L 110.84375 38.214844 L 110.835938 38.191406 L 110.824219 38.171875 L 110.816406 38.148438 L 110.804688 38.125 L 110.789062 38.078125 L 110.777344 38.054688 L 110.769531 38.035156 L 110.722656 37.894531 L 110.71875 37.867188 L 110.703125 37.820312 L 110.695312 37.773438 L 110.6875 37.75 L 110.683594 37.726562 L 110.679688 37.699219 L 110.671875 37.675781 L 110.664062 37.628906 L 110.660156 37.601562 L 110.660156 37.578125 L 110.652344 37.53125 L 110.648438 37.503906 L 110.648438 37.480469 L 110.644531 37.457031 L 110.644531 37.40625 L 110.640625 37.382812 L 110.640625 37.210938 L 110.644531 37.183594 L 110.644531 37.136719 L 110.648438 37.109375 L 110.648438 37.085938 L 110.65625 37.039062 L 110.660156 37.011719 L 110.660156 36.988281 L 110.667969 36.941406 L 110.671875 36.914062 L 110.679688 36.890625 L 110.6875 36.84375 L 110.695312 36.820312 L 110.699219 36.792969 L 110.703125 36.769531 L 110.71875 36.722656 L 110.722656 36.699219 L 110.777344 36.535156 L 110.789062 36.511719 L 110.804688 36.464844 L 110.816406 36.445312 L 110.824219 36.421875 L 110.835938 36.398438 L 110.84375 36.375 L 110.855469 36.355469 L 110.878906 36.308594 L 110.890625 36.289062 L 110.902344 36.265625 L 110.914062 36.246094 L 110.925781 36.222656 L 110.9375 36.203125 L 110.949219 36.179688 L 110.964844 36.160156 L 110.976562 36.136719 L 110.988281 36.117188 L 111.003906 36.097656 L 111.015625 36.078125 L 111.03125 36.054688 L 111.046875 36.035156 L 111.058594 36.015625 L 111.152344 35.898438 L 111.167969 35.882812 L 111.199219 35.84375 L 111.21875 35.828125 L 111.25 35.789062 L 111.269531 35.773438 L 111.285156 35.753906 L 111.304688 35.738281 L 111.339844 35.703125 L 111.359375 35.6875 L 111.375 35.671875 L 111.53125 35.546875 L 111.550781 35.535156 L 111.570312 35.519531 L 111.589844 35.507812 L 111.613281 35.492188 L 111.632812 35.480469 L 111.652344 35.464844 L 111.675781 35.453125 L 111.695312 35.441406 L 111.714844 35.425781 L 111.738281 35.414062 L 111.757812 35.402344 L 111.804688 35.378906 L 111.824219 35.367188 L 111.847656 35.359375 L 111.871094 35.347656 L 111.890625 35.335938 L 111.914062 35.324219 L 111.9375 35.316406 L 111.960938 35.304688 L 111.980469 35.296875 L 112.003906 35.289062 L 112.027344 35.277344 L 112.214844 35.214844 L 112.238281 35.210938 L 112.261719 35.203125 L 112.285156 35.199219 L 112.3125 35.191406 L 112.335938 35.1875 L 112.359375 35.179688 L 112.40625 35.171875 L 112.433594 35.167969 L 112.527344 35.152344 L 112.554688 35.148438 L 112.578125 35.148438 L 112.601562 35.144531 L 112.628906 35.144531 L 112.652344 35.140625 L 112.675781 35.140625 L 112.703125 35.136719 L 112.800781 35.136719 Z M 112.800781 39.167969 L 136.558594 39.167969 L 136.558594 39.457031 L 112.800781 39.457031 Z M 112.800781 39.9375 L 136.558594 39.9375 L 136.558594 40.222656 L 112.800781 40.222656 Z M 136.847656 39.167969 L 136.875 39.167969 L 136.886719 39.171875 L 136.894531 39.171875 L 136.902344 39.175781 L 136.914062 39.175781 L 136.929688 39.183594 L 136.941406 39.1875 L 136.980469 39.207031 L 136.988281 39.214844 L 136.996094 39.21875 L 137.003906 39.226562 L 137.011719 39.230469 L 137.019531 39.238281 L 137.023438 39.246094 L 137.042969 39.265625 L 137.050781 39.28125 L 137.058594 39.289062 L 137.0625 39.300781 L 137.078125 39.332031 L 137.078125 39.34375 L 137.082031 39.351562 L 137.082031 39.359375 L 137.085938 39.371094 L 137.085938 39.398438 L 137.089844 39.40625 L 137.089844 39.984375 L 137.085938 39.992188 L 137.085938 40.023438 L 137.082031 40.03125 L 137.082031 40.039062 L 137.078125 40.050781 L 137.078125 40.058594 L 137.070312 40.074219 L 137.066406 40.085938 L 137.058594 40.101562 L 137.050781 40.109375 L 137.042969 40.125 L 137.035156 40.132812 L 137.03125 40.140625 L 137.003906 40.167969 L 136.996094 40.171875 L 136.988281 40.179688 L 136.972656 40.1875 L 136.964844 40.195312 L 136.941406 40.207031 L 136.929688 40.210938 L 136.921875 40.210938 L 136.914062 40.214844 L 136.902344 40.21875 L 136.894531 40.21875 L 136.886719 40.222656 L 136.558594 40.222656 L 136.558594 39.9375 L 136.570312 39.9375 L 136.578125 39.933594 L 136.597656 39.933594 L 136.605469 39.929688 L 136.617188 39.929688 L 136.625 39.925781 L 136.632812 39.925781 L 136.644531 39.921875 L 136.683594 39.902344 L 136.691406 39.894531 L 136.699219 39.890625 L 136.707031 39.882812 L 136.714844 39.878906 L 136.722656 39.871094 L 136.730469 39.867188 L 136.734375 39.859375 L 136.75 39.84375 L 136.757812 39.828125 L 136.765625 39.820312 L 136.78125 39.789062 L 136.785156 39.777344 L 136.789062 39.769531 L 136.789062 39.761719 L 136.792969 39.753906 L 136.796875 39.742188 L 136.796875 39.722656 L 136.800781 39.714844 L 136.800781 39.675781 L 136.796875 39.667969 L 136.796875 39.648438 L 136.792969 39.640625 L 136.789062 39.628906 L 136.789062 39.621094 L 136.78125 39.605469 L 136.777344 39.59375 L 136.765625 39.570312 L 136.757812 39.5625 L 136.75 39.546875 L 136.714844 39.511719 L 136.707031 39.507812 L 136.699219 39.5 L 136.675781 39.488281 L 136.667969 39.480469 L 136.652344 39.472656 L 136.644531 39.472656 L 136.632812 39.46875 L 136.617188 39.460938 L 136.605469 39.460938 L 136.597656 39.457031 L 136.558594 39.457031 L 136.558594 39.167969 Z M 136.847656 39.167969 "/>
</svg>
