<?xml version="1.0" encoding="UTF-8"?>
<svg xmlns="http://www.w3.org/2000/svg" xmlns:xlink="http://www.w3.org/1999/xlink" width="288" height="125" viewBox="0 0 288 125">
<path fill-rule="nonzero" fill="rgb(84.3137%, 0%, 0%)" fill-opacity="0.5" d="M 223.199219 13.871094 L 237.601562 13.871094 L 237.601562 14.160156 L 223.199219 14.160156 Z M 223.199219 14.640625 L 237.601562 14.640625 L 237.601562 14.929688 L 223.199219 14.929688 Z M 237.601562 14.640625 L 237.679688 14.640625 L 237.710938 14.644531 L 237.765625 14.644531 L 237.796875 14.648438 L 237.851562 14.65625 L 237.882812 14.660156 L 237.9375 14.667969 L 237.96875 14.671875 L 237.996094 14.675781 L 238.023438 14.683594 L 238.050781 14.6875 L 238.078125 14.695312 L 238.109375 14.699219 L 238.273438 14.746094 L 238.300781 14.757812 L 238.328125 14.765625 L 238.355469 14.777344 L 238.382812 14.785156 L 238.4375 14.808594 L 238.460938 14.820312 L 238.542969 14.855469 L 238.566406 14.867188 L 238.59375 14.882812 L 238.617188 14.894531 L 238.644531 14.910156 L 238.667969 14.921875 L 238.695312 14.9375 L 238.765625 14.984375 L 238.792969 15 L 238.886719 15.0625 L 238.910156 15.082031 L 238.929688 15.097656 L 238.976562 15.136719 L 239 15.152344 L 239.019531 15.171875 L 239.042969 15.191406 L 239.0625 15.210938 L 239.085938 15.230469 L 239.125 15.269531 L 239.144531 15.292969 L 239.183594 15.332031 L 239.203125 15.355469 L 239.222656 15.375 L 239.242188 15.398438 L 239.261719 15.417969 L 239.28125 15.441406 L 239.296875 15.464844 L 239.316406 15.488281 L 239.347656 15.535156 L 239.367188 15.558594 L 239.445312 15.675781 L 239.460938 15.703125 L 239.472656 15.726562 L 239.488281 15.75 L 239.503906 15.777344 L 239.515625 15.800781 L 239.527344 15.828125 L 239.542969 15.855469 L 239.554688 15.878906 L 239.578125 15.933594 L 239.589844 15.957031 L 239.601562 15.984375 L 239.609375 16.011719 L 239.632812 16.066406 L 239.648438 16.121094 L 239.660156 16.148438 L 239.699219 16.285156 L 239.703125 16.316406 L 239.71875 16.371094 L 239.726562 16.425781 L 239.730469 16.457031 L 239.738281 16.484375 L 239.742188 16.511719 L 239.746094 16.542969 L 239.746094 16.570312 L 239.75 16.597656 L 239.753906 16.628906 L 239.753906 16.65625 L 239.757812 16.683594 L 239.757812 16.742188 L 239.761719 16.769531 L 239.761719 16.800781 L 239.472656 16.800781 L 239.472656 16.753906 L 239.46875 16.726562 L 239.46875 16.675781 L 239.464844 16.648438 L 239.464844 16.621094 L 239.457031 16.566406 L 239.453125 16.542969 L 239.441406 16.460938 L 239.4375 16.4375 L 239.429688 16.410156 L 239.425781 16.382812 L 239.417969 16.355469 L 239.414062 16.332031 L 239.40625 16.304688 L 239.398438 16.28125 L 239.382812 16.226562 L 239.375 16.203125 L 239.367188 16.175781 L 239.355469 16.152344 L 239.347656 16.128906 L 239.335938 16.101562 L 239.328125 16.078125 L 239.316406 16.050781 L 239.257812 15.933594 L 239.246094 15.90625 L 239.234375 15.882812 L 239.21875 15.859375 L 239.207031 15.839844 L 239.191406 15.816406 L 239.179688 15.792969 L 239.148438 15.746094 L 239.132812 15.726562 L 239.117188 15.703125 L 239.101562 15.683594 L 239.085938 15.660156 L 239.070312 15.640625 L 239.050781 15.617188 L 239.019531 15.578125 L 238.980469 15.539062 L 238.964844 15.519531 L 238.867188 15.421875 L 238.847656 15.40625 L 238.828125 15.386719 L 238.808594 15.371094 L 238.789062 15.351562 L 238.765625 15.335938 L 238.726562 15.304688 L 238.679688 15.273438 L 238.660156 15.257812 L 238.613281 15.226562 L 238.59375 15.210938 L 238.570312 15.199219 L 238.546875 15.183594 L 238.5 15.160156 L 238.476562 15.144531 L 238.429688 15.121094 L 238.402344 15.109375 L 238.355469 15.085938 L 238.332031 15.078125 L 238.304688 15.066406 L 238.28125 15.054688 L 238.257812 15.046875 L 238.230469 15.039062 L 238.207031 15.027344 L 238.179688 15.019531 L 238.15625 15.011719 L 238.101562 14.996094 L 238.078125 14.988281 L 238.050781 14.984375 L 238.023438 14.976562 L 238 14.972656 L 237.972656 14.964844 L 237.945312 14.960938 L 237.921875 14.957031 L 237.894531 14.953125 L 237.867188 14.945312 L 237.839844 14.945312 L 237.8125 14.941406 L 237.789062 14.9375 L 237.761719 14.933594 L 237.734375 14.933594 L 237.707031 14.929688 L 237.601562 14.929688 Z M 237.601562 13.871094 L 237.671875 13.871094 L 237.707031 13.875 L 237.738281 13.875 L 237.773438 13.878906 L 237.804688 13.878906 L 237.875 13.886719 L 237.90625 13.886719 L 237.941406 13.890625 L 237.972656 13.894531 L 238.007812 13.898438 L 238.039062 13.90625 L 238.074219 13.910156 L 238.105469 13.917969 L 238.140625 13.921875 L 238.171875 13.929688 L 238.203125 13.933594 L 238.238281 13.941406 L 238.300781 13.957031 L 238.335938 13.964844 L 238.367188 13.972656 L 238.398438 13.984375 L 238.433594 13.992188 L 238.464844 14.003906 L 238.496094 14.011719 L 238.589844 14.046875 L 238.621094 14.054688 L 238.652344 14.070312 L 238.746094 14.105469 L 238.777344 14.121094 L 238.808594 14.132812 L 238.839844 14.148438 L 238.871094 14.160156 L 238.898438 14.175781 L 238.960938 14.207031 L 238.988281 14.222656 L 239.019531 14.238281 L 239.046875 14.253906 L 239.078125 14.273438 L 239.132812 14.304688 L 239.164062 14.324219 L 239.191406 14.34375 L 239.21875 14.359375 L 239.410156 14.496094 L 239.433594 14.519531 L 239.460938 14.539062 L 239.488281 14.5625 L 239.511719 14.582031 L 239.539062 14.605469 L 239.5625 14.628906 L 239.585938 14.648438 L 239.613281 14.671875 L 239.707031 14.765625 L 239.730469 14.792969 L 239.777344 14.839844 L 239.796875 14.867188 L 239.820312 14.890625 L 239.84375 14.917969 L 239.863281 14.941406 L 239.882812 14.96875 L 239.90625 14.996094 L 239.925781 15.023438 L 239.945312 15.046875 L 240.042969 15.183594 L 240.0625 15.214844 L 240.078125 15.242188 L 240.097656 15.269531 L 240.113281 15.300781 L 240.132812 15.328125 L 240.148438 15.355469 L 240.164062 15.386719 L 240.179688 15.414062 L 240.210938 15.476562 L 240.226562 15.503906 L 240.242188 15.535156 L 240.253906 15.566406 L 240.269531 15.597656 L 240.28125 15.625 L 240.296875 15.65625 L 240.367188 15.84375 L 240.378906 15.878906 L 240.390625 15.910156 L 240.398438 15.941406 L 240.410156 15.972656 L 240.417969 16.003906 L 240.425781 16.039062 L 240.4375 16.070312 L 240.445312 16.101562 L 240.453125 16.136719 L 240.457031 16.167969 L 240.464844 16.199219 L 240.472656 16.234375 L 240.480469 16.265625 L 240.484375 16.300781 L 240.492188 16.332031 L 240.496094 16.367188 L 240.5 16.398438 L 240.503906 16.433594 L 240.507812 16.464844 L 240.511719 16.5 L 240.515625 16.53125 L 240.519531 16.566406 L 240.519531 16.597656 L 240.523438 16.632812 L 240.523438 16.664062 L 240.527344 16.699219 L 240.527344 16.800781 L 240.238281 16.800781 L 240.238281 16.664062 L 240.234375 16.632812 L 240.234375 16.601562 L 240.21875 16.476562 L 240.214844 16.441406 L 240.207031 16.378906 L 240.199219 16.347656 L 240.191406 16.285156 L 240.160156 16.160156 L 240.152344 16.132812 L 240.128906 16.039062 L 240.117188 16.007812 L 240.109375 15.976562 L 240.097656 15.949219 L 240.089844 15.917969 L 240.078125 15.886719 L 240.066406 15.859375 L 240.054688 15.828125 L 240.042969 15.800781 L 240.03125 15.769531 L 240.019531 15.742188 L 240.003906 15.710938 L 239.992188 15.683594 L 239.976562 15.652344 L 239.964844 15.625 L 239.933594 15.570312 L 239.921875 15.539062 L 239.890625 15.484375 L 239.871094 15.457031 L 239.824219 15.375 L 239.804688 15.347656 L 239.789062 15.324219 L 239.75 15.269531 L 239.734375 15.246094 L 239.714844 15.21875 L 239.695312 15.195312 L 239.675781 15.167969 L 239.65625 15.144531 L 239.636719 15.117188 L 239.613281 15.09375 L 239.574219 15.046875 L 239.550781 15.023438 L 239.53125 15 L 239.507812 14.976562 L 239.488281 14.953125 L 239.441406 14.90625 L 239.417969 14.886719 L 239.394531 14.863281 L 239.371094 14.84375 L 239.347656 14.820312 L 239.300781 14.78125 L 239.273438 14.757812 L 239.226562 14.71875 L 239.199219 14.699219 L 239.175781 14.679688 L 239.148438 14.664062 L 239.125 14.644531 L 239.097656 14.625 L 239.070312 14.609375 L 239.042969 14.589844 L 239.019531 14.574219 L 238.992188 14.554688 L 238.910156 14.507812 L 238.878906 14.492188 L 238.796875 14.445312 L 238.769531 14.433594 L 238.738281 14.417969 L 238.710938 14.40625 L 238.679688 14.390625 L 238.625 14.367188 L 238.5625 14.34375 L 238.535156 14.332031 L 238.503906 14.320312 L 238.476562 14.308594 L 238.445312 14.296875 L 238.414062 14.289062 L 238.382812 14.277344 L 238.355469 14.269531 L 238.136719 14.214844 L 238.105469 14.210938 L 238.074219 14.203125 L 238.042969 14.199219 L 238.011719 14.191406 L 237.824219 14.167969 L 237.789062 14.167969 L 237.757812 14.164062 L 237.726562 14.164062 L 237.695312 14.160156 L 237.601562 14.160156 Z M 240.527344 16.800781 L 240.527344 62.398438 L 240.238281 62.398438 L 240.238281 16.800781 Z M 239.761719 16.800781 L 239.761719 62.398438 L 239.472656 62.398438 L 239.472656 16.800781 Z M 240.527344 62.398438 L 240.527344 108 L 240.238281 108 L 240.238281 62.398438 Z M 239.761719 62.398438 L 239.761719 108 L 239.472656 108 L 239.472656 62.398438 Z M 239.761719 108 L 239.761719 108.136719 L 239.765625 108.167969 L 239.765625 108.199219 L 239.792969 108.417969 L 239.800781 108.453125 L 239.808594 108.515625 L 239.824219 108.578125 L 239.832031 108.605469 L 239.871094 108.761719 L 239.882812 108.792969 L 239.890625 108.820312 L 239.902344 108.851562 L 239.910156 108.882812 L 239.921875 108.910156 L 239.945312 108.972656 L 239.957031 109 L 239.96875 109.03125 L 239.980469 109.058594 L 239.996094 109.089844 L 240.007812 109.117188 L 240.023438 109.144531 L 240.035156 109.175781 L 240.066406 109.230469 L 240.078125 109.257812 L 240.09375 109.289062 L 240.109375 109.316406 L 240.128906 109.34375 L 240.175781 109.425781 L 240.195312 109.449219 L 240.210938 109.476562 L 240.25 109.53125 L 240.265625 109.554688 L 240.285156 109.582031 L 240.304688 109.605469 L 240.324219 109.632812 L 240.363281 109.679688 L 240.386719 109.707031 L 240.425781 109.753906 L 240.449219 109.777344 L 240.46875 109.800781 L 240.492188 109.824219 L 240.511719 109.847656 L 240.535156 109.871094 L 240.558594 109.890625 L 240.605469 109.9375 L 240.652344 109.976562 L 240.675781 110 L 240.699219 110.019531 L 240.726562 110.039062 L 240.75 110.058594 L 240.773438 110.082031 L 240.800781 110.101562 L 240.824219 110.117188 L 240.851562 110.136719 L 240.875 110.15625 L 240.902344 110.175781 L 240.929688 110.191406 L 240.957031 110.210938 L 240.980469 110.226562 L 241.007812 110.242188 L 241.035156 110.261719 L 241.089844 110.292969 L 241.121094 110.308594 L 241.175781 110.339844 L 241.203125 110.351562 L 241.230469 110.367188 L 241.261719 110.382812 L 241.289062 110.394531 L 241.320312 110.410156 L 241.375 110.433594 L 241.4375 110.457031 L 241.464844 110.46875 L 241.496094 110.480469 L 241.523438 110.492188 L 241.554688 110.5 L 241.585938 110.511719 L 241.617188 110.519531 L 241.644531 110.53125 L 241.863281 110.585938 L 241.894531 110.589844 L 241.925781 110.597656 L 241.957031 110.601562 L 241.988281 110.609375 L 242.144531 110.628906 L 242.175781 110.628906 L 242.210938 110.632812 L 242.242188 110.636719 L 242.304688 110.636719 L 242.335938 110.640625 L 242.398438 110.640625 L 242.398438 110.929688 L 242.359375 110.929688 L 242.328125 110.925781 L 242.261719 110.925781 L 242.226562 110.921875 L 242.195312 110.921875 L 242.125 110.914062 L 242.09375 110.910156 L 242.058594 110.90625 L 242.027344 110.902344 L 241.992188 110.898438 L 241.960938 110.894531 L 241.925781 110.890625 L 241.894531 110.882812 L 241.859375 110.878906 L 241.796875 110.863281 L 241.761719 110.859375 L 241.699219 110.84375 L 241.664062 110.835938 L 241.632812 110.824219 L 241.601562 110.816406 L 241.566406 110.808594 L 241.535156 110.796875 L 241.503906 110.789062 L 241.253906 110.695312 L 241.222656 110.679688 L 241.191406 110.667969 L 241.128906 110.636719 L 241.101562 110.625 L 241.039062 110.59375 L 241.011719 110.578125 L 240.980469 110.5625 L 240.953125 110.546875 L 240.921875 110.527344 L 240.894531 110.511719 L 240.867188 110.492188 L 240.835938 110.476562 L 240.808594 110.457031 L 240.78125 110.441406 L 240.617188 110.324219 L 240.589844 110.300781 L 240.566406 110.28125 L 240.539062 110.261719 L 240.511719 110.238281 L 240.488281 110.21875 L 240.460938 110.195312 L 240.414062 110.148438 L 240.386719 110.125 L 240.363281 110.105469 L 240.339844 110.082031 L 240.316406 110.054688 L 240.246094 109.984375 L 240.222656 109.957031 L 240.203125 109.933594 L 240.179688 109.910156 L 240.15625 109.882812 L 240.136719 109.855469 L 240.117188 109.832031 L 240.09375 109.804688 L 240.054688 109.75 L 240.035156 109.726562 L 239.996094 109.671875 L 239.976562 109.640625 L 239.9375 109.585938 L 239.921875 109.558594 L 239.902344 109.53125 L 239.886719 109.5 L 239.867188 109.472656 L 239.851562 109.441406 L 239.835938 109.414062 L 239.820312 109.382812 L 239.804688 109.355469 L 239.773438 109.292969 L 239.757812 109.265625 L 239.746094 109.234375 L 239.730469 109.203125 L 239.71875 109.171875 L 239.703125 109.140625 L 239.691406 109.113281 L 239.65625 109.019531 L 239.644531 108.984375 L 239.609375 108.890625 L 239.601562 108.859375 L 239.589844 108.828125 L 239.582031 108.792969 L 239.574219 108.761719 L 239.5625 108.730469 L 239.554688 108.699219 L 239.546875 108.664062 L 239.542969 108.632812 L 239.535156 108.597656 L 239.519531 108.535156 L 239.515625 108.5 L 239.507812 108.46875 L 239.503906 108.433594 L 239.5 108.402344 L 239.496094 108.367188 L 239.492188 108.335938 L 239.488281 108.300781 L 239.484375 108.269531 L 239.480469 108.234375 L 239.480469 108.199219 L 239.476562 108.167969 L 239.476562 108.132812 L 239.472656 108.101562 L 239.472656 108 Z M 240.527344 108 L 240.527344 108.042969 L 240.53125 108.070312 L 240.53125 108.125 L 240.535156 108.152344 L 240.535156 108.179688 L 240.539062 108.207031 L 240.542969 108.230469 L 240.558594 108.339844 L 240.5625 108.363281 L 240.570312 108.390625 L 240.574219 108.417969 L 240.582031 108.441406 L 240.585938 108.46875 L 240.59375 108.496094 L 240.601562 108.519531 L 240.609375 108.546875 L 240.617188 108.570312 L 240.625 108.597656 L 240.632812 108.621094 L 240.644531 108.648438 L 240.652344 108.671875 L 240.664062 108.699219 L 240.671875 108.722656 L 240.683594 108.746094 L 240.695312 108.773438 L 240.765625 108.914062 L 240.78125 108.9375 L 240.792969 108.960938 L 240.808594 108.984375 L 240.820312 109.007812 L 240.835938 109.03125 L 240.851562 109.050781 L 240.882812 109.097656 L 240.898438 109.117188 L 240.914062 109.140625 L 240.929688 109.160156 L 240.949219 109.179688 L 240.964844 109.203125 L 240.980469 109.222656 L 241.019531 109.261719 L 241.035156 109.28125 L 241.113281 109.359375 L 241.132812 109.375 L 241.171875 109.414062 L 241.210938 109.445312 L 241.234375 109.464844 L 241.273438 109.496094 L 241.320312 109.527344 L 241.339844 109.542969 L 241.386719 109.574219 L 241.40625 109.585938 L 241.453125 109.617188 L 241.5 109.640625 L 241.523438 109.65625 L 241.570312 109.679688 L 241.597656 109.691406 L 241.621094 109.703125 L 241.644531 109.710938 L 241.667969 109.722656 L 241.695312 109.734375 L 241.71875 109.742188 L 241.742188 109.753906 L 241.769531 109.761719 L 241.792969 109.769531 L 241.820312 109.78125 L 241.84375 109.789062 L 241.898438 109.804688 L 241.921875 109.808594 L 241.976562 109.824219 L 242 109.828125 L 242.027344 109.835938 L 242.054688 109.839844 L 242.078125 109.84375 L 242.1875 109.859375 L 242.210938 109.863281 L 242.238281 109.863281 L 242.265625 109.867188 L 242.292969 109.867188 L 242.320312 109.871094 L 242.398438 109.871094 L 242.398438 110.160156 L 242.320312 110.160156 L 242.289062 110.15625 L 242.261719 110.15625 L 242.234375 110.152344 L 242.203125 110.152344 L 242.148438 110.144531 L 242.117188 110.140625 L 242.0625 110.132812 L 242.03125 110.128906 L 242.003906 110.125 L 241.976562 110.117188 L 241.949219 110.113281 L 241.921875 110.105469 L 241.890625 110.097656 L 241.863281 110.09375 L 241.753906 110.0625 L 241.726562 110.050781 L 241.671875 110.035156 L 241.617188 110.011719 L 241.589844 110.003906 L 241.5625 109.992188 L 241.539062 109.980469 L 241.457031 109.945312 L 241.433594 109.929688 L 241.40625 109.917969 L 241.382812 109.90625 L 241.355469 109.890625 L 241.332031 109.878906 L 241.304688 109.863281 L 241.234375 109.816406 L 241.207031 109.800781 L 241.136719 109.753906 L 241.113281 109.734375 L 241.089844 109.71875 L 241.070312 109.699219 L 241.046875 109.683594 L 241 109.644531 L 240.980469 109.628906 L 240.957031 109.609375 L 240.9375 109.589844 L 240.914062 109.570312 L 240.894531 109.550781 L 240.875 109.527344 L 240.816406 109.46875 L 240.796875 109.445312 L 240.777344 109.425781 L 240.738281 109.378906 L 240.71875 109.359375 L 240.703125 109.335938 L 240.683594 109.3125 L 240.652344 109.265625 L 240.632812 109.242188 L 240.570312 109.148438 L 240.554688 109.121094 L 240.539062 109.097656 L 240.527344 109.074219 L 240.511719 109.046875 L 240.496094 109.023438 L 240.484375 108.996094 L 240.472656 108.972656 L 240.457031 108.945312 L 240.445312 108.921875 L 240.410156 108.839844 L 240.398438 108.816406 L 240.390625 108.789062 L 240.367188 108.734375 L 240.351562 108.679688 L 240.339844 108.652344 L 240.308594 108.542969 L 240.300781 108.511719 L 240.296875 108.484375 L 240.28125 108.429688 L 240.277344 108.402344 L 240.273438 108.371094 L 240.269531 108.34375 L 240.261719 108.316406 L 240.257812 108.289062 L 240.253906 108.257812 L 240.253906 108.230469 L 240.25 108.203125 L 240.246094 108.171875 L 240.246094 108.144531 L 240.242188 108.113281 L 240.242188 108.058594 L 240.238281 108.027344 L 240.238281 108 Z M 242.398438 109.871094 L 256.800781 109.871094 L 256.800781 110.160156 L 242.398438 110.160156 Z M 242.398438 110.640625 L 256.800781 110.640625 L 256.800781 110.929688 L 242.398438 110.929688 Z M 287.761719 96 L 287.78125 96 L 287.792969 96.003906 L 287.808594 96.003906 L 287.820312 96.007812 L 287.828125 96.011719 L 287.839844 96.011719 L 287.863281 96.023438 L 287.875 96.027344 L 287.882812 96.03125 L 287.890625 96.039062 L 287.898438 96.042969 L 287.90625 96.050781 L 287.914062 96.054688 L 287.941406 96.082031 L 287.945312 96.089844 L 287.953125 96.097656 L 287.957031 96.105469 L 287.964844 96.113281 L 287.976562 96.136719 L 287.980469 96.148438 L 287.992188 96.171875 L 287.992188 96.183594 L 287.996094 96.191406 L 287.996094 96.203125 L 288 96.210938 L 288 124.582031 L 287.996094 124.589844 L 287.996094 124.609375 L 287.992188 124.621094 L 287.988281 124.628906 L 287.988281 124.636719 L 287.984375 124.648438 L 287.96875 124.679688 L 287.960938 124.691406 L 287.957031 124.699219 L 287.949219 124.707031 L 287.945312 124.714844 L 287.9375 124.71875 L 287.933594 124.726562 L 287.917969 124.742188 L 287.910156 124.746094 L 287.902344 124.753906 L 287.886719 124.761719 L 287.878906 124.769531 L 287.863281 124.777344 L 287.851562 124.78125 L 287.835938 124.789062 L 287.828125 124.789062 L 287.816406 124.792969 L 287.808594 124.796875 L 287.789062 124.796875 L 287.777344 124.800781 L 280.558594 124.800781 L 280.558594 117.601562 L 280.570312 117.601562 L 280.582031 117.597656 L 280.601562 117.597656 L 280.609375 117.59375 L 280.621094 117.59375 L 280.636719 117.585938 L 280.648438 117.582031 L 280.679688 117.566406 L 280.691406 117.5625 L 280.699219 117.554688 L 280.714844 117.546875 L 280.71875 117.539062 L 280.734375 117.523438 L 280.742188 117.519531 L 280.746094 117.511719 L 280.753906 117.503906 L 280.761719 117.488281 L 280.769531 117.480469 L 280.773438 117.472656 L 280.777344 117.460938 L 280.785156 117.445312 L 280.789062 117.433594 L 280.789062 117.425781 L 280.792969 117.417969 L 280.796875 117.40625 L 280.796875 117.390625 L 280.800781 117.378906 L 280.800781 103.417969 L 280.796875 103.410156 L 280.796875 103.398438 L 280.792969 103.390625 L 280.792969 103.378906 L 280.785156 103.363281 L 280.785156 103.351562 L 280.773438 103.328125 L 280.765625 103.320312 L 280.761719 103.308594 L 280.757812 103.300781 L 280.75 103.292969 L 280.746094 103.285156 L 280.738281 103.28125 L 280.730469 103.273438 L 280.726562 103.265625 L 280.71875 103.257812 L 280.710938 103.253906 L 280.703125 103.246094 L 280.6875 103.238281 L 280.679688 103.230469 L 280.664062 103.222656 L 280.652344 103.21875 L 280.636719 103.210938 L 280.625 103.210938 L 280.609375 103.203125 L 280.589844 103.203125 L 280.578125 103.199219 L 280.558594 103.199219 L 280.558594 96 Z M 280.558594 124.800781 L 268.800781 124.800781 L 268.800781 117.601562 L 280.558594 117.601562 Z M 280.558594 103.199219 L 268.800781 103.199219 L 268.800781 96 L 280.558594 96 Z M 268.800781 124.800781 L 256.800781 110.929688 L 256.800781 110.640625 L 268.800781 117.601562 Z M 268.800781 103.199219 L 256.800781 110.160156 L 256.800781 109.871094 L 268.800781 96 Z M 0.238281 28.800781 L 0.21875 28.800781 L 0.207031 28.796875 L 0.199219 28.796875 L 0.191406 28.792969 L 0.179688 28.792969 L 0.171875 28.789062 L 0.160156 28.785156 L 0.152344 28.785156 L 0.136719 28.777344 L 0.125 28.773438 L 0.117188 28.765625 L 0.101562 28.757812 L 0.09375 28.75 L 0.0859375 28.746094 L 0.078125 28.738281 L 0.0742188 28.730469 L 0.0664062 28.726562 L 0.0585938 28.71875 L 0.0546875 28.710938 L 0.046875 28.703125 L 0.0429688 28.695312 L 0.0351562 28.6875 L 0.0234375 28.664062 L 0.0195312 28.652344 L 0.0117188 28.636719 L 0.0078125 28.625 L 0.0078125 28.617188 L 0.00390625 28.609375 L 0.00390625 28.597656 L 0 28.589844 L 0 0.21875 L 0.00390625 0.207031 L 0.00390625 0.191406 L 0.0078125 0.179688 L 0.0117188 0.171875 L 0.0117188 0.160156 L 0.0234375 0.136719 L 0.0273438 0.125 L 0.03125 0.117188 L 0.0390625 0.109375 L 0.0429688 0.101562 L 0.0507812 0.09375 L 0.0546875 0.0859375 L 0.0820312 0.0585938 L 0.0898438 0.0546875 L 0.0976562 0.046875 L 0.105469 0.0429688 L 0.113281 0.0351562 L 0.136719 0.0234375 L 0.148438 0.0195312 L 0.171875 0.0078125 L 0.183594 0.0078125 L 0.191406 0.00390625 L 0.203125 0.00390625 L 0.210938 0 L 7.441406 0 L 7.441406 7.199219 L 7.417969 7.199219 L 7.410156 7.203125 L 7.398438 7.203125 L 7.390625 7.207031 L 7.378906 7.207031 L 7.363281 7.214844 L 7.351562 7.214844 L 7.328125 7.226562 L 7.320312 7.234375 L 7.308594 7.238281 L 7.300781 7.242188 L 7.292969 7.25 L 7.285156 7.253906 L 7.28125 7.261719 L 7.273438 7.269531 L 7.265625 7.273438 L 7.257812 7.28125 L 7.253906 7.289062 L 7.246094 7.296875 L 7.238281 7.3125 L 7.230469 7.320312 L 7.222656 7.335938 L 7.21875 7.347656 L 7.210938 7.363281 L 7.210938 7.375 L 7.203125 7.390625 L 7.203125 7.410156 L 7.199219 7.421875 L 7.199219 21.382812 L 7.203125 21.390625 L 7.203125 21.402344 L 7.207031 21.410156 L 7.207031 21.417969 L 7.210938 21.429688 L 7.214844 21.4375 L 7.214844 21.445312 L 7.21875 21.457031 L 7.226562 21.472656 L 7.234375 21.480469 L 7.242188 21.496094 L 7.25 21.503906 L 7.253906 21.511719 L 7.269531 21.527344 L 7.273438 21.535156 L 7.28125 21.539062 L 7.289062 21.546875 L 7.296875 21.550781 L 7.304688 21.558594 L 7.320312 21.566406 L 7.328125 21.574219 L 7.335938 21.578125 L 7.347656 21.582031 L 7.355469 21.585938 L 7.363281 21.585938 L 7.375 21.589844 L 7.382812 21.59375 L 7.390625 21.59375 L 7.402344 21.597656 L 7.421875 21.597656 L 7.429688 21.601562 L 7.441406 21.601562 L 7.441406 28.800781 Z M 7.441406 0 L 19.199219 0 L 19.199219 7.199219 L 7.441406 7.199219 Z M 7.441406 21.601562 L 19.199219 21.601562 L 19.199219 28.800781 L 7.441406 28.800781 Z M 19.199219 0 L 31.199219 13.871094 L 31.199219 14.160156 L 19.199219 7.199219 Z M 19.199219 21.601562 L 31.199219 14.640625 L 31.199219 14.929688 L 19.199219 28.800781 Z M 31.199219 13.871094 L 223.199219 13.871094 L 223.199219 14.160156 L 31.199219 14.160156 Z M 31.199219 14.640625 L 223.199219 14.640625 L 223.199219 14.929688 L 31.199219 14.929688 Z M 127.199219 15.308594 L 127.199219 15.292969 L 127.203125 15.285156 L 127.203125 15.28125 L 127.207031 15.273438 L 127.207031 15.265625 L 127.214844 15.25 L 127.214844 15.246094 L 127.222656 15.230469 L 127.230469 15.226562 L 127.234375 15.21875 L 127.253906 15.199219 L 127.261719 15.195312 L 127.265625 15.191406 L 127.28125 15.183594 L 127.285156 15.179688 L 127.292969 15.175781 L 127.300781 15.175781 L 127.308594 15.171875 L 127.316406 15.171875 L 127.320312 15.167969 L 127.34375 15.167969 L 127.34375 15.457031 L 127.332031 15.457031 L 127.324219 15.453125 L 127.3125 15.453125 L 127.304688 15.449219 L 127.296875 15.449219 L 127.289062 15.445312 L 127.285156 15.441406 L 127.277344 15.4375 L 127.269531 15.4375 L 127.253906 15.421875 L 127.246094 15.417969 L 127.230469 15.402344 L 127.226562 15.394531 L 127.222656 15.390625 L 127.214844 15.375 L 127.210938 15.371094 L 127.210938 15.363281 L 127.203125 15.347656 L 127.203125 15.335938 L 127.199219 15.328125 Z M 127.199219 16.074219 L 127.199219 16.0625 L 127.203125 16.054688 L 127.203125 16.046875 L 127.207031 16.039062 L 127.207031 16.03125 L 127.210938 16.027344 L 127.214844 16.019531 L 127.214844 16.011719 L 127.21875 16.007812 L 127.222656 16 L 127.234375 15.988281 L 127.238281 15.980469 L 127.242188 15.976562 L 127.25 15.972656 L 127.265625 15.957031 L 127.273438 15.953125 L 127.28125 15.953125 L 127.285156 15.949219 L 127.300781 15.941406 L 127.308594 15.941406 L 127.316406 15.9375 L 127.34375 15.9375 L 127.34375 16.222656 L 127.320312 16.222656 L 127.3125 16.21875 L 127.304688 16.21875 L 127.296875 16.214844 L 127.289062 16.214844 L 127.285156 16.210938 L 127.269531 16.203125 L 127.265625 16.199219 L 127.257812 16.195312 L 127.253906 16.191406 L 127.246094 16.1875 L 127.242188 16.179688 L 127.234375 16.175781 L 127.230469 16.167969 L 127.226562 16.164062 L 127.222656 16.15625 L 127.21875 16.152344 L 127.210938 16.136719 L 127.210938 16.132812 L 127.203125 16.117188 L 127.203125 16.101562 L 127.199219 16.09375 Z M 127.34375 15.167969 L 136.800781 15.167969 L 136.800781 15.457031 L 127.34375 15.457031 Z M 127.34375 15.9375 L 136.800781 15.9375 L 136.800781 16.222656 L 127.34375 16.222656 Z M 136.800781 15.9375 L 136.910156 15.9375 L 136.9375 15.941406 L 136.96875 15.941406 L 137.023438 15.949219 L 137.054688 15.949219 L 137.109375 15.957031 L 137.140625 15.960938 L 137.167969 15.96875 L 137.222656 15.976562 L 137.253906 15.984375 L 137.28125 15.988281 L 137.472656 16.042969 L 137.5 16.054688 L 137.527344 16.0625 L 137.554688 16.074219 L 137.582031 16.082031 L 137.664062 16.117188 L 137.6875 16.128906 L 137.742188 16.152344 L 137.765625 16.164062 L 137.792969 16.175781 L 137.816406 16.191406 L 137.84375 16.203125 L 137.867188 16.21875 L 137.894531 16.234375 L 137.917969 16.246094 L 137.941406 16.261719 L 137.96875 16.277344 L 138.015625 16.308594 L 138.039062 16.328125 L 138.085938 16.359375 L 138.109375 16.378906 L 138.132812 16.394531 L 138.152344 16.414062 L 138.175781 16.429688 L 138.199219 16.449219 L 138.21875 16.46875 L 138.242188 16.488281 L 138.261719 16.507812 L 138.285156 16.527344 L 138.40625 16.648438 L 138.425781 16.671875 L 138.441406 16.695312 L 138.460938 16.714844 L 138.480469 16.738281 L 138.496094 16.761719 L 138.515625 16.78125 L 138.53125 16.804688 L 138.550781 16.828125 L 138.597656 16.898438 L 138.613281 16.925781 L 138.660156 16.996094 L 138.675781 17.023438 L 138.6875 17.046875 L 138.703125 17.074219 L 138.714844 17.097656 L 138.730469 17.125 L 138.742188 17.148438 L 138.765625 17.203125 L 138.777344 17.226562 L 138.8125 17.308594 L 138.820312 17.335938 L 138.832031 17.363281 L 138.839844 17.390625 L 138.851562 17.417969 L 138.90625 17.609375 L 138.910156 17.640625 L 138.917969 17.667969 L 138.925781 17.722656 L 138.933594 17.75 L 138.9375 17.78125 L 138.945312 17.835938 L 138.949219 17.867188 L 138.949219 17.894531 L 138.953125 17.921875 L 138.957031 17.953125 L 138.957031 18.007812 L 138.960938 18.039062 L 138.960938 18.097656 L 138.671875 18.097656 L 138.671875 18.023438 L 138.667969 17.996094 L 138.667969 17.972656 L 138.664062 17.945312 L 138.664062 17.917969 L 138.652344 17.835938 L 138.648438 17.8125 L 138.636719 17.730469 L 138.628906 17.707031 L 138.625 17.679688 L 138.617188 17.652344 L 138.613281 17.628906 L 138.597656 17.574219 L 138.589844 17.550781 L 138.582031 17.523438 L 138.574219 17.5 L 138.566406 17.472656 L 138.554688 17.449219 L 138.546875 17.421875 L 138.535156 17.398438 L 138.527344 17.375 L 138.515625 17.347656 L 138.503906 17.324219 L 138.496094 17.300781 L 138.484375 17.277344 L 138.472656 17.25 L 138.457031 17.226562 L 138.433594 17.179688 L 138.417969 17.15625 L 138.40625 17.132812 L 138.390625 17.109375 L 138.378906 17.089844 L 138.347656 17.042969 L 138.332031 17.023438 L 138.300781 16.976562 L 138.269531 16.9375 L 138.253906 16.914062 L 138.234375 16.894531 L 138.21875 16.875 L 138.199219 16.855469 L 138.183594 16.832031 L 138.070312 16.71875 L 138.050781 16.703125 L 138.027344 16.683594 L 138.007812 16.667969 L 137.988281 16.648438 L 137.96875 16.632812 L 137.945312 16.617188 L 137.925781 16.597656 L 137.902344 16.582031 L 137.882812 16.566406 L 137.859375 16.550781 L 137.835938 16.539062 L 137.816406 16.523438 L 137.792969 16.507812 L 137.769531 16.496094 L 137.746094 16.480469 L 137.722656 16.46875 L 137.699219 16.453125 L 137.605469 16.40625 L 137.578125 16.394531 L 137.53125 16.371094 L 137.507812 16.363281 L 137.480469 16.351562 L 137.457031 16.34375 L 137.429688 16.332031 L 137.40625 16.324219 L 137.378906 16.316406 L 137.355469 16.308594 L 137.328125 16.300781 L 137.304688 16.292969 L 137.25 16.277344 L 137.226562 16.273438 L 137.199219 16.265625 L 137.171875 16.261719 L 137.148438 16.257812 L 137.121094 16.25 L 137.039062 16.238281 L 137.015625 16.234375 L 136.988281 16.234375 L 136.960938 16.230469 L 136.933594 16.230469 L 136.90625 16.226562 L 136.855469 16.226562 L 136.828125 16.222656 L 136.800781 16.222656 Z M 136.800781 15.167969 L 136.90625 15.167969 L 136.941406 15.171875 L 136.972656 15.171875 L 137.007812 15.175781 L 137.039062 15.179688 L 137.074219 15.179688 L 137.105469 15.183594 L 137.140625 15.1875 L 137.171875 15.191406 L 137.207031 15.195312 L 137.238281 15.203125 L 137.273438 15.207031 L 137.304688 15.210938 L 137.339844 15.21875 L 137.371094 15.222656 L 137.40625 15.230469 L 137.46875 15.246094 L 137.503906 15.253906 L 137.566406 15.269531 L 137.601562 15.28125 L 137.664062 15.296875 L 137.726562 15.320312 L 137.761719 15.328125 L 137.886719 15.375 L 137.917969 15.390625 L 137.949219 15.402344 L 137.976562 15.414062 L 138.007812 15.429688 L 138.039062 15.441406 L 138.101562 15.472656 L 138.128906 15.488281 L 138.160156 15.503906 L 138.1875 15.519531 L 138.21875 15.535156 L 138.246094 15.550781 L 138.277344 15.566406 L 138.304688 15.585938 L 138.335938 15.601562 L 138.363281 15.621094 L 138.390625 15.636719 L 138.609375 15.792969 L 138.636719 15.816406 L 138.660156 15.835938 L 138.6875 15.855469 L 138.710938 15.878906 L 138.738281 15.902344 L 138.761719 15.921875 L 138.789062 15.945312 L 138.929688 16.085938 L 138.953125 16.113281 L 139 16.160156 L 139.019531 16.1875 L 139.042969 16.214844 L 139.0625 16.238281 L 139.085938 16.265625 L 139.105469 16.292969 L 139.125 16.316406 L 139.144531 16.34375 L 139.167969 16.371094 L 139.1875 16.398438 L 139.203125 16.425781 L 139.261719 16.507812 L 139.277344 16.539062 L 139.296875 16.566406 L 139.3125 16.59375 L 139.332031 16.625 L 139.347656 16.652344 L 139.363281 16.683594 L 139.378906 16.710938 L 139.394531 16.742188 L 139.410156 16.769531 L 139.457031 16.863281 L 139.46875 16.890625 L 139.484375 16.921875 L 139.519531 17.015625 L 139.535156 17.046875 L 139.558594 17.109375 L 139.566406 17.140625 L 139.589844 17.203125 L 139.597656 17.238281 L 139.609375 17.269531 L 139.617188 17.300781 L 139.628906 17.332031 L 139.636719 17.367188 L 139.652344 17.429688 L 139.660156 17.464844 L 139.664062 17.496094 L 139.671875 17.53125 L 139.679688 17.5625 L 139.683594 17.59375 L 139.691406 17.628906 L 139.695312 17.660156 L 139.699219 17.695312 L 139.703125 17.726562 L 139.707031 17.761719 L 139.710938 17.792969 L 139.71875 17.863281 L 139.722656 17.894531 L 139.722656 17.929688 L 139.726562 17.960938 L 139.726562 18.097656 L 139.441406 18.097656 L 139.441406 18.054688 L 139.4375 18.023438 L 139.4375 17.960938 L 139.433594 17.929688 L 139.433594 17.898438 L 139.429688 17.867188 L 139.425781 17.832031 L 139.402344 17.644531 L 139.394531 17.613281 L 139.390625 17.582031 L 139.375 17.519531 L 139.371094 17.488281 L 139.355469 17.425781 L 139.34375 17.394531 L 139.335938 17.367188 L 139.320312 17.304688 L 139.296875 17.242188 L 139.289062 17.214844 L 139.265625 17.152344 L 139.253906 17.125 L 139.242188 17.09375 L 139.230469 17.066406 L 139.21875 17.035156 L 139.207031 17.007812 L 139.191406 16.976562 L 139.179688 16.949219 L 139.148438 16.894531 L 139.136719 16.863281 L 139.074219 16.753906 L 139.054688 16.726562 L 139.023438 16.671875 L 139.003906 16.644531 L 138.988281 16.617188 L 138.96875 16.59375 L 138.953125 16.566406 L 138.933594 16.539062 L 138.914062 16.515625 L 138.894531 16.488281 L 138.875 16.464844 L 138.855469 16.4375 L 138.816406 16.390625 L 138.792969 16.367188 L 138.753906 16.320312 L 138.707031 16.273438 L 138.6875 16.25 L 138.640625 16.203125 L 138.617188 16.183594 L 138.59375 16.160156 L 138.570312 16.140625 L 138.546875 16.117188 L 138.523438 16.097656 L 138.5 16.074219 L 138.476562 16.054688 L 138.449219 16.035156 L 138.425781 16.015625 L 138.398438 15.996094 L 138.375 15.976562 L 138.347656 15.957031 L 138.324219 15.941406 L 138.269531 15.902344 L 138.246094 15.886719 L 138.21875 15.867188 L 138.054688 15.773438 L 138.023438 15.757812 L 137.96875 15.726562 L 137.9375 15.714844 L 137.910156 15.699219 L 137.882812 15.6875 L 137.851562 15.675781 L 137.824219 15.664062 L 137.792969 15.648438 L 137.765625 15.636719 L 137.734375 15.625 L 137.703125 15.617188 L 137.675781 15.605469 L 137.644531 15.59375 L 137.613281 15.585938 L 137.582031 15.574219 L 137.554688 15.566406 L 137.523438 15.558594 L 137.492188 15.546875 L 137.398438 15.523438 L 137.367188 15.519531 L 137.304688 15.503906 L 137.273438 15.5 L 137.242188 15.492188 L 137.023438 15.464844 L 136.992188 15.464844 L 136.960938 15.460938 L 136.925781 15.460938 L 136.894531 15.457031 L 136.800781 15.457031 Z M 139.726562 18.097656 L 139.726562 32.496094 L 139.441406 32.496094 L 139.441406 18.097656 Z M 138.960938 18.097656 L 138.960938 32.496094 L 138.671875 32.496094 L 138.671875 18.097656 Z M 138.960938 32.496094 L 138.960938 32.546875 L 138.957031 32.578125 L 138.957031 32.632812 L 138.953125 32.664062 L 138.949219 32.691406 L 138.949219 32.71875 L 138.945312 32.75 L 138.9375 32.804688 L 138.933594 32.835938 L 138.929688 32.863281 L 138.921875 32.890625 L 138.917969 32.917969 L 138.914062 32.949219 L 138.890625 33.03125 L 138.886719 33.058594 L 138.878906 33.085938 L 138.871094 33.117188 L 138.859375 33.144531 L 138.84375 33.199219 L 138.832031 33.226562 L 138.824219 33.25 L 138.800781 33.304688 L 138.792969 33.332031 L 138.769531 33.386719 L 138.757812 33.410156 L 138.746094 33.4375 L 138.730469 33.464844 L 138.71875 33.488281 L 138.703125 33.515625 L 138.691406 33.539062 L 138.675781 33.566406 L 138.664062 33.589844 L 138.648438 33.613281 L 138.632812 33.640625 L 138.554688 33.757812 L 138.535156 33.78125 L 138.519531 33.804688 L 138.5 33.828125 L 138.484375 33.851562 L 138.464844 33.871094 L 138.425781 33.917969 L 138.410156 33.9375 L 138.390625 33.960938 L 138.371094 33.980469 L 138.347656 34 L 138.328125 34.019531 L 138.308594 34.042969 L 138.289062 34.0625 L 138.265625 34.082031 L 138.246094 34.101562 L 138.222656 34.121094 L 138.203125 34.140625 L 138.179688 34.15625 L 138.15625 34.175781 L 138.136719 34.195312 L 138.113281 34.210938 L 138.089844 34.230469 L 137.996094 34.292969 L 137.972656 34.3125 L 137.949219 34.324219 L 137.921875 34.339844 L 137.875 34.371094 L 137.847656 34.382812 L 137.824219 34.398438 L 137.796875 34.410156 L 137.773438 34.425781 L 137.71875 34.449219 L 137.695312 34.460938 L 137.585938 34.507812 L 137.5625 34.515625 L 137.535156 34.527344 L 137.507812 34.535156 L 137.480469 34.546875 L 137.371094 34.578125 L 137.339844 34.585938 L 137.285156 34.601562 L 137.257812 34.605469 L 137.230469 34.613281 L 137.199219 34.617188 L 137.171875 34.625 L 137.117188 34.632812 L 137.085938 34.636719 L 137.03125 34.644531 L 137 34.648438 L 136.972656 34.648438 L 136.945312 34.652344 L 136.886719 34.652344 L 136.859375 34.65625 L 136.800781 34.65625 L 136.800781 34.367188 L 136.898438 34.367188 L 136.925781 34.363281 L 136.953125 34.363281 L 136.980469 34.359375 L 137.003906 34.355469 L 137.03125 34.355469 L 137.113281 34.34375 L 137.136719 34.335938 L 137.191406 34.328125 L 137.214844 34.320312 L 137.242188 34.316406 L 137.269531 34.308594 L 137.292969 34.300781 L 137.347656 34.285156 L 137.371094 34.277344 L 137.398438 34.269531 L 137.421875 34.261719 L 137.449219 34.253906 L 137.472656 34.242188 L 137.496094 34.234375 L 137.523438 34.222656 L 137.546875 34.210938 L 137.570312 34.203125 L 137.597656 34.191406 L 137.667969 34.15625 L 137.691406 34.140625 L 137.738281 34.117188 L 137.761719 34.101562 L 137.785156 34.089844 L 137.808594 34.074219 L 137.828125 34.058594 L 137.875 34.027344 L 137.894531 34.011719 L 137.917969 33.996094 L 137.9375 33.980469 L 137.960938 33.964844 L 137.980469 33.949219 L 138 33.929688 L 138.023438 33.914062 L 138.042969 33.894531 L 138.0625 33.878906 L 138.101562 33.839844 L 138.121094 33.824219 L 138.140625 33.804688 L 138.15625 33.785156 L 138.195312 33.746094 L 138.210938 33.726562 L 138.230469 33.703125 L 138.261719 33.664062 L 138.28125 33.640625 L 138.296875 33.621094 L 138.3125 33.597656 L 138.328125 33.578125 L 138.359375 33.53125 L 138.375 33.511719 L 138.386719 33.488281 L 138.402344 33.464844 L 138.414062 33.441406 L 138.429688 33.417969 L 138.464844 33.347656 L 138.480469 33.324219 L 138.492188 33.300781 L 138.5 33.277344 L 138.511719 33.25 L 138.535156 33.203125 L 138.542969 33.175781 L 138.554688 33.152344 L 138.5625 33.125 L 138.570312 33.101562 L 138.578125 33.074219 L 138.589844 33.050781 L 138.597656 33.023438 L 138.601562 33 L 138.609375 32.972656 L 138.617188 32.949219 L 138.625 32.921875 L 138.632812 32.867188 L 138.640625 32.84375 L 138.652344 32.761719 L 138.65625 32.738281 L 138.664062 32.683594 L 138.664062 32.65625 L 138.667969 32.628906 L 138.667969 32.601562 L 138.671875 32.578125 L 138.671875 32.496094 Z M 139.726562 32.496094 L 139.726562 32.636719 L 139.722656 32.667969 L 139.722656 32.703125 L 139.71875 32.734375 L 139.714844 32.769531 L 139.710938 32.800781 L 139.703125 32.871094 L 139.699219 32.902344 L 139.695312 32.9375 L 139.691406 32.96875 L 139.683594 33 L 139.679688 33.035156 L 139.671875 33.066406 L 139.664062 33.101562 L 139.65625 33.132812 L 139.648438 33.167969 L 139.625 33.261719 L 139.617188 33.296875 L 139.605469 33.328125 L 139.597656 33.359375 L 139.585938 33.390625 L 139.578125 33.425781 L 139.507812 33.613281 L 139.492188 33.644531 L 139.480469 33.675781 L 139.46875 33.703125 L 139.421875 33.796875 L 139.410156 33.824219 L 139.378906 33.886719 L 139.363281 33.914062 L 139.34375 33.945312 L 139.3125 34 L 139.292969 34.03125 L 139.277344 34.058594 L 139.238281 34.113281 L 139.222656 34.144531 L 139.144531 34.253906 L 139.121094 34.277344 L 139.082031 34.332031 L 139.058594 34.359375 L 139.039062 34.382812 L 139.015625 34.410156 L 138.996094 34.433594 L 138.972656 34.460938 L 138.878906 34.554688 L 138.855469 34.582031 L 138.832031 34.605469 L 138.808594 34.625 L 138.785156 34.648438 L 138.757812 34.671875 L 138.734375 34.695312 L 138.707031 34.714844 L 138.683594 34.738281 L 138.65625 34.757812 L 138.632812 34.78125 L 138.578125 34.820312 L 138.550781 34.84375 L 138.441406 34.921875 L 138.414062 34.9375 L 138.359375 34.976562 L 138.328125 34.992188 L 138.300781 35.011719 L 138.273438 35.027344 L 138.242188 35.042969 L 138.214844 35.058594 L 138.183594 35.074219 L 138.15625 35.089844 L 138.09375 35.121094 L 138.066406 35.136719 L 138.035156 35.152344 L 138.003906 35.164062 L 137.972656 35.179688 L 137.910156 35.203125 L 137.878906 35.21875 L 137.753906 35.265625 L 137.722656 35.273438 L 137.660156 35.296875 L 137.625 35.304688 L 137.59375 35.3125 L 137.5625 35.324219 L 137.53125 35.332031 L 137.496094 35.339844 L 137.433594 35.355469 L 137.398438 35.363281 L 137.367188 35.367188 L 137.332031 35.375 L 137.300781 35.382812 L 137.265625 35.386719 L 137.234375 35.390625 L 137.199219 35.394531 L 137.167969 35.402344 L 137.132812 35.40625 L 137.101562 35.410156 L 137.066406 35.410156 L 137.035156 35.414062 L 137 35.417969 L 136.96875 35.417969 L 136.933594 35.421875 L 136.832031 35.421875 L 136.800781 35.425781 L 136.800781 35.136719 L 136.871094 35.136719 L 136.902344 35.132812 L 136.933594 35.132812 L 136.96875 35.128906 L 137 35.128906 L 137.0625 35.121094 L 137.09375 35.121094 L 137.15625 35.113281 L 137.1875 35.105469 L 137.25 35.097656 L 137.28125 35.089844 L 137.3125 35.085938 L 137.34375 35.078125 L 137.375 35.074219 L 137.5 35.042969 L 137.53125 35.03125 L 137.5625 35.023438 L 137.589844 35.015625 L 137.621094 35.003906 L 137.652344 34.996094 L 137.683594 34.984375 L 137.710938 34.972656 L 137.742188 34.960938 L 137.769531 34.949219 L 137.832031 34.925781 L 137.886719 34.902344 L 137.917969 34.886719 L 137.945312 34.875 L 137.976562 34.859375 L 138.003906 34.847656 L 138.085938 34.800781 L 138.117188 34.785156 L 138.171875 34.753906 L 138.195312 34.734375 L 138.25 34.703125 L 138.304688 34.664062 L 138.328125 34.648438 L 138.382812 34.609375 L 138.40625 34.589844 L 138.433594 34.570312 L 138.503906 34.511719 L 138.53125 34.492188 L 138.554688 34.46875 L 138.578125 34.449219 L 138.601562 34.425781 L 138.625 34.40625 L 138.648438 34.382812 L 138.667969 34.359375 L 138.757812 34.269531 L 138.777344 34.242188 L 138.800781 34.21875 L 138.859375 34.148438 L 138.878906 34.121094 L 138.898438 34.097656 L 138.917969 34.070312 L 138.9375 34.046875 L 138.957031 34.019531 L 138.972656 33.992188 L 138.992188 33.96875 L 139.011719 33.941406 L 139.042969 33.886719 L 139.0625 33.859375 L 139.140625 33.722656 L 139.152344 33.691406 L 139.167969 33.664062 L 139.179688 33.636719 L 139.195312 33.605469 L 139.207031 33.578125 L 139.222656 33.546875 L 139.234375 33.519531 L 139.246094 33.488281 L 139.257812 33.460938 L 139.269531 33.429688 L 139.28125 33.402344 L 139.289062 33.371094 L 139.3125 33.308594 L 139.320312 33.28125 L 139.332031 33.25 L 139.371094 33.09375 L 139.378906 33.066406 L 139.382812 33.035156 L 139.398438 32.972656 L 139.40625 32.910156 L 139.414062 32.875 L 139.425781 32.78125 L 139.425781 32.75 L 139.433594 32.6875 L 139.433594 32.65625 L 139.4375 32.625 L 139.4375 32.558594 L 139.441406 32.527344 L 139.441406 32.496094 Z M 136.800781 35.425781 L 112.800781 35.425781 L 112.800781 35.136719 L 136.800781 35.136719 Z M 136.800781 34.65625 L 112.800781 34.65625 L 112.800781 34.367188 L 136.800781 34.367188 Z M 112.800781 34.65625 L 112.722656 34.65625 L 112.6875 34.660156 L 112.625 34.660156 L 112.5625 34.667969 L 112.53125 34.667969 L 112.46875 34.675781 L 112.433594 34.679688 L 112.402344 34.6875 L 112.339844 34.695312 L 112.308594 34.703125 L 112.277344 34.707031 L 112.183594 34.730469 L 112.15625 34.734375 L 112.125 34.746094 L 112.03125 34.769531 L 112 34.78125 L 111.972656 34.789062 L 111.941406 34.800781 L 111.910156 34.808594 L 111.878906 34.820312 L 111.851562 34.832031 L 111.820312 34.84375 L 111.792969 34.855469 L 111.761719 34.867188 L 111.734375 34.882812 L 111.703125 34.894531 L 111.675781 34.90625 L 111.648438 34.921875 L 111.617188 34.933594 L 111.535156 34.980469 L 111.503906 34.996094 L 111.394531 35.058594 L 111.371094 35.078125 L 111.34375 35.09375 L 111.316406 35.113281 L 111.289062 35.128906 L 111.265625 35.148438 L 111.210938 35.1875 L 111.164062 35.226562 L 111.136719 35.246094 L 111.089844 35.285156 L 111.0625 35.308594 L 111.015625 35.347656 L 110.878906 35.484375 L 110.859375 35.507812 L 110.835938 35.53125 L 110.796875 35.578125 L 110.773438 35.601562 L 110.753906 35.625 L 110.734375 35.652344 L 110.714844 35.675781 L 110.695312 35.703125 L 110.675781 35.726562 L 110.65625 35.753906 L 110.640625 35.777344 L 110.601562 35.832031 L 110.570312 35.886719 L 110.550781 35.910156 L 110.519531 35.964844 L 110.503906 35.996094 L 110.441406 36.105469 L 110.429688 36.136719 L 110.414062 36.164062 L 110.402344 36.191406 L 110.386719 36.222656 L 110.375 36.25 L 110.363281 36.28125 L 110.351562 36.308594 L 110.339844 36.339844 L 110.328125 36.367188 L 110.304688 36.429688 L 110.296875 36.457031 L 110.285156 36.488281 L 110.269531 36.550781 L 110.257812 36.582031 L 110.25 36.609375 L 110.21875 36.734375 L 110.214844 36.765625 L 110.207031 36.796875 L 110.203125 36.828125 L 110.195312 36.859375 L 110.179688 36.984375 L 110.175781 37.019531 L 110.167969 37.082031 L 110.167969 37.113281 L 110.164062 37.144531 L 110.164062 37.175781 L 110.160156 37.207031 L 110.160156 37.398438 L 110.164062 37.429688 L 110.164062 37.460938 L 110.167969 37.496094 L 110.171875 37.527344 L 110.171875 37.558594 L 110.1875 37.683594 L 110.195312 37.714844 L 110.203125 37.777344 L 110.21875 37.839844 L 110.222656 37.871094 L 110.261719 38.027344 L 110.273438 38.058594 L 110.28125 38.085938 L 110.292969 38.117188 L 110.300781 38.148438 L 110.3125 38.179688 L 110.324219 38.207031 L 110.332031 38.238281 L 110.34375 38.265625 L 110.355469 38.296875 L 110.371094 38.328125 L 110.394531 38.382812 L 110.410156 38.414062 L 110.421875 38.441406 L 110.4375 38.472656 L 110.449219 38.5 L 110.511719 38.609375 L 110.527344 38.640625 L 110.542969 38.667969 L 110.558594 38.691406 L 110.578125 38.71875 L 110.59375 38.746094 L 110.613281 38.773438 L 110.628906 38.800781 L 110.648438 38.824219 L 110.6875 38.878906 L 110.703125 38.902344 L 110.722656 38.925781 L 110.746094 38.953125 L 110.785156 39 L 110.804688 39.027344 L 110.828125 39.050781 L 110.847656 39.074219 L 110.871094 39.097656 L 110.890625 39.121094 L 110.914062 39.144531 L 110.9375 39.164062 L 110.957031 39.1875 L 110.980469 39.210938 L 111.003906 39.230469 L 111.027344 39.253906 L 111.050781 39.273438 L 111.074219 39.296875 L 111.101562 39.316406 L 111.148438 39.355469 L 111.175781 39.375 L 111.199219 39.394531 L 111.226562 39.414062 L 111.25 39.433594 L 111.277344 39.453125 L 111.304688 39.46875 L 111.328125 39.488281 L 111.355469 39.503906 L 111.382812 39.523438 L 111.410156 39.539062 L 111.4375 39.558594 L 111.546875 39.621094 L 111.574219 39.632812 L 111.605469 39.648438 L 111.632812 39.664062 L 111.660156 39.675781 L 111.6875 39.691406 L 111.71875 39.703125 L 111.746094 39.71875 L 111.777344 39.730469 L 111.804688 39.742188 L 111.867188 39.765625 L 111.894531 39.777344 L 111.925781 39.785156 L 111.957031 39.796875 L 111.984375 39.808594 L 112.015625 39.816406 L 112.046875 39.828125 L 112.109375 39.84375 L 112.136719 39.851562 L 112.230469 39.875 L 112.261719 39.878906 L 112.324219 39.894531 L 112.386719 39.902344 L 112.417969 39.910156 L 112.480469 39.917969 L 112.515625 39.921875 L 112.546875 39.921875 L 112.609375 39.929688 L 112.640625 39.929688 L 112.671875 39.933594 L 112.734375 39.933594 L 112.769531 39.9375 L 112.800781 39.9375 L 112.800781 40.222656 L 112.6875 40.222656 L 112.65625 40.21875 L 112.621094 40.21875 L 112.589844 40.214844 L 112.554688 40.214844 L 112.519531 40.210938 L 112.488281 40.207031 L 112.453125 40.203125 L 112.421875 40.199219 L 112.386719 40.195312 L 112.355469 40.191406 L 112.320312 40.183594 L 112.289062 40.179688 L 112.253906 40.171875 L 112.222656 40.167969 L 112.191406 40.160156 L 112.15625 40.152344 L 112.09375 40.136719 L 112.058594 40.128906 L 112.027344 40.121094 L 111.996094 40.109375 L 111.960938 40.101562 L 111.929688 40.09375 L 111.835938 40.058594 L 111.804688 40.050781 L 111.742188 40.027344 L 111.710938 40.011719 L 111.648438 39.988281 L 111.617188 39.972656 L 111.585938 39.960938 L 111.554688 39.945312 L 111.527344 39.933594 L 111.464844 39.902344 L 111.4375 39.886719 L 111.375 39.855469 L 111.347656 39.839844 L 111.320312 39.820312 L 111.289062 39.804688 L 111.261719 39.785156 L 111.234375 39.769531 L 111.203125 39.75 L 111.175781 39.734375 L 111.011719 39.617188 L 110.988281 39.59375 L 110.960938 39.574219 L 110.933594 39.550781 L 110.910156 39.53125 L 110.882812 39.507812 L 110.859375 39.488281 L 110.832031 39.464844 L 110.785156 39.417969 L 110.757812 39.394531 L 110.664062 39.300781 L 110.644531 39.277344 L 110.621094 39.25 L 110.597656 39.226562 L 110.574219 39.199219 L 110.554688 39.175781 L 110.53125 39.148438 L 110.511719 39.121094 L 110.492188 39.097656 L 110.46875 39.070312 L 110.371094 38.933594 L 110.355469 38.90625 L 110.335938 38.878906 L 110.316406 38.847656 L 110.300781 38.820312 L 110.28125 38.792969 L 110.265625 38.761719 L 110.25 38.734375 L 110.234375 38.703125 L 110.21875 38.675781 L 110.203125 38.644531 L 110.1875 38.617188 L 110.15625 38.554688 L 110.144531 38.523438 L 110.128906 38.496094 L 110.113281 38.464844 L 110.066406 38.339844 L 110.050781 38.308594 L 110.042969 38.277344 L 110.007812 38.183594 L 110 38.148438 L 109.988281 38.117188 L 109.972656 38.054688 L 109.964844 38.019531 L 109.953125 37.988281 L 109.945312 37.957031 L 109.941406 37.921875 L 109.933594 37.890625 L 109.925781 37.855469 L 109.921875 37.824219 L 109.914062 37.792969 L 109.910156 37.757812 L 109.902344 37.726562 L 109.898438 37.691406 L 109.894531 37.660156 L 109.886719 37.589844 L 109.882812 37.558594 L 109.882812 37.523438 L 109.878906 37.492188 L 109.875 37.457031 L 109.875 37.390625 L 109.871094 37.359375 L 109.871094 37.222656 L 109.875 37.191406 L 109.875 37.15625 L 109.878906 37.121094 L 109.878906 37.089844 L 109.882812 37.054688 L 109.886719 37.023438 L 109.886719 36.988281 L 109.890625 36.957031 L 109.894531 36.921875 L 109.898438 36.890625 L 109.90625 36.855469 L 109.910156 36.824219 L 109.917969 36.789062 L 109.921875 36.757812 L 109.929688 36.722656 L 109.933594 36.691406 L 109.941406 36.660156 L 109.949219 36.625 L 109.964844 36.5625 L 109.972656 36.527344 L 109.984375 36.496094 L 109.992188 36.464844 L 110.003906 36.433594 L 110.011719 36.398438 L 110.046875 36.304688 L 110.054688 36.273438 L 110.070312 36.242188 L 110.105469 36.148438 L 110.121094 36.117188 L 110.132812 36.085938 L 110.148438 36.058594 L 110.160156 36.027344 L 110.191406 35.964844 L 110.207031 35.9375 L 110.222656 35.90625 L 110.238281 35.878906 L 110.253906 35.847656 L 110.273438 35.820312 L 110.289062 35.789062 L 110.304688 35.761719 L 110.324219 35.734375 L 110.34375 35.703125 L 110.359375 35.675781 L 110.476562 35.511719 L 110.496094 35.488281 L 110.519531 35.460938 L 110.539062 35.433594 L 110.5625 35.410156 L 110.582031 35.382812 L 110.605469 35.359375 L 110.628906 35.332031 L 110.648438 35.308594 L 110.671875 35.285156 L 110.695312 35.257812 L 110.765625 35.1875 L 110.792969 35.164062 L 110.816406 35.140625 L 110.839844 35.121094 L 110.867188 35.097656 L 110.890625 35.074219 L 110.917969 35.054688 L 110.941406 35.03125 L 110.996094 34.992188 L 111.023438 34.96875 L 111.046875 34.949219 L 111.183594 34.851562 L 111.214844 34.835938 L 111.242188 34.816406 L 111.269531 34.800781 L 111.300781 34.78125 L 111.355469 34.75 L 111.386719 34.730469 L 111.414062 34.714844 L 111.476562 34.683594 L 111.503906 34.667969 L 111.535156 34.65625 L 111.597656 34.625 L 111.625 34.613281 L 111.65625 34.601562 L 111.6875 34.585938 L 111.84375 34.527344 L 111.878906 34.515625 L 111.910156 34.507812 L 111.941406 34.496094 L 111.972656 34.488281 L 112.003906 34.476562 L 112.039062 34.46875 L 112.101562 34.453125 L 112.136719 34.445312 L 112.199219 34.429688 L 112.234375 34.421875 L 112.265625 34.417969 L 112.300781 34.410156 L 112.332031 34.40625 L 112.367188 34.398438 L 112.398438 34.394531 L 112.433594 34.390625 L 112.464844 34.386719 L 112.5 34.382812 L 112.53125 34.378906 L 112.566406 34.378906 L 112.597656 34.375 L 112.632812 34.371094 L 112.699219 34.371094 L 112.734375 34.367188 L 112.800781 34.367188 Z M 112.800781 35.425781 L 112.683594 35.425781 L 112.628906 35.433594 L 112.601562 35.433594 L 112.578125 35.4375 L 112.46875 35.453125 L 112.445312 35.457031 L 112.417969 35.464844 L 112.390625 35.46875 L 112.367188 35.476562 L 112.339844 35.480469 L 112.3125 35.488281 L 112.289062 35.496094 L 112.261719 35.503906 L 112.238281 35.511719 L 112.210938 35.519531 L 112.1875 35.527344 L 112.160156 35.535156 L 112.136719 35.546875 L 112.109375 35.554688 L 112.0625 35.578125 L 112.035156 35.585938 L 111.941406 35.632812 L 111.914062 35.644531 L 111.890625 35.660156 L 111.84375 35.683594 L 111.824219 35.699219 L 111.800781 35.714844 L 111.777344 35.726562 L 111.753906 35.742188 L 111.734375 35.757812 L 111.6875 35.789062 L 111.648438 35.820312 L 111.625 35.839844 L 111.585938 35.871094 L 111.5625 35.890625 L 111.542969 35.90625 L 111.484375 35.964844 L 111.464844 35.980469 L 111.449219 36 L 111.410156 36.039062 L 111.394531 36.058594 L 111.375 36.082031 L 111.34375 36.121094 L 111.324219 36.144531 L 111.308594 36.164062 L 111.292969 36.1875 L 111.277344 36.207031 L 111.261719 36.230469 L 111.246094 36.25 L 111.230469 36.273438 L 111.21875 36.296875 L 111.1875 36.34375 L 111.164062 36.390625 L 111.148438 36.414062 L 111.089844 36.53125 L 111.078125 36.558594 L 111.070312 36.582031 L 111.058594 36.605469 L 111.050781 36.632812 L 111.039062 36.65625 L 111.03125 36.683594 L 111.023438 36.707031 L 111.015625 36.734375 L 111.007812 36.757812 L 111 36.785156 L 110.992188 36.808594 L 110.984375 36.835938 L 110.980469 36.863281 L 110.972656 36.886719 L 110.96875 36.914062 L 110.960938 36.941406 L 110.957031 36.96875 L 110.953125 36.992188 L 110.9375 37.101562 L 110.9375 37.125 L 110.929688 37.179688 L 110.929688 37.394531 L 110.933594 37.421875 L 110.933594 37.449219 L 110.9375 37.476562 L 110.9375 37.5 L 110.953125 37.609375 L 110.957031 37.632812 L 110.964844 37.660156 L 110.96875 37.6875 L 110.976562 37.710938 L 110.980469 37.738281 L 110.988281 37.765625 L 110.996094 37.789062 L 111 37.816406 L 111.007812 37.84375 L 111.015625 37.867188 L 111.027344 37.894531 L 111.035156 37.917969 L 111.042969 37.945312 L 111.054688 37.96875 L 111.0625 37.992188 L 111.074219 38.019531 L 111.082031 38.042969 L 111.09375 38.066406 L 111.105469 38.09375 L 111.152344 38.1875 L 111.167969 38.210938 L 111.179688 38.234375 L 111.195312 38.257812 L 111.207031 38.28125 L 111.222656 38.304688 L 111.238281 38.324219 L 111.25 38.347656 L 111.265625 38.371094 L 111.28125 38.390625 L 111.296875 38.414062 L 111.316406 38.433594 L 111.332031 38.457031 L 111.363281 38.496094 L 111.382812 38.519531 L 111.398438 38.539062 L 111.4375 38.578125 L 111.453125 38.597656 L 111.492188 38.636719 L 111.511719 38.652344 L 111.550781 38.691406 L 111.570312 38.707031 L 111.589844 38.726562 L 111.613281 38.742188 L 111.632812 38.757812 L 111.652344 38.777344 L 111.675781 38.792969 L 111.695312 38.808594 L 111.742188 38.839844 L 111.761719 38.855469 L 111.785156 38.867188 L 111.832031 38.898438 L 111.855469 38.910156 L 111.878906 38.925781 L 111.949219 38.960938 L 111.972656 38.976562 L 111.996094 38.988281 L 112.019531 38.996094 L 112.042969 39.007812 L 112.070312 39.019531 L 112.09375 39.03125 L 112.117188 39.039062 L 112.144531 39.050781 L 112.167969 39.058594 L 112.195312 39.066406 L 112.21875 39.074219 L 112.246094 39.082031 L 112.269531 39.089844 L 112.324219 39.105469 L 112.347656 39.113281 L 112.375 39.117188 L 112.402344 39.125 L 112.425781 39.128906 L 112.453125 39.136719 L 112.507812 39.144531 L 112.53125 39.148438 L 112.613281 39.160156 L 112.640625 39.160156 L 112.667969 39.164062 L 112.691406 39.164062 L 112.71875 39.167969 L 112.800781 39.167969 L 112.800781 39.457031 L 112.753906 39.457031 L 112.722656 39.453125 L 112.667969 39.453125 L 112.636719 39.449219 L 112.609375 39.449219 L 112.582031 39.445312 L 112.550781 39.441406 L 112.496094 39.433594 L 112.464844 39.429688 L 112.410156 39.421875 L 112.382812 39.414062 L 112.351562 39.410156 L 112.324219 39.402344 L 112.296875 39.398438 L 112.132812 39.351562 L 112.105469 39.339844 L 112.078125 39.332031 L 112.050781 39.320312 L 112.023438 39.3125 L 111.941406 39.277344 L 111.917969 39.265625 L 111.863281 39.242188 L 111.839844 39.230469 L 111.8125 39.21875 L 111.785156 39.203125 L 111.761719 39.191406 L 111.734375 39.175781 L 111.710938 39.160156 L 111.6875 39.148438 L 111.660156 39.132812 L 111.566406 39.070312 L 111.542969 39.050781 L 111.496094 39.019531 L 111.472656 39 L 111.449219 38.984375 L 111.429688 38.964844 L 111.382812 38.925781 L 111.363281 38.90625 L 111.339844 38.890625 L 111.320312 38.871094 L 111.300781 38.847656 L 111.277344 38.828125 L 111.238281 38.789062 L 111.21875 38.765625 L 111.199219 38.746094 L 111.179688 38.722656 L 111.160156 38.703125 L 111.140625 38.679688 L 111.125 38.660156 L 111.105469 38.636719 L 111.089844 38.613281 L 111.070312 38.589844 L 111.054688 38.566406 L 111.035156 38.542969 L 110.972656 38.449219 L 110.957031 38.421875 L 110.941406 38.398438 L 110.929688 38.375 L 110.914062 38.347656 L 110.898438 38.324219 L 110.886719 38.296875 L 110.875 38.273438 L 110.859375 38.246094 L 110.847656 38.222656 L 110.8125 38.140625 L 110.800781 38.117188 L 110.789062 38.089844 L 110.78125 38.0625 L 110.769531 38.035156 L 110.761719 38.007812 L 110.75 37.980469 L 110.703125 37.816406 L 110.695312 37.785156 L 110.691406 37.757812 L 110.683594 37.730469 L 110.679688 37.703125 L 110.671875 37.675781 L 110.667969 37.644531 L 110.660156 37.589844 L 110.65625 37.558594 L 110.648438 37.503906 L 110.648438 37.472656 L 110.644531 37.445312 L 110.644531 37.417969 L 110.640625 37.386719 L 110.640625 37.214844 L 110.644531 37.1875 L 110.644531 37.128906 L 110.648438 37.101562 L 110.652344 37.070312 L 110.660156 37.015625 L 110.664062 36.984375 L 110.675781 36.902344 L 110.683594 36.871094 L 110.6875 36.84375 L 110.695312 36.816406 L 110.699219 36.789062 L 110.707031 36.761719 L 110.714844 36.730469 L 110.746094 36.621094 L 110.757812 36.59375 L 110.765625 36.566406 L 110.777344 36.539062 L 110.785156 36.511719 L 110.796875 36.488281 L 110.832031 36.40625 L 110.84375 36.382812 L 110.867188 36.328125 L 110.882812 36.304688 L 110.894531 36.277344 L 110.910156 36.253906 L 110.921875 36.226562 L 110.953125 36.179688 L 110.96875 36.152344 L 111.0625 36.011719 L 111.082031 35.988281 L 111.097656 35.964844 L 111.136719 35.917969 L 111.152344 35.898438 L 111.171875 35.875 L 111.191406 35.855469 L 111.210938 35.832031 L 111.25 35.792969 L 111.269531 35.769531 L 111.292969 35.75 L 111.332031 35.710938 L 111.355469 35.691406 L 111.375 35.671875 L 111.398438 35.652344 L 111.417969 35.632812 L 111.441406 35.617188 L 111.464844 35.597656 L 111.488281 35.582031 L 111.511719 35.5625 L 111.558594 35.53125 L 111.582031 35.511719 L 111.675781 35.449219 L 111.703125 35.4375 L 111.75 35.40625 L 111.777344 35.394531 L 111.800781 35.378906 L 111.855469 35.355469 L 111.878906 35.339844 L 111.933594 35.316406 L 111.957031 35.304688 L 111.984375 35.296875 L 112.039062 35.273438 L 112.066406 35.265625 L 112.09375 35.253906 L 112.148438 35.238281 L 112.175781 35.226562 L 112.257812 35.203125 L 112.285156 35.199219 L 112.316406 35.191406 L 112.34375 35.183594 L 112.371094 35.179688 L 112.398438 35.171875 L 112.425781 35.167969 L 112.457031 35.164062 L 112.511719 35.15625 L 112.542969 35.152344 L 112.597656 35.144531 L 112.628906 35.144531 L 112.65625 35.140625 L 112.683594 35.140625 L 112.714844 35.136719 L 112.800781 35.136719 Z M 112.800781 39.167969 L 136.558594 39.167969 L 136.558594 39.457031 L 112.800781 39.457031 Z M 112.800781 39.9375 L 136.558594 39.9375 L 136.558594 40.222656 L 112.800781 40.222656 Z M 136.847656 39.167969 L 136.871094 39.167969 L 136.878906 39.171875 L 136.898438 39.171875 L 136.90625 39.175781 L 136.917969 39.179688 L 136.925781 39.179688 L 136.933594 39.183594 L 136.945312 39.1875 L 136.96875 39.199219 L 136.976562 39.207031 L 136.984375 39.210938 L 136.992188 39.21875 L 137 39.222656 L 137.007812 39.230469 L 137.015625 39.234375 L 137.023438 39.242188 L 137.027344 39.25 L 137.035156 39.257812 L 137.039062 39.265625 L 137.046875 39.273438 L 137.054688 39.289062 L 137.0625 39.296875 L 137.066406 39.304688 L 137.070312 39.316406 L 137.074219 39.324219 L 137.074219 39.332031 L 137.078125 39.339844 L 137.082031 39.351562 L 137.082031 39.359375 L 137.085938 39.371094 L 137.085938 39.398438 L 137.089844 39.40625 L 137.089844 39.988281 L 137.085938 39.996094 L 137.085938 40.023438 L 137.082031 40.035156 L 137.082031 40.042969 L 137.078125 40.054688 L 137.066406 40.078125 L 137.0625 40.089844 L 137.050781 40.113281 L 137.042969 40.121094 L 137.039062 40.128906 L 137.03125 40.136719 L 137.027344 40.144531 L 137.019531 40.152344 L 137.011719 40.15625 L 137.007812 40.164062 L 137 40.171875 L 136.992188 40.175781 L 136.984375 40.183594 L 136.96875 40.191406 L 136.957031 40.195312 L 136.933594 40.207031 L 136.921875 40.210938 L 136.90625 40.21875 L 136.894531 40.21875 L 136.886719 40.222656 L 136.558594 40.222656 L 136.558594 39.9375 L 136.570312 39.9375 L 136.582031 39.933594 L 136.601562 39.933594 L 136.609375 39.929688 L 136.621094 39.929688 L 136.636719 39.921875 L 136.648438 39.917969 L 136.65625 39.917969 L 136.664062 39.910156 L 136.679688 39.902344 L 136.691406 39.898438 L 136.699219 39.894531 L 136.707031 39.886719 L 136.714844 39.882812 L 136.71875 39.875 L 136.726562 39.867188 L 136.734375 39.863281 L 136.742188 39.855469 L 136.746094 39.847656 L 136.753906 39.839844 L 136.761719 39.824219 L 136.769531 39.816406 L 136.773438 39.808594 L 136.777344 39.796875 L 136.789062 39.773438 L 136.789062 39.761719 L 136.792969 39.753906 L 136.796875 39.742188 L 136.796875 39.726562 L 136.800781 39.714844 L 136.800781 39.675781 L 136.796875 39.664062 L 136.796875 39.65625 L 136.792969 39.644531 L 136.792969 39.636719 L 136.789062 39.628906 L 136.785156 39.617188 L 136.785156 39.609375 L 136.78125 39.601562 L 136.777344 39.589844 L 136.773438 39.582031 L 136.765625 39.574219 L 136.757812 39.558594 L 136.75 39.550781 L 136.746094 39.542969 L 136.710938 39.507812 L 136.703125 39.503906 L 136.695312 39.496094 L 136.664062 39.480469 L 136.652344 39.476562 L 136.636719 39.46875 L 136.625 39.464844 L 136.617188 39.460938 L 136.597656 39.460938 L 136.589844 39.457031 L 136.558594 39.457031 L 136.558594 39.167969 Z M 136.847656 39.167969 "/>
</svg>
