<?xml version="1.0" encoding="UTF-8"?>
<svg xmlns="http://www.w3.org/2000/svg" xmlns:xlink="http://www.w3.org/1999/xlink" width="288" height="288" viewBox="0 0 288 288">
<path fill-rule="nonzero" fill="rgb(54.902%, 23.5294%, 100%)" fill-opacity="0.5" d="M 0 187.242188 L 128.433594 187.242188 L 128.433594 189.835938 L 0 189.835938 Z M 0 192.433594 L 128.433594 192.433594 L 128.433594 195.027344 L 0 195.027344 Z M 131.027344 187.242188 L 131.101562 187.246094 L 131.175781 187.253906 L 131.257812 187.265625 L 131.339844 187.28125 L 131.417969 187.304688 L 131.496094 187.332031 L 131.570312 187.363281 L 131.644531 187.398438 L 131.714844 187.441406 L 131.78125 187.484375 L 131.847656 187.535156 L 131.910156 187.589844 L 131.96875 187.648438 L 132.023438 187.710938 L 132.074219 187.773438 L 132.121094 187.839844 L 132.160156 187.910156 L 132.199219 187.984375 L 132.230469 188.058594 L 132.261719 188.136719 L 132.28125 188.214844 L 132.300781 188.296875 L 132.3125 188.375 L 132.320312 188.457031 L 132.324219 188.539062 L 132.324219 193.730469 L 132.316406 193.878906 L 132.304688 193.960938 L 132.285156 194.042969 L 132.265625 194.121094 L 132.238281 194.199219 L 132.167969 194.347656 L 132.125 194.417969 L 132.082031 194.484375 L 132.03125 194.550781 L 131.976562 194.613281 L 131.917969 194.671875 L 131.859375 194.726562 L 131.792969 194.777344 L 131.726562 194.824219 L 131.65625 194.863281 L 131.582031 194.902344 L 131.507812 194.933594 L 131.429688 194.960938 L 131.351562 194.984375 L 131.273438 195.003906 L 131.191406 195.015625 L 131.109375 195.023438 L 131.027344 195.027344 L 128.433594 195.027344 L 128.433594 192.433594 L 128.507812 192.429688 L 128.582031 192.421875 L 128.664062 192.410156 L 128.742188 192.394531 L 128.824219 192.371094 L 128.902344 192.34375 L 128.976562 192.3125 L 129.050781 192.277344 L 129.121094 192.234375 L 129.253906 192.140625 L 129.316406 192.085938 L 129.375 192.027344 L 129.429688 191.964844 L 129.480469 191.902344 L 129.523438 191.835938 L 129.566406 191.765625 L 129.605469 191.691406 L 129.636719 191.617188 L 129.664062 191.539062 L 129.6875 191.460938 L 129.707031 191.378906 L 129.71875 191.296875 L 129.726562 191.21875 L 129.730469 191.136719 L 129.726562 191.058594 L 129.722656 190.984375 L 129.707031 190.902344 L 129.691406 190.824219 L 129.667969 190.746094 L 129.640625 190.667969 L 129.609375 190.589844 L 129.574219 190.519531 L 129.488281 190.378906 L 129.4375 190.3125 L 129.382812 190.253906 L 129.324219 190.195312 L 129.265625 190.140625 L 129.199219 190.089844 L 129.132812 190.042969 L 129.0625 190 L 128.914062 189.929688 L 128.835938 189.902344 L 128.757812 189.878906 L 128.675781 189.859375 L 128.597656 189.847656 L 128.515625 189.839844 L 128.433594 189.835938 L 128.433594 187.242188 Z M 219.242188 286.703125 L 184.214844 286.703125 L 184.214844 278.917969 L 199.785156 278.917969 L 199.785156 19.460938 L 184.214844 19.460938 L 184.214844 286.703125 L 164.757812 286.703125 L 164.757812 0 L 219.242188 0 Z M 219.242188 286.703125 "/>
<path fill-rule="nonzero" fill="rgb(0%, 0%, 86.6667%)" fill-opacity="0.5" d="M 191.675781 277.621094 L 192.324219 277.621094 L 192.324219 282.488281 L 191.675781 282.488281 Z M 191.675781 283.136719 L 192.324219 283.136719 L 192.324219 288 L 191.675781 288 Z M 191.675781 283.136719 "/>
</svg>
