<?xml version="1.0" encoding="UTF-8"?>
<svg xmlns="http://www.w3.org/2000/svg" xmlns:xlink="http://www.w3.org/1999/xlink" width="288" height="76" viewBox="0 0 288 76">
<path fill-rule="nonzero" fill="rgb(49.8039%, 16.8627%, 55.6863%)" fill-opacity="0.5" d="M 0 53.507812 L 0 22.03125 L 15.738281 37.769531 Z M 288 22.03125 L 288 53.507812 L 272.261719 37.769531 Z M 288 22.03125 "/>
<path fill-rule="nonzero" fill="rgb(34.902%, 42.7451%, 0%)" fill-opacity="0.5" d="M 272.261719 73.96875 L 272.257812 74.105469 L 272.238281 74.242188 L 272.207031 74.375 L 272.167969 74.503906 L 272.113281 74.632812 L 272.050781 74.753906 L 271.976562 74.871094 L 271.894531 74.980469 L 271.800781 75.078125 L 271.699219 75.171875 L 271.589844 75.257812 L 271.476562 75.332031 L 271.355469 75.394531 L 271.226562 75.445312 L 271.097656 75.488281 L 270.960938 75.515625 L 270.824219 75.535156 L 270.6875 75.539062 L 265.96875 75.539062 L 265.828125 75.535156 L 265.695312 75.515625 L 265.558594 75.488281 L 265.429688 75.445312 L 265.300781 75.394531 L 265.179688 75.332031 L 265.066406 75.257812 L 264.957031 75.171875 L 264.855469 75.078125 L 264.761719 74.980469 L 264.679688 74.871094 L 264.605469 74.753906 L 264.539062 74.632812 L 264.488281 74.503906 L 264.445312 74.375 L 264.417969 74.242188 L 264.398438 74.105469 L 264.394531 73.96875 L 264.394531 64.523438 L 264.386719 64.386719 L 264.371094 64.25 L 264.339844 64.117188 L 264.296875 63.988281 L 264.246094 63.859375 L 264.183594 63.738281 L 264.109375 63.621094 L 264.023438 63.511719 L 263.933594 63.410156 L 263.832031 63.320312 L 263.722656 63.234375 L 263.605469 63.160156 L 263.484375 63.097656 L 263.359375 63.046875 L 263.226562 63.003906 L 263.09375 62.976562 L 262.957031 62.957031 L 262.820312 62.949219 L 29.902344 62.949219 L 29.765625 62.945312 L 29.628906 62.925781 L 29.496094 62.898438 L 29.363281 62.855469 L 29.238281 62.804688 L 29.113281 62.738281 L 29 62.667969 L 28.890625 62.582031 L 28.789062 62.488281 L 28.695312 62.386719 L 28.613281 62.28125 L 28.539062 62.164062 L 28.476562 62.042969 L 28.421875 61.914062 L 28.382812 61.785156 L 28.351562 61.648438 L 28.332031 61.515625 L 28.328125 61.378906 L 28.328125 56.65625 L 28.332031 56.519531 L 28.351562 56.382812 L 28.382812 56.25 L 28.421875 56.117188 L 28.476562 55.992188 L 28.539062 55.867188 L 28.613281 55.753906 L 28.695312 55.644531 L 28.789062 55.542969 L 28.890625 55.449219 L 29 55.367188 L 29.113281 55.292969 L 29.238281 55.230469 L 29.363281 55.175781 L 29.496094 55.136719 L 29.628906 55.105469 L 29.765625 55.089844 L 29.902344 55.082031 L 262.820312 55.082031 L 262.957031 55.074219 L 263.09375 55.058594 L 263.226562 55.027344 L 263.359375 54.988281 L 263.484375 54.933594 L 263.605469 54.871094 L 263.722656 54.796875 L 263.832031 54.714844 L 263.933594 54.621094 L 264.023438 54.519531 L 264.109375 54.410156 L 264.183594 54.296875 L 264.246094 54.171875 L 264.296875 54.046875 L 264.339844 53.914062 L 264.371094 53.78125 L 264.386719 53.644531 L 264.394531 53.507812 L 264.394531 39.34375 L 264.386719 39.207031 L 264.371094 39.070312 L 264.339844 38.9375 L 264.296875 38.804688 L 264.246094 38.679688 L 264.183594 38.558594 L 264.109375 38.441406 L 264.023438 38.332031 L 263.933594 38.230469 L 263.832031 38.140625 L 263.722656 38.054688 L 263.605469 37.980469 L 263.484375 37.917969 L 263.359375 37.867188 L 263.226562 37.824219 L 263.09375 37.792969 L 262.957031 37.777344 L 262.820312 37.769531 L 29.902344 37.769531 L 29.765625 37.765625 L 29.628906 37.746094 L 29.496094 37.71875 L 29.363281 37.675781 L 29.238281 37.621094 L 29.113281 37.558594 L 29 37.484375 L 28.890625 37.402344 L 28.789062 37.308594 L 28.695312 37.207031 L 28.613281 37.097656 L 28.539062 36.984375 L 28.476562 36.863281 L 28.421875 36.734375 L 28.382812 36.605469 L 28.351562 36.46875 L 28.332031 36.332031 L 28.328125 36.195312 L 28.328125 31.476562 L 28.332031 31.339844 L 28.351562 31.203125 L 28.382812 31.066406 L 28.421875 30.9375 L 28.476562 30.808594 L 28.539062 30.6875 L 28.613281 30.574219 L 28.695312 30.464844 L 28.789062 30.363281 L 28.890625 30.269531 L 29 30.1875 L 29.113281 30.113281 L 29.238281 30.050781 L 29.363281 29.996094 L 29.496094 29.957031 L 29.628906 29.925781 L 29.765625 29.90625 L 29.902344 29.902344 L 262.820312 29.902344 L 262.957031 29.894531 L 263.09375 29.878906 L 263.226562 29.847656 L 263.359375 29.808594 L 263.484375 29.753906 L 263.605469 29.691406 L 263.722656 29.617188 L 263.832031 29.535156 L 263.933594 29.441406 L 264.023438 29.339844 L 264.109375 29.230469 L 264.183594 29.113281 L 264.246094 28.992188 L 264.296875 28.867188 L 264.339844 28.734375 L 264.371094 28.601562 L 264.386719 28.464844 L 264.394531 28.328125 L 264.394531 14.164062 L 264.386719 14.027344 L 264.371094 13.890625 L 264.339844 13.757812 L 264.296875 13.625 L 264.246094 13.5 L 264.183594 13.378906 L 264.109375 13.261719 L 264.023438 13.152344 L 263.933594 13.050781 L 263.832031 12.957031 L 263.722656 12.875 L 263.605469 12.800781 L 263.484375 12.738281 L 263.359375 12.683594 L 263.226562 12.644531 L 263.09375 12.613281 L 262.957031 12.597656 L 262.820312 12.589844 L 29.902344 12.589844 L 29.765625 12.585938 L 29.628906 12.566406 L 29.496094 12.535156 L 29.363281 12.496094 L 29.238281 12.441406 L 29.113281 12.378906 L 29 12.304688 L 28.890625 12.222656 L 28.789062 12.128906 L 28.695312 12.027344 L 28.613281 11.917969 L 28.539062 11.804688 L 28.476562 11.679688 L 28.421875 11.554688 L 28.382812 11.421875 L 28.351562 11.289062 L 28.332031 11.152344 L 28.328125 11.015625 L 28.328125 6.296875 L 28.332031 6.15625 L 28.351562 6.023438 L 28.382812 5.886719 L 28.421875 5.757812 L 28.476562 5.628906 L 28.539062 5.507812 L 28.613281 5.390625 L 28.695312 5.285156 L 28.789062 5.183594 L 28.890625 5.089844 L 29 5.007812 L 29.113281 4.933594 L 29.238281 4.867188 L 29.363281 4.816406 L 29.496094 4.773438 L 29.628906 4.746094 L 29.765625 4.726562 L 29.902344 4.722656 L 262.820312 4.722656 L 262.957031 4.714844 L 263.09375 4.699219 L 263.226562 4.667969 L 263.359375 4.625 L 263.484375 4.574219 L 263.605469 4.511719 L 263.722656 4.4375 L 263.832031 4.351562 L 263.933594 4.261719 L 264.023438 4.160156 L 264.109375 4.050781 L 264.183594 3.933594 L 264.246094 3.8125 L 264.296875 3.6875 L 264.339844 3.554688 L 264.371094 3.421875 L 264.386719 3.285156 L 264.394531 3.148438 L 264.394531 1.574219 L 264.398438 1.4375 L 264.417969 1.300781 L 264.445312 1.167969 L 264.488281 1.035156 L 264.539062 0.910156 L 264.605469 0.785156 L 264.679688 0.671875 L 264.761719 0.5625 L 264.855469 0.460938 L 264.957031 0.367188 L 265.066406 0.285156 L 265.179688 0.210938 L 265.300781 0.148438 L 265.429688 0.09375 L 265.558594 0.0546875 L 265.695312 0.0234375 L 265.828125 0.0078125 L 265.96875 0 L 270.6875 0 L 270.824219 0.0078125 L 270.960938 0.0234375 L 271.097656 0.0546875 L 271.226562 0.09375 L 271.355469 0.148438 L 271.476562 0.210938 L 271.589844 0.285156 L 271.699219 0.367188 L 271.800781 0.460938 L 271.894531 0.5625 L 271.976562 0.671875 L 272.050781 0.785156 L 272.113281 0.910156 L 272.167969 1.035156 L 272.207031 1.167969 L 272.238281 1.300781 L 272.257812 1.4375 L 272.261719 1.574219 Z M 25.179688 50.359375 L 25.042969 50.367188 L 24.90625 50.382812 L 24.773438 50.414062 L 24.640625 50.457031 L 24.515625 50.507812 L 24.394531 50.570312 L 24.277344 50.644531 L 24.167969 50.730469 L 24.066406 50.820312 L 23.976562 50.921875 L 23.890625 51.03125 L 23.816406 51.148438 L 23.753906 51.269531 L 23.703125 51.394531 L 23.660156 51.527344 L 23.628906 51.660156 L 23.613281 51.796875 L 23.605469 51.933594 L 23.605469 66.097656 L 23.613281 66.234375 L 23.628906 66.371094 L 23.660156 66.503906 L 23.703125 66.636719 L 23.753906 66.761719 L 23.816406 66.886719 L 23.890625 67 L 23.976562 67.109375 L 24.066406 67.210938 L 24.167969 67.304688 L 24.277344 67.386719 L 24.394531 67.460938 L 24.515625 67.523438 L 24.640625 67.578125 L 24.773438 67.617188 L 24.90625 67.648438 L 25.042969 67.667969 L 25.179688 67.671875 L 258.097656 67.671875 L 258.234375 67.679688 L 258.371094 67.695312 L 258.503906 67.726562 L 258.636719 67.765625 L 258.761719 67.820312 L 258.886719 67.882812 L 259 67.957031 L 259.109375 68.039062 L 259.210938 68.132812 L 259.304688 68.234375 L 259.386719 68.34375 L 259.460938 68.460938 L 259.523438 68.582031 L 259.578125 68.707031 L 259.617188 68.839844 L 259.648438 68.972656 L 259.667969 69.109375 L 259.671875 69.246094 L 259.671875 73.96875 L 259.667969 74.105469 L 259.648438 74.242188 L 259.617188 74.375 L 259.578125 74.503906 L 259.523438 74.632812 L 259.460938 74.753906 L 259.386719 74.871094 L 259.304688 74.980469 L 259.210938 75.078125 L 259.109375 75.171875 L 259 75.257812 L 258.886719 75.332031 L 258.761719 75.394531 L 258.636719 75.445312 L 258.503906 75.488281 L 258.371094 75.515625 L 258.234375 75.535156 L 258.097656 75.539062 L 17.3125 75.539062 L 17.175781 75.535156 L 17.039062 75.515625 L 16.902344 75.488281 L 16.773438 75.445312 L 16.644531 75.394531 L 16.523438 75.332031 L 16.410156 75.257812 L 16.300781 75.171875 L 16.199219 75.078125 L 16.105469 74.980469 L 16.023438 74.871094 L 15.949219 74.753906 L 15.886719 74.632812 L 15.832031 74.503906 L 15.792969 74.375 L 15.761719 74.242188 L 15.742188 74.105469 L 15.738281 73.96875 L 15.738281 1.574219 L 15.742188 1.4375 L 15.761719 1.300781 L 15.792969 1.167969 L 15.832031 1.035156 L 15.886719 0.910156 L 15.949219 0.785156 L 16.023438 0.671875 L 16.105469 0.5625 L 16.199219 0.460938 L 16.300781 0.367188 L 16.410156 0.285156 L 16.523438 0.210938 L 16.644531 0.148438 L 16.773438 0.09375 L 16.902344 0.0546875 L 17.039062 0.0234375 L 17.175781 0.0078125 L 17.3125 0 L 22.03125 0 L 22.171875 0.0078125 L 22.304688 0.0234375 L 22.441406 0.0546875 L 22.570312 0.09375 L 22.699219 0.148438 L 22.820312 0.210938 L 22.933594 0.285156 L 23.042969 0.367188 L 23.144531 0.460938 L 23.238281 0.5625 L 23.320312 0.671875 L 23.394531 0.785156 L 23.460938 0.910156 L 23.511719 1.035156 L 23.554688 1.167969 L 23.582031 1.300781 L 23.601562 1.4375 L 23.605469 1.574219 L 23.605469 15.738281 L 23.613281 15.875 L 23.628906 16.011719 L 23.660156 16.144531 L 23.703125 16.277344 L 23.753906 16.402344 L 23.816406 16.523438 L 23.890625 16.640625 L 23.976562 16.75 L 24.066406 16.851562 L 24.167969 16.941406 L 24.277344 17.027344 L 24.394531 17.101562 L 24.515625 17.164062 L 24.640625 17.214844 L 24.773438 17.257812 L 24.90625 17.289062 L 25.042969 17.304688 L 25.179688 17.3125 L 258.097656 17.3125 L 258.234375 17.316406 L 258.371094 17.335938 L 258.503906 17.363281 L 258.636719 17.40625 L 258.761719 17.457031 L 258.886719 17.523438 L 259 17.597656 L 259.109375 17.679688 L 259.210938 17.773438 L 259.304688 17.875 L 259.386719 17.984375 L 259.460938 18.097656 L 259.523438 18.21875 L 259.578125 18.347656 L 259.617188 18.476562 L 259.648438 18.613281 L 259.667969 18.75 L 259.671875 18.886719 L 259.671875 23.605469 L 259.667969 23.742188 L 259.648438 23.878906 L 259.617188 24.015625 L 259.578125 24.144531 L 259.523438 24.273438 L 259.460938 24.394531 L 259.386719 24.507812 L 259.304688 24.617188 L 259.210938 24.71875 L 259.109375 24.8125 L 259 24.894531 L 258.886719 24.96875 L 258.761719 25.03125 L 258.636719 25.085938 L 258.503906 25.125 L 258.371094 25.15625 L 258.234375 25.175781 L 258.097656 25.179688 L 25.179688 25.179688 L 25.042969 25.1875 L 24.90625 25.203125 L 24.773438 25.234375 L 24.640625 25.273438 L 24.515625 25.328125 L 24.394531 25.390625 L 24.277344 25.464844 L 24.167969 25.546875 L 24.066406 25.640625 L 23.976562 25.742188 L 23.890625 25.851562 L 23.816406 25.96875 L 23.753906 26.089844 L 23.703125 26.214844 L 23.660156 26.347656 L 23.628906 26.480469 L 23.613281 26.617188 L 23.605469 26.753906 L 23.605469 40.917969 L 23.613281 41.054688 L 23.628906 41.191406 L 23.660156 41.324219 L 23.703125 41.457031 L 23.753906 41.582031 L 23.816406 41.703125 L 23.890625 41.820312 L 23.976562 41.929688 L 24.066406 42.03125 L 24.167969 42.125 L 24.277344 42.207031 L 24.394531 42.28125 L 24.515625 42.34375 L 24.640625 42.398438 L 24.773438 42.4375 L 24.90625 42.46875 L 25.042969 42.484375 L 25.179688 42.492188 L 258.097656 42.492188 L 258.234375 42.496094 L 258.371094 42.515625 L 258.503906 42.546875 L 258.636719 42.585938 L 258.761719 42.640625 L 258.886719 42.703125 L 259 42.777344 L 259.109375 42.859375 L 259.210938 42.953125 L 259.304688 43.054688 L 259.386719 43.164062 L 259.460938 43.277344 L 259.523438 43.402344 L 259.578125 43.527344 L 259.617188 43.660156 L 259.648438 43.792969 L 259.667969 43.929688 L 259.671875 44.066406 L 259.671875 48.785156 L 259.667969 48.925781 L 259.648438 49.058594 L 259.617188 49.195312 L 259.578125 49.324219 L 259.523438 49.453125 L 259.460938 49.574219 L 259.386719 49.691406 L 259.304688 49.796875 L 259.210938 49.898438 L 259.109375 49.992188 L 259 50.074219 L 258.886719 50.148438 L 258.761719 50.214844 L 258.636719 50.265625 L 258.503906 50.308594 L 258.371094 50.335938 L 258.234375 50.355469 L 258.097656 50.359375 Z M 25.179688 50.359375 "/>
<path fill-rule="nonzero" fill="rgb(0%, 32.9412%, 75.6863%)" fill-opacity="0.5" d="M 20.453125 50.636719 L 20.453125 49.613281 L 20.460938 49.609375 L 20.558594 49.574219 L 20.648438 49.535156 L 20.738281 49.492188 L 20.820312 49.441406 L 20.898438 49.386719 L 20.972656 49.324219 L 21.042969 49.257812 L 21.109375 49.1875 L 21.171875 49.113281 L 21.230469 49.03125 L 21.285156 48.941406 L 21.335938 48.851562 L 21.382812 48.75 L 21.425781 48.648438 L 21.464844 48.539062 L 21.5 48.425781 L 21.535156 48.304688 L 21.5625 48.179688 L 21.589844 48.046875 L 21.613281 47.910156 L 21.632812 47.769531 L 21.648438 47.621094 L 21.660156 47.46875 L 21.675781 47.148438 L 21.675781 46.8125 L 21.667969 46.648438 L 21.660156 46.496094 L 21.648438 46.34375 L 21.632812 46.203125 L 21.613281 46.0625 L 21.589844 45.929688 L 21.566406 45.800781 L 21.535156 45.679688 L 21.503906 45.5625 L 21.46875 45.453125 L 21.429688 45.34375 L 21.386719 45.246094 L 21.339844 45.148438 L 21.238281 44.976562 L 21.179688 44.898438 L 21.117188 44.824219 L 21.050781 44.757812 L 20.980469 44.691406 L 20.90625 44.636719 L 20.828125 44.582031 L 20.742188 44.535156 L 20.65625 44.492188 L 20.5625 44.453125 L 20.464844 44.417969 L 20.453125 44.417969 L 20.453125 43.394531 L 20.515625 43.402344 L 20.589844 43.414062 L 20.664062 43.429688 L 20.734375 43.441406 L 20.808594 43.460938 L 20.878906 43.480469 L 20.945312 43.5 L 21.015625 43.523438 L 21.082031 43.546875 L 21.152344 43.570312 L 21.214844 43.601562 L 21.28125 43.628906 L 21.34375 43.660156 L 21.410156 43.695312 L 21.46875 43.730469 L 21.53125 43.765625 L 21.648438 43.84375 L 21.757812 43.929688 L 21.867188 44.023438 L 22.019531 44.175781 L 22.066406 44.230469 L 22.207031 44.40625 L 22.25 44.46875 L 22.289062 44.53125 L 22.332031 44.597656 L 22.371094 44.664062 L 22.410156 44.734375 L 22.480469 44.875 L 22.511719 44.949219 L 22.546875 45.023438 L 22.578125 45.101562 L 22.605469 45.183594 L 22.632812 45.261719 L 22.660156 45.34375 L 22.6875 45.429688 L 22.710938 45.515625 L 22.730469 45.601562 L 22.753906 45.691406 L 22.773438 45.785156 L 22.789062 45.875 L 22.804688 45.96875 L 22.820312 46.066406 L 22.84375 46.261719 L 22.855469 46.363281 L 22.863281 46.464844 L 22.871094 46.570312 L 22.875 46.675781 L 22.882812 46.894531 L 22.882812 47.152344 L 22.875 47.296875 L 22.871094 47.4375 L 22.859375 47.578125 L 22.847656 47.710938 L 22.832031 47.847656 L 22.816406 47.976562 L 22.796875 48.101562 L 22.773438 48.226562 L 22.71875 48.46875 L 22.6875 48.582031 L 22.652344 48.695312 L 22.617188 48.804688 L 22.578125 48.914062 L 22.535156 49.015625 L 22.488281 49.117188 L 22.445312 49.214844 L 22.34375 49.402344 L 22.234375 49.574219 L 22.175781 49.65625 L 22.113281 49.734375 L 21.988281 49.882812 L 21.921875 49.953125 L 21.851562 50.015625 L 21.78125 50.082031 L 21.707031 50.140625 L 21.550781 50.25 L 21.472656 50.300781 L 21.386719 50.347656 L 21.304688 50.390625 L 21.132812 50.46875 L 21.042969 50.5 L 20.949219 50.53125 L 20.859375 50.558594 L 20.761719 50.582031 L 20.667969 50.605469 L 20.566406 50.621094 L 20.46875 50.636719 Z M 17.949219 53.507812 L 16.785156 53.507812 L 16.785156 43.5 L 17.753906 43.5 L 17.898438 44.460938 L 17.949219 44.460938 L 18.003906 44.375 L 18.03125 44.335938 L 18.0625 44.292969 L 18.089844 44.253906 L 18.121094 44.21875 L 18.148438 44.179688 L 18.179688 44.144531 L 18.210938 44.105469 L 18.246094 44.070312 L 18.277344 44.035156 L 18.34375 43.96875 L 18.484375 43.84375 L 18.640625 43.734375 L 18.679688 43.710938 L 18.722656 43.683594 L 18.808594 43.636719 L 18.851562 43.617188 L 18.894531 43.59375 L 19.035156 43.535156 L 19.082031 43.519531 L 19.132812 43.5 L 19.179688 43.484375 L 19.230469 43.472656 L 19.285156 43.457031 L 19.335938 43.445312 L 19.5 43.410156 L 19.5 44.34375 L 19.445312 44.351562 L 19.339844 44.367188 L 19.238281 44.390625 L 19.140625 44.414062 L 19.046875 44.445312 L 18.875 44.523438 L 18.792969 44.570312 L 18.714844 44.621094 L 18.640625 44.679688 L 18.574219 44.738281 L 18.507812 44.804688 L 18.449219 44.875 L 18.390625 44.949219 L 18.335938 45.03125 L 18.289062 45.113281 L 18.242188 45.203125 L 18.199219 45.296875 L 18.160156 45.394531 L 18.121094 45.496094 L 18.089844 45.601562 L 18.0625 45.710938 L 18.035156 45.824219 L 18.011719 45.941406 L 17.992188 46.066406 L 17.980469 46.191406 L 17.964844 46.324219 L 17.957031 46.457031 L 17.953125 46.597656 L 17.949219 46.742188 L 17.949219 47.003906 L 17.957031 47.308594 L 17.964844 47.453125 L 17.976562 47.59375 L 17.988281 47.730469 L 18.027344 47.996094 L 18.050781 48.121094 L 18.078125 48.242188 L 18.105469 48.359375 L 18.140625 48.472656 L 18.175781 48.582031 L 18.214844 48.6875 L 18.257812 48.789062 L 18.300781 48.882812 L 18.351562 48.976562 L 18.402344 49.066406 L 18.460938 49.148438 L 18.523438 49.222656 L 18.589844 49.296875 L 18.664062 49.359375 L 18.742188 49.421875 L 18.824219 49.476562 L 18.914062 49.523438 L 19.007812 49.566406 L 19.105469 49.601562 L 19.207031 49.632812 L 19.316406 49.660156 L 19.429688 49.679688 L 19.5 49.6875 L 19.5 50.613281 L 19.453125 50.605469 L 19.34375 50.582031 L 19.292969 50.566406 L 19.238281 50.550781 L 19.136719 50.519531 L 19.089844 50.5 L 19.039062 50.480469 L 18.945312 50.441406 L 18.898438 50.417969 L 18.855469 50.398438 L 18.808594 50.375 L 18.722656 50.328125 L 18.679688 50.300781 L 18.640625 50.277344 L 18.484375 50.167969 L 18.449219 50.136719 L 18.414062 50.109375 L 18.308594 50.015625 L 18.277344 49.988281 L 18.148438 49.859375 L 18.121094 49.828125 L 18.089844 49.792969 L 18.0625 49.761719 L 18.03125 49.726562 L 18.003906 49.695312 L 17.949219 49.625 L 17.871094 49.625 L 17.882812 49.6875 L 17.894531 49.785156 L 17.902344 49.847656 L 17.910156 49.914062 L 17.917969 49.976562 L 17.921875 50.042969 L 17.929688 50.109375 L 17.9375 50.210938 L 17.941406 50.277344 L 17.945312 50.378906 L 17.949219 50.445312 Z M 27.96875 50.636719 L 27.96875 49.582031 L 28.027344 49.570312 L 28.140625 49.535156 L 28.253906 49.496094 L 28.359375 49.449219 L 28.460938 49.394531 L 28.558594 49.332031 L 28.648438 49.265625 L 28.738281 49.1875 L 28.820312 49.105469 L 28.902344 49.015625 L 28.976562 48.917969 L 29.046875 48.8125 L 29.113281 48.703125 L 29.175781 48.582031 L 29.230469 48.453125 L 29.285156 48.320312 L 29.335938 48.175781 L 29.382812 48.023438 L 29.425781 47.867188 L 29.460938 47.699219 L 29.496094 47.523438 L 29.527344 47.339844 L 29.550781 47.148438 L 29.574219 46.949219 L 29.589844 46.742188 L 29.605469 46.527344 L 29.617188 46.304688 L 29.621094 46.074219 L 29.625 45.835938 L 29.621094 45.683594 L 29.621094 45.53125 L 29.617188 45.382812 L 29.609375 45.238281 L 29.601562 45.097656 L 29.59375 44.960938 L 29.582031 44.824219 L 29.566406 44.695312 L 29.554688 44.566406 L 29.535156 44.441406 L 29.519531 44.316406 L 29.5 44.199219 L 29.453125 43.972656 L 29.425781 43.863281 L 29.402344 43.757812 L 29.371094 43.65625 L 29.359375 43.613281 L 27.96875 45.949219 L 27.96875 43.945312 L 28.78125 42.566406 L 28.769531 42.554688 L 28.652344 42.445312 L 28.589844 42.398438 L 28.464844 42.3125 L 28.394531 42.273438 L 28.328125 42.238281 L 28.257812 42.207031 L 28.109375 42.152344 L 27.96875 42.117188 L 27.96875 41.0625 L 28.050781 41.070312 L 28.175781 41.089844 L 28.296875 41.117188 L 28.414062 41.144531 L 28.527344 41.175781 L 28.636719 41.214844 L 28.746094 41.257812 L 28.851562 41.300781 L 28.953125 41.351562 L 29.148438 41.46875 L 29.238281 41.53125 L 29.328125 41.601562 L 29.414062 41.671875 L 29.5 41.75 L 29.578125 41.828125 L 29.65625 41.914062 L 29.730469 42.003906 L 29.800781 42.09375 L 29.871094 42.191406 L 29.9375 42.292969 L 30 42.394531 L 30.058594 42.503906 L 30.117188 42.617188 L 30.171875 42.734375 L 30.222656 42.855469 L 30.316406 43.105469 L 30.359375 43.238281 L 30.398438 43.375 L 30.433594 43.515625 L 30.46875 43.660156 L 30.5 43.804688 L 30.53125 43.957031 L 30.558594 44.109375 L 30.582031 44.265625 L 30.605469 44.425781 L 30.625 44.589844 L 30.640625 44.757812 L 30.664062 45.101562 L 30.675781 45.28125 L 30.679688 45.460938 L 30.6875 45.835938 L 30.683594 45.976562 L 30.683594 46.117188 L 30.675781 46.390625 L 30.660156 46.65625 L 30.652344 46.785156 L 30.640625 46.914062 L 30.617188 47.164062 L 30.601562 47.289062 L 30.585938 47.40625 L 30.570312 47.527344 L 30.550781 47.640625 L 30.53125 47.757812 L 30.507812 47.867188 L 30.484375 47.980469 L 30.460938 48.085938 L 30.4375 48.195312 L 30.40625 48.296875 L 30.378906 48.398438 L 30.347656 48.5 L 30.316406 48.597656 L 30.28125 48.695312 L 30.246094 48.789062 L 30.210938 48.878906 L 30.171875 48.96875 L 30.132812 49.054688 L 30.089844 49.140625 L 30.003906 49.304688 L 29.910156 49.460938 L 29.859375 49.535156 L 29.757812 49.675781 L 29.703125 49.746094 L 29.527344 49.933594 L 29.464844 49.992188 L 29.402344 50.046875 L 29.335938 50.101562 L 29.269531 50.152344 L 29.199219 50.203125 L 29.128906 50.246094 L 29.054688 50.292969 L 28.980469 50.335938 L 28.90625 50.375 L 28.828125 50.410156 L 28.746094 50.445312 L 28.664062 50.476562 L 28.578125 50.507812 L 28.492188 50.535156 L 28.40625 50.558594 L 28.316406 50.582031 L 28.222656 50.601562 L 28.128906 50.617188 L 28.035156 50.628906 Z M 27.019531 50.628906 L 27.003906 50.625 L 26.882812 50.605469 L 26.765625 50.582031 L 26.648438 50.550781 L 26.535156 50.519531 L 26.425781 50.480469 L 26.316406 50.4375 L 26.214844 50.390625 L 26.113281 50.335938 L 26.015625 50.28125 L 25.828125 50.15625 L 25.742188 50.085938 L 25.65625 50.011719 L 25.574219 49.933594 L 25.492188 49.851562 L 25.417969 49.765625 L 25.34375 49.675781 L 25.273438 49.582031 L 25.203125 49.484375 L 25.136719 49.382812 L 25.074219 49.277344 L 25.015625 49.167969 L 24.960938 49.054688 L 24.90625 48.9375 L 24.804688 48.6875 L 24.761719 48.558594 L 24.71875 48.425781 L 24.679688 48.289062 L 24.640625 48.148438 L 24.605469 48.003906 L 24.574219 47.859375 L 24.519531 47.554688 L 24.496094 47.398438 L 24.472656 47.238281 L 24.453125 47.074219 L 24.421875 46.738281 L 24.410156 46.5625 L 24.402344 46.386719 L 24.394531 46.207031 L 24.390625 46.023438 L 24.390625 45.648438 L 24.394531 45.460938 L 24.402344 45.28125 L 24.410156 45.105469 L 24.421875 44.929688 L 24.433594 44.757812 L 24.449219 44.589844 L 24.46875 44.429688 L 24.515625 44.109375 L 24.539062 43.957031 L 24.566406 43.808594 L 24.597656 43.664062 L 24.632812 43.519531 L 24.667969 43.382812 L 24.707031 43.246094 L 24.746094 43.113281 L 24.789062 42.988281 L 24.835938 42.863281 L 24.886719 42.742188 L 24.9375 42.625 L 24.996094 42.515625 L 25.050781 42.40625 L 25.113281 42.300781 L 25.179688 42.199219 L 25.246094 42.105469 L 25.316406 42.011719 L 25.386719 41.921875 L 25.542969 41.757812 L 25.625 41.679688 L 25.707031 41.605469 L 25.886719 41.472656 L 26.082031 41.355469 L 26.183594 41.304688 L 26.285156 41.257812 L 26.394531 41.214844 L 26.621094 41.144531 L 26.863281 41.089844 L 26.988281 41.070312 L 27.019531 41.066406 L 27.019531 42.132812 L 26.957031 42.148438 L 26.882812 42.171875 L 26.8125 42.199219 L 26.742188 42.230469 L 26.609375 42.300781 L 26.546875 42.339844 L 26.488281 42.382812 L 26.429688 42.429688 L 26.371094 42.480469 L 26.316406 42.53125 L 26.261719 42.585938 L 26.210938 42.644531 L 26.164062 42.707031 L 26.113281 42.773438 L 26.070312 42.84375 L 26.023438 42.914062 L 25.984375 42.992188 L 25.941406 43.070312 L 25.902344 43.152344 L 25.867188 43.238281 L 25.832031 43.328125 L 25.796875 43.421875 L 25.765625 43.515625 L 25.738281 43.617188 L 25.707031 43.71875 L 25.683594 43.824219 L 25.660156 43.933594 L 25.636719 44.046875 L 25.613281 44.164062 L 25.59375 44.28125 L 25.578125 44.40625 L 25.546875 44.664062 L 25.535156 44.796875 L 25.511719 45.078125 L 25.507812 45.222656 L 25.5 45.371094 L 25.492188 45.675781 L 25.492188 45.835938 L 25.496094 46.0625 L 25.5 46.277344 L 25.507812 46.488281 L 25.523438 46.695312 L 25.539062 46.894531 L 25.558594 47.085938 L 25.582031 47.269531 L 25.609375 47.449219 L 25.640625 47.621094 L 25.675781 47.785156 L 25.683594 47.816406 L 27.019531 45.554688 L 27.019531 47.554688 L 26.164062 48.992188 L 26.230469 49.074219 L 26.3125 49.160156 L 26.398438 49.242188 L 26.488281 49.316406 L 26.582031 49.378906 L 26.683594 49.4375 L 26.789062 49.488281 L 26.898438 49.53125 L 27.015625 49.566406 L 27.019531 49.566406 Z M 267.546875 24.902344 L 267.546875 25.929688 L 267.539062 25.929688 L 267.441406 25.964844 L 267.351562 26.003906 L 267.261719 26.050781 L 267.179688 26.101562 L 267.101562 26.15625 L 267.027344 26.214844 L 266.957031 26.28125 L 266.890625 26.351562 L 266.828125 26.429688 L 266.769531 26.511719 L 266.714844 26.597656 L 266.664062 26.691406 L 266.617188 26.789062 L 266.574219 26.894531 L 266.535156 27.003906 L 266.5 27.117188 L 266.464844 27.238281 L 266.4375 27.363281 L 266.410156 27.492188 L 266.386719 27.628906 L 266.367188 27.773438 L 266.351562 27.917969 L 266.339844 28.070312 L 266.332031 28.230469 L 266.324219 28.394531 L 266.324219 28.730469 L 266.332031 28.890625 L 266.339844 29.046875 L 266.351562 29.195312 L 266.367188 29.339844 L 266.386719 29.476562 L 266.410156 29.613281 L 266.433594 29.738281 L 266.464844 29.863281 L 266.496094 29.976562 L 266.53125 30.089844 L 266.570312 30.195312 L 266.613281 30.296875 L 266.660156 30.390625 L 266.710938 30.480469 L 266.761719 30.5625 L 266.820312 30.640625 L 266.882812 30.714844 L 266.949219 30.785156 L 267.019531 30.847656 L 267.09375 30.90625 L 267.171875 30.960938 L 267.257812 31.007812 L 267.34375 31.050781 L 267.4375 31.089844 L 267.535156 31.121094 L 267.546875 31.125 L 267.546875 32.144531 L 267.484375 32.136719 L 267.335938 32.113281 L 267.265625 32.097656 L 267.191406 32.082031 L 267.121094 32.0625 L 267.054688 32.042969 L 266.984375 32.019531 L 266.917969 31.996094 L 266.847656 31.96875 L 266.785156 31.941406 L 266.71875 31.910156 L 266.65625 31.878906 L 266.589844 31.847656 L 266.53125 31.8125 L 266.46875 31.773438 L 266.410156 31.738281 L 266.351562 31.695312 L 266.242188 31.609375 L 266.132812 31.515625 L 266.082031 31.46875 L 266.03125 31.417969 L 265.980469 31.363281 L 265.886719 31.253906 L 265.839844 31.195312 L 265.792969 31.132812 L 265.75 31.074219 L 265.710938 31.007812 L 265.667969 30.945312 L 265.628906 30.875 L 265.589844 30.808594 L 265.554688 30.738281 L 265.519531 30.664062 L 265.488281 30.589844 L 265.453125 30.515625 L 265.421875 30.4375 L 265.394531 30.359375 L 265.3125 30.113281 L 265.289062 30.027344 L 265.269531 29.9375 L 265.246094 29.847656 L 265.226562 29.757812 L 265.195312 29.570312 L 265.179688 29.472656 L 265.15625 29.277344 L 265.144531 29.175781 L 265.136719 29.074219 L 265.128906 28.96875 L 265.121094 28.757812 L 265.117188 28.648438 L 265.117188 28.390625 L 265.125 28.246094 L 265.128906 28.101562 L 265.152344 27.828125 L 265.167969 27.695312 L 265.183594 27.566406 L 265.203125 27.4375 L 265.226562 27.3125 L 265.253906 27.191406 L 265.28125 27.074219 L 265.3125 26.957031 L 265.347656 26.84375 L 265.382812 26.734375 L 265.421875 26.628906 L 265.464844 26.523438 L 265.511719 26.421875 L 265.554688 26.324219 L 265.605469 26.230469 L 265.65625 26.140625 L 265.710938 26.050781 L 265.765625 25.96875 L 265.824219 25.886719 L 265.886719 25.804688 L 265.949219 25.730469 L 266.011719 25.660156 L 266.078125 25.589844 L 266.148438 25.523438 L 266.21875 25.460938 L 266.292969 25.402344 L 266.371094 25.34375 L 266.527344 25.242188 L 266.613281 25.195312 L 266.695312 25.152344 L 266.78125 25.109375 L 266.867188 25.074219 L 266.957031 25.039062 L 267.050781 25.007812 L 267.140625 24.980469 L 267.238281 24.957031 L 267.332031 24.9375 L 267.433594 24.917969 L 267.53125 24.90625 Z M 270.050781 22.03125 L 271.214844 22.03125 L 271.214844 32.039062 L 270.246094 32.039062 L 270.101562 31.082031 L 270.050781 31.082031 L 270.023438 31.125 L 269.996094 31.164062 L 269.96875 31.207031 L 269.9375 31.246094 L 269.910156 31.285156 L 269.878906 31.324219 L 269.851562 31.363281 L 269.789062 31.433594 L 269.753906 31.46875 L 269.691406 31.539062 L 269.515625 31.695312 L 269.476562 31.722656 L 269.4375 31.753906 L 269.398438 31.78125 L 269.359375 31.804688 L 269.320312 31.832031 L 269.148438 31.925781 L 269.105469 31.945312 L 268.917969 32.023438 L 268.867188 32.039062 L 268.820312 32.054688 L 268.769531 32.070312 L 268.714844 32.082031 L 268.664062 32.097656 L 268.554688 32.121094 L 268.5 32.128906 L 268.5 31.195312 L 268.554688 31.191406 L 268.660156 31.175781 L 268.761719 31.152344 L 268.859375 31.125 L 268.953125 31.09375 L 269.039062 31.058594 L 269.125 31.015625 L 269.207031 30.96875 L 269.285156 30.917969 L 269.359375 30.863281 L 269.425781 30.800781 L 269.492188 30.734375 L 269.550781 30.664062 L 269.609375 30.589844 L 269.664062 30.511719 L 269.710938 30.425781 L 269.757812 30.335938 L 269.800781 30.246094 L 269.839844 30.148438 L 269.878906 30.046875 L 269.910156 29.941406 L 269.9375 29.832031 L 269.964844 29.71875 L 269.988281 29.597656 L 270.007812 29.476562 L 270.019531 29.347656 L 270.035156 29.21875 L 270.042969 29.082031 L 270.046875 28.945312 L 270.050781 28.800781 L 270.050781 28.539062 L 270.046875 28.382812 L 270.042969 28.234375 L 270.035156 28.089844 L 270.023438 27.945312 L 270.011719 27.808594 L 269.992188 27.675781 L 269.972656 27.546875 L 269.949219 27.421875 L 269.921875 27.300781 L 269.894531 27.183594 L 269.859375 27.070312 L 269.824219 26.960938 L 269.785156 26.855469 L 269.742188 26.753906 L 269.699219 26.65625 L 269.648438 26.5625 L 269.597656 26.476562 L 269.539062 26.394531 L 269.476562 26.316406 L 269.410156 26.246094 L 269.335938 26.179688 L 269.257812 26.121094 L 269.175781 26.066406 L 269.085938 26.019531 L 268.992188 25.976562 L 268.894531 25.9375 L 268.792969 25.90625 L 268.683594 25.882812 L 268.570312 25.863281 L 268.5 25.851562 L 268.5 24.925781 L 268.546875 24.933594 L 268.601562 24.945312 L 268.65625 24.960938 L 268.707031 24.972656 L 268.761719 24.988281 L 268.8125 25.003906 L 268.863281 25.023438 L 268.910156 25.042969 L 268.960938 25.058594 L 269.007812 25.082031 L 269.101562 25.121094 L 269.144531 25.144531 L 269.191406 25.167969 L 269.320312 25.238281 L 269.359375 25.265625 L 269.398438 25.289062 L 269.476562 25.34375 L 269.515625 25.375 L 269.550781 25.402344 L 269.585938 25.433594 L 269.621094 25.460938 L 269.691406 25.523438 L 269.753906 25.585938 L 269.789062 25.617188 L 269.851562 25.679688 L 269.878906 25.714844 L 269.910156 25.746094 L 269.9375 25.78125 L 269.96875 25.8125 L 269.996094 25.847656 L 270.023438 25.878906 L 270.050781 25.914062 L 270.128906 25.914062 L 270.117188 25.851562 L 270.105469 25.757812 L 270.097656 25.691406 L 270.089844 25.628906 L 270.082031 25.5625 L 270.078125 25.496094 L 270.070312 25.429688 L 270.0625 25.328125 L 270.058594 25.261719 L 270.054688 25.164062 L 270.050781 25.097656 Z M 257.578125 25.007812 L 262.652344 25.007812 L 262.652344 25.796875 L 260.683594 25.929688 L 260.683594 31.144531 L 260.679688 31.441406 L 260.675781 31.863281 L 260.667969 32.125 L 260.660156 32.429688 L 260.648438 32.71875 L 260.636719 33.09375 L 260.632812 33.167969 L 260.710938 33.125 L 260.785156 33.085938 L 260.832031 33.058594 L 260.902344 33.023438 L 261.082031 32.9375 L 261.257812 32.851562 L 261.523438 32.722656 L 262.613281 32.15625 L 263.125 33.050781 L 260.515625 34.375 L 259.554688 34.375 L 259.554688 25.929688 L 257.578125 25.796875 Z M 257.578125 25.007812 "/>
</svg>
