<?xml version="1.0" encoding="UTF-8"?>
<svg xmlns="http://www.w3.org/2000/svg" xmlns:xlink="http://www.w3.org/1999/xlink" width="432" height="72" viewBox="0 0 432 72">
<path fill-rule="nonzero" fill="rgb(54.902%, 23.5294%, 100%)" fill-opacity="0.5" d="M 402.710938 51.253906 L 395.390625 43.933594 L 395.390625 21.964844 L 402.710938 14.644531 L 424.679688 14.644531 L 432 21.964844 L 432 36.609375 L 402.710938 36.609375 L 402.710938 29.289062 L 424.679688 29.289062 L 424.679688 21.964844 L 402.710938 21.964844 L 402.710938 43.933594 L 424.679688 43.933594 L 424.679688 51.253906 Z M 351.457031 0 L 388.066406 0 L 388.066406 7.320312 L 358.78125 7.320312 L 358.78125 21.964844 L 380.746094 21.964844 L 380.746094 29.289062 L 358.78125 29.289062 L 358.78125 43.933594 L 388.066406 43.933594 L 388.066406 51.253906 L 351.457031 51.253906 Z M 336.8125 21.964844 L 336.8125 0 L 344.136719 0 L 344.136719 51.253906 L 314.847656 51.253906 L 314.847656 43.933594 L 336.8125 43.933594 L 336.8125 29.289062 L 329.492188 29.289062 L 322.167969 21.964844 L 314.847656 21.964844 L 314.847656 51.253906 L 307.527344 43.933594 L 307.527344 21.964844 L 314.847656 14.644531 L 322.167969 14.644531 L 329.492188 21.964844 Z M 300.203125 14.644531 L 300.203125 36.609375 L 285.558594 51.253906 L 270.914062 51.253906 L 270.914062 43.933594 L 285.558594 43.933594 L 292.882812 36.609375 L 292.882812 14.644531 L 285.558594 7.320312 L 270.914062 7.320312 L 270.914062 51.253906 L 263.59375 51.253906 L 263.59375 0 L 285.558594 0 Z M 226.984375 43.933594 L 248.949219 43.933594 L 248.949219 36.609375 L 256.269531 36.609375 L 256.269531 43.933594 L 248.949219 51.253906 L 226.984375 51.253906 L 219.660156 43.933594 L 219.660156 21.964844 L 226.984375 14.644531 L 248.949219 14.644531 L 248.949219 21.964844 L 226.984375 21.964844 Z M 183.050781 43.933594 L 205.015625 43.933594 L 205.015625 36.609375 L 212.339844 36.609375 L 212.339844 43.933594 L 205.015625 51.253906 L 183.050781 51.253906 L 175.730469 43.933594 L 175.730469 7.320312 L 183.050781 0 L 205.015625 0 L 212.339844 7.320312 L 212.339844 14.644531 L 205.015625 14.644531 L 205.015625 7.320312 L 183.050781 7.320312 Z M 153.761719 14.644531 L 161.085938 14.644531 L 168.40625 21.964844 L 168.40625 43.933594 L 161.085938 51.253906 L 139.117188 51.253906 L 139.117188 43.933594 L 161.085938 43.933594 L 161.085938 21.964844 L 153.761719 21.964844 L 146.441406 29.289062 L 139.117188 29.289062 L 139.117188 51.253906 L 131.796875 51.253906 L 131.796875 0 L 139.117188 0 L 139.117188 21.964844 L 146.441406 21.964844 Z M 117.152344 21.964844 L 117.152344 29.289062 L 124.472656 36.609375 L 124.472656 43.933594 L 117.152344 51.253906 L 95.1875 51.253906 L 95.1875 21.964844 L 109.832031 21.964844 L 117.152344 14.644531 L 117.152344 7.320312 L 95.1875 7.320312 L 95.1875 51.253906 L 95.1875 43.933594 L 117.152344 43.933594 L 117.152344 36.609375 L 109.832031 29.289062 L 95.1875 29.289062 L 95.1875 51.253906 L 87.863281 51.253906 L 87.863281 0 L 117.152344 0 L 124.472656 7.320312 L 124.472656 14.644531 Z M 51.253906 14.644531 L 73.21875 14.644531 L 80.542969 21.964844 L 80.542969 51.253906 L 51.253906 51.253906 L 51.253906 43.933594 L 73.21875 43.933594 L 73.21875 36.609375 L 51.253906 36.609375 L 51.253906 51.253906 L 43.933594 43.933594 L 43.933594 36.609375 L 51.253906 29.289062 L 73.21875 29.289062 L 73.21875 21.964844 L 51.253906 21.964844 Z M 7.320312 0 L 29.289062 0 L 36.609375 7.320312 L 36.609375 51.253906 L 29.289062 51.253906 L 29.289062 36.609375 L 7.320312 36.609375 L 7.320312 29.289062 L 29.289062 29.289062 L 29.289062 7.320312 L 7.320312 7.320312 L 7.320312 51.253906 L 0 51.253906 L 0 7.320312 Z M 7.320312 0 "/>
</svg>
