<?xml version="1.0" encoding="UTF-8"?>
<svg xmlns="http://www.w3.org/2000/svg" xmlns:xlink="http://www.w3.org/1999/xlink" width="288" height="288" viewBox="0 0 288 288">
<path fill-rule="nonzero" fill="rgb(54.902%, 23.5294%, 100%)" fill-opacity="0.5" d="M 0 187.242188 L 128.433594 187.242188 L 128.433594 189.835938 L 0 189.835938 Z M 0 192.433594 L 128.433594 192.433594 L 128.433594 195.027344 L 0 195.027344 Z M 131.027344 187.242188 L 131.109375 187.246094 L 131.191406 187.253906 L 131.269531 187.265625 L 131.351562 187.285156 L 131.429688 187.308594 L 131.503906 187.335938 L 131.578125 187.367188 L 131.652344 187.402344 L 131.722656 187.445312 L 131.855469 187.539062 L 131.914062 187.59375 L 131.972656 187.652344 L 132.027344 187.714844 L 132.078125 187.777344 L 132.121094 187.84375 L 132.164062 187.914062 L 132.234375 188.0625 L 132.261719 188.140625 L 132.285156 188.21875 L 132.300781 188.296875 L 132.3125 188.378906 L 132.320312 188.460938 L 132.324219 188.539062 L 132.324219 193.730469 L 132.320312 193.8125 L 132.3125 193.890625 L 132.300781 193.972656 L 132.285156 194.050781 L 132.261719 194.128906 L 132.234375 194.207031 L 132.164062 194.355469 L 132.121094 194.425781 L 132.078125 194.492188 L 132.027344 194.558594 L 131.972656 194.617188 L 131.914062 194.675781 L 131.855469 194.730469 L 131.722656 194.824219 L 131.652344 194.867188 L 131.503906 194.9375 L 131.429688 194.964844 L 131.351562 194.984375 L 131.269531 195.003906 L 131.191406 195.015625 L 131.109375 195.023438 L 131.027344 195.027344 L 128.433594 195.027344 L 128.433594 192.433594 L 128.515625 192.429688 L 128.59375 192.421875 L 128.675781 192.410156 L 128.753906 192.390625 L 128.832031 192.367188 L 128.910156 192.339844 L 128.984375 192.308594 L 129.058594 192.273438 L 129.128906 192.230469 L 129.195312 192.183594 L 129.320312 192.082031 L 129.378906 192.023438 L 129.433594 191.960938 L 129.480469 191.898438 L 129.527344 191.832031 L 129.570312 191.761719 L 129.605469 191.6875 L 129.636719 191.613281 L 129.667969 191.535156 L 129.707031 191.378906 L 129.71875 191.296875 L 129.726562 191.214844 L 129.730469 191.136719 L 129.726562 191.054688 L 129.71875 190.972656 L 129.707031 190.890625 L 129.667969 190.734375 L 129.636719 190.65625 L 129.605469 190.582031 L 129.570312 190.511719 L 129.527344 190.441406 L 129.480469 190.371094 L 129.433594 190.308594 L 129.378906 190.246094 L 129.320312 190.1875 L 129.195312 190.085938 L 129.128906 190.039062 L 129.058594 190 L 128.984375 189.960938 L 128.910156 189.929688 L 128.832031 189.902344 L 128.753906 189.878906 L 128.675781 189.859375 L 128.59375 189.847656 L 128.515625 189.839844 L 128.433594 189.835938 L 128.433594 187.242188 Z M 219.242188 286.703125 L 184.214844 286.703125 L 184.214844 278.917969 L 199.785156 278.917969 L 199.785156 19.460938 L 184.214844 19.460938 L 184.214844 286.703125 L 164.757812 286.703125 L 164.757812 0 L 219.242188 0 Z M 219.242188 286.703125 "/>
<path fill-rule="nonzero" fill="rgb(0%, 0%, 86.6667%)" fill-opacity="0.5" d="M 191.675781 277.621094 L 192.324219 277.621094 L 192.324219 282.488281 L 191.675781 282.488281 Z M 191.675781 283.136719 L 192.324219 283.136719 L 192.324219 288 L 191.675781 288 Z M 191.675781 283.136719 "/>
</svg>
